<?xml version="1.0" encoding="utf-8"?>
<!-- Generator: Adobe Illustrator 18.0.0, SVG Export Plug-In . SVG Version: 6.00 Build 0)  -->
<!DOCTYPE svg PUBLIC "-//W3C//DTD SVG 1.1//EN" "http://www.w3.org/Graphics/SVG/1.1/DTD/svg11.dtd">
<svg version="1.1" id="Layer_1" xmlns="http://www.w3.org/2000/svg" xmlns:xlink="http://www.w3.org/1999/xlink" x="0px" y="0px"
	 viewBox="-150 -275 750 1000" enable-background="new -150 -275 750 1000" xml:space="preserve">
<path fill="#555555" d="M192.3,640.3h307.6V172.1l9.6,14.4l78.7-52.2L499.8,1.3v-160.1H393.6L340.3-239l-78.7,52.2l18.5,27.9h-391.1
	v239L-138,30v329.5V689H40.3h178.3L192.3,640.3z M481.6,622.1H182.4l-54.1-100h58.6v76.6h13.7v-76.6H278v76.6h13.7v-76.6h77.4v76.6
	h13.7v-76.6h75.9v-13.7h-75.9V431h75.9v-13.7h-75.9v-77.4h75.9v-13.7h-75.9v-77.4h75.9v-13.7h-75.9v-77.4h75.9V144h-75.9V66.6h47.1
	l51.8,78L481.6,622.1L481.6,622.1z M-61.1,339.9l41.9,77.4h-43.6v-77.4H-61.1z M-11.8,431l16.4,30.4v47.1h-67.4v-35.2V431H-11.8z
	 M18.3,486.6l11.8,21.8H18.3V486.6z M4.7,522.1v76.6h13.7v-76.6h19.2l47.4,87.6H11.1h-73.8v-87.6H4.7z M291.6,508.4V431h77.4v77.4
	H291.6z M278,508.4h-77.4V431H278V508.4z M186.9,508.4h-66l-11.4-21.1V431h77.4V508.4z M95.8,462.1L79,431h16.8V462.1z M291.6,417.3
	v-77.4h77.4v77.4H291.6z M278,417.3h-77.4v-77.4H278V417.3z M186.9,417.3h-77.4v-77.4h77.4V417.3z M95.8,417.3H71.6l-31.3-57.8
	l-10.6-19.6h66.1L95.8,417.3L95.8,417.3z M291.6,326.2v-77.4h77.4v77.4H291.6z M278,326.2h-77.4v-77.4H278V326.2z M186.9,326.2
	h-77.4v-77.4h77.4V326.2z M95.8,326.2H22.3l-3.9-7.2v-70.2h77.4L95.8,326.2L95.8,326.2z M4.7,293.7l-24.3-44.9H4.7V293.7z
	 M291.6,235.1v-77.4h77.4v77.4H291.6z M278,235.1h-77.4v-77.4H278V235.1z M186.9,235.1h-77.4v-77.4h77.4V235.1z M95.8,235.1H18.3
	v-77.4h77.4L95.8,235.1L95.8,235.1z M4.7,235.1H-27l-41.9-77.4H4.7L4.7,235.1L4.7,235.1z M95.8-24.5v77.4H18.3v-77.4H95.8z
	 M109.4-24.5h77.4v77.4h-77.4V-24.5z M200.5-24.5H278v77.4h-77.4V-24.5z M291.6-24.5h77.4v77.4h-77.4V-24.5z M382.7-4.3l38,57.2h-38
	V-4.3z M95.8,66.6V144H18.3V66.6H95.8z M109.4,66.6h77.4V144h-77.4V66.6z M200.5,66.6H278V144h-77.4V66.6z M291.6,66.6h77.4V144
	h-77.4V66.6z M481.6-140.6v114.4l-75.9-114.4C405.6-140.6,481.6-140.6,481.6-140.6z M-92.7-140.6h385l68,102.4h-68.6v-76.6H278v76.7
	h-77.4v-76.7h-13.7v76.7h-77.4v-76.7H95.8v76.7H18.4v-76.7H4.7v76.7h-75.9v13.7H4.7v77.4h-75.9v13.7H4.7V144h-75.9v9.4l-21.4-39.6
	L-92.7-140.6L-92.7-140.6z"/>
</svg>
