<?xml version="1.0" encoding="utf-8"?>
<!-- Generator: Adobe Illustrator 18.0.0, SVG Export Plug-In . SVG Version: 6.00 Build 0)  -->
<!DOCTYPE svg PUBLIC "-//W3C//DTD SVG 1.1//EN" "http://www.w3.org/Graphics/SVG/1.1/DTD/svg11.dtd">
<svg version="1.1" id="Layer_1" xmlns="http://www.w3.org/2000/svg" xmlns:xlink="http://www.w3.org/1999/xlink" x="0px" y="0px"
	 viewBox="-131.5 -246.5 575.2 735" enable-background="new -131.5 -246.5 575.2 735" xml:space="preserve">
<path fill="#555555" d="M130.1,449.9h243.6V79.1l7.6,11.4l62.3-41.3l-70-105.3V-183h-84.1l-42.2-63.5L185-205.1l14.7,22.1h-309.8
	V6.2l-21.4-39.7v261v261H9.7h141.2L130.1,449.9z M359.2,435.5h-237l-42.8-79.2h46.4V417h10.9v-60.7H198V417h10.9v-60.7h61.3V417H281
	v-60.7h60.1v-10.9H281v-61.3h60.1v-10.9H281V212h60.1v-10.9H281v-61.3h60.1V129H281V67.7h60.1V56.8H281V-4.5h37.3l41,61.8
	L359.2,435.5L359.2,435.5z M-70.6,212l33.2,61.3h-34.5V212H-70.6z M-31.5,284.2l13,24.1v37.3h-53.4v-27.9v-33.5H-31.5z M-7.7,328.2
	l9.3,17.3h-9.3V328.2z M-18.5,356.3V417h10.9v-60.7H7.6l37.5,69.4h-58.5h-58.4v-69.4H-18.5z M208.7,345.5v-61.3H270v61.3H208.7z
	 M198,345.5h-61.3v-61.3H198V345.5z M125.8,345.5H73.6l-9-16.7v-44.6h61.3V345.5z M53.7,308.8l-13.3-24.6h13.3V308.8z M208.7,273.3
	V212H270v61.3H208.7z M198,273.3h-61.3V212H198V273.3z M125.8,273.3H64.5V212h61.3V273.3z M53.7,273.3H34.5L9.7,227.5L1.3,212h52.4
	L53.7,273.3L53.7,273.3z M208.7,201.2v-61.3H270v61.3H208.7z M198,201.2h-61.3v-61.3H198V201.2z M125.8,201.2H64.5v-61.3h61.3V201.2
	z M53.7,201.2H-4.5l-3.1-5.7v-55.6h61.3V201.2L53.7,201.2z M-18.5,175.4l-19.2-35.6h19.2V175.4z M208.7,129V67.7H270V129H208.7z
	 M198,129h-61.3V67.7H198V129z M125.8,129H64.5V67.7h61.3V129z M53.7,129H-7.7V67.7h61.3L53.7,129L53.7,129z M-18.5,129h-25.1
	l-33.2-61.3h58.3V129L-18.5,129z M53.7-76.6v61.3H-7.7v-61.3H53.7z M64.4-76.6h61.3v61.3H64.4V-76.6z M136.6-76.6H198v61.3h-61.3
	L136.6-76.6L136.6-76.6z M208.7-76.6H270v61.3h-61.3V-76.6z M280.9-60.6L311-15.3h-30.1V-60.6z M53.7-4.5v61.3H-7.7V-4.5H53.7z
	 M64.4-4.5h61.3v61.3H64.4V-4.5z M136.6-4.5H198v61.3h-61.3L136.6-4.5L136.6-4.5z M208.7-4.5H270v61.3h-61.3V-4.5z M359.2-168.6V-78
	l-60.1-90.6C299-168.6,359.2-168.6,359.2-168.6z M-95.6-168.6h304.9l53.9,81.1h-54.3v-60.7H198v60.7h-61.3v-60.7h-10.9v60.7H64.5
	v-60.7H53.7v60.7H-7.6v-60.7h-10.9v60.7h-60.1v10.9h60.1v61.3h-60.1v10.9h60.1v61.2h-60.1v7.4l-16.9-31.4L-95.6-168.6L-95.6-168.6z"
	/>
</svg>
