<?xml version="1.0" encoding="utf-8"?>
<!-- Generator: Adobe Illustrator 18.0.0, SVG Export Plug-In . SVG Version: 6.00 Build 0)  -->
<!DOCTYPE svg PUBLIC "-//W3C//DTD SVG 1.1//EN" "http://www.w3.org/Graphics/SVG/1.1/DTD/svg11.dtd">
<svg version="1.1" id="Layer_1" xmlns="http://www.w3.org/2000/svg" xmlns:xlink="http://www.w3.org/1999/xlink" x="0px" y="0px"
	 viewBox="34.2 0.5 40.4 67.8" enable-background="new 34.2 0.5 40.4 67.8" xml:space="preserve">
<g id="Captions">
</g>
<g id="Your_Icon" display="none">
	<path display="inline" d="M84.6,16.4v14.5c0,1.1-0.5,1.9-1.2,1.9h-0.3c-0.7,0-1.2-0.9-1.2-1.9v-4.2h-1v2.9c0,0.7-0.6,1.3-1.3,1.3
		h-0.3c-0.7,0-1.3-0.6-1.3-1.3v-2.7H76v0.5c0,0.5,0,0.9,0,1.3v4.1c0,0.4-0.6,0.7-1.7,1l0,19.5h7.7c0.6,0,1.1,0.5,1.1,1.1v1.7
		c0,0.6-0.5,1.1-1.1,1.1H19.7c-0.6,0-1.1-0.5-1.1-1.1v-1.7c0-0.6,0.5-1.1,1.1-1.1H54c0,0,0,0,4.4-13.4c2.9-9.6,0.1-12.9-17.8-12.5
		c-10.2,0-12.9,7.4-12.9,9.5v3c0,0.7-0.6,1.3-1.3,1.3h-1.3v3.8h-0.2v1.5h-0.4v-1.5h-0.2h-1.9v-0.9h1.9V41h0h-1.3
		c-0.7,0-1.3-0.6-1.3-1.3V17.3c0-0.7,0.6-1.3,1.3-1.3h3.5c0.7,0,19.9,7,33.7-0.4c0,0-0.1-0.7,0.5-0.7h5.1h3.6h0.8c0,0,0,0,0,0
		c0,0,0.1,0,0.1,0c4.1,0,5.7,0,5.7,1.4v4.3h1.1h0.7v-2.8c0-0.7,0.6-1.3,1.3-1.3h0.3c0.7,0,1.3,0.6,1.3,1.3v2.8h1v-4.2
		c0-1.1,0.5-1.9,1.2-1.9h0.3C84.1,14.4,84.6,15.3,84.6,16.4z"/>
</g>
<g id="Layer_9" display="none">
	<path display="inline" d="M79.5,53.7v-0.9c-0.2-7.5-3.1-10-3.1-10H58.3c0,0-0.7-0.6-0.9-2.5V29.4c0,0,0.2-10.5-9.2-8.5
		c0,0-6,1.1-8.9,0.9c-0.1-0.9-0.6-1.6-1.3-2.1l0-0.8c0-0.4-0.4-0.4-0.4-0.4l0-1c0.6,0,1.2-0.5,1.2-1.2c0-0.6-0.5-1.2-1.2-1.2h-0.4
		h-0.4c-0.1,0-0.2,0-0.3,0c0.2-0.1,0.3-0.2,0.4-0.3c2.6-0.3,12.4-1.8,12.4-1.8c1-0.1,1.7-1.1,1.6-2.1c-0.1-1-1.1-1.7-2.1-1.6
		c-0.1,0-0.1,0-0.2,0v0l-11.6,2.9c-0.3-0.4-0.8-0.6-1.3-0.6c-1,0-1.8,0.8-1.8,1.8c0,0.1,0,0.2,0,0.2v4.8h-1.1
		c-0.5,0-0.4,0.5-0.4,0.5v0.7c-0.8,0.6-1.3,1.5-1.3,2.6v12.3c0,1.6,1.1,2.9,2.7,3.1v1.4H33v-0.3c0-0.2-0.2-0.3-0.4-0.3
		c-0.2,0-0.4,0.1-0.4,0.3v1.5c0,0.2,0.2,0.3,0.4,0.3c0.2,0,0.4-0.1,0.4-0.3V40h0.8v1.1l0.5,0.6h0.2v1h-8.3c0,0-3,2.5-3.1,10v0.9
		l-1.7,1.7v4.2h59.8v-4.2L79.5,53.7z M34.9,13.5c0-0.4,0.3-0.8,0.8-0.8c0.4,0,0.8,0.3,0.8,0.8s-0.3,0.8-0.8,0.8
		C35.3,14.2,34.9,13.9,34.9,13.5z M47.6,40.3c0,0-0.2,2.4-1.5,2.4H35.7v-1h0.2l0.5-0.6V40h0.8v0.3c0,0.2,0.2,0.3,0.4,0.3
		s0.4-0.1,0.4-0.3v-1.5c0-0.2-0.2-0.3-0.4-0.3s-0.4,0.1-0.4,0.3v0.3h-0.8v-1.4c1.6-0.1,2.9-1.5,2.9-3.1v-5h6.9c0,0,1.6,0,1.6,2.1
		L47.6,40.3z"/>
</g>
<g id="Layer_11" display="none">
	<path display="inline" d="M83.1,40.5v1.7c0,0.1-0.1,0.2-0.2,0.3c-0.1,0-5.6,2.9-12.7,3.7c-2.5,0.3-5,0.4-7.4,0.4
		c-1.2,0-2.4,0-3.5-0.1c-3.1-0.2-5.9-0.6-8.1-1.2c-4.3-1.2-7.2-1.7-8-1.8c0,0-2.8-0.5-6.4-0.5l-1,2.9c0,0.1-0.2,0.2-0.3,0.2l-15.1,0
		c-0.2,0-0.3-0.1-0.3-0.3v-6.1c0-0.1,0.1-0.3,0.2-0.3c0.1,0,0.3,0,0.4,0.1l0,0c0,0,0.8,1.2,2.9,1.3c2,0.1,8.9-0.1,8.9-0.1
		c1.6,0,7,0,10.9,0.6c0.8,0.1,3.9,0.6,8.3,1.9c2.9,0.8,6.7,1.3,11,1.3c2.4,0,4.8-0.1,7.2-0.4c6.2-0.7,11.8-3.6,12.4-3.9l0.2-0.1
		c0.1-0.1,0.2,0,0.3,0C83,40.3,83.1,40.4,83.1,40.5z M24.5,40.2c0,0,3.3,0.1,8.5-0.1c0,0,2.1,0,5.1,0.1c1.7,0.1,3.4,0.2,4.9,0.5
		c2.3,0.3,4.6,0.8,6.8,1.4c0.6,0.2,1.2,0.3,1.9,0.5c2.9,0.8,6.7,1.3,10.9,1.3c2.3-0.1,4.7-0.2,7-0.5c6.9-0.8,11.7-3.4,11.7-3.4
		c0.7-0.3,0.6-1.2,0.6-1.2c-0.1-2-1.4-3-1.4-3c-0.6-0.7-3.6-0.9-4.9-0.7c-4,0.5-8.8-0.8-8.8-0.8c-2.2-0.5-6.1-2.9-8.8-4.7L56,31.8
		c-0.1,0.1-0.1,0.1-0.2,0.1c-0.1,0-0.2,0-0.2-0.1c-0.1-0.1-0.1-0.3,0-0.5l2-2c-1.3-0.9-2.3-1.6-2.3-1.6c0,0,0,0,0,0l-2.4,2.4
		c-0.1,0.1-0.1,0.1-0.2,0.1s-0.2,0-0.2-0.1c-0.1-0.1-0.1-0.3,0-0.5l2.3-2.3c-0.8-0.6-1.5-1.1-2.3-1.5l-2.6,2.6
		c-0.1,0.1-0.1,0.1-0.2,0.1c-0.1,0-0.2,0-0.2-0.1c-0.1-0.1-0.1-0.3,0-0.5l2.5-2.5c-4.7-2.8-8.2-3.2-8.2-3.2
		c-0.7-0.2-0.8,0.3-0.8,0.3l0,0.8c-1.5,0.6-5.2,1.1-9,1.5c-4.9,0.5-9.8-0.9-11.6-1.2c-0.5-0.1-0.7,0.4-0.7,0.4l-0.5,1.1
		c0,0-2.3,6-1.4,10.2c0,0,0,0.6,0.2,1.5C20.1,37.8,20.7,40.4,24.5,40.2z"/>
</g>
<g id="Layer_12" display="none">
	<path display="inline" d="M82.9,43.7v1.7c0,0.1-0.1,0.2-0.2,0.3c-0.1,0-5.5,2.9-12.6,3.7c-2.5,0.3-4.9,0.4-7.4,0.4
		c-1.2,0-2.4,0-3.5-0.1c-3-0.2-5.8-0.6-8-1.2c-4.3-1.2-7.2-1.7-7.9-1.8c0,0-2.8-0.5-6.3-0.5l-1,2.9c0,0.1-0.2,0.2-0.3,0.2l-15,0
		c-0.2,0-0.3-0.1-0.3-0.3v-6c0-0.1,0.1-0.3,0.2-0.3c0.1,0,0.3,0,0.4,0.1l0,0c0,0,0.8,1.2,2.9,1.3c2,0.1,8.9-0.1,8.9-0.1
		c1.6,0,7,0,10.9,0.6c0.8,0.1,3.8,0.6,8.3,1.9c2.9,0.8,6.7,1.3,10.9,1.3c2.4,0,4.8-0.1,7.2-0.4c6.2-0.7,11.7-3.5,12.4-3.9l0.2-0.1
		c0.1-0.1,0.2,0,0.3,0C82.8,43.5,82.9,43.6,82.9,43.7z M24.7,43.5c0,0,3.3,0.1,8.4-0.1c0,0,2.1,0,5.1,0.1c1.6,0.1,3.4,0.2,4.9,0.5
		c2.3,0.3,4.6,0.8,6.8,1.4c0.6,0.2,1.2,0.3,1.9,0.5c2.9,0.8,6.6,1.2,10.9,1.3c2.3-0.1,4.7-0.2,6.9-0.5c6.8-0.8,11.7-3.3,11.7-3.3
		c0.7-0.3,0.6-1.2,0.6-1.2c-0.1-2-1.4-2.9-1.4-2.9c-0.6-0.7-3.5-0.9-4.9-0.7c-3.9,0.5-8.8-0.8-8.8-0.8c-2.2-0.4-6.1-2.9-8.8-4.7l0,0
		c0,0,0,0,0,0c-0.4-0.3-1-0.8-1.7-1.4l-2.2,1.3c-0.1,0-0.2,0.1-0.2,0c-0.1,0-0.1-0.1-0.2-0.2c-0.1-0.2,0-0.3,0.1-0.4l2.1-1.2
		c-0.6-0.6-1.2-1.3-1.9-2.1l-2.4,1.4c-0.1,0-0.2,0.1-0.2,0c-0.1,0-0.1-0.1-0.2-0.2c-0.1-0.2,0-0.3,0.1-0.4l2.3-1.3
		c-0.6-0.7-1.2-1.4-1.7-2.1L49.1,28c-0.1,0-0.2,0.1-0.2,0c-0.1,0-0.1-0.1-0.2-0.2c-0.1-0.2,0-0.3,0.1-0.4l2.6-1.5
		c-2.4-3-4.5-5.9-4.9-6.4c-0.6-1-4.3-0.2-5-0.1v0c0,0-4.6,1.4-8.3,1.4c-5,0-8.8,0-10.6-0.3c-0.5-0.1-0.9,0.4-0.9,0.4L21.5,22
		c0,0-2.4,12.5-1.6,16.7c0,0,0,0.6,0.2,1.5C20.3,41,20.9,43.6,24.7,43.5z"/>
</g>
<g id="Your_Icon_copy" display="none">
	<path display="inline" d="M85.5,39.4c-0.3-2.1-1.8-3-1.8-3c-0.7-0.7-3.9-0.6-5.3-0.4c-4.2,0.9-9.5-0.2-9.5-0.2
		c-3.9-0.5-12.6-7.6-12.6-7.6c-6.8-5-9.8-6-9.8-6c-0.7-0.2-0.8,0.4-0.8,0.4l-1.6,13.7l0.2,0.1c0.7,0.2,1.3,0.6,1.7,1.2
		c0,0,0,0,0,0.1c0,0,0,0,0,0.1c0.3,0.4,0.4,0.9,0.5,1.5c0,0.1,0,0.2,0,0.2c0,1.5-1,2.8-2.3,3.1l-0.4,1.7c0,0.1,0,0.2,0,0.3
		c0.5,0,3.8,0.3,8.9,1.3c5.5,1.1,13.1,0.8,20-0.5c7.3-1.4,12.3-4.5,12.3-4.5C85.6,40.3,85.5,39.4,85.5,39.4z M46.8,30.1
		c-0.4,0-0.6-0.3-0.6-0.6c0-0.4,0.3-0.6,0.6-0.6c0.4,0,0.6,0.3,0.6,0.6C47.5,29.8,47.2,30.1,46.8,30.1z M48.1,40.5
		c-0.4,0-0.6-0.3-0.6-0.6c0-0.4,0.3-0.6,0.6-0.6c0.4,0,0.6,0.3,0.6,0.6C48.7,40.2,48.5,40.5,48.1,40.5z M63.5,44.5
		c-0.4,0-0.6-0.3-0.6-0.6c0-0.4,0.3-0.6,0.6-0.6c0.4,0,0.6,0.3,0.6,0.6C64.2,44.2,63.9,44.5,63.5,44.5z M41.4,37
		c-0.2,0-0.3,0-0.5,0.1l-0.1-0.4L35.3,29l-1.5-1.8l-1.8,0.5c-4.3,1.5-10.5,1.6-12.4,1.6c-0.6,0-0.7,0.5-0.7,0.5L18.5,31
		c0,0-1.6,6.7-0.1,11c0,0,0.1,0.6,0.4,1.6c0.3,0.9,1.3,3.6,5.3,2.9c0,0,3.5-0.4,9-1.2c0,0,4.8-0.7,8.3-0.7L42,42l0.2,0v0
		c1.1-0.3,1.9-1.3,1.9-2.5C44,38.1,42.8,37,41.4,37z M32.8,30.3c-0.4,0-0.7-0.3-0.7-0.6c0-0.4,0.3-0.7,0.6-0.7
		c0.4,0,0.7,0.3,0.7,0.6C33.5,30,33.2,30.3,32.8,30.3z M38.9,40.6c-0.4,0-0.7-0.3-0.7-0.6c0-0.4,0.3-0.7,0.6-0.7
		c0.4,0,0.7,0.3,0.7,0.6C39.6,40.3,39.3,40.6,38.9,40.6z"/>
</g>
<g id="Layer_20" display="none">
	<path display="inline" d="M84.2,31.8c-0.9-0.8-3.5-3-7.7-1.1c-3.8,1.7-6.7,2.7-6.7,2.7s-4.6,2.1-10.7-2l-12-9.1l-1.4-1
		c-1.9-1.5-1.7,0.8-1.7,0.8c0.1,5.5-0.6,10-0.9,11.5c1.8,0.4,3.1,1.9,3,3.8c0,1.2-0.7,2.3-1.6,3l-0.6,3.7c1.8,0.1,3.3,0.5,4.4,1
		c5.7,2.8,9.2,2.9,9.2,2.9s3.7,1.3,12.5-4.9l14.1-10.6C84.2,32.5,84.6,32.1,84.2,31.8z M50.6,41c-0.3,0-0.6-0.3-0.6-0.6
		s0.3-0.6,0.6-0.6c0.3,0,0.6,0.3,0.6,0.6S50.9,41,50.6,41z M44.4,37.2c-0.1-1.4-1.4-2.4-2.8-2.2c-0.2,0-0.3,0-0.5,0.1l-0.1-0.3
		l-6-7.2l-1.7-1.7c0,0-12,2.6-13.9,3c-0.6,0.1-0.7,0.6-0.7,0.6l-0.3,1.2c0,0-1.1,6.8,0.6,10.9c0,0,0.2,0.6,0.5,1.5
		c0.4,0.9,1.6,3.5,5.5,2.5c0,0,2.1-0.4,5.7-1.2c3.8-0.6,8.5-1.2,11.1-0.5l0.6-4h0l0,0l0,0C43.8,39.4,44.5,38.4,44.4,37.2z
		 M25.9,31.3c-0.3,0-0.6-0.3-0.6-0.6c0-0.3,0.3-0.6,0.6-0.6c0.3,0,0.6,0.3,0.6,0.6C26.5,31,26.2,31.3,25.9,31.3z M37.5,38.7
		c-0.3,0-0.6-0.3-0.6-0.6c0-0.3,0.3-0.6,0.6-0.6c0.3,0,0.6,0.3,0.6,0.6C38.1,38.4,37.8,38.7,37.5,38.7z"/>
</g>
<g id="Layer_20_copy" display="none">
	<path display="inline" d="M84.2,31.8c-0.9-0.8-3.5-3-7.7-1.1c-3.8,1.7-6.7,2.7-6.7,2.7s-4.6,2.1-10.7-2l-12-9.1l-1.4-1
		c-1.9-1.5-1.7,0.8-1.7,0.8c0.1,5.5-0.6,10-0.9,11.5c1.8,0.4,3.1,1.9,3,3.8c0,1.2-0.7,2.3-1.6,3l-0.6,3.7c1.8,0.1,3.3,0.5,4.4,1
		c5.7,2.8,9.2,2.9,9.2,2.9s3.7,1.3,12.5-4.9l14.1-10.6C84.2,32.5,84.6,32.1,84.2,31.8z M44.4,37.2c-0.1-1.4-1.4-2.4-2.8-2.2
		c-0.2,0-0.3,0-0.5,0.1l-0.1-0.3l-6-7.2l-1.7-1.7c0,0-12,2.6-13.9,3c-0.6,0.1-0.7,0.6-0.7,0.6l-0.3,1.2c0,0-1.1,6.8,0.6,10.9
		c0,0,0.2,0.6,0.5,1.5c0.4,0.9,1.6,3.5,5.5,2.5c0,0,2.1-0.4,5.7-1.2c3.8-0.6,8.5-1.2,11.1-0.5l0.6-4h0l0,0l0,0
		C43.8,39.4,44.5,38.4,44.4,37.2z"/>
</g>
<g id="Your_Icon_copy_2" display="none">
	<path display="inline" d="M84.9,40.7c0,0-5,3.2-12.3,4.5c-6.9,1.3-14.5,1.7-20,0.5c-5.1-1-8.4-1.3-8.9-1.3c0-0.1,0-0.2,0-0.3
		l0.4-1.7c1.3-0.3,2.3-1.6,2.3-3.1c0-0.1,0-0.2,0-0.2c0-0.5-0.2-1.1-0.5-1.5c0,0,0,0,0-0.1c0,0,0,0,0-0.1c-0.4-0.6-1-1-1.7-1.2
		l-0.2-0.1l1.6-13.7c0,0,0.1-0.6,0.8-0.4c0,0,3,1,9.8,6c0,0,8.7,7.1,12.6,7.6c0,0,5.3,1,9.5,0.2c1.4-0.3,4.7-0.4,5.3,0.4
		c0,0,1.5,1,1.8,3C85.5,39.4,85.6,40.3,84.9,40.7z M41.4,37c-0.2,0-0.3,0-0.5,0.1l-0.1-0.4L35.3,29l-1.5-1.8l-1.8,0.5
		c-4.3,1.5-10.5,1.6-12.4,1.6c-0.6,0-0.7,0.5-0.7,0.5L18.5,31c0,0-1.6,6.7-0.1,11c0,0,0.1,0.6,0.4,1.6c0.3,0.9,1.3,3.6,5.3,2.9
		c0,0,3.5-0.4,9-1.2c0,0,4.8-0.7,8.3-0.7l0.6-2.6l0.3,0v0c0.7-0.3,1.8-1.3,1.8-2.5C44.1,38.1,42.8,37,41.4,37z"/>
</g>
<g id="Layer_5" display="none">
	<path display="inline" d="M77.7,38.7c-0.7-5.4-6.2-4.8-6.2-4.8s-2.7,0-5.5,1.8c-2.8,1.9-7.3,5.8-12.2,2.3c0,0-0.9-0.6-0.7-2.1
		c0.2-1.2,3.8-4.3,10.5-2.8c0,0,6.9,2.2,10.1-0.6l7.6-8.2c0,0,1.2-1.1,2-1.1c0.1,0,0.3,0,0.4,0.1c-0.1,0-0.1-0.1-0.1-0.1
		s0.6,0.3,0.8-0.2c0.2-0.6-1.2-1.9-3.6,0.2l-6.6,6.6c0,0-2.2,3-6.1,2.2c-3.6-0.8-10.6-3.8-16,1.9l0-0.1l-23.4-4.7
		c0,0-7.5-1.3-10.7,1l28.2,6.3l-27.7,4.5c3,2.6,10.6,2,10.6,2l22.6-3.6c0.3,0.3,0.6,0.5,0.6,0.5c1,1.3,4.9,2.4,4.9,2.4
		c5.3,7.2,14,3.9,14,3.9S78.3,44.1,77.7,38.7z M49.1,37.6c-0.5-0.4-0.5-1.1-0.1-1.5c0.4-0.5,1.1-0.5,1.5-0.1
		c0.5,0.4,0.5,1.1,0.1,1.5C50.2,37.9,49.5,38,49.1,37.6z M72.6,43.9c-7.6,3.2-11.7-0.3-11.7-0.3c-2.5-1.7-2.1-2.4-0.7-2.6
		c1.4-0.3,3.7-1.2,5.6-2.7c1.9-1.5,2.9-1.9,2.9-1.9c5.3-2.4,6.8,1.5,6.8,1.5C77,41.5,72.6,43.9,72.6,43.9z"/>
</g>
<g id="Layer_13" display="none">
	<path display="inline" d="M77.4,39.2c-0.4-5.2-5.8-4.9-5.8-4.9s-2.5-0.1-5.3,1.5c-2.7,1.7-7.2,5.2-11.7,1.7c0,0-0.7-0.8-0.6-2
		c0.2-1.2,3.8-4,10.1-2.2c0,0,6.5,2.3,9.6-0.2l8.6-8.3c0,0,1.2-1,2-1c0.1,0,0.2,0,0.3,0.1c-0.1,0-0.1-0.1-0.1-0.1s0.6,0.4,0.7-0.2
		c0.2-0.6-1-1.9-3.4,0.1l-7.5,6.8c0,0-2.3,2.8-5.9,1.9c-3.4-0.9-9.8-4-15.1,1l0-0.1l-27.1-0.9c0,0-7.3,0.1-9.9,2.8l22.2,1l-21.8,0.4
		c2.5,2.8,9.8,3.2,9.8,3.2l27-0.2c1.2,1.1,4.3,2.1,4.3,2.1c4.8,7.1,13.2,4.3,13.2,4.3S77.9,44.3,77.4,39.2z M50.8,37.3
		c-0.5-0.4-0.5-1.1-0.1-1.5c0.4-0.5,1.1-0.5,1.5-0.1c0.5,0.4,0.5,1.1,0.1,1.5S51.3,37.7,50.8,37.3z M72.4,43.9
		c-7.3,2.8-11.6-1.1-11.6-1.1c-1.2-0.7-1.5-2.1-0.1-2.2c1.4-0.2,3.6-1,5.5-2.4c1.9-1.3,2.9-1.7,2.9-1.7c5.1-2.1,6.4,1.7,6.4,1.7
		C76.7,41.8,72.4,43.9,72.4,43.9z"/>
</g>
<g id="Layer_6" display="none">
	<path display="inline" d="M70.6,28.5v10.3c0,0-2-1.1-4.6-1.2v-1.7h-1v1.8c-0.9,0.1-1.9,0.3-2.9,0.7v-2.9h-1v3.4
		c-1.3,0.6-2.3,0.7-3,0.7c0.1-0.2,0.1-0.4,0.1-0.6V30c0-0.5-0.2-0.9-0.4-1.3c1,0.1,2.3,0,3.7-0.5C65,26.8,69.9,27.6,70.6,28.5z
		 M57.2,29.5c0.1,0.2,0.1,0.3,0.1,0.5v8.8c0,0.2,0,0.3-0.1,0.4c-0.3,0.9-1.7,1.5-3.5,2v-2.4h-1v2.6c-1.1,0.2-2.3,0.4-3.5,0.5v-3.9
		h-1v4c-1.5,0.1-2.9,0.2-4.2,0.2v-2.6h-1v2.6c-1.2,0-2.7-0.1-4.2-0.2v-4.1h-1v4c-1.4-0.1-2.8-0.3-4.1-0.6v-2.6h-1v2.4
		c-2.2-0.5-3.7-1.3-3.7-2.5V30c0-2.8,9.2-3.5,14-3.5c3.7,0,9.8,0.4,12.5,1.8c0,0,0,0,0,0c0,0,0,0,0,0c0.2,0.1,0.4,0.2,0.6,0.3
		c0,0,0,0,0,0c0.2,0.1,0.3,0.2,0.4,0.4c0,0,0,0.1,0.1,0.1C57.1,29.3,57.1,29.4,57.2,29.5z M39.7,30c0,0.3,1.6,0.5,3.6,0.5
		s3.6-0.2,3.6-0.5s-1.6-0.5-3.6-0.5S39.7,29.7,39.7,30z M55.9,31.7l-0.3-0.6c-2,1-6.9,1.8-12.3,1.8c-5.4,0-10.1-0.7-12.2-1.7
		l-0.3,0.6c2.1,1.1,7,1.8,12.5,1.8C48.8,33.5,53.8,32.8,55.9,31.7z M71.5,28.9v10.3l1.9,1.2V30.1L71.5,28.9z"/>
</g>
<g id="Layer_7" display="none">
	<path display="inline" d="M42.4,47.6l17.1-14.9v7.7l-12.7,11h-3.3c-0.6,0-1.1-0.5-1.1-1.1V47.6z M59.5,18.7c0-0.6-0.5-1.1-1.1-1.1
		h-1.1L42.4,30.6v7.1l17.1-14.9V18.7z M58.4,51.4c0.6,0,1.1-0.5,1.1-1.1v-1.7l-3.2,2.8L58.4,51.4L58.4,51.4z M47.8,53.8h5.8v-2.4
		h1.4l4.5-3.9v-6L47.8,51.7V53.8z M43.5,17.6c-0.6,0-1.1,0.5-1.1,1.1V21l3.9-3.4C46.3,17.6,43.5,17.6,43.5,17.6z M53.6,17.6v-2.6
		h-5.8v2.6h-0.2l-5.2,4.5v7.4L56,17.6L53.6,17.6L53.6,17.6z M68.7,22.6c-0.3,0.2-0.5,0.4-0.8,0.6l-0.7,0.6l-7.7,6.2v1.5L42.4,46.5
		V44l-11.3,9.2l11.3-10.9v-3.4l17.1-14.9v1.8l4.7-4.5l1.7-1.5c0,0,0.1-0.1,0.1-0.1c0,0,0.1-0.1,0.1-0.1l0.9-0.8l0.5-0.4
		c0,0,2.3-1.9,3.5-0.8c0,0,0.1,0.1,0.1,0.1c0,0,0,0,0.1,0C72,18.5,70.8,20.7,68.7,22.6z M70.1,18.7c-0.3-0.4-1.4,0.1-2.5,1
		c-1,0.9-1.6,1.9-1.3,2.3c0.3,0.4,1.4-0.1,2.5-1C69.8,20.1,70.4,19.1,70.1,18.7z"/>
</g>
<g id="Layer_8" display="none">
	<g display="inline">
		<path d="M83.8,30.4c-2.9-4.5-9.3-5.1-9.3-5.1c-7-0.5-9.7,4.3-9.7,4.3h-3.7c0,0-2.1,0.2-6.1-1.6c-5-2.1-13.2-8.3-25.1-9.4
			c0,0-4.1-0.7-10.8,0.7c0,0-1.5,0.9,0,1.2c10.6-1.1,16.9,1.2,20.2,2.3c3.3,1.1,9.4,5.1,9.4,5.1c3.1,2.1,7.3,3.6,7.3,3.6l4.1,1.7
			l0.2,0.1C59.5,34,57.5,35,57.5,35c-3.7,1.5-13.9,8-13.9,8l-3,1.5C33.8,47.8,30,48.3,30,48.3c-1.8,0.7-9.5,0.4-9.5,0.4
			c-1.5,0.8,0,1.6,0,1.6c6.1,0.5,9.7,0,9.7,0c7.7-0.8,20.2-7.8,20.2-7.8s5.1-3.2,9.1-4.5c2.8-0.9,3.9-1.8,4.4-2.3h4.6l-0.9,5.6
			l0.2,0.3c0,0,5.8,0,6.1,0c0.1,0,0.2-0.2,0.2-0.2l-0.9-5.9l1,0c0,0,3.9,0,7.8,3.9c0,0,0.6,0.8,1.2,0.4c0.6-0.4-2.1-6-8.9-7.1
			l-4.5-0.4l-1.3-1c0,0,0.9-0.7,1.1-0.8c1.7-1.2,4.1-1.3,4.1-1.3s4.3-0.6,7.5,1.2l2.1,1.3C84.9,32.5,83.8,30.4,83.8,30.4z
			 M64.8,29.5C64.9,29.5,65.2,29.3,64.8,29.5L64.8,29.5z M65.3,33.8c-0.6,0-1.2-0.5-1.2-1.2c0-0.6,0.5-1.2,1.2-1.2
			c0.6,0,1.2,0.5,1.2,1.2C66.4,33.2,65.9,33.8,65.3,33.8z"/>
	</g>
</g>
<g id="Layer_22" display="none">
	<path display="inline" d="M18.6,29c0,0.1,0.1,0.1,0.2,0.2c1.1-0.4,2.9-0.5,4.2-0.5c0.6,0,1,0,1,0L64,30.4c0.1,0,2.2,0.3,2.9,1.7
		c0.6,1.2,2.6,1.8,2.7,1.8c0,0,0.3,0.1,0.7,0.3l0.3,0.2l-0.3,0.2c-0.4,0.2-0.7,0.3-0.7,0.3c0,0-2.1,0.6-2.7,1.8
		c-0.7,1.4-2.8,1.7-2.9,1.7L24.2,40l0,0c-0.4-0.1-0.8-0.2-1.2-0.2l-0.1,0c-0.6,0-1,0.2-1.2,0.4c-0.2,0.2-0.3,0.6-0.3,1
		c0,0.9,0.5,1.3,1.5,1.3l0.1,0c0.4,0,0.7-0.1,1.1-0.2l0.1,0l44.2-0.7c0,0,1-0.2,1.3-1.1c0.4-1.1,1.8-2.5,3.5-2.5h0.1l0.5,0l0.1,0.2
		c0,0,0,0.1,0,0.1l0.1,0.5c1.2,3.2,4.7,3.3,5.4,3.3c0.1,0,0.1,0,0.1,0c4,0,4.4-5.1,4.5-6.2l-2,0.2c-0.1,0.2-0.1,0.4-0.2,0.5
		c-0.1,0.4-0.3,0.6-0.6,0.8c-0.5,0.5-1,0.7-1.6,0.7c-1.5,0-2.7-1.8-2.7-4c0-2.2,1.3-4,2.8-4c1.1,0,2,0.9,2.4,2.2l1.9,0.2
		c0-0.5-0.1-1.8-0.6-3c-0.7-2.1-2-3.2-3.9-3.2c0,0,0,0-0.1,0c-0.7,0-4.2,0.2-5.4,3.3l-0.1,0.5c0,0,0,0.1,0,0.1l0,0.2l-0.5,0l-0.1,0
		c-1.7,0-3.2-1.5-3.5-2.5c-0.3-0.9-1.3-1.1-1.3-1.1L24,26.3c-2.4,0.2-4.5,1.6-4.5,1.6C18.6,28.6,18.6,28.9,18.6,29z M73.8,33.3
		c0.6,0,1.2,0.5,1.2,1.2c0,0.6-0.5,1.2-1.2,1.2c-0.6,0-1.2-0.5-1.2-1.2C72.6,33.8,73.2,33.3,73.8,33.3z"/>
</g>
<g id="Layer_10" display="none">
	<g display="inline">
		<path d="M78.2,58c0,0.2-0.1,0.3-0.2,0.4L74.5,62c-0.1,0.1-0.3,0.2-0.4,0.2c-0.2,0-0.3,0-0.4-0.2L38.1,22.7l-5.5,6
			c-1.5,1.6-1.2,3.8-1.2,3.8l0.1,0.6c0,0.1,0,0.3,0,0.4L31,34.5c-0.1,0.1-0.2,0.2-0.3,0.3c-0.1,0-0.3,0-0.4,0l-5.6-3.2
			c-0.1-0.1-0.2-0.2-0.3-0.3c0-0.1,0-0.3,0-0.4l1-1.3c0.1-0.1,0.2-0.2,0.3-0.3l0.7-0.2c0,0,2.5-0.6,4.3-5.6c0,0,1.5-4.5,3.3-6.6
			c1.8-2,4.5-3.2,8.8-3.8c4.4-0.6,8.2-2.4,8.2-2.4s2.5-1.1,4.6-3.8l0.6-0.2l0.5,0.5L56.5,9L54,11.4c0,0-3.9,3.3-9.6,5.8
			c-1.6,0.7-3,1.9-3.1,1.9L78,57.5C78.1,57.7,78.2,57.8,78.2,58z"/>
	</g>
</g>
<g id="Layer_23" display="none">
	<path display="inline" d="M75.8,54.5L75.8,54.5l-0.1-0.2c0,0-0.1-0.1-0.1-0.1c-0.1-0.1-0.1-0.1-0.2-0.2L46.1,24.5l9.5-11.9
		l-5.4-6.2l-13.8,8.7C36.3,15.1,36.1,15,36,15c-0.8,0-1.5,0.6-1.6,1.4c0,0.2,0,0.3,0.1,0.5L24.4,29.7l5.6,6l12.9-8.2l26.7,32.2
		c0,0,0,0,0.1,0.1c0,0,0,0,0,0l0,0l0,0c1.9,2,4.7,2.4,6.4,0.9C77.6,59.2,77.5,56.5,75.8,54.5z"/>
</g>
<g id="Layer_24" display="none">
	<path display="inline" d="M35.9,15c-0.3-0.3-0.9-0.3-1.2,0l-0.9,0.8c-0.3,0.3-0.4,0.9,0,1.2l-3.3,3.1l-0.2,1.4l1.2,1.2l-1.4,1.3
		l-2.2-2.4l-1.2,0l-0.6,0.6c-0.4,0.3-0.4,0.9,0,1.2l7.8,8.3c0.3,0.4,0.9,0.4,1.2,0l0.6-0.6l0-1.2l-2.2-2.4l1.4-1.4l1.2,1.3l1.4-0.1
		l3.2-3l33.5,37c0.1,0.1,0.3,0.2,0.4,0.2c0.1,0,0.3-0.1,0.4-0.2l3.1-2.9c0.1-0.1,0.2-0.3,0.2-0.4c0-0.1-0.1-0.3-0.2-0.4L43,22
		c1.4-1.5,7.1-6.9,11.7-4.1c0,0,0.4,0.2,0.7,0c0.5-0.4,0.1-0.9,0.1-0.9C46.6,7.5,38.1,13.2,35.9,15z"/>
</g>
<g id="Layer_63" display="none">
	<path display="inline" d="M37.3,6.3c-0.4,0.4-0.6,0.9-0.6,1.4l0,0c0,0,0,0,0,0c0,0.1,0,0.2,0,0.3c0,1.1-0.7,1.2-0.7,1.2
		c-0.9,0.2-2.2-1.1-3-0.4c-2.1,2-2.1,2-5,4.7c-0.6,0.7-0.6,1.7-0.5,2.3c-0.4-0.1-1.4,0.1-1.6,0.3l-3.7,3.5c-0.2,0.2-0.2,0.6,0,0.8
		l4.1,4.4c0.2,0.2,0.6,0.2,0.8,0l3.7-3.5c0.2-0.2,0.5-1.1,0.4-1.5c0.9-0.7,2.1-0.6,2.1-0.6c2.8,0.2,5.1,2.7,6.7,4.4l36.3,38.8
		c0,0,1.2,1.3,2.6,0l0.8-0.7c1.4-1.3,0.1-2.6,0.1-2.6L43.2,21c-2.2-2.3-4-4.4-4.6-6.6c0,0-0.2-0.8-0.1-1.9c0,0,0.1-1.2,1.8-1.3l0,0
		c0.4,0,0.8-0.2,1.1-0.5C42.3,9.9,42.1,8.2,41,7C39.8,5.8,38.2,5.5,37.3,6.3z"/>
</g>
<g id="Layer_14" display="none">
	<path display="inline" d="M73.4,46.1c0.4,0.5,0.4,0.9,0.4,0.9v4.3h-8.3c0,0-1.5,0-2.1-1.1c0,0-1.5-2.5-8.3-2.3h-0.6
		c-6.8-0.2-8.3,2.3-8.3,2.3c-0.6,1.1-2.1,1.1-2.1,1.1h-8.3V47c0,0,0-0.4,0.4-0.9l3.1-3.6c0.1-0.2,0.5-0.3,0.5-0.3l1.6-0.5h26.3
		l2.1,0.5c0,0,0.4,0.1,0.5,0.3L73.4,46.1z M42.6,17.5v1.1c0,0-0.5,0.7-2.6,0.7h-1.6v0.9H26.1c0,0-1.8-0.1-7.7-0.4l-0.9-0.1
		c0,0,0,0-0.1,0c-0.3,0-0.6,0.2-0.6,0.6c0,0.1,0,0.2,0.1,0.3l0.1,0.1c0,0,6.6,10.9,21.1,11l3.1,0c2.9,0,5.4,2.5,5.4,5.3
		c0,1.6-0.9,3-2.2,3.7h20.5c-1.4-1-2.4-2.6-2.4-4.5c0-3.8,3.5-10.6,15.8-12.7l5.1-1.1c0,0,1.8-0.2,1.8-1.4v-0.9l0.5-0.5v-2H42.6z"/>
</g>
<g id="Layer_14_copy" display="none">
	<path display="inline" d="M86.1,17.4v2.1l-0.7,0.5V21c0,1.1-1.9,1.4-1.9,1.4l-5.1,1.1C66,25.6,62.6,32.4,62.6,36.2
		c0,1.9,0.9,3.5,2.4,4.5l4.8,1.5c0,0,0.3,0.1,0.5,0.3l3.1,3.6c0.4,0.5,0.3,0.9,0.3,0.9v4.5h-8.1c0,0-1.5-0.2-2.1-1.3
		c0,0-1.5-2.5-8.3-2.5h-0.6c-6.8,0-8.3,2.5-8.3,2.5c-0.6,1.1-2.1,1.3-2.1,1.3h-8.3V47c0,0-0.1-0.4,0.4-0.9l3.1-3.7
		c0.1-0.2,0.5-0.3,0.5-0.3l4.7-1.7h0c1.3,0,2.2-1.9,2.2-3.5c0-2.9-2.6-5.2-5.4-5.2l-3.1,0c-14.5-0.1-21.1-11-21.1-11l-0.1-0.1
		c-0.1-0.1-0.1-0.2-0.1-0.3c0-0.3,0.2-0.5,0.6-0.5c0,0,0,0,0.1,0l0.9,0.1c5.9,0.3,7.7,0.5,7.7,0.5h12.7v-1.5h1.2
		c2.1,0,2.5-0.3,2.5-0.3v-1.2H86.1z"/>
</g>
<g id="Layer_15" display="none">
	<g display="inline">
		<path d="M63.8,37.6c0-0.2,0-0.3,0-0.5c0.3-3,3.1-4.3,6.2-4.3V18.5H36.4v15.2l2.8,0c3.3,0,6.3,1.5,6.3,4.8c0,1.8-1,3.4-2.5,4.2
			h23.5C64.8,41.6,63.8,39.7,63.8,37.6z"/>
		<path d="M35.9,20.5l-4.5,0v1.1h-7.9c0,0-6.7,0-6.8,0c-0.4,0-0.6,0.3-0.6,0.6c0,0.1,0,0.3,0.1,0.4c0,0,3.2,9.3,19.7,9.6L35.9,20.5
			L35.9,20.5z"/>
		<polygon points="72.5,18.5 70.5,18.5 70.5,32.7 71.9,32.7 78.3,27.2 82.5,27.2 82.5,22.9 		"/>
		<path d="M68.4,43.3H41.5l-5.1,3.4c-0.5,0.6-0.4,1-0.4,1v3.5h7.7l1.2-1.3H65l1.2,1.3h7.7v-3.5c0,0,0-0.5-0.4-1L68.4,43.3z"/>
	</g>
</g>
<g id="Layer_18" display="none">
	<path display="inline" d="M41.2,31.7l-0.4,0c-22.7-2.2-23.5-11.8-23.5-11.8s0-0.3,0-0.4c0-0.3,0.2-0.5,0.5-0.5c0,0,0,0,0.1,0
		l0.9,0.1c5.4,0.7,18.7,0.6,18.7,0.6l0-0.7h3.8V18h44l0,3.9c-12.1,0-21.4,6.9-21.4,15.7l0.7,3.2h-17l0.9-3.1
		C48.5,33.4,43.8,31.7,41.2,31.7z M47.3,41.5l-6,6.1v3.3h5.5c2.4-2.4,9.3-2.5,9.3-2.5h0.1c0,0,6.6-0.3,9.3,2.5h5.5v-3.3l-6-6.1H47.3
		z"/>
</g>
<g id="Layer_19" display="none">
	<g display="inline">
		<path d="M85.3,21.9c-12.1,0-21.4,6.9-21.4,15.7l0.8,3.5l6.2,6.4v3.3h-5.5c-2.7-2.7-9.3-2.5-9.3-2.5H56c0,0-6.9,0.1-9.3,2.5h-5.5
			v-3.3l6.2-6.4l1-3.4c0-4.2-4.6-5.9-7.3-5.9l-0.4,0c-22.7-2.2-23.5-11.8-23.5-11.8s0-0.3,0-0.4c0-0.3,0.2-0.5,0.5-0.5
			c0,0,0,0,0.1,0l0.9,0.1c5.4,0.7,18.7,0.6,18.7,0.6l0-0.7h3.8V18h44L85.3,21.9z"/>
	</g>
</g>
<g id="Layer_16" display="none">
	<path display="inline" d="M82.9,22.8v4.4h-4.2l-6.5,5.5h-1.9c-3.2,0-6,1.8-6.3,4.8c0,0.2,0,0,0,0.1c0,2.1,1.1,4,2.7,5.2l7,3.6
		c0.5,0.6,0.4,1,0.4,1V51h-7.8l-1.2-1.3H45L43.8,51h-7.8v-3.6c0,0,0-0.5,0.4-1l6.7-3.6h0c1.5-0.8,2.4-2.4,2.4-4.2
		c0-3.3-3-4.9-6.3-4.9l-3.1,0l0-1.6c-16.8-0.2-20-9.6-20-9.6c-0.1-0.1-0.1-0.2-0.1-0.4c0-0.4,0.3-0.6,0.6-0.6c0,0,6.8,0,6.8,0h8
		v-1.1l4.8,0v-2l40.2,0.1L82.9,22.8z"/>
</g>
<g id="Layer_25" display="none">
	<path display="inline" d="M25.5,21.1c-0.2,0.5,0.3,1.5,0.5,1.9l20.4,11.5L26.1,45.5c-0.7,0.8-0.7,2.1-0.7,2.1l25.5-10.5l13,9.8
		c-2.4,7.5,7.9,11.7,11.8,7.5c5.2-7.4-6.6-12.3-10.4-9.4c-1.1-1-8-6.2-8-6.2c-0.3-0.3-1.6-2.6-2.4-4.2c0.6-1.2,1.5-2.9,1.8-3.5
		l0.1-0.2l0,0c0.2-0.3,0.3-0.5,0.4-0.6c0,0,6.9-5.2,8-6.2c3.9,2.9,15.8-2,10.5-9.5c-3.9-4.2-14.3,0-11.9,7.5l-13,9.7L25.5,21.1z
		 M68.1,53.5c-4.7-2.8-2.6-5.8-2.2-6.3c1.7-2.3,4.6-1.2,4.6-1.2C79.7,49,75,57.2,68.1,53.5z M68.2,15.4c7-3.7,11.8,4.5,2.5,7.6
		c0,0-3,1.1-4.7-1.3C65.6,21.3,63.5,18.2,68.2,15.4z M51.3,33.3c0.6,0,1.1,0.5,1.1,1.1c0,0.6-0.5,1.1-1.1,1.1
		c-0.6,0-1.1-0.5-1.1-1.1C50.1,33.8,50.6,33.3,51.3,33.3z"/>
</g>
<g id="Layer_26" display="none">
	<path display="inline" d="M65.7,40c1.1-0.8,2.1-1.7,3.1-2.7l-1.6-1.6c-0.8,0.8-1.7,1.6-2.6,2.3l-9.3-17.2c1.6-1.1,2.7-2.9,2.7-5
		c0-2.8-2-5.2-4.6-5.8V7.5h-3v2.5c-2.5,0.7-4.3,3-4.3,5.7c0,2,1,3.8,2.6,4.9L27.2,60c-0.3,0.6-0.4,0.9-0.2,1.3l5.9-4.9L39.8,44
		c1.8,0.6,4.8,1.3,8.4,1.4c0.3,0,0.7,0,1.1,0c3.8,0,8.8-0.8,13.7-3.6l9.8,17.8l2.9,1.6l0.1-2.9L65.7,40z M52,12.6
		c1.8,0,3.3,1.5,3.3,3.3c0,1.8-1.5,3.3-3.3,3.3c-1.8,0-3.3-1.5-3.3-3.3C48.7,14,50.2,12.6,52,12.6z M48.3,43.2
		c-3.1-0.1-5.7-0.7-7.4-1.2l11.1-19.9l9.8,17.8C57.8,42.2,53.2,43.4,48.3,43.2z"/>
</g>
<g id="Layer_27" display="none">
	<path display="inline" d="M66.9,42.2h1.7v-1.7h-2.8L55.3,20.8c1.6-1.1,2.7-2.9,2.7-5c0-2.8-2-5.2-4.6-5.8V7.6h-3v2.5
		c-2.5,0.7-4.3,3-4.3,5.7c0,2,1,3.8,2.5,4.9L38.1,40.5h-2.8v1.7H37l-9.8,17.7l0-0.1c-0.3,0.6-0.4,1-0.2,1.5l5.9-4.9l7.9-14.2h9.9V45
		H53v-2.8h10.1l9.6,17.5l2.9,1.6l0.1-2.9L66.9,42.2z M52,12.6c1.8,0,3.3,1.5,3.3,3.3c0,1.8-1.5,3.3-3.3,3.3c-1.8,0-3.2-1.5-3.2-3.3
		C48.7,14,50.2,12.6,52,12.6z M53,40.5v-2.9h-2.3v2.9h-8.8l10.2-18.5l10,18.5H53z"/>
</g>
<g id="Layer_65" display="none">
</g>
<g id="Layer_66">
	<path fill="#555555" d="M74,24H59.3v-0.9c0-0.8-0.7-0.3-0.7-0.3l-0.9,0.8c-0.7,0.6-1.2,0.2-1.2,0.2c-0.2-0.1-0.3-0.2-0.5-0.3
		l-0.9-13.3c0-0.3-0.1-0.6-0.2-0.8c1.3-0.9,2.1-2.4,2.1-4c0-2.7-2.3-5-5.2-5c-2.9,0-5.2,2.2-5.2,5c0,1.6,0.8,3,2,3.9
		c-0.1,0.2-0.2,0.5-0.2,0.8l-1,15.8c0,0-0.1,6.3-6.2,13c0,0-7,7.2-7,14.2c0,6.5,2.9,13.3,12.8,15.1c0,0,0,0,0.1,0
		c0.2,0,0.4-0.2,0.4-0.4c0-0.3-0.3-0.4-0.3-0.4C35.8,64.5,36.2,54,36.2,54c0-7.2,7.5-14.3,7.5-14.3c6.5-6.5,6.7-13.4,6.7-13.4
		l0.1-1.1h2.8l0.1,1.1c0,0,0.2,6.9,6.7,13.4c0,0,7.5,7.1,7.5,14.3c0,0,0.4,10.5-10.9,13.6c0,0-0.3,0.1-0.3,0.4
		c0,0.2,0.2,0.4,0.4,0.4c0,0,0.1,0,0.1,0c9.9-1.9,12.8-8.6,12.8-15.1c0-7-7-14.2-7-14.2c-6.1-6.7-6.2-13-6.2-13l0-0.4
		c0.1,0,0.2-0.1,0.3-0.2c0,0,0.5-0.4,1.2,0.2l0.9,0.8c0,0,0.7,0.5,0.7-0.3v-0.9H74c0.3,0,0.6-0.3,0.6-0.6C74.6,24.3,74.3,24,74,24z
		 M51.9,2.3c1.9,0,3.4,1.4,3.4,3.2c0,1.3-0.9,2.5-2.1,2.9c-0.3-0.4-0.8-0.6-1.3-0.6c-0.5,0-1,0.2-1.3,0.6c-1.2-0.5-2.1-1.6-2.1-2.9
		C48.5,3.7,50.1,2.3,51.9,2.3z M50.5,24l0.7-12.8c0.2,0.1,0.4,0.1,0.6,0.1c0.2,0,0.4,0,0.5-0.1L53.2,24L50.5,24L50.5,24z"/>
</g>
<g id="Layer_28" display="none">
	<path display="inline" d="M38.7,46.6l-6.5,6l-2.2,0.9l1.3-2l7.4-6.9L38.7,46.6L38.7,46.6z M71.9,19c-0.2,0.1-0.3,0.2-0.5,0.3
		l-5,2.9l-4.7,3.6v-2.2l3-2.5l0,0l0,0l4.1-4.9c0.1-0.2,0.3-0.3,0.4-0.5c0.9-0.7,2.2-0.6,2.9,0.3C72.9,17,72.8,18.3,71.9,19z
		 M71.3,16.8c-0.3-0.4-0.9-0.4-1.3-0.1c0,0-3.3,3.8-3.3,3.8c-0.1,0.1-0.1,0.2,0,0.2c0.1,0.1,0.2,0.1,0.2,0c0,0,4.3-2.6,4.4-2.7
		C71.6,17.8,71.6,17.2,71.3,16.8z M39.6,21.4c0.2,0.3,0.7,0.5,1,0.5h19c0.3,0,0.8-0.2,1.1-0.4l2.6-2.6c0.2-0.2,0.2-0.4-0.2-0.4H37.6
		c-0.3,0-0.4,0.2-0.2,0.5L39.6,21.4z M60.8,48.2c-0.2-0.3-0.7-0.5-1-0.5H40.6c-0.3,0-0.8,0.2-1.1,0.4l-2.1,2.1
		c-0.2,0.2-0.2,0.4,0.2,0.4h24.8c0.3,0,0.4-0.2,0.2-0.5L60.8,48.2z M60.4,24c0-0.4-0.3-0.7-0.7-0.7h-19c-0.4,0-0.7,0.3-0.7,0.7v0.3
		c0,0.4,0.3,0.7,0.7,0.7h19c0.4,0,0.7-0.3,0.7-0.7V24z M60.4,36.2c0-0.4-0.3-0.7-0.7-0.7h-19c-0.4,0-0.7,0.3-0.7,0.7v0.3
		c0,0.4,0.3,0.7,0.7,0.7h19c0.4,0,0.7-0.3,0.7-0.7V36.2z M60.4,39.2c0-0.4-0.3-0.7-0.7-0.7h-19c-0.4,0-0.7,0.3-0.7,0.7v0.3
		c0,0.4,0.3,0.7,0.7,0.7h19c0.4,0,0.7-0.3,0.7-0.7V39.2z M60.4,42.3c0-0.4-0.3-0.7-0.7-0.7h-19c-0.4,0-0.7,0.3-0.7,0.7v0.3
		c0,0.4,0.3,0.7,0.7,0.7h19c0.4,0,0.7-0.3,0.7-0.7V42.3z M59.7,32.4l-19,0c-0.4,0-0.7,0.3-0.7,0.7v0.3c0,0.4,0.3,0.7,0.7,0.7h19
		c0.4,0,0.7-0.3,0.7-0.7l0-0.3C60.4,32.7,60.1,32.4,59.7,32.4z M60.4,27c0-0.2-0.1-0.4-0.3-0.6c-0.1-0.1-0.2-0.1-0.4-0.1h-19
		c-0.4,0-0.7,0.3-0.7,0.7v0.3c0,0.4,0.3,0.7,0.7,0.7h19c0.4,0,0.7-0.3,0.7-0.7V27z M59.7,44.6h-19c-0.4,0-0.7,0.3-0.7,0.7v0.3
		c0,0.4,0.3,0.7,0.7,0.7l19,0c0.4,0,0.7-0.3,0.7-0.7l0-0.3C60.4,44.9,60.1,44.6,59.7,44.6z M60.4,30.1c0-0.4-0.3-0.7-0.7-0.7h-19
		c-0.4,0-0.7,0.3-0.7,0.7v0.3c0,0.4,0.3,0.7,0.7,0.7l19,0c0.4,0,0.7-0.3,0.7-0.7C60.4,30.4,60.4,30.1,60.4,30.1z"/>
</g>
<g id="Layer_29" display="none">
	<g display="inline">
		<path d="M22.8,55.9c-0.1,0.3,0,0.6,0.2,0.7l4.2,2.2c0.3,0.1,0.6,0,0.7-0.2l0.7-1.4l-5.2-2.7L22.8,55.9z"/>
		<path d="M79.8,55.9l-0.7-1.4l-5.2,2.7l0.7,1.4c0.1,0.3,0.5,0.4,0.7,0.2l4.2-2.2C79.8,56.5,79.9,56.2,79.8,55.9z"/>
		<path d="M77.4,51l-0.8,0.4l-0.4-0.7l0.8-0.4l-1.4-2.5l-2.3,1.2l-0.4-0.7l2.3-1.2L74,44.7l-0.8,0.4l-0.4-0.7l0.8-0.4l-1.4-2.5
			L70,42.8l-0.4-0.7l2.3-1.2l-1.3-2.5l-0.8,0.4l-0.4-0.7l0.8-0.4l-1.4-2.5l-2.3,1.2l-0.4-0.7l2.3-1.2l-1.3-2.5l-0.8,0.4l-0.4-0.7
			l0.8-0.4L65.5,29l-2.3,1.3l-0.4-0.7l2.3-1.3l-1.3-2.5L63,26.3l-0.4-0.7l0.8-0.4l-1.3-2.5L59.8,24l-0.4-0.7l2.3-1.3l-1.3-2.5
			L59.6,20l-0.4-0.7l0.8-0.4l-3.3-6.1l-0.9,0.5c-0.6-2-2.4-3.4-4.6-3.4c-2.1,0-4,1.4-4.6,3.4l-0.8-0.5l-3.3,6.1l0.8,0.4L43.1,20
			l-0.8-0.4l-1.3,2.5l2.3,1.3L42.9,24l-2.3-1.3l-1.4,2.5l0.8,0.4l-0.4,0.7l-0.8-0.4l-1.3,2.5l2.3,1.3l-0.4,0.7L37.2,29l-1.4,2.5
			l0.8,0.4l-0.4,0.7l-0.8-0.4l-1.3,2.5l2.3,1.2l-0.4,0.7l-2.3-1.2l-1.4,2.5l0.8,0.4l-0.4,0.7l-0.8-0.4l-1.3,2.5l2.3,1.2l-0.4,0.7
			l-2.3-1.2L29,44.1l0.8,0.4l-0.4,0.7l-0.8-0.4l-1.3,2.5l2.3,1.2l-0.4,0.7L27,47.8l-1.4,2.5l0.8,0.4l-0.4,0.7L25.3,51L24,53.4
			l5.1,2.8L49.2,19c0.6,0.3,1.4,0.5,2.1,0.5c0.8,0,1.5-0.2,2.2-0.5l20.1,37.2l5.1-2.8L77.4,51z M51.3,16c-0.7,0-1.2-0.5-1.2-1.2
			c0-0.7,0.5-1.2,1.2-1.2s1.2,0.5,1.2,1.2C52.5,15.4,52,16,51.3,16z"/>
	</g>
</g>
<g id="Layer_30" display="none">
	<g display="inline">
		<path d="M74.9,10.9c-0.9-0.9-2.4-0.9-3.3,0c-0.2,0.2-0.3,0.4-0.4,0.6l-5.1,6.9l0,0l0,0l-4.3,4.4l-8.4-8.4
			c-0.2-0.2-0.5-0.2-0.5,0.2l-0.2,3.3c0,0.3,0.2,0.8,0.4,1.1l13.5,13.5c0.2,0.2,0.7,0.4,1.1,0.4l3.6,0c0.3,0,0.4-0.2,0.2-0.4
			L63.1,24l4.4-4.3l0,0l6.9-5.1c0.2-0.1,0.4-0.2,0.5-0.4C75.8,13.3,75.8,11.8,74.9,10.9z M73.8,13.4c0,0-0.1,0.1-0.1,0.1
			c0,0,0,0,0,0l-4.6,3.2c-0.1,0.1-0.2,0.1-0.3,0c-0.1-0.1-0.1-0.2,0-0.3l3.3-4.4c0,0,0,0,0,0c0,0,0.1-0.1,0.1-0.1
			c0.4-0.4,1.1-0.4,1.5,0C74.3,12.3,74.3,13,73.8,13.4z"/>
		<path d="M41.3,30.7c-0.3-0.3-0.7-0.3-1,0L40.1,31c-0.3,0.3-0.3,0.7,0,1l13.4,13.5c0.3,0.3,0.7,0.3,1,0l0.2-0.2
			c0.3-0.3,0.3-0.7,0-1L41.3,30.7z"/>
		<path d="M37,35.1c-0.3-0.3-0.7-0.3-1,0l-0.2,0.2c-0.3,0.3-0.3,0.7,0,1l13.4,13.5c0.3,0.3,0.7,0.3,1,0l0.2-0.2c0.3-0.3,0.3-0.7,0-1
			L37,35.1z"/>
		<path d="M39.2,32.9c-0.3-0.3-0.7-0.3-1,0L38,33.1c-0.3,0.3-0.3,0.7,0,1l13.4,13.5c0.3,0.3,0.7,0.3,1,0l0.2-0.2
			c0.3-0.3,0.3-0.7,0-1L39.2,32.9z"/>
		<path d="M34.7,37.2c-0.2-0.2-0.7-0.4-1.1-0.4l-3,0c-0.3,0-0.4,0.2-0.2,0.4l8.5,8.5L28.1,56.6L27,58.7l2.1-1.1L40,46.8l8,8
			c0.2,0.2,0.5,0.2,0.5-0.2l0.2-2.8c0-0.3-0.2-0.8-0.4-1.1L34.7,37.2z"/>
		<path d="M52.1,19.9c-0.3-0.3-0.7-0.3-1,0l-0.2,0.2c-0.3,0.3-0.3,0.7,0,1l13.4,13.5c0.3,0.3,0.7,0.3,1,0l0.2-0.2
			c0.3-0.3,0.3-0.7,0-1L52.1,19.9z"/>
		<path d="M43.5,28.6c-0.3-0.3-0.7-0.3-1,0l-0.2,0.2c-0.3,0.3-0.3,0.7,0,1l13.4,13.5c0.3,0.3,0.7,0.3,1,0l0.2-0.2
			c0.3-0.3,0.3-0.7,0-1L43.5,28.6z"/>
		<path d="M47.8,24.3c-0.3-0.3-0.7-0.3-1,0l-0.2,0.2c-0.3,0.3-0.3,0.7,0,1l13.4,13.5c0.3,0.3,0.7,0.3,1,0l0.2-0.2
			c0.3-0.3,0.3-0.7,0-1L47.8,24.3z"/>
		<path d="M63.4,35.5L50,22.1c-0.3-0.3-0.7-0.3-1,0l-0.2,0.2c-0.3,0.3-0.3,0.7,0,1l13.4,13.5c0.3,0.3,0.7,0.3,1,0l0.2-0.2
			c0.2-0.2,0.2-0.4,0.2-0.6C63.6,35.8,63.5,35.7,63.4,35.5z"/>
		<path d="M45.6,26.4c-0.3-0.3-0.7-0.3-1,0l-0.2,0.2c-0.3,0.3-0.3,0.7,0,1l13.4,13.5c0.3,0.3,0.7,0.3,1,0l0.2-0.2
			c0.3-0.3,0.3-0.7,0-1L45.6,26.4z"/>
	</g>
</g>
<g id="Layer_31" display="none">
	<path display="inline" d="M43.8,39.3c2.2-2.2,4.4-3.9,6.4-5.1c0,0,0.2-0.1,0.2-0.1c1.1-0.6,6.3-3.8,10.7-8L80.3,6.9l0,0
		c0.6-0.5,1.4-0.5,2,0.1c0.5,0.5,0.6,1.4,0.1,2v0L63.2,28.1c-4.3,4.4-7.4,9.6-8,10.7c0,0-0.1,0.2-0.1,0.2l0,0
		c-1.2,2-2.9,4.2-5.1,6.4c-3.3,3.3-6.8,5.7-9.3,6.4l-3.2-3.2C38.1,46.1,40.5,42.6,43.8,39.3z M39,55l-4.7-4.7
		c-1.8-0.3-3.6,0.3-4.8,2.8c-2.6,6.6-9.6,6-9.6,6S29.5,65.9,37,60C38.5,58.7,39.2,56.8,39,55z"/>
</g>
<g id="Layer_37" display="none">
	<path display="inline" d="M21.5,62.4c4.6-1.7,4.4-6.5,8.6-9.8c1.9-1.5,4.4-2.6,4.6-2.6c0.3-1.8,6.9-7.4,8.3-8.6L75.2,9.9l0,0
		C78,7.4,80.4,5.8,81,6.3c0.6,0.6-1.4,3.6-4.5,6.7c-0.1,0.1-30.6,31.2-30.6,31.2c-0.7,0.8-6.6,8.1-8.6,8.4l0,0
		C34.1,61.2,25.9,63.5,21.5,62.4z"/>
</g>
<g id="Layer_32" display="none">
	<path display="inline" d="M44.6,52.8c-8,16.8-24.3,6.7-24.3,6.7s8.2,1.2,8.4-6.5c0.2-7.2,7.4-7.9,8.2-8L44.6,52.8z M40.6,41.4
		l-2.4,2.1l7.7,7.7l2-2.4c1.5,0.1,2.9-0.3,3.9-1.3c1.2-1.2,1.6-3,1.2-4.8L82,8.6c0.5-0.5,0.5-1.4,0-1.9s-1.4-0.5-1.9,0L46.5,36.3
		c-1.7-0.3-3.4,0.1-4.5,1.3C40.9,38.5,40.5,39.9,40.6,41.4z"/>
</g>
<g id="Layer_33" display="none">
	<path display="inline" d="M78.7,46.3v3H22.4v-3h10.4c0,0,2.3-0.1,5.8-3.5c1.3-1.2,2.5-2.4,3.6-3.5l4.5-4.3l14-14.6l3.4,3.8
		L51.4,37.5c2.5,0.5,5.4,2.1,10.7,6c0,0,2.5,1.8,4.9,1.9c0,0,0.1,0,0.1,0c0.5-1.3,2.1-2.4,1-6.4c-0.7-2.6-3.8-7.7-3.8-7.7
		s-2.1-3.2,1-4.6c3.2-1.4,5.4-2.3,10.3-2.8c0,0,0.7,0.3,0,1c-0.7,0.7-4.5,3.5-2.4,7.1c1.4,2.5,4.6,6.1,4.5,14.3H78.7z M25.9,40.4
		c0,1.3-0.5,2.2-0.5,2.2v1.5h7.4v-1.5c0,0-0.6-0.9-0.6-2.2c0-1.3-0.2-1.6,1-3.9c1.2-2.3,1.4-1.5,1.4-3.3s-1.1-5-5.6-5
		s-5.6,3.2-5.6,5s0.2,1,1.4,3.3C26.1,38.8,25.9,39.1,25.9,40.4z"/>
</g>
<g id="Layer_33_copy" display="none">
	<g display="inline">
		<path d="M77.7,46.3c0.1-8.1-3.1-11.8-4.5-14.3c-2.1-3.6,1.8-6.4,2.4-7.1c0.7-0.7,0-1,0-1c-4.9,0.5-7.1,1.4-10.3,2.8
			c-3.2,1.4-1,4.6-1,4.6s3.1,5.1,3.8,7.7c1.1,3.9-0.5,5.1-1,6.4c0,0-0.1,0-0.1,0c-2.4-0.1-4.9-1.9-4.9-1.9c-5.4-3.9-8.3-5.5-10.7-6
			l12.7-13.4l-3.4-3.8L48.9,32.6c0.3-1.5,0.2-3-0.4-4.5c-0.6-1.6-1.9-2.9-3.5-3.6c-1.6-0.7-3.4-0.8-5-0.1c-2.8,1.1-4.1,4.2-3.1,6.9
			c0.9,2.3,3.4,3.4,5.7,2.5c0.9-0.4,1.6-1,2-1.9c0.4-0.9,0.4-1.9,0.1-2.8c-0.3-0.8-0.9-1.4-1.6-1.7c-0.7-0.3-1.6-0.3-2.3-0.1
			c-1.3,0.5-2,2-1.5,3.3c0.4,1.1,1.7,1.6,2.8,1.2c-0.2-0.5-0.2-0.6-0.4-1.1c-0.5,0.2-1.1-0.1-1.3-0.6c-0.3-0.7,0.1-1.5,0.8-1.8
			c0.5-0.2,1-0.2,1.5,0c0.5,0.2,0.8,0.6,1,1.1c0.2,0.6,0.2,1.3,0,1.9c-0.3,0.6-0.8,1.1-1.4,1.3c-1.7,0.7-3.6-0.2-4.2-1.9
			c-0.8-2.2,0.3-4.6,2.4-5.5c1.4-0.5,2.8-0.5,4.2,0.1c1.3,0.6,2.3,1.7,2.9,3c0.7,1.7,0.6,3.6-0.1,5.3c-0.1,0.3-0.3,0.6-0.5,0.9
			l-0.2,0.2l-4.5,4.3c-1.1,1.1-2.3,2.3-3.6,3.5c-3.6,3.5-5.8,3.5-5.8,3.5H22.4v3h56.3v-3H77.7z"/>
		<path d="M25.9,40.4c0,1.3-0.5,2.2-0.5,2.2v1.5h7.4v-1.5c0,0-0.6-0.9-0.6-2.2c0-1.3-0.2-1.6,1-3.9c1.2-2.3,1.4-1.5,1.4-3.3
			s-1.1-5-5.6-5s-5.6,3.2-5.6,5s0.2,1,1.4,3.3C26.1,38.8,25.9,39.1,25.9,40.4z"/>
	</g>
</g>
<g id="Layer_35" display="none">
	<g display="inline">
		<path d="M69.3,26.8c-0.1,0.1-1.3,3.3-5.9-0.9c-3.1,4-4.4,3.9-4.4,3.9l-1.7,1.7c-0.5,0.4-1.5-0.2-1.5-0.2L36.4,50.7l-3.8,3
			l-0.1-0.1l2.5-4.3l19.5-19.5c0,0-0.6-1-0.2-1.5l1.7-1.7c0,0-0.1-1.2,3.9-4.4c-4.2-4.5-1-5.8-0.9-5.9c5.7-3.2,8.8,0.6,9.2,1.1
			C68.7,17.9,72.5,21.1,69.3,26.8z"/>
	</g>
</g>
<g id="Layer_36" display="none">
	<g display="inline">
		<g>
			<path d="M40.9,36.3l0-16.3c0-4.3-4.6-4.2-4.6,0v16.3v2v15.6l6.7,7.2h15l7.2-7.2c2.9-10.4-1.2-20.2-0.4-24.8
				c0.9-3.5-4.6-2.4-4.6,1.8v9h-1.4v-1.8l0,0V14.3c0-4.3-4.6-4.2-4.6,0l0,22h-1.3V11c0-4.3-4.6-4.2-4.6,0v25.3h-1.3V14.5
				c0-4.3-4.6-4.2-4.6,0v21.8L40.9,36.3L40.9,36.3z"/>
		</g>
	</g>
</g>
<g id="Layer_38" display="none">
	<g display="inline">
		<g>
			<path d="M41.7,35.4l0-16.1c0-4.2-4.6-4.2-4.6,0v16.1v1.9c0,0,0,7.9,0,11.3c0,17.6,28.3,17.5,28.3,0c0-14.2-0.8-15.9,0-20.5
				c0.9-3.5-4.6-2.4-4.6,1.8v8.9h-1.4v-1.8l0,0V13.6c0-4.2-4.6-4.2-4.6,0l0,21.8h-1.3V10.3c0-4.2-4.6-4.2-4.6,0v25.1h-1.3V13.7
				c0-4.2-4.6-4.2-4.6,0v21.6C43,35.4,41.7,35.4,41.7,35.4z"/>
		</g>
	</g>
</g>
<g id="Layer_39" display="none">
	<path display="inline" d="M75.9,24.1l-0.2,1.6l-1.6-0.2l-0.2,1.6l-1.6-0.2l-0.2,1.6l-1.6-0.2l-0.2,1.6l-1.6-0.2l-0.2,1.6L66.9,31
		l-0.2,1.6l-1.6-0.2L64.9,34l-1.6-0.2l-0.2,1.6l-1.6-0.2l-0.2,1.6l-1.6-0.2l-0.2,1.6L58,37.9l-0.2,1.6l-1.6-0.2L56,40.9l-1.6-0.2
		l-0.2,1.6l-1.6-0.2l-0.2,1.6l-1.6-0.2L50.6,45L49,44.8l-0.2,1.6l-1.6-0.2L47,47.8l-1.6-0.2l-0.2,1.6L43.6,49l-0.2,1.6l-1.6-0.2
		L41.6,52L40,51.8l-0.2,1.6l-1.6-0.2l-0.2,1.6l-1.6-0.2l-0.2,1.6l-1.6-0.2l-0.2,1.6l-1.6-0.2l-0.2,1.6L31,58.7l-0.2,1.6l-1.6-0.2
		l-0.2,1.6l-1.6-0.2l-0.2,1.6l-1.6-0.2l-0.2,1.6l-1.6-0.2l-0.2,1.6l-1.7-0.2l-2.8-2.3c-1-0.9,0-2.3,0-2.3l31.5-39.7l4.7,3.2l2.3-2.3
		c0.1-0.1,1.3-1.2,2.9-0.1l4.2,2.9c0,0,0.6,0.4,1.5,0.4c0.7,0,1.6-0.2,2.6-1.1c1.5-1.3,3.2-0.4,3.4-0.3c0,0,1.6,0.5,3.3-0.4
		C75.9,23.4,75.9,24.1,75.9,24.1z M84,15.1c0,0-1.4,1.8-3,1.7c-1.6-0.1-2.6,1.1-2.6,1.1s-0.9,1-1.1,1.9c-0.1,0.5-0.5,1.1-1.1,1.8
		c0,0,0,0,0,0c-1.8,2.1-3.7,1.5-3.7,1.5c-0.1-0.1-2.4-1.3-4.5,0.5c-1.6,1.4-2.8,0.6-2.9,0.6L61,21.3c-1.9-1.3-3.6-0.4-4.2,0.2
		l-1.7,1.7l-3.9-2.7l5.6-7c0,0,0.7-1.1,3-1.5c0,0,2.3-0.1,2.6-2.4c0,0,0.1-0.9,1.2-1.1c0,0,2.4-0.5,3.2-2.4c0,0,0.9-2.5,4.9-3.3l1,1
		c0,0,0.1,0.1-0.1,0.3l-0.6,0.2c0,0-2.3,0.9-2,2.8c0,0,0,1.8,3.2,2.1c0,0,2.4,0,5.2,3.7c0,0,1.7,2.6,3.7,1l0.4-0.4
		c0,0,0.1-0.2,0.3,0l1.3,1.3C84,14.8,84.2,15,84,15.1z M55.4,19.8c0-0.4-0.3-0.6-0.7-0.6c-0.4,0-0.6,0.3-0.6,0.7
		c0,0.4,0.3,0.6,0.7,0.6C55.1,20.5,55.4,20.2,55.4,19.8z M74,21.5c0-0.4-0.3-0.6-0.7-0.6c-0.4,0-0.6,0.3-0.6,0.7
		c0,0.4,0.3,0.6,0.7,0.6C73.7,22.2,74,21.9,74,21.5z M72.4,14.5l-3.7-1.8c0,0-5.3-2.5-6.1,0.9c0,0-0.9,2.8,3.6,3.4
		c0,0,2.1,0.4,4.1,1.5c0,0,3.4,1.9,4.3-0.4C74.6,18,75.3,15.6,72.4,14.5z"/>
</g>
<g id="Layer_40" display="none">
	<path display="inline" d="M61.6,40.6h4.2v5L65,45.1l-0.8,0.4l-0.8-0.4l-0.8,0.4l-0.8-0.4l-0.8,0.4l-0.9-0.4L59,45.5l-0.8-0.4
		l-0.8,0.4l-0.8-0.4l-0.9,0.4l-0.8-0.4l-0.9,0.4l-0.8-0.4l-0.8,0.4l-0.8-0.4l-0.8,0.4l-0.9-0.4l-0.8,0.4L48,45.1l-0.9,0.4l-0.8-0.4
		l-0.9,0.4l-0.8-0.4l-0.8,0.4l-0.9-0.4L42,45.5l-0.8-0.4l-0.9,0.4l-0.8-0.4l-0.9,0.4l-0.8-0.4l-0.9,0.4l-0.8-0.4l-0.8,0.4l-0.9-0.4
		l-0.8,0.4l-0.9-0.4l-0.8,0.4L31,45.1l-0.9,0.4l-0.8-0.4l-0.9,0.4l-0.9-0.4l-0.9,0.4l-0.9-0.4L25,45.5l-0.9-0.4l-0.9,0.4l-0.9-0.4
		l-0.9,0.4l-0.9-0.4l-0.9,0.4V33.1c-0.3,0-0.7-0.2-0.7-1v-1.6c0,0,0.1-0.6,0.7-0.6l38.1,0v5c0,0.1,0,1.9,1.5,2.9
		c1.8,1.1,2,2.3,2,2.3L61.6,40.6z M83.4,38.2c0,0.6-2.8,2.3-5.2,1.3c0,0-1.7-0.3-2.1,0.8c-0.3,0.8-3.4,1.4-4.3,0.4
		c0,0-1.2-1.3-5.8-1.3l-3.5,0c-0.2-0.6-0.8-1.6-2.3-2.6c-1-0.7-1-1.9-1-1.9v-5l3.3,0c1-0.7,1.2-2,1.3-2.7c0-0.2,0.4-0.4,0.4-0.4h1.5
		c3.7,0,4.8-1.8,4.8-1.8s1.2-1.7,5.2-1.7c0,0,2.3-0.1,2.1,0.4C77.4,25,76.4,25,76.4,25c-2.6,0.3-2.9,2.3-1.5,3.7c0,0,2.8,2.6,4.5,7
		c0,0,0.8,2,3.2,2C82.6,37.7,83.4,37.6,83.4,38.2z M62.7,31.5c-0.3-0.2-0.7-0.2-0.9,0c-0.2,0.3-0.2,0.7,0,0.9c0.3,0.2,0.7,0.2,0.9,0
		C63,32.2,63,31.8,62.7,31.5z M64.4,36.6c-0.3-0.2-0.7-0.2-0.9,0c-0.2,0.3-0.2,0.7,0,0.9c0.3,0.2,0.7,0.2,0.9,0
		C64.7,37.2,64.7,36.8,64.4,36.6z M73.3,33.5L71,30.7c-2-2.7-3.9-1.1-3.9-1.1c-1.4,1.4-0.5,2.7-0.5,2.7l2.5,3.4c0,0,3,3.8,5,1.9
		C75.8,36.1,73.3,33.5,73.3,33.5z"/>
</g>
<g id="Layer_41" display="none">
	<path display="inline" d="M83.6,13.4c-3.4-1.7-6.1-4-6.1-4l-7.3-7.3C69.6,1.5,69,2.3,69,2.3l-5,5.3c-0.7,0.7,0,1.1,0,1.1l1,1
		c-0.4,0.4-1.2,1.4-2.3,4c-1.5,3.4-3.7,6.6-5.4,8.8c-3,3.9-9.8,10.2-9.8,10.2C34,44.4,29.4,50.4,29.4,50.4c-2.2,2.9-3.4,4-3.4,4
		L21.4,59c-1.8,1.7-0.6,1.9-0.6,1.9s3.7,0.1,7.3-0.6c0,0,1.2-0.3,2-2.1l2.6-5.3c0,0,1.7-4.2,19-19.1c0,0,8-7.1,11.9-12.4
		c0,0,1.3-2,4-5l1.9-2.1c3.4,2.6,5.3,8.1,5.3,8.1c0.1,0.1,0.6-0.1,0.6-0.1c4.4-2.4,8-8,8-8C83.9,13.7,83.6,13.4,83.6,13.4z"/>
</g>
<g id="Layer_45" display="none">
	<path display="inline" d="M68.6,4.4c0,0,0.2-0.2,0.4,0c0,0,0.5,0.3,1.9,1.5L71,5.8c0,0,0.2-0.2,0.4,0l4.1,3.8c0.1,0.1,0,0.3,0,0.3
		l-0.1,0.2c0.4,0.3,0.7,0.7,1.1,1.1l1.4,1.4c1.1,1.1,5,4.2,5,4.2C83,16.9,83,17,83,17s-2.8,4.5-8.8,7.4c0,0-0.2,0.1-0.2-0.1
		c0,0,0.2-1.7-0.4-8.6c0,0,0-0.5-0.4-0.9l-1.3-1.3c0,0,0,0.3-1,1.2L57.3,28.7c0,0-4.2,4.5-8.3,8.1L34.3,51.2
		C29,56.5,25.8,64,25.8,64c-0.2,0.7-0.8,0.6-0.8,0.6h-3.5c-0.8,0-1.3-0.4-1.3-0.4l-0.5-0.5c-0.5-1,0.6-1.9,0.6-1.9s3.8-3.8,5-5.9
		c1.2-2.1,4.2-5.3,4.2-5.3L53,27.2c7-7.2,10.5-13,10.5-13l0.1-0.3c1.8-3.7,3-4.2,3-4.2l0.6-0.3L65.8,8c-0.2-0.2-0.1-0.4-0.1-0.4
		L68.6,4.4z"/>
</g>
<g id="Layer_42" display="none">
	<path display="inline" d="M73.2,27.5c-2.7-1.8-9.5-9.2-9.5-9.2l-0.4-0.4c-1-1-1.8,0-1.8,0l-2,2c-1,1-0.6,2.1-0.5,2.4
		c-4.2,4.8-7.5,6.8-8.8,8l0,0c0,0-7.2,5.4-12.1,11.4l0,0.1c-3.2,4.3-8.5,8.6-8.5,8.6c-0.6,0.5-0.1,0.7-0.1,0.7l6.1,0.3
		c1.6,0.2,3.4-3.1,3.4-3.1c0.7-1.1,2.1-3.3,3-4.4c5-6.1,11.2-10.4,11.2-10.4c4.6-3.6,8.5-7.3,8.5-7.3l0.5-0.5
		c0.2,0.2,0.3,0.4,0.3,0.4c1.4,1.9,3.9,7.1,3.9,7.1c4-1,7.2-5.6,7.2-5.6L73.2,27.5z M34.7,49.7c-0.4,0-0.7-0.3-0.7-0.7
		s0.3-0.7,0.7-0.7c0.4,0,0.7,0.3,0.7,0.7S35.1,49.7,34.7,49.7z"/>
</g>
<g id="Layer_43" display="none">
	<path display="inline" d="M83.1,35.3h1.5v3.3H83c0,1-0.1,1.9-0.2,1.9L82,41.8l-0.7-0.9c-0.1,0-0.2,0-0.2,0l-0.9,1.4l-0.9-1.1
		c0,0-0.1,0-0.1,0l-1,1.4l-0.9-1l-0.9,1.3l-0.8-1l-0.9,1.3l-0.9-1.1L73,43.4l-0.9-1l-0.8,1.2l-0.9-1l-0.8,1.2l-0.8-1L68,44l-0.9-1
		l-0.8,1.1L65.5,43l-0.8,1.1l-0.8-1l-0.8,1.2l-0.9-1.1l-0.7,1.1l-0.8-1l-0.8,1.1l-0.9-1l-0.7,1l-0.9-1.1l-0.7,1.1l-0.8-0.9l-0.7,1.1
		l-0.8-1l-0.8,1.1l-0.9-1l-0.7,1l-0.8-0.9l-0.8,0.9l-0.7-1l-0.9,1L48,43.6l-0.8,1l-0.7-1.1l-0.8,0.9l-0.7-1.1L44,44.5l-0.7-1l-0.9,1
		l-0.8-1.1l-0.8,1l-0.7-1.1l-0.9,1.1l-0.8-1.2l-0.8,1L36.9,43L36,44.1l-0.8-1.1l-0.9,1l-0.8-1.2l-0.8,1l-0.8-1.2l-0.9,1l-0.8-1.2
		l-0.9,1l-0.9-1.3l-0.9,1.1l-0.9-1.3l-0.8,1L25,41.6c-0.1,0-0.1,0-0.2,0l-0.8,1l-0.8-1.2c-0.1,0-0.2,0-0.3-0.1l-0.8,0.9L21.3,41
		c-0.1,0-0.3-0.1-0.4-0.1l-0.6,0.9l-0.9-1.2c0,0-0.1-0.9-0.1-1.9H18v-3.3h1.4c0,0,0,0,0,0L83.1,35.3C83.1,35.3,83.1,35.3,83.1,35.3z
		 M19.9,34.1l0.4-8.6c0-0.7-0.6-1.3-1.3-1.3s-1.3,0.6-1.3,1.3l0.4,8.6C18.9,34.1,19,34.1,19.9,34.1z M84.5,34.1l0.4-8.6
		c0-0.7-0.6-1.3-1.3-1.3c-0.7,0-1.3,0.6-1.3,1.3l0.4,8.6C83.6,34.1,83.6,34.1,84.5,34.1z"/>
</g>
<g id="Layer_44" display="none">
	<path display="inline" d="M37.5,41.7c0,0-0.2,0.4-0.1,0.8c0.2,0.6,0,1.3-1.3,2.7l-4.5,5.3c-4.7,5.1-2.3,7.9-2.3,7.9
		c3,3.9,6.4,0.1,6.4,0.1c0.4-0.4,0.1-0.6,0.1-0.6l-0.3-0.2c-1.9-1.2-1.3-2.9-1.3-2.9c0.6-2.3,5.7-7.5,5.7-7.5l4.6-4.6l-4.6-4.3
		L37.5,41.7z M33.8,52.2c-0.2,0.3-0.6,0.4-1,0.2c-0.3-0.2-0.4-0.6-0.2-0.9c0.2-0.3,0.6-0.4,1-0.2C34,51.5,34.1,51.9,33.8,52.2z
		 M40.8,42.9c-0.2,0.3-0.6,0.4-1,0.2c-0.3-0.2-0.4-0.6-0.2-0.9c0.2-0.3,0.6-0.4,0.9-0.2C40.9,42.1,41,42.5,40.8,42.9z M48,40.1
		l-2.7,2.2l-4.7-4.4c0,0,5.6-7,12.9-13.6c0,0,2.1-1.9,4.3-2.1c0,0,0.8-0.1,0.7-1l-0.2-0.5c0,0-0.3-0.5,0.5-0.9l2.5-1.7
		c0,0,3-1.6,1.3-4c0,0-1.3-1.9-3.3-2.2c0,0-0.7-0.2-0.6-0.9c0,0,0.2-1.5,2-2.1c0,0,5.2-2.6,12.5,9.5l0.9,1.7
		c0.8,1.2,0.2,1.5,0.2,1.5c-0.9,0.9-1.9,1.2-1.9,1.2c-1.7-0.4-9.3,5.2-9.3,5.2l-14,10.4C48.2,39.1,48,40.1,48,40.1"/>
</g>
<g id="Layer_46" display="none">
	<path display="inline" d="M44.3,26c5.1,5.1,9,9.3,9,9.3c0.7,0.7,0.9,1.4,0.9,1.4c-0.1,0.1,0,0.1,0,0.1s0.7,1.3,2.4,2.6
		c4.2,3.7,5.9,6.2,5.9,6.2c2.9,3.7,4.7,9.4,4.7,9.4s0.2,0.5,0.5,0.4c2.6-0.7,5.9-3,5.9-3c0.5-0.4,0.1-0.7,0.1-0.7L72,50.3
		c-1.9-1.9-3.8-5-3.8-5c-4.9-7-9.1-10.2-11.1-11.4c0,0-0.1,0-0.2,0.1L55.7,33c-2.1-1.5-4.9-4.6-4.9-4.6c-4.3-4.9-4.5-6.7-4.5-6.7
		c-0.4-1.3-0.1-1.6-0.1-1.6l1-1l0.1-0.1c0.1-0.1,0.1-0.3,0.1-0.3l0-0.3c0-0.2-0.1-0.3-0.1-0.3c-2.1-2.5-4.2-4.4-4.2-4.4
		c-0.5-0.5-0.9,0-0.9,0s-5.6,6.8-12.4,10.9l-0.2,0.1c-0.8,0.4-0.7,0.9-0.7,0.9c0.1,1.9,2.7,4.1,2.7,4.1c3.9,3.7,6.7,3.5,6.7,3.5
		c0.2,0,0.2-0.2,0.2-0.2l0.1-0.5c0.7-3,2.3-5.8,2.3-5.8c1.6-2.2,3.2-0.9,3.2-0.9S44.1,25.8,44.3,26z"/>
</g>
<g id="Layer_47" display="none">
	<path display="inline" d="M67.5,53.5c-0.2,0.1-0.6,0.2-1,0.2c0-0.1-0.1-0.3-0.2-0.4c0.4,0,0.8-0.2,0.9-0.2c1.7-0.6,3.9-2,4-2.1
		c0.4-0.2,0.6-0.5,0.8-0.6l0.4,0.4c-0.1,0.1-0.4,0.4-0.7,0.6C71.8,51.3,69.4,52.8,67.5,53.5L67.5,53.5z M58.5,34.8
		c-0.2,0.2-1.7,1.8-3.4,3.3c0.1,0.1,0.2,0.2,0.4,0.4c1.6-1.4,3.1-2.9,3.5-3.3C58.8,35.1,58.7,35,58.5,34.8z M57,33.8
		c0,0-0.1,0-0.2,0.1l-1.1-0.8c-2.1-1.5-4.9-4.5-4.9-4.5c-4.2-4.9-4.5-6.7-4.5-6.7c-0.4-1.3-0.1-1.6-0.1-1.6l1-1l0.1-0.1
		c0.1-0.1,0.1-0.3,0.1-0.3l0-0.3c0-0.2-0.1-0.3-0.1-0.3c-2-2.4-4.2-4.4-4.2-4.4c-0.5-0.5-0.8,0-0.8,0s-5.5,6.8-12.3,10.8l-0.2,0.1
		c-0.8,0.4-0.7,0.9-0.7,0.9c0.1,1.8,2.7,4.1,2.7,4.1c3.9,3.6,6.6,3.4,6.6,3.4c0.2,0,0.2-0.2,0.2-0.2l0.1-0.5c0.7-3,2.3-5.8,2.3-5.8
		c1.6-2.2,3.2-0.9,3.2-0.9s0.1,0.1,0.3,0.2c5,5,8.9,9.2,8.9,9.2c0.7,0.7,0.9,1.4,0.9,1.4c-0.1,0.1,0,0.1,0,0.1s0.2,0.4,0.8,1
		c1.6-1.4,3-2.9,3.3-3.2C57.8,34.3,57.4,34,57,33.8z M67.1,52.7c1.7-0.6,3.9-2,4-2.1c0.4-0.2,0.6-0.5,0.7-0.6
		c-1.8-1.9-3.7-4.8-3.7-4.8c-3.5-4.9-6.6-8-8.8-9.8c-0.4,0.4-1.8,1.9-3.5,3.4c0.2,0.2,0.4,0.4,0.7,0.6c4.2,3.7,5.9,6.1,5.9,6.1
		c1.8,2.3,3.2,5.3,3.9,7.3C66.6,52.9,67,52.7,67.1,52.7L67.1,52.7z M73.5,51.7L72.8,51c-0.1,0.2-0.4,0.4-0.8,0.6
		c-0.1,0.1-2.5,1.6-4.3,2.2c-0.1,0-0.5,0.2-1,0.2c0.2,0.5,0.3,0.8,0.3,0.8s0.2,0.5,0.5,0.4c2.6-0.7,5.8-3,5.8-3
		C73.9,52,73.5,51.7,73.5,51.7z"/>
</g>
<g id="Layer_48" display="none">
	<g display="inline">
		<path d="M71.8,54.1l1-1c0,0,0.6-0.5,0-1.4C64,38.8,44.9,19.8,44.9,19.8l0,0c0.1-0.1,0.1-0.2,0.1-0.2l1.1-1.1c0.1-0.1,0-0.4,0-0.4
			c-1.1-1.9-3.8-4-3.8-4c-0.2-0.2-0.4,0-0.4,0l-1.3,1.2L40.2,15c0,0-0.1-0.2-0.3,0c-2.3,1.7-3.9,3.9-3.9,3.9c-0.2,0.2,0,0.3,0,0.3
			l0.3,0.3l-1.2,1.3c-3.4,4.1-5.4,5.8-5.4,5.8c-0.4,0.3-0.1,0.6-0.1,0.6s3.6,4.3,8.5,6.4c0.7,0.3,0.5-0.2,0.5-0.2
			c-0.8-3.6,0.5-8.9,0.5-8.9c0,0,0,0,0,0c0,0,0.1-0.3,0.3-0.6l0.1-0.1c0,0,0.2-0.2,0.6-0.3l1.5,1.5c0,0,1.3,1.3,5.7,5.3
			c0,0,3.3,3,5.2,4.8c9.6,9.3,10.8,11.5,10.8,11.5c2.2,2.7,2.8,6.2,2.8,6.2l0.4,1.3c0,0,0.3,0.8,1.1,0.7l3.8-0.4
			C71.3,54.4,71.5,54.4,71.8,54.1z"/>
		<path d="M69.1,51.4c-0.3,0.3-0.7,0.3-1,0c-0.3-0.3-0.3-0.7,0-1c0.3-0.3,0.7-0.3,1,0C69.4,50.7,69.4,51.1,69.1,51.4z"/>
	</g>
</g>
<g id="Layer_49" display="none">
	<g display="inline">
		<path d="M41.1,15c-0.2,1.5-0.4,3.1-0.5,4.4c1.3,0,2.9,0.1,4.4,0.3l0,0l1.1-1.1c0.1-0.1,0-0.4,0-0.4c-1.1-1.9-3.8-4-3.8-4
			c-0.2-0.2-0.4,0-0.4,0L41.1,15C41.1,14.9,41.1,15,41.1,15z"/>
		<path d="M36.1,19.5c0.4,0,2-0.1,4-0.1c0.1-1.3,0.2-2.7,0.4-4.1L40.2,15c0,0-0.1-0.2-0.3,0c-2.3,1.7-3.9,3.9-3.9,3.9
			c-0.2,0.2,0,0.3,0,0.3L36.1,19.5z"/>
		<path d="M72.7,51.6c-8-11.7-24.5-28.4-27.4-31.3c-1.6-0.2-3.3-0.3-4.7-0.4c-0.1,1.9-0.1,3.4-0.1,4.1l1.1,1.1c0,0,1.3,1.3,5.7,5.3
			c0,0,3.3,3,5.2,4.8c9.6,9.3,10.8,11.5,10.8,11.5c2.2,2.7,2.8,6.2,2.8,6.2l0.4,1.2c0,0,0.3,0.8,1.1,0.7l3.8-0.4c0,0,0.2,0,0.5-0.3
			l1-1C72.7,53,73.3,52.5,72.7,51.6z"/>
		<path d="M40.1,19.9c-2.3,0-4,0.1-4,0.1c0,0,0,0,0,0l-0.8,0.9c-3.4,4.1-5.4,5.8-5.4,5.8c-0.4,0.3-0.1,0.6-0.1,0.6s3.6,4.3,8.4,6.4
			c0.7,0.3,0.5-0.2,0.5-0.2c-0.8-3.6,0.5-8.9,0.5-8.9c0,0,0,0,0,0c0,0,0.1-0.3,0.3-0.6l0.1-0.1c0,0,0.2-0.2,0.5-0.2
			C40,22.8,40,21.5,40.1,19.9z"/>
	</g>
</g>
<g id="Layer_50" display="none">
	<path display="inline" d="M64.1,4c0,0,3.2,0.5,6.8,3.7c0,0,1.4,1.2,3.4,3.4l0.3,0.4c2.4,2.9,6.9,6.1,6.9,6.1
		c0.7,0.4,1.1,0.9,1.1,0.9c0.5,0.5,0,1.2,0,1.2s-3.1,4.7-8,7.4c0,0-0.5,0.3-0.7-0.4c0,0-1.2-4.2-4.8-8.8c0,0,0,0,0,0l-3.8,4.3
		c0,0-3.3,3.9-5.5,6l-5.9,5.8c-3.1,2.9-11.5,10.2-11.5,10.2c-3.9,3.4-6.2,5.6-6.2,5.6c-4.1,4.3-6.8,8.7-6.8,8.7s-1.2,1.8-2,4.7
		c0,0-0.1,0.5-0.5,0.9c-0.6,0.6-1.6,1.1-4.4,1.4c0,0-2.3,0.3-3.1-0.9c-0.8-1.2,1.6-3.5,1.6-3.5s0.8-0.7,1.6-2l0,0c0,0,4-6.2,10-12.2
		c0,0,3.2-3.3,9-7.9l1.9-1.7c9.4-8,16-16.2,16-16.2s1-1.3,1.7-2.6c0.7-1.4,1-2,3.1-4.1l0.3-0.3c0,0-1.1-0.9-1.8-1.4l-0.2-0.2
		c-0.1-0.1,0-0.1,0-0.1l2.2-2.6c0,0,0.4-0.4-0.1-0.9c-2.9-2.6-5.7-4.7-5.7-4.7s-0.1-0.1-0.1-0.2C59.5,3.7,59.5,3.1,64.1,4z"/>
</g>
<g id="Layer_51" display="none">
	<g display="inline">
		<path d="M47,6.9h19.7V5.3h-3.4c-0.8-0.1-1.8-1.4-1.8-1.4c-0.2-0.2-0.3-0.3-0.3-0.3L41.1,3.6h-0.8c0,0-0.3,0.1-0.3,0.3v2.5l1.1,0
			v5.1h-1l0,14.5h1l0,39.2l4.4,0l0-39.2h2c0,0,0.9,0.1,0.9-0.6c0-0.4-0.2-0.5-0.2-0.5s-0.3-0.2-0.5-0.4c0,0-0.1-0.1-0.2-0.2
			c-0.3-0.4-0.5-0.8-0.5-1.3c0,0,0-1.2,0-1.3c0-0.6,0.3-1.2,0.8-1.5V20h1.5v0.7c0,0.2,0.2,0.4,0.4,0.4h0.6c0.2,0,0.4-0.2,0.4-0.4
			v-2.5c0-0.2-0.2-0.4-0.4-0.4h-0.6c-0.2,0-0.4,0.2-0.4,0.4V19h-1.5v-0.4c-0.1-0.1-0.2-0.2-0.2-0.2c-0.3-0.3-0.5-0.8-0.5-1.3
			c0-1.2,1-2.2,2.2-2.2l12,0c0,0,0.1-0.1,0.3-0.3c0,0,1-1.4,1.8-1.5l3.4,0v-1.5H45.6V8C45.6,6.9,47,6.9,47,6.9z M44.6,22.6
			c0,0.7-0.6,1.3-1.3,1.3c-0.7,0-1.3-0.6-1.3-1.3v-6.3c0-0.7,0.6-1.3,1.3-1.3c0.7,0,1.3,0.6,1.3,1.3V22.6z"/>
	</g>
</g>
<g id="Layer_52" display="none">
	<path display="inline" d="M85.3,36.8c0,0-4.7,1.2-8.6,4.1c0,0-0.3,0.3-0.9,0.3h-3.7l-2.2-1.8l-0.7-0.6c1.2-1.2,1.8-2.4,2-3.1h1.3
		l0.8,0.6h12C86.3,36.4,85.3,36.8,85.3,36.8z M16.9,27.6c0-0.3,0.2-0.5,0.5-0.5c0.1,0,0.2,0,0.3,0.1l0,0c2.4,1.9,16,0.4,16,0.4
		c11-0.8,19.6-0.8,19.6-0.8c10.2,0,15.1,4.6,15.1,4.6h1.5l2.2-1.8h3.7c0.6,0,0.9,0.3,0.9,0.3c4,3.2,8.6,4.8,8.6,4.8s1,0.4,0,0.4
		H70.7c0,0-1.9,6.9-11.9,6.9c-8.4,0-17.1-1.6-17.1-1.6S30,38.7,19.2,41.3c0,0-0.9,0.3-1.4,0.7c0,0,0,0-0.1,0
		c-0.1,0.1-0.2,0.1-0.3,0.1c-0.3,0-0.5-0.2-0.5-0.5c0-0.2,0.2-0.4,0.4-0.5c0.7-0.4,6-3.2,21.2-3.5c0,0,7.3,0.1,15.3,0.8
		c8,0.7,9.6-1.9,9.6-1.9c0.2-0.6,0.2-1.7,0.2-1.7c0-0.5,0.1-1.2,0.1-1.2s-0.2-2.9-9-3.3c-7.8-0.4-14.8-0.5-14.8-0.5
		c-17.3,0.9-22.1-1.4-22.7-1.7c0,0,0,0-0.1,0c0,0,0,0,0,0l0,0C17,27.9,16.9,27.8,16.9,27.6z M65.6,35.1c0,0.6,0.5,1.2,1.2,1.2
		c0.6,0,1.2-0.5,1.2-1.2c0-0.6-0.5-1.2-1.2-1.2C66.1,33.9,65.6,34.5,65.6,35.1z"/>
</g>
<g id="Layer_53" display="none">
	<path display="inline" d="M68.9,10.5l-0.6,0c-7.4,0-13.4-5.7-13.4-5.7h-1.4V4.1c0-0.4-0.2-0.7-0.7-0.7h-3.1c-0.4,0-0.7,0.3-0.7,0.7
		v0.7h-1.4c0,0-6,5.6-13.4,5.6l-0.6,0.2c-1.6,0-1.5,1.7-1.5,1.7h17v53.1l4.4,0V12.2h17C70.5,12.2,70.5,10.5,68.9,10.5z M51.3,62.9
		c-0.4,0-0.7-0.3-0.7-0.7c0-0.4,0.3-0.7,0.7-0.7c0.4,0,0.7,0.3,0.7,0.7C52,62.5,51.7,62.9,51.3,62.9z"/>
</g>
<g id="Layer_54" display="none">
	<path display="inline" d="M49.1,15.7c-1,1.4-2.8,3.8-5.5,5.5l0,0c-2.6-2-3.9-3.9-4-4l0,0c1.7-2.7,4-4.5,5.5-5.5l0,0
		C45.1,11.7,47.2,13.1,49.1,15.7z M38.6,26.8c-1.4-1.9,0.2-3.3,0.2-3.3s1-1,2.1-1.5c0.4,0.4,0.6,0.5,1.7-0.1
		c0.2-0.1,0.4-0.2,0.6-0.3c-2.2-1.7-3.4-3.2-3.8-3.8c-0.1,0.2-0.2,0.4-0.3,0.6c-0.6,1.1-0.5,1.3-0.1,1.7c-0.6,1.1-1.5,2.1-1.5,2.1
		s-2.8,2.7-0.6,5.8l3.8,5.3c3.6,4.6,0.9,9.2,0.9,9.2s0.2,0.2,0.6,0.6l-6.1,6.1c-0.4,0.1-0.7,0-0.7,0c-0.6,0-0.3,0.3-0.3,0.3l0.2,0.2
		c0.1,0.1,0.1,0.1,0.1,0.2L34,51c-0.4,0.1-0.8,0.1-0.8,0.1c-0.7,0-0.3,0.3-0.3,0.3l0.2,0.2c0.1,0.1,0.1,0.1,0.1,0.2L32,53.1
		c-0.4,0.1-0.8,0.1-0.8,0.1c-0.7,0-0.3,0.3-0.3,0.3l0.2,0.2c0.1,0.1,0.1,0.1,0.1,0.2L30,55.1c-0.4,0.1-0.8,0.1-0.8,0.1
		c-0.7,0-0.3,0.3-0.3,0.3l0.2,0.2c0.1,0.1,0.1,0.1,0.1,0.2L28,57.1c-0.4,0.1-0.8,0.1-0.8,0.1c-0.7,0-0.3,0.3-0.3,0.3l0.2,0.2
		c0.1,0.1,0.1,0.1,0.1,0.2L26,59.1c-0.4,0.1-0.8,0.1-0.8,0.1c-0.7,0-0.3,0.3-0.3,0.3l0.2,0.2c0.1,0.1,0.1,0.1,0.1,0.2L24,61.1
		c-0.4,0.1-0.7,0-0.7,0c-0.6,0-0.3,0.3-0.3,0.3l0.2,0.2c0.1,0.1,0.1,0.1,0.1,0.2l-0.5,0.5l-1,1.7l1.7-1l1.3-1.3
		c0.7,0,0.8-0.6,0.8-0.8l1.1-1.1l0.1,0c1,0,1-0.9,1-1l1-1l0.1,0c1,0,1-0.9,1-1l1-1l0.1,0c1,0,1-0.9,1-1l1-1l0.1,0c1,0,1-0.9,1-1l1-1
		l0.1,0c1,0,1-0.9,1-1l0.9-0.9c0.7,0,0.8-0.6,0.8-0.8l5.2-5.2c0.1,0.1,0.2,0.2,0.3,0.3c0.5,0.5,1-0.1,1-0.1l4.4-4.4
		c0.5-0.5,0.1-1,0.1-1L38.6,26.8z M78,8l-0.2-0.2c-0.7-0.7-4.8-4.2-6.7-2.2c-1.2,1.2-0.5,2.9,0.2,3.6h0.1c0.7,0,1.7,0.6,3.1,2
		c1.4,1.4,2.1,2.5,2.1,3.1l0,0.1c1,0.7,2.5,1.4,3.7,0.2C82.2,12.7,78.6,8.7,78,8z M73.9,11.8c-1.3-1.3-2-1.7-2.3-1.8
		c0.1,0.3,0.4,1.5-0.3,2.3l-1.5,1.5c0,0-0.5,0.6-0.3,0.9l-1,1c0,0-1.8,1.9-4.1,0l-7.2-6.1c-3-2.4-5.8-1-5.8-1c-0.9,0.5-2,1.3-2,1.3
		c-0.5,0.4-1,0.7-1.3,0.8c-0.5-0.3-1-0.2-1.7,0.1c0,0-0.3,0.2-0.8,0.5c0.5,0.4,2.2,1.7,3.8,3.9c0.3-0.5,0.5-0.8,0.5-0.8
		c0.3-0.6,0.5-1.1,0.2-1.5c0.2-0.6,1.1-2.2,2.8-2.4c0,0,1.5-0.3,2.7,0.7l7.1,6.1c4.1,3.4,7.2,0.3,7.2,0.3l1.2-1.2
		C71.5,16.5,72,16,72,16l1.5-1.5c0.7-0.7,1.9-0.5,2.2-0.4C75.7,13.9,75.3,13.2,73.9,11.8z"/>
</g>
<g id="Layer_55" display="none">
	<path display="inline" d="M29.6,57l-1.2,1.2L26,58.8l1.2-1.2L29.6,57z M25.5,59.3l-1.2,1.2l2.4-0.6l1.2-1.2L25.5,59.3z M23.8,61
		l-1.2,1.2l2.4-0.6l1.2-1.2L23.8,61z M78.8,7.2c-2-2-4.5-2.7-5.6-1.6L72.9,6c0,0,2.5,2.5-0.7,6.1c0,0-0.9,1-1.2,1.1
		c-0.2,0-0.4,0.2-0.6,0.3l-0.1,0.1c-0.2,0.2-0.3,0.7-0.1,1l0.1,0.1c0,0-2,2-4.4,0.9l-8.9-4.1l-0.1,0c-3-1.1-5.2,0.8-5.5,1.1
		c-0.6-0.6-1.5-0.6-2.1,0l-5.1,5.1c-0.6,0.6-0.6,1.5,0,2.1l0,0L43.8,20c-0.2,0.2-1.7,1.8-0.8,5.8l3,10c0.6,2-0.6,3.4-0.7,3.5
		L44,40.6l-0.4-0.4c0,0-0.5-0.4-0.8,0l-2.1,2.1c0,0-0.4,0.1-0.7,0.4c0,0-2.1,0.2-3.1,2.8c0,0-1,2.4-0.7,2.7l0.3,0.3l-6.9,6.9
		l2.4-0.6l5.5-5.5l0.2,0.2c0.3,0.3,2.7-0.7,2.7-0.7c2.6-1,2.8-3.1,2.8-3.1c0.4-0.3,0.4-0.7,0.4-0.7l2.1-2.1c0.3-0.3,0-0.8,0-0.8
		l-0.4-0.4l1.3-1.3c0.1-0.1,2-2.1,1.1-5.1l-2.9-9.9c-0.4-1.6-0.3-2.6-0.1-3.2c0.2-0.6,0.4-0.9,0.4-0.9l0.3-0.3v0
		c0.6,0.6,1.5,0.6,2.1,0l5.1-5.1c0.6-0.6,0.6-1.5,0-2.1l0,0c0.3-0.3,1.8-1.5,3.7-0.8l8.9,4.1c3.4,1.6,6.2-1.1,6.3-1.2l0.1,0.1
		c0.2,0.2,0.7,0.1,1-0.1l0.1-0.1c0.1-0.1,0.3-0.4,0.3-0.6c0.1-0.3,1.1-1.3,1.1-1.3c3.6-3.3,6.1-0.7,6.1-0.7l0.3-0.3
		C81.5,11.7,80.8,9.2,78.8,7.2z M28.9,55.9l-1.2,1.2l2.4-0.6l1.2-1.2L28.9,55.9z M22.2,62.7C22.1,63,22,63.8,22,63.8l1.2-0.3
		l1.3-1.3L22.2,62.7z"/>
</g>
<g id="Layer_56" display="none">
	<g id="Layer_56_1_" display="inline">
		<path d="M78.3,3.3l-6.1,6.1c-0.6,1.1-1.5,2-1.5,2l-8.1,8.1c-0.1,0.1-0.7,0-0.7,0c-0.5,0-0.5,0.4-0.5,0.4C61,22.2,60,23.1,60,23.1
			l-0.8,0.8c-1.1,1.1-2.1,0.7-2.1,0.7c-1.3-0.5-2.2-0.5-2.9-0.3L53.8,24l-0.8,0l-0.7-0.4l-0.8,0.1l0-1.7c1.2-0.5,2.1-1.7,2.1-3.1
			c0.1-1.9-1.6-3.6-3.6-3.6c-2.1-0.1-3.8,1.5-3.8,3.4c0,1.3,0.7,2.5,1.8,3.1l-0.1,1.7l-0.4,0l-0.7,0.4l-0.8,0l-0.7,0.5l-0.8,0.1
			l-0.6,0.5L43,25l-0.6,0.6l-0.8,0.3l-0.5,0.7l0,0l0,0l0,0L40.5,27l-0.3,0.6l0,0l0,0l0,0l-0.7,0.5l-0.3,0.8l-0.6,0.6l-0.2,0.8
			l-0.5,0.6l-0.1,0.8l-0.5,0.7l0,0.8L36.9,34l0.1,0.8l-0.3,0.8l0.2,0.8l-0.2,0.8l0.3,0.8l-0.1,0.8l0.4,0.7l0,0.8l0.4,0.5l-0.3,0.3
			L36.7,42c0,0-0.5,1,0.3,2.3c0,0,0.6,0.9-0.2,1.7L34,48.9c0,0-0.2,0.2,0,0.4l0.3,0.3l-1.1,1.1l-0.2-0.2l-0.7,0.7l-0.5-0.5
			c0,0-0.7-0.5-1.2,0.1l-2.6,2.6l-1.4,3.1c0,0-0.1,0.4,0.2,0.6l0.2,0.2L26.7,58c0,0-0.1,0.1,0.1,0.4L20,65.2l-0.1,0.7l0.6-0.1
			l6.8-6.8c0.2,0.1,0.4,0.1,0.4,0.1l0.8-0.4l0.2,0.2c0.3,0.3,0.6,0.2,0.6,0.2l3.1-1.4l2.6-2.6c0.6-0.6,0.1-1.2,0.1-1.2l-0.5-0.5
			l0.7-0.7l-0.2-0.2l1.1-1.1l0.3,0.3c0.2,0.2,0.4,0,0.4,0l2.8-2.8c0.8-0.8,1.7-0.2,1.7-0.2c1.3,0.8,2.3,0.3,2.3,0.3l0.9-0.9l0.3-0.3
			l0.3,0.2l0.8,0l0.7,0.4l0.8-0.1l0.8,0.3l0.8-0.2l0.8,0.2l0.8-0.3l0.8,0.1l0.7-0.4l0.8,0l0.7-0.5l0.8-0.1l0.6-0.5l0.8-0.2l0.6-0.6
			l0.8-0.3l0.5-0.7l0.7-0.4l0.4-0.7l0.7-0.5l0.3-0.8l0.6-0.6l0.2-0.8l0.5-0.6l0.1-0.8l0.4-0.7l0-0.8l0.4-0.7L62,37.2l0.3-0.8
			L62,35.6l0.2-0.8L61.9,34l0.1-0.8l-0.4-0.7l0-0.8l0,0c0.2-0.7,0.2-1.7-0.3-3c0,0-0.4-1.1,0.7-2.1l0.8-0.8c0,0,0.9-1,3.2-1.5
			c0,0,0.5,0,0.4-0.5c0,0-0.1-0.6,0-0.7l8.1-8.1c0,0,0.9-0.8,2-1.5l6.1-6.1c0,0,0.9-1.2-0.8-2.9l-0.4-0.4
			C79.5,2.4,78.3,3.3,78.3,3.3z M37.3,49.1c-0.2,0.2-0.5,0.2-0.7,0c-0.2-0.2-0.2-0.5,0-0.7c0.2-0.2,0.5-0.2,0.7,0
			C37.5,48.6,37.5,48.9,37.3,49.1z M45.7,32.5c0-1.5-1.4-3-2-3.6c1.2-1,2.6-1.6,4-1.9l-0.2,3.4c-0.5,0.9-0.7,2.2-0.5,3.4
			c-0.1,0.2-0.2,0.3-0.3,0.5C46.1,33.8,45.7,33.1,45.7,32.5z M50.7,34.7c0.7,0.7,0.7,1.8,0,2.4c-0.7,0.7-1.8,0.7-2.4,0
			c-0.7-0.7-0.7-1.8,0-2.4C48.9,34,50,34,50.7,34.7z M42.5,30c0.5,0.5,1.5,1.6,1.5,2.5c0,1.3,1,2.8,2.2,3.7c0,0.2,0.1,0.4,0.1,0.6
			c-0.8,0-1.6-0.3-2-0.7c-1.1-1-3.1-1.2-3.9-1.2C40.6,33.2,41.3,31.5,42.5,30z M40.4,36.6c0.7,0,2.2,0.1,2.8,0.7
			c0.9,0.9,2.6,1.3,4.1,1.1c0.2,0.1,0.3,0.3,0.5,0.4c-0.6,0.5-1.3,0.9-1.9,1c-1.5,0-3,1.4-3.6,2C41.2,40.2,40.5,38.4,40.4,36.6z
			 M48.5,45c-1.8-0.2-3.5-0.9-5-2.1c0.6-0.6,1.7-1.5,2.5-1.5c1,0,2.2-0.6,3.1-1.5c0.2-0.2,0.4-0.4,0.5-0.6c0.2,0,0.4,0,0.6-0.1
			c0,0.8-0.3,1.6-0.7,2C48.6,42.1,48.5,44.1,48.5,45z M55.1,43c-1.5,1.2-3.2,1.9-5,2c0-0.9,0.2-2.3,0.7-2.8c0.9-0.9,1.3-2.5,1.1-4
			c0.2-0.2,0.3-0.4,0.4-0.6c0.5,0.6,0.9,1.3,0.9,1.8C53.2,40.9,54.5,42.4,55.1,43z M56.3,41.8c-0.6-0.6-1.5-1.7-1.5-2.5
			c0-1.2-0.9-2.7-2.1-3.6c0-0.2,0-0.5-0.1-0.7c0.8,0,1.5,0.3,1.9,0.7c1.1,1,3.1,1.2,3.9,1.2C58.3,38.7,57.5,40.4,56.3,41.8z
			 M58.5,35.3c-0.9,0-2.3-0.2-2.8-0.7c-0.9-0.9-2.5-1.3-4-1.1l0-0.8c0.4-0.3,0.9-0.5,1.3-0.5c1.5,0,3-1.3,3.6-1.9c0,0,0,0,0,0
			C57.7,31.7,58.3,33.5,58.5,35.3z M52.8,30.6c-0.4,0-0.8,0.1-1.2,0.3l0-3.7c1.4,0.3,2.7,1,3.8,1.9C54.8,29.6,53.7,30.5,52.8,30.6z"
			/>
	</g>
</g>
<g id="Layer_57" display="none">
	<path display="inline" d="M79,9.5c0,0-4.8,3.2-9.7,7.9c0,0-5.1,4.9-9.8,10.4c0.2,0.3,0.2,0.7-0.1,1l-1.6,1.6
		c-0.3,0.3-0.7,0.3-1,0.1c0,0.1,0,0.2,0,0.3c0,0.2-0.1,0.4-0.2,0.5c0,0-15.4,20-22.7,26.6c0,0,0,0,0,0c-3.8,3.8-6.4,2.6-8.5,0.5
		c-2.1-2.1-3.4-4.7,0.8-8.8c0,0,0,0,0,0c6.8-7.4,26.4-22.4,26.4-22.4c0.1-0.1,0.1-0.1,0.2-0.1c0.2,0,0.3,0,0.5,0
		c-0.2-0.3-0.2-0.7,0.1-1l1.6-1.6c0.3-0.3,0.7-0.3,1-0.1c0.5-0.3,4.7-2.8,8.6-6.7c4.2-4.2,7.1-8.7,7.1-8.7s0.2-0.3,0.5-0.3L79,9.1
		C79,9.1,79.5,9.2,79,9.5z"/>
</g>
<g id="Layer_58" display="none">
	<path display="inline" d="M58.8,28.9c0.2,0.3,0.1,0.7-0.1,1l-1.6,1.6c-0.3,0.3-0.7,0.3-1,0.1c0,0.1,0,0.2,0,0.3
		c0,0.2-0.1,0.4-0.2,0.5c0,0-15.3,20-22.6,26.5c0,0,0,0,0,0c-3.8,3.8-6.4,2.6-8.5,0.5c-2.1-2.1-3.4-4.7,0.8-8.8c0,0,0,0,0,0
		c6.8-7.4,26.3-22.4,26.3-22.4c0.1-0.1,0.1-0.1,0.2-0.1c0.1-0.1,0.3-0.1,0.5,0c-0.2-0.3-0.2-0.7,0.1-1l1.6-1.6
		c0.2-0.2,0.5-0.3,0.8-0.2c-0.1-0.7,0-1.6,0.9-2.5c0,0,14.2-14.2,16.9-15.3l6.9,1.3C69.1,17.8,60.5,27.1,58.8,28.9z"/>
</g>
<g id="Layer_59" display="none">
	<path display="inline" d="M77.8,6.6c-4,3.3-4.5,7.7-4.5,7.7c-0.1,1.1-0.3,1.5-0.7,2c-0.3,0.3-12.2,11.1-14,12.9
		c0,0.2,0,0.5-0.2,0.7l-1.6,1.6c-0.3,0.3-0.7,0.3-1,0.1c0,0.1,0,0.2,0,0.3c0,0.2-0.1,0.4-0.2,0.5c0,0-15.2,19.8-22.4,26.3
		c0,0,0,0,0,0c-3.8,3.8-6.3,2.6-8.4,0.5c-2.1-2.1-3.3-4.6,0.8-8.7c0,0,0,0,0,0c6.7-7.3,26-22.2,26-22.2c0.1-0.1,0.1-0.1,0.2-0.1
		c0.1,0,0.3,0,0.5,0c-0.2-0.3-0.2-0.7,0.1-1l1.6-1.6c0.2-0.2,0.4-0.2,0.6-0.2c4-4.9,5.5-6.5,10.8-11.7C72,7,77.3,6.2,77.3,6.2
		C78.5,6.1,77.8,6.6,77.8,6.6z"/>
</g>
<g id="Layer_60" display="none">
	<path display="inline" d="M52.5,31.2h19.9l-10.2-8.5h-9.6v-7.4c0-0.8-0.7-1-1.5-1c-0.8,0-1.5,0.1-1.5,1v7.4h-7.3v-4.9
		c0.9,0,1.6-0.8,1.6-1.7V3c0-1-0.8-1.7-1.7-1.7h-2.8c-0.9,0-1.7,0.8-1.7,1.7v13c0,0.9,0.7,1.7,1.6,1.7v4.9h-1.8c0,0-1.1,0.1-1.1,1.1
		v7.4h2.9v5.5h-2.9v7.4c0,1,1.1,1.1,1.1,1.1h1.8v8.4c0,0.8,0.7,1,1.5,1c0.8,0,1.5-0.1,1.5-1v-8.4h7.3v5.9c-0.9,0-1.6,0.8-1.6,1.7v13
		c0,0.9,0.8,1.7,1.7,1.7h2.8c0.9,0,1.7-0.8,1.7-1.7v-13c0-0.9-0.7-1.7-1.6-1.7v-5.9h9.6l10.2-8.5H52.5V31.2z M42.1,36.7v-5.5h7.3
		v5.5H42.1z"/>
</g>
<g id="Layer_61" display="none">
	<path display="inline" d="M48.2,5.5L50,7.4c0,0,1.2,1.3-0.4,2.8l-1.3,1.3c-0.5,0.5-1.3,1.1-1.7,1.1l-0.9,0.2
		c-1.5,0.4-5.6,3.8-4.4,5.1l1.3,1.3c0,0,0.3,0.5,0.1,1l0.8,1.1c0,0,4.6,5.2,6.6,7.2l23.3,23.2c0,0,4.5,4.4,5.9,4.7
		c0,0,1.9,1.3,2.6,2.6c0.7,1.3-1.3,3.3-1.3,3.3s-2.1,2-3.3,1.3c-1.3-0.7-2.6-2.6-2.6-2.6c-0.4-1.4-4.7-5.9-4.7-5.9L46.7,31.8
		c-2-2-7.2-6.6-7.2-6.6l-1-0.7c-0.3,0.2-0.7,0.3-1.3-0.2l-0.8-0.8c0,0-1.7-2.3-5.5,0.8c-3.1,2.5-10.3,12-10.3,12s3.1-13.7,25.6-30.4
		C46.2,5.7,47.3,4.8,48.2,5.5z"/>
</g>
<g id="Layer_62" display="none">
	<path display="inline" d="M36.2,16L36,15.7c-0.2-0.2-0.5-0.2-0.6,0l-2.8,2.8c-0.2,0.2-0.2,0.5,0,0.6l0.3,0.3
		c-2.3,2.9-8.1,10.8-12.1,21.8l0.4-0.6c0,0,7.4-10.3,15-17.6l0.1-0.1l0.1,0.1l0.4,0.4l2.7,2.7c0.9,0.9,1.9,1.3,1.9,1.3
		s0.6,0.8,3.3,3.8L77,63.4l0.1,0.1c1.3,1.3,2.8,2.1,4.1,0.8c1.3-1.3,0.6-2.7-0.7-4L47.9,27.8c-3-2.7-3.8-3.3-3.8-3.3s-0.4-1-1.3-1.9
		l-2.7-2.7l-0.4-0.4l-0.1-0.1C47,11.8,57.4,4.3,57.4,4.3L58,3.9C47,7.9,39.1,13.6,36.2,16z"/>
</g>
</svg>
