<?xml version="1.0" encoding="UTF-8" standalone="no"?>
<svg
   xmlns:dc="http://purl.org/dc/elements/1.1/"
   xmlns:cc="http://creativecommons.org/ns#"
   xmlns:rdf="http://www.w3.org/1999/02/22-rdf-syntax-ns#"
   xmlns:svg="http://www.w3.org/2000/svg"
   xmlns="http://www.w3.org/2000/svg"
   xmlns:sodipodi="http://sodipodi.sourceforge.net/DTD/sodipodi-0.dtd"
   xmlns:inkscape="http://www.inkscape.org/namespaces/inkscape"
   version="1.0"
   x="0px"
   y="0px"
   width="100px"
   height="100px"
   viewBox="0 0 19.917 100.028"
   overflow="visible"
   enable-background="new 0 0 19.917 100.028"
   xml:space="preserve"
   id="svg2"
   inkscape:version="0.48.2 r9819"
   sodipodi:docname="knife.svg"><metadata
   id="metadata10"><rdf:RDF><cc:Work
       rdf:about=""><dc:format>image/svg+xml</dc:format><dc:type
         rdf:resource="http://purl.org/dc/dcmitype/StillImage" /></cc:Work></rdf:RDF></metadata><defs
   id="defs8" /><sodipodi:namedview
   pagecolor="#ffffff"
   bordercolor="#666666"
   borderopacity="1"
   objecttolerance="10"
   gridtolerance="10"
   guidetolerance="10"
   inkscape:pageopacity="0"
   inkscape:pageshadow="2"
   inkscape:window-width="640"
   inkscape:window-height="480"
   id="namedview6"
   showgrid="false"
   inkscape:zoom="2.36"
   inkscape:cx="50"
   inkscape:cy="50"
   inkscape:window-x="1429"
   inkscape:window-y="201"
   inkscape:window-maximized="0"
   inkscape:current-layer="svg2" />
    <path
   d="m -11.5185,40.8155 c 3.01,0.407 6.454,0.637 10.115,0.637 1.036,0 2.056,-0.018 3.051,-0.054 0.854,-0.031 1.546,0.665 1.595,1.51 l 41.557,0 c 6.015,0 11.237,2.858 14.969,7.004 0.128,0.143 0.206,0.331 0.206,0.537 0,0.359 -0.238,0.662 -0.564,0.764 -17.831,5.545 -36.749,8.761 -56.384,8.761 -0.586,0 -1.06,-0.475 -1.06,-1.061 l 0,-3.988 c -0.885,-10e-4 -1.602,-0.718 -1.602,-1.603 l 0,-1.83 c 0,-1.2 -0.784,-2.123 -1.944,-2.479 -0.973,-0.299 -2.014,-0.357 -3.21,-0.319 -1.543,0.048 -2.613,0.179 -3.701,0.434 -3.011,0.707 -6.379,1.265 -9.977,1.265 -3.676,0 -7.172,-0.361 -10.17,-1.318 -0.516,-0.164 -1.062,-0.251 -1.631,-0.251 -1.426,0 -2.716,0.559 -3.682,1.458 -0.24,0.225 -0.564,0.362 -0.919,0.362 -0.268,0 -0.52,-0.079 -0.729,-0.215 -1.644,-1.06 -3.045,-2.465 -4.059,-4.139 -0.253,-0.417 -0.398,-0.905 -0.398,-1.429 0,-0.737 0.289,-1.407 0.759,-1.903 0.638,-0.672 1.465,-1.159 2.396,-1.377 3.742,-0.886 8.9,-1.526 14.617,-1.526 3.946,0.002 7.625,0.338 10.765,0.76 z m 14.784,16.664 0,0.91 c 0,0.232 0.191,0.425 0.426,0.425 18.57,0 36.492,-3.092 53.45,-8.194 0.17,-0.051 0.296,-0.209 0.296,-0.397 0,-0.121 -0.052,-0.23 -0.133,-0.308 -0.29,-0.27 -0.591,-0.528 -0.885,-0.794 -0.074,-0.065 -0.174,-0.106 -0.281,-0.106 -0.044,0 -0.087,0.007 -0.127,0.02 -16.545,5.218 -34.149,7.865 -52.325,8.023 -0.233,0 -0.421,0.189 -0.421,0.421 z"
   id="path4"
   inkscape:connector-curvature="0">
    </path>
</svg>