<?xml version="1.0" encoding="utf-8"?>
<!-- Generator: Adobe Illustrator 18.0.0, SVG Export Plug-In . SVG Version: 6.00 Build 0)  -->
<!DOCTYPE svg PUBLIC "-//W3C//DTD SVG 1.1//EN" "http://www.w3.org/Graphics/SVG/1.1/DTD/svg11.dtd">
<svg version="1.1" id="Layer_1" xmlns="http://www.w3.org/2000/svg" xmlns:xlink="http://www.w3.org/1999/xlink" x="0px" y="0px"
	 viewBox="0.6 0.9 165.9 175.8" enable-background="new 0.6 0.9 165.9 175.8" xml:space="preserve">
<g>
	<polygon fill="#777777" points="83.2,0.9 0.6,30 13.6,138.3 83.3,176.6 153.4,137.8 166.5,29.5 	"/>
	<polygon fill="#555555" points="158.2,35.7 83.1,10.1 83.1,167.5 146,132.6 	"/>
	<polygon fill="#555555" points="9.8,36.2 21,133.1 83,167.5 83,10.1 	"/>
	<path fill="#F9FBF4" d="M103.7,93.9L83,103.5H61.2L51,129.2l-19.1,0.4L83.1,15.8L103.7,93.9z M101.7,89L83.2,52.3L68,88.4H83
		L101.7,89z"/>
	<polygon fill="#F9FBF4" points="83,15.8 83.2,52.3 100.5,88.4 83.1,88.4 83,103.5 107.1,103.5 118.3,129.5 136.5,129.9 	"/>
</g>
</svg>
