<?xml version="1.0" encoding="utf-8"?>
<!-- Generator: Adobe Illustrator 18.0.0, SVG Export Plug-In . SVG Version: 6.00 Build 0)  -->
<!DOCTYPE svg PUBLIC "-//W3C//DTD SVG 1.1//EN" "http://www.w3.org/Graphics/SVG/1.1/DTD/svg11.dtd">
<svg version="1.1" id="body" xmlns="http://www.w3.org/2000/svg" xmlns:xlink="http://www.w3.org/1999/xlink" x="0px" y="0px"
	 viewBox="-19 71 650 650" enable-background="new -19 71 650 650" xml:space="preserve">
<g id="Layer_x0020_1">
	<g>
		<path fill="#555555" stroke="#000000" stroke-width="0.5956" d="M0.9,458c49.4-6.8,231.7-16,312.9-29.4
			c65.4-10.7,129.3-30.2,190.3-50.6c15.8-5.3,43.6-16.2,61.5-25.7c11.3-8.6,38.5-21.4,46-33.6c-118.3,56.1-165.8,71.6-304.5,99.7
			C250.9,429.9,46.4,446.5,0.9,458L0.9,458z"/>
		<path fill="#555555" stroke="#000000" stroke-width="0.254" d="M175.8,479.8l5.3,1.8l5.1,0.4l5.1-0.8l5.1-2.1l5-2.8l5-3.6l4.7-4.2
			l4.7-4.4l4.4-4.6l4.2-4.6l4-4.4l3.7-4.2l3.5-3.5l3.2-2.8l2.8-1.8l2.5-0.8l-2.1,0.1l-2.2,0.1l-2.5,0.3l-2.5,0.3l-2.5,0.3l-2.5,0.3
			l-2.5,0.1l-2.2,0.3l-3.5,3.2l-3.3,3l-2.9,3l-2.6,3.1l-2.6,2.9l-2.5,2.9l-2.4,2.8l-2.5,2.6l-2.5,2.6l-2.6,2.4L195,470l-3.2,2.2
			l-3.3,2.1l-3.7,1.9l-4.2,1.8L175.8,479.8L175.8,479.8z"/>
		<path fill="#555555" stroke="#000000" stroke-width="0.254" d="M158.5,479.1l6.1,1l5.7,0.1l5.3-0.5l5-1.2l4.6-1.9l4.2-2.4l4.2-2.8
			l3.7-3.2l3.7-3.3l3.5-3.6l3.5-3.9l3.3-3.7l3.5-3.7l3.5-3.7l3.5-3.5l3.6-3.2l-1.4,0.1h-1.5l-1.4,0.1l-1.5,0.1l-1.5,0.1l-1.5,0.3
			l-1.5,0.1l-1.5,0.1l-1.5,0.1l-1.7,0.1l-1.5,0.3l-1.7,0.1l-1.7,0.1L204,441h-1.9l-1.7,0.1l-1.3,1.9l-1.5,2.4l-1.9,2.8l-2.1,2.9
			l-2.5,3.5l-2.6,3.2l-2.8,3.3l-2.9,3.2l-3.1,3.1l-3,2.9l-3.2,2.6l-3,2.2l-3.1,1.8l-3.1,1.3l-2.9,0.7L158.5,479.1L158.5,479.1z"/>
		<path fill="#555555" stroke="#000000" stroke-width="0.254" d="M147,479.2l3.5,0.4l3.3,0.3l3.2-0.1l3.2-0.6l3.2-0.7l3.1-1.2l3-1.5
			l3.2-2.1l3.2-2.4l3.2-2.8l3.2-3.3l3.3-3.6l3.5-4.3l3.6-4.7l3.7-5.1l3.9-5.8h-2.4l-2.2,0.1l-2.2,0.3l-2.2,0.3l-2.2,0.3l-2.3,0.2
			h-5.1l-2.2,2.2l-2.1,2.4l-2.1,2.2l-2.1,2.5l-2.1,2.4l-1.9,2.5l-2.1,2.3l-2,2.5l-2.1,2.4l-2.1,2.4l-2.2,2.4l-2.1,2.2l-2.4,2.1
			l-2.4,2.1l-2.4,2.1L147,479.2L147,479.2z"/>
		<path fill="#555555" stroke="#000000" stroke-width="0.254" d="M134.8,478.7l2.6,1.4l2.9,0.6l2.9-0.4l3-1.2l3.1-1.8l3.2-2.5
			l3.2-2.8l3.2-3.3l3-3.5l3.2-3.6l2.9-3.6l2.9-3.5l2.8-3.5l2.6-3l2.5-2.6l2.2-2.2l-14.9,1.4l-1.7,2.2l-1.8,2.2l-1.7,2.2l-1.7,2.2
			l-1.7,2.2l-1.8,2.2l-1.7,2.2l-1.8,2.2l-1.9,2.1l-1.9,2.2l-1.9,2.1l-2.2,2.1l-2.2,2.1l-2.4,2.1l-2.5,1.9L134.8,478.7L134.8,478.7z"
			/>
		<path fill="#555555" stroke="#000000" stroke-width="0.254" d="M110.2,475.4l4.3,2.8l4,1.8l4,0.8h3.9l3.7-0.7l3.6-1.2l3.5-1.9
			l3.5-2.5l3.3-3l3.3-3.2l3-3.8l3.2-3.7l3.1-4l3.1-4.2l2.9-4.2l2.9-4l-2.5,0.4l-1.9,0.1l-1.4,0.1l-1.2,0.1l-1.2,0.1h-1.3l-1.8,0.1
			l-2.4,0.1l-2.6,3.7l-2.6,3.5l-2.6,3.3l-2.9,2.9l-2.8,2.6l-2.8,2.5l-2.9,2.2l-2.8,1.9l-2.8,1.7l-2.8,1.5l-2.6,1.1l-2.5,1l-2.5,0.8
			l-2.2,0.6l-2.2,0.3L110.2,475.4L110.2,475.4z"/>
		<path fill="#555555" stroke="#000000" stroke-width="0.254" d="M97.2,474.5l4.4,0.6l4.3,0.3l4.2-0.3l4-0.5l3.8-0.8l3.7-1.2
			l3.5-1.5l3.3-1.9l3.3-2.1l3.1-2.4l3.1-2.6l2.9-2.9l2.8-3l2.6-3.3l2.6-3.5l2.5-3.6l-2.8,0.1l-3.1,0.3l-2.9,0.3l-2.9,0.1l-2.5,0.3
			l-2.1,0.1l-1.5,0.1l-0.7,0.1l-0.3,0.3l-0.7,0.7l-1.1,1.1l-1.4,1.4l-1.5,1.7l-1.9,1.9l-2.1,2.1l-2.3,2.2l-2.6,2.2l-2.8,2.4
			l-2.8,2.2l-3.1,2.2l-3.2,2.1l-3.2,1.9l-3.3,1.7L97.2,474.5L97.2,474.5z"/>
		<path fill="#555555" stroke="#000000" stroke-width="0.254" d="M80,475.5l3.7,0.7l3.6,0.3l3.7-0.4l3.7-0.7l3.7-1.2l3.6-1.5
			l3.6-1.8l3.6-2.2l3.3-2.3l3.3-2.5l3.2-2.6l3.1-2.8l2.9-2.9l2.8-2.8l2.5-2.8l2.4-2.8h-1.7l-2.1,0.1l-2.2,0.1h-2.4l-2.2,0.3
			l-2.2,0.1l-1.8,0.1l-1.5,0.3v0.3l-0.6,0.7l-1.4,1.3l-1.9,1.5l-2.4,1.9l-2.8,2.2l-3.1,2.4l-3.2,2.3l-3.3,2.5l-3.3,2.5l-3.2,2.4
			l-3.1,2.1l-2.8,2l-2.5,1.5l-1.6,1L80,475.5L80,475.5z"/>
		<path fill="#555555" stroke="#000000" stroke-width="0.254" d="M61.1,475.3l2.2,2.2l2.9,1h3.6l4-1l4.4-1.7l4.6-2.3l4.9-2.8l4.7-3
			l4.7-3.3l4.4-3.3l4.2-3.2l3.6-3.1l3.2-2.5l2.4-2.1l1.5-1.4l0.7-0.6l-1.8,0.1l-1.9,0.1l-2.1,0.1l-2.1,0.1l-2.2,0.3l-2.2,0.1
			l-2.2,0.1l-2.4,0.1l-2.5,1.5l-2.5,1.5l-2.5,1.7l-2.4,1.5L88,457l-2.4,1.8l-2.5,1.7l-2.4,1.7l-2.5,1.8l-2.4,1.7l-2.5,1.7l-2.4,1.7
			l-2.5,1.5l-2.5,1.5l-2.4,1.5L61.1,475.3L61.1,475.3z"/>
		<path fill="#555555" stroke="#000000" stroke-width="0.254" d="M47.2,475.6l2.4,0.8l2.4,0.4l2.4,0.1l2.4-0.4l2.4-0.7l2.5-1
			l2.6-1.4l2.8-1.7l3.1-1.9l3.2-2.2l3.5-2.5l3.9-2.6l4.3-2.9l4.6-3.2l5-3.3l5.6-3.5l-2.4,0.1l-2.6,0.1h-2.4l-2.4,0.1l-2.1,0.1
			l-1.7,0.1l-1.1,0.1l-0.4,0.1l-0.3,0.4l-0.8,0.8l-1.3,1.1l-1.7,1.5l-2.1,1.8l-2.4,2.1l-2.5,2.1l-2.9,2.2l-2.9,2.2l-3.1,2.2
			l-3.1,1.9l-3.2,1.9l-3,1.7l-3,1.4l-2.9,1L47.2,475.6L47.2,475.6z"/>
		<path fill="#555555" stroke="#000000" stroke-width="0.254" d="M37,474.1l3.2,1.2l3.5,0.6l3.6-0.3l3.7-1l3.9-1.4l3.7-1.8l3.9-2.2
			l3.6-2.5l3.5-2.5l3.3-2.6l3.1-2.5l2.6-2.5l2.4-2.1l1.8-1.8l1.4-1.2l0.8-0.8l-2.2,0.1l-2.1,0.1l-2.1,0.1l-2.1,0.3l-1.9,0.1
			l-2.1,0.1l-2.2,0.3l-2.2,0.1l-1.7,1.5l-1.8,1.5l-1.7,1.5l-1.8,1.7l-1.8,1.8l-1.8,1.7l-1.9,1.7l-1.9,1.7l-1.9,1.5L50,468l-2.1,1.4
			l-1.9,1.2l-2.2,1.1l-2.1,1l-2.2,0.7L37,474.1L37,474.1z"/>
		<path fill="#555555" stroke="#000000" stroke-width="0.254" d="M24.7,470.2l2.8,1.9l2.8,1.2l2.8,0.6L36,474l2.8-0.5l2.8-0.8
			l2.8-1.2l2.8-1.7l2.6-1.8l2.8-2.2l2.6-2.2l2.6-2.4l2.6-2.3l2.5-2.5l2.5-2.4l2.5-2.2l-1.5,0.1l-1.7,0.3l-1.8,0.1l-1.9,0.1l-2.1,0.3
			l-2.2,0.1l-2.4,0.3l-2.2,0.1l-0.7,1.7l-1,1.7l-1,1.5l-1.3,1.5l-1.4,1.4l-1.5,1.4l-1.5,1.4l-1.8,1.1l-1.8,1.1l-1.9,1l-2.1,1
			l-2.1,0.7l-2.2,0.6l-2.2,0.5l-2.4,0.3L24.7,470.2L24.7,470.2z"/>
		<path fill="#555555" stroke="#000000" stroke-width="0.254" d="M13.7,468.1l2.4,1l2.5,0.7l2.6,0.4h2.9l2.8-0.1l3-0.4l2.9-0.8
			l2.9-0.8l2.8-1.2l2.6-1.4l2.4-1.5l2.2-1.8l1.9-1.9l1.7-2.1l1.2-2.4l0.8-2.4l-1.7,0.1l-1.7,0.1l-1.8,0.3l-1.8,0.1l-1.8,0.1
			l-1.9,0.1l-2.1,0.1l-2.4,0.1l-1,1.4l-1.1,1.4l-1.1,1.2l-1.1,1.1l-1.1,1.1l-1.3,0.8l-1.2,1l-1.3,0.8l-1.4,0.7l-1.5,0.7l-1.5,0.7
			l-1.7,0.6l-1.7,0.6l-1.8,0.6l-1.9,0.4L13.7,468.1L13.7,468.1z"/>
		<path fill="#555555" stroke="#000000" stroke-width="0.254" d="M7.9,466.1l0.8,0.8l1.3,0.6l1.5,0.3h1.7l1.9-0.1l2.1-0.4l2.2-0.7
			l2.2-0.7l2.2-1l2.2-1.1l2.2-1.2l1.9-1.4l1.9-1.5l1.7-1.7l1.2-1.7l1.1-1.8l-1.2,0.1l-1.1,0.1l-1.4,0.1l-1.2,0.1l-1.2,0.1L29,455h-1
			h-1v0.6l-1.2,1.1l-2.1,1.5l-2.8,1.8l-3.3,1.8l-3.3,1.8l-3.3,1.4L7.9,466.1L7.9,466.1z"/>
		<path fill="#555555" stroke="#000000" stroke-width="0.254" d="M3.9,462.3l0.3,1.9l0.7,1.2L6,466l1.5,0.3l1.8-0.3l2.1-0.7l2.1-0.8
			l2.2-1.1l2.2-1.3l2.1-1.4l2.1-1.4l1.7-1.3l1.5-1.1l1.1-0.8l0.7-0.6l0.1-0.3l-10.9,1.2l-0.8,0.6l-1.4,0.7l-1.7,0.8l-1.8,0.8l-1.9,1
			L7,461.1l-1.7,0.7L3.9,462.3L3.9,462.3z"/>
		<path fill="#555555" stroke="#000000" stroke-width="0.254" d="M16.5,456.5l-2.4,0.1l-2.1,0.1l-1.9,0.1l-1.8,0.1L6.5,457l-1.8,0.1
			L3,457.6L0.9,458l0.4,2.6l1.2,1.2h1.9l2.5-0.7l2.5-1.3l2.6-1.4l2.4-1.2L16.5,456.5z"/>
		<path fill="#555555" stroke="#000000" stroke-width="0.254" d="M16.1,455.1l-2.4,0.4l-2.1,0.3l-1.8,0.4L8,456.5l-1.7,0.4l-1.7,0.4
			l-1.9,0.4l-2.1,0.6l-0.1-3.1l1.2-1.9l1.9-0.7l2.6-0.1L9,453l2.8,0.7l2.4,0.8L16.1,455.1L16.1,455.1z"/>
		<path fill="#555555" stroke="#000000" stroke-width="0.254" d="M161.2,398.5l6.1-2.4l5.8-1.5l5.4-0.4l5.1,0.3l5,1.1l4.6,1.7
			l4.4,2.4l4.3,2.6l4.2,3.1l4,3.3l4,3.5l3.9,3.6l3.9,3.5l3.9,3.3l3.9,3.2l4,2.9l-1.4,0.3l-1.5,0.1l-1.5,0.1l-1.4,0.3l-1.5,0.1
			l-1.5,0.1l-1.7,0.1l-1.5,0.1l-1.5,0.1l-1.7,0.1l-1.7,0.3l-1.5,0.1l-1.7,0.1l-1.7,0.3l-1.8,0.1l-1.7,0.3l-1.4-1.9l-1.8-2.4
			l-2.1-2.8l-2.5-2.8l-2.6-3.1l-2.9-3.1l-3.2-3.1l-3.2-2.9l-3.5-2.8l-3.5-2.5l-3.5-2.2l-3.6-1.8l-3.5-1.4l-3.5-0.8l-3.5-0.1
			L161.2,398.5L161.2,398.5z"/>
		<path fill="#555555" stroke="#000000" stroke-width="0.254" d="M150.7,400.8l3.5-1.2l3.3-0.8l3.2-0.6l3.3-0.3l3.2,0.3l3.3,0.7
			l3.2,1l3.3,1.5l3.5,1.9l3.5,2.5l3.6,2.9l3.7,3.5l4,4l4,4.6l4.3,5.1l4.6,5.7l-2.5,0.1l-2.2,0.3l-2.1,0.1l-1.9,0.3l-1.9,0.3
			l-2.1,0.3l-2.4,0.4l-2.8,0.4l-2.5-2.1l-2.4-2.2l-2.5-2.4l-2.2-2.4l-2.4-2.4l-2.4-2.4l-2.2-2.4l-2.4-2.4L169,413l-2.5-2.1l-2.4-2.1
			l-2.5-2.1l-2.6-1.8l-2.8-1.5l-2.8-1.5L150.7,400.8L150.7,400.8z"/>
		<path fill="#555555" stroke="#000000" stroke-width="0.254" d="M139,403.8l2.6-2.2l2.9-1.1l3.2-0.3l3.2,0.7l3.5,1.4l3.5,1.9
			l3.6,2.5l3.6,2.9l3.6,3.2l3.6,3.3l3.5,3.3l3.3,3.5l3,3.2l3,2.9l2.6,2.5l2.5,2.1l-15.2,1.8l-1.9-2.2l-1.9-2.2l-1.8-2.2l-1.9-2.2
			l-1.9-2.2l-1.9-2.4l-2.1-2.2l-1.9-2.1l-2.2-2.1l-2.2-2.1l-2.4-1.9l-2.5-1.8l-2.6-1.8l-2.8-1.5l-2.9-1.4L139,403.8L139,403.8z"/>
		<path fill="#555555" stroke="#000000" stroke-width="0.254" d="M116.1,413.6l4.2-4l4-2.9l3.9-1.9l3.9-1.1l3.9-0.1l3.7,0.6l3.7,1.4
			l3.6,1.8l3.6,2.5l3.5,2.9l3.6,3.3l3.3,3.6l3.5,3.7l3.3,4l3.3,4l3.3,4l-2.6,0.1l-2.2,0.1l-1.8,0.1l-1.7,0.3l-1.7,0.3l-1.8,0.3
			l-2.1,0.3l-2.5,0.4l-2.9-3.7l-2.8-3.3l-2.9-3.1l-2.8-2.6l-2.9-2.2l-2.8-1.9l-2.6-1.7l-2.8-1.4l-2.6-1.1l-2.5-0.8l-2.6-0.7
			l-2.5-0.6l-2.3-0.3l-2.4-0.3h-2.4L116.1,413.6L116.1,413.6z"/>
		<path fill="#555555" stroke="#000000" stroke-width="0.254" d="M99.8,417.4l4.6-1.7l4.3-1.2l4.3-0.7l4-0.3h4l3.9,0.6l3.7,0.8
			l3.6,1.3l3.6,1.5l3.3,1.9l3.5,2.2l3.2,2.5l3.2,2.8l3,3l2.9,3.3l2.9,3.6l-2.9,0.4l-3.3,0.4l-3.3,0.4l-3.3,0.4l-3,0.4l-2.4,0.5
			l-1.8,0.1h-0.7l-0.3-0.3l-0.7-0.6l-1-1l-1.2-1.3l-1.5-1.5l-1.8-1.4l-2.1-1.8l-2.4-1.9l-2.6-1.8l-2.8-1.9l-3.1-1.8l-3.3-1.8
			L111,421l-3.6-1.4l-3.7-1.3L99.8,417.4L99.8,417.4z"/>
		<path fill="#555555" stroke="#000000" stroke-width="0.254" d="M79.1,419.8l3.7-1.5l3.7-1.1l4-0.4h3.9l4,0.4l4,0.8l3.9,1.3l4,1.5
			l3.7,1.8l3.7,1.9l3.6,2.4l3.6,2.4l3.2,2.5l3.2,2.6l2.9,2.6l2.6,2.6l-1.8,0.1l-2.2,0.3l-2.5,0.3l-2.6,0.3l-2.6,0.3l-2.4,0.3
			l-2.1,0.1h-1.5v-0.3l-0.7-0.7l-1.4-1l-2.1-1.4l-2.5-1.5l-2.9-1.8l-3.3-1.9l-3.5-1.9l-3.5-2l-3.6-1.9l-3.6-1.8l-3.3-1.7l-3.1-1.4
			l-2.8-1.1l-2.2-0.7L79.1,419.8L79.1,419.8z"/>
		<path fill="#555555" stroke="#000000" stroke-width="0.254" d="M59.6,424l1.9-3l2.9-1.8l3.6-0.7h4.2l4.6,1l5,1.5l5.3,2.1l5.1,2.4
			l5.3,2.6l4.8,2.8l4.6,2.6l4.2,2.6l3.5,2.2l2.6,1.7l1.8,1.2l0.8,0.4l-1.9,0.4l-2.2,0.3l-2.4,0.3l-2.5,0.1l-2.6,0.3l-2.6,0.3
			l-2.5,0.4l-2.5,0.4l-2.6-1.3l-2.5-1.3l-2.6-1.4l-2.5-1.4l-2.5-1.3l-2.5-1.4l-2.6-1.4l-2.5-1.4l-2.5-1.3l-2.5-1.4l-2.6-1.2
			l-2.5-1.1l-2.5-1.3l-2.6-1.1l-2.6-1.1L59.6,424L59.6,424z"/>
		<path fill="#555555" stroke="#000000" stroke-width="0.254" d="M34.7,430.6l3.1-2.2l3.5-1.3l3.6-0.5h3.9l4,0.7l4.2,1.3l4,1.5
			l4,1.8l3.7,2.1l3.7,2.1l3.3,2.2l2.9,1.9l2.6,1.8l2.1,1.7l1.5,1.1l0.8,0.7l-2.2,0.3l-2.1,0.3l-1.8,0.3l-1.8,0.1l-1.9,0.1l-1.8,0.3
			l-2.1,0.3l-2.2,0.3l-1.9-1.2l-1.9-1.3l-2.1-1.5l-2.1-1.4l-2.2-1.5l-2.2-1.5l-2.2-1.5l-2.2-1.4l-2.2-1.4l-2.3-1.1l-2.4-1.1
			l-2.2-0.8l-2.3-0.7l-2.2-0.4h-2.2L34.7,430.6L34.7,430.6z"/>
		<path fill="#555555" stroke="#000000" stroke-width="0.254" d="M43.8,426.6l2.4-1.5l2.5-1.1l2.4-0.6l2.5-0.3l2.5,0.1l2.6,0.6
			l2.9,1l3,1.1l3.3,1.5l3.5,1.7l3.9,2.1l4.2,2.2l4.6,2.4l5,2.5l5.4,2.8l6,2.8l-2.2,0.1l-2.5,0.3l-2.5,0.3l-2.5,0.4l-2.2,0.3
			l-1.7,0.3l-1.3,0.1l-0.6-0.1l-0.3-0.3l-1-0.7l-1.2-1.1l-1.7-1.2l-2.1-1.5l-2.5-1.7l-2.6-1.8l-2.9-1.8l-3.2-1.8l-3.2-1.8l-3.5-1.5
			l-3.5-1.4l-3.5-1.1l-3.5-0.7l-3.3-0.4L43.8,426.6L43.8,426.6z"/>
		<path fill="#555555" stroke="#000000" stroke-width="0.254" d="M23.5,437.7l2.5-2.8l2.6-2.1l2.6-1.4l2.8-0.8l2.8-0.1l2.9,0.3
			l3.1,0.7l2.9,1l3,1.5l2.9,1.5l3,1.9l3.1,2l3.1,1.9l2.9,2.1l2.9,2.1l2.9,1.8l-1.7,0.3l-1.8,0.1l-2.1,0.4l-2.2,0.3l-2.4,0.3
			l-2.5,0.3l-2.4,0.3l-2.4,0.3l-0.8-1.8l-1-1.5l-1.1-1.5l-1.4-1.4l-1.4-1.2l-1.5-1l-1.8-1l-1.8-0.8l-1.9-0.7l-2.1-0.6l-2.1-0.4
			l-2.2-0.3l-2.4-0.1h-2.4l-2.4,0.3L23.5,437.7L23.5,437.7z"/>
		<path fill="#555555" stroke="#000000" stroke-width="0.254" d="M6.3,446.9l0.7-1.1l1.1-1l1.5-0.8l1.7-0.6l1.9-0.4l2.2-0.1h2.2
			l2.5,0.1l2.4,0.4l2.5,0.6l2.4,0.8l2.2,1l2.1,1.1l1.9,1.4l1.5,1.5l1.4,1.7l-1.2,0.3l-1.5,0.3l-1.5,0.3l-1.5,0.3l-1.4,0.1l-1.1,0.1
			h-1.1l-0.6-0.3l-1.4-0.8l-2.4-1.1l-2.8-1.2l-3.2-1.1l-3.6-1l-3.5-0.6L6.3,446.9L6.3,446.9z"/>
		<path fill="#555555" stroke="#000000" stroke-width="0.254" d="M3,452.6l-0.1-2.2l0.6-1.7l1-1.1l1.5-0.7l1.8-0.3l2.1,0.1l2.2,0.3
			l2.5,0.6l2.4,0.8l2.4,0.8l2.2,0.8l1.9,0.8l1.7,0.8l1.4,0.6l0.7,0.6l0.3,0.1l-11.2,1.9l-1-0.4l-1.5-0.4l-1.7-0.6l-1.9-0.6l-1.9-0.4
			l-1.9-0.3H4.8L3,452.6L3,452.6z"/>
		<path fill="#555555" stroke="#000000" stroke-width="0.254" d="M12.2,443.3l2.2-1.8l2.4-1.4l2.6-1.2l2.9-0.8l2.9-0.6l2.9-0.4h3.1
			l3,0.3l2.9,0.6l2.9,1l2.6,1.1l2.5,1.4l2.4,1.7l1.9,1.9l1.5,2.2l1.2,2.5l-1.8,0.1l-1.7,0.3l-1.8,0.1l-1.9,0.3l-1.9,0.3L41,451
			l-2.2,0.4l-2.4,0.3l-0.8-1.2l-1-1.1l-1.1-1l-1.2-1l-1.4-0.8l-1.5-0.8l-1.5-0.7l-1.7-0.5l-1.7-0.6l-1.8-0.4l-1.7-0.3l-1.8-0.1
			l-1.8-0.1h-1.8l-1.8,0.1L12.2,443.3L12.2,443.3z"/>
		<path fill="#555555" stroke="#000000" stroke-width="0.254" d="M508.7,376.6l0.3,0.4l0.7,1.1l1,1.8l1.2,2.2l1.4,2.6l1.4,2.9
			l1.3,3.3l1.1,3.3l0.8,3.5l0.3,3.3l-0.2,3.3l-0.7,3l-1.5,2.8l-2.4,2.5l-3.3,1.9l-4.3,1.4l0.7-2.1l0.4-2.2l0.4-2.2l0.3-2.5l0.1-2.5
			v-2.6l-0.1-2.5l-0.1-2.6l-0.3-2.6l-0.3-2.6l-0.4-2.5l-0.6-2.4l-0.4-2.4l-0.6-2.1l-0.7-2.1l-0.6-1.8l0.7-0.3l0.6-0.1l0.7-0.3
			l0.6-0.1l0.6-0.3l0.5-0.1l0.7-0.3L508.7,376.6L508.7,376.6z"/>
		<path fill="#555555" stroke="#000000" stroke-width="0.254" d="M504,378.5l1.9,7.6l1.4,6.9l0.7,6l0.1,5.3l-0.3,4.6L507,413
			l-1.1,3.3l-1.3,2.8l-1.7,2.2l-1.8,1.8l-1.8,1.3l-1.8,1l-2,0.7l-1.7,0.3l-1.5,0.1h-1.4l0.8-2.2l0.8-2.2l0.7-2.5l0.6-2.5l0.6-2.8
			l0.4-2.8l0.4-2.8l0.3-2.9l0.1-2.9v-3.1l-0.1-2.9l-0.3-3.1l-0.4-2.9l-0.6-3.1l-0.7-2.8l-0.8-2.9l1.7-0.6l1.7-0.6l1.5-0.6l1.5-0.4
			l1.3-0.4l1.4-0.4l1.1-0.3L504,378.5L504,378.5z"/>
		<path fill="#555555" stroke="#000000" stroke-width="0.254" d="M492.6,382l0.8,2.8l0.8,3.5l0.6,3.9l0.3,4.3l0.1,4.7v4.7l-0.4,4.7
			l-0.7,4.6l-1,4.3l-1.2,4l-1.8,3.5l-2.1,2.8l-2.6,2.1l-3,1.1l-3.5,0.1l-4-1.1l1.5-2.5l1.5-2.6l1.3-2.8l1.1-2.6l0.8-2.9l0.8-2.8
			l0.6-2.9l0.6-2.9l0.3-2.9l0.1-3v-2.9l-0.3-3l-0.3-3l-0.6-2.9l-0.6-3.1l-0.8-2.9l1.4-0.6l1.7-0.6l1.7-0.8l1.7-0.6l1.7-0.5l1.4-0.6
			l1.3-0.4L492.6,382L492.6,382z"/>
		<path fill="#555555" stroke="#000000" stroke-width="0.254" d="M457.2,439.8l3.8,0.3l3.6-0.6l3.2-1.4l2.9-1.9l2.8-2.6l2.4-3.2
			l1.9-3.6l1.8-4l1.4-4.3l1.1-4.6l0.7-4.7l0.3-4.7v-4.7l-0.4-4.7l-0.8-4.6l-1.2-4.3l-1.5,0.6l-1.5,0.6l-1.7,0.4l-1.7,0.6l-1.7,0.6
			l-1.8,0.6l-1.7,0.6l-1.8,0.6v2.9v3.2l-0.1,3.6l-0.1,3.7l-0.1,3.7l-0.1,3.9l-0.4,4l-0.4,3.7l-0.6,3.7l-0.6,3.5l-0.8,3.3l-1,2.9
			l-1.1,2.5l-1.4,2.1l-1.5,1.5L457.2,439.8L457.2,439.8z"/>
		<path fill="#555555" stroke="#000000" stroke-width="0.254" d="M467.1,390.4l-1.4,0.6l-1.4,0.4l-1.2,0.4l-1.4,0.3l-1.4,0.4
			l-1.3,0.4l-1.4,0.4l-1.4,0.6l-0.3,2.8l-0.1,3l-0.1,3.3l-0.1,3.4v3.5v3.7l-0.1,3.8l-0.1,3.6l-0.3,3.6l-0.4,3.6l-0.7,3.3l-0.7,3.1
			l-1.1,2.9l-1.3,2.6l-1.5,2.2l-1.9,1.8l4-1l3.3-1.4l2.8-1.9l2.4-2.2l1.9-2.6l1.5-3l1.1-3.3l0.8-3.5l0.6-3.9l0.4-4l0.1-4.2l0.2-4.4
			l0.1-4.4l0.1-4.6v-4.6L467.1,390.4L467.1,390.4z"/>
		<path fill="#555555" stroke="#000000" stroke-width="0.254" d="M430.1,449.9l5.5-0.3l4.7-1.1l3.9-1.8l3.2-2.4l2.5-3l1.8-3.5
			l1.5-3.9l1-4.3l0.6-4.4l0.4-4.6l0.1-4.7v-4.6v-4.7v-4.4l0.3-4.2l0.3-3.9l-1.5,0.4l-1.4,0.4l-1.2,0.4l-1.4,0.4l-1.4,0.4l-1.2,0.4
			l-1.4,0.3l-1.5,0.4l0.1,0.4l0.3,1l0.3,1.5l0.4,1.9l0.3,2.5l0.3,2.8l0.1,3.2l-0.1,3.6l-0.4,3.7l-0.7,4.1l-1.3,4.3l-1.5,4.4
			l-2.2,4.6l-2.8,4.8l-3.3,4.7L430.1,449.9L430.1,449.9z"/>
		<path fill="#555555" stroke="#000000" stroke-width="0.254" d="M411.1,455.8l3.7,0.7l3.7-0.3l3.6-1.3l3.6-1.9l3.5-2.6l3.3-3.2
			l3.1-3.9l2.8-4.3l2.4-4.6l2.1-5l1.7-5.3l1.1-5.4l0.7-5.4l0.1-5.5l-0.6-5.3l-1.1-5.3l-13.3,4.2l0.1,2.2l0.1,2.6l-0.1,2.9l-0.3,3.3
			l-0.4,3.5l-0.7,3.7l-0.7,3.9l-1.1,4l-1.3,4l-1.5,3.9l-1.7,3.9l-2.1,3.7l-2.2,3.6l-2.6,3.3l-2.9,3L411.1,455.8L411.1,455.8z"/>
		<path fill="#555555" stroke="#000000" stroke-width="0.254" d="M432.1,400.9l-2.1,0.7l-2.6,0.7l-2.9,1l-3,0.8l-2.9,1l-2.9,0.8
			l-2.5,0.7l-1.9,0.4l-0.3,3.2l-0.2,3.5l-0.3,3.5l-0.1,3.6l-0.4,3.6l-0.3,3.8l-0.4,3.6l-0.6,3.6l-0.7,3.5l-0.8,3.3l-1.1,3.3l-1.2,3
			l-1.5,2.9l-1.8,2.5l-1.9,2.4l-2.4,2.1l2.8,0.4l2.9-0.1l2.9-0.7l2.9-1.2l2.9-1.8l2.9-2.2l2.8-2.8l2.8-3.5l2.5-3.7l2.2-4.4l2.1-4.8
			l1.8-5.5l1.4-6l1.1-6.4l0.7-7.1L432.1,400.9L432.1,400.9z"/>
		<path fill="#555555" stroke="#000000" stroke-width="0.254" d="M378.6,461.4l6.2,0.3l5.3-0.6l4.6-1.5l3.6-2.4l3-2.9l2.5-3.5
			l1.8-3.9l1.4-4.4l1.1-4.4l0.7-4.9l0.4-4.7l0.4-4.7l0.1-4.7l0.3-4.3l0.3-4l0.4-3.6l-1.9,0.4l-1.7,0.4l-1.5,0.6l-1.5,0.4l-1.7,0.4
			l-1.5,0.4l-1.8,0.6l-2.1,0.5l-0.4,3.8l-0.4,3.6l-0.4,3.6l-0.6,3.5l-0.4,3.5l-0.6,3.3l-0.7,3.2l-0.7,3.2l-1,3.1l-1.1,3l-1.4,2.9
			l-1.5,2.9l-1.9,2.9l-2.1,2.8l-2.5,2.6L378.6,461.4L378.6,461.4z"/>
		<path fill="#555555" stroke="#000000" stroke-width="0.254" d="M361.8,464.5l5.5,0.3l4.9-0.7l4.3-1.5l3.8-2.4l3.2-2.9l2.8-3.5
			l2.2-4l1.9-4.3l1.7-4.4l1.3-4.7l1-4.6l0.7-4.7l0.7-4.4l0.4-4.2l0.4-3.9l0.3-3.3l-2,0.4l-1.7,0.4l-1.5,0.4l-1.5,0.3l-1.4,0.4
			l-1.5,0.3l-1.8,0.6l-2.1,0.4l-0.7,5.4l-0.8,5.1l-1,4.7l-1,4.4l-1.1,4l-1.2,3.9l-1.4,3.3l-1.4,3.2l-1.4,2.9l-1.5,2.6l-1.7,2.2
			l-1.5,2.1l-1.7,1.9l-1.7,1.5l-1.8,1.4L361.8,464.5L361.8,464.5z"/>
		<path fill="#555555" stroke="#000000" stroke-width="0.254" d="M345.9,466.5l5.3,0.3l4.7-0.7l4.2-1.5l3.9-2.2l3.2-2.9l2.9-3.3
			l2.5-3.9l2.2-4.2l1.9-4.3l1.5-4.6l1.3-4.6l1.1-4.6l1-4.3l0.7-4.2l0.6-3.7l0.6-3.3l-1.7,0.3l-1.7,0.4l-1.7,0.4l-1.7,0.4l-1.7,0.4
			l-1.7,0.4l-1.7,0.4l-1.8,0.4l-0.1,2.6l-0.4,2.9l-0.6,3.1l-1,3.3l-1,3.6l-1.4,3.5l-1.4,3.7l-1.5,3.6l-1.8,3.6l-1.9,3.5l-1.9,3.2
			l-2.1,3l-2.1,2.9l-2.2,2.5l-2.4,2.1L345.9,466.5L345.9,466.5z"/>
		<path fill="#555555" stroke="#000000" stroke-width="0.254" d="M328.4,469.7l5.4,0.7l5-0.7l4.6-1.8l4.2-2.8l3.9-3.5l3.3-4.2l3-4.7
			l2.8-4.9l2.2-5.1l1.9-5l1.7-4.7l1.4-4.6l0.8-3.9l0.7-3.2l0.4-2.4v-1.4l-2.1,0.4l-1.9,0.4l-1.9,0.6l-1.9,0.4l-1.9,0.6l-1.8,0.4
			l-1.8,0.4l-1.8,0.3l-0.7,2.4l-0.7,2.8l-0.8,3.2l-1,3.6l-1.1,3.7l-1.2,3.9l-1.4,3.9l-1.5,4l-1.7,3.9l-1.8,3.6l-1.9,3.5l-2.1,3
			l-2.4,2.6l-2.4,2.1l-2.6,1.5L328.4,469.7L328.4,469.7z"/>
		<path fill="#555555" stroke="#000000" stroke-width="0.254" d="M315.8,469l5,1.1h4.4l4-1l3.7-1.9l3.2-2.6l2.9-3.2l2.6-3.9l2.4-4.2
			l2-4.4l1.8-4.6l1.4-4.6l1.4-4.4l1.1-4.2l0.8-3.7l0.8-3.3l0.7-2.6l-1.5,0.3l-1.5,0.1l-1.4,0.3l-1.3,0.3l-1.4,0.3l-1.3,0.3l-1.1,0.3
			l-1.2,0.1l-0.4,3.2l-0.7,3.3l-0.8,3.3l-0.8,3.2l-1.1,3.3l-1.3,3.2l-1.4,3.1l-1.7,3l-1.7,3l-1.9,2.9l-2.2,2.8l-2.2,2.5l-2.6,2.5
			l-2.6,2.2l-2.9,2.1L315.8,469L315.8,469z"/>
		<path fill="#555555" stroke="#000000" stroke-width="0.254" d="M299.9,471.5h4.2l4-0.4l3.9-1l3.8-1.4l3.5-1.9l3.5-2.4l3-2.8l3-3
			l2.6-3.5l2.5-3.7l2.2-4.2l2.1-4.3l1.7-4.6l1.4-4.9l1.3-5l0.8-5.1l-1.8,0.4l-1.8,0.3l-1.9,0.4l-1.8,0.3l-1.8,0.3l-1.7,0.4l-1.8,0.3
			l-1.7,0.4l-0.8,2.9l-0.7,3l-0.8,2.9l-0.7,2.9l-0.8,2.9l-0.8,2.9l-1.1,2.8l-1.3,2.9l-1.5,2.8l-1.7,2.9l-2.1,2.8l-2.5,2.8l-2.8,2.6
			l-3.3,2.8l-3.9,2.8L299.9,471.5L299.9,471.5z"/>
		<path fill="#555555" stroke="#000000" stroke-width="0.254" d="M277.2,474.1l5.4,0.4l5.3-0.3l4.9-0.8l4.6-1.4l4.3-1.8l4-2.4
			l3.7-2.8l3.3-3.3l3.1-3.5l2.8-3.9l2.5-4.2l2.1-4.4l1.8-4.7l1.5-4.9l1.1-5l0.8-5l-1.5,0.3l-1.7,0.4l-1.7,0.3l-1.7,0.3l-1.7,0.3
			l-1.8,0.4l-1.8,0.3l-1.8,0.4l-0.6,3.5l-0.8,3.5l-1.1,3.5l-1.4,3.3l-1.7,3.3l-1.8,3.3l-2.1,3.2l-2.3,3.1l-2.5,3.1l-2.8,2.8
			l-2.9,2.6l-3.2,2.5l-3.3,2.2l-3.6,2.1l-3.6,1.8L277.2,474.1L277.2,474.1z"/>
		<path fill="#555555" stroke="#000000" stroke-width="0.254" d="M264.9,475.5l4.6-0.3l4.4-0.7l4.4-1.1l4.3-1.7l4-1.9l4-2.3l3.7-2.6
			l3.5-3l3.2-3.3l3.1-3.6l2.6-3.9l2.4-4l1.9-4.3l1.7-4.4l1.3-4.6l0.8-4.7l-1.5,0.3l-1.4,0.1l-1.3,0.1l-1.2,0.1l-1.3,0.1l-1.4,0.3
			l-1.7,0.3l-2,0.3l-1.9,4l-1.7,3.7l-1.7,3.6l-1.5,3.3l-1.7,3.2l-1.5,2.9l-1.7,2.8l-1.8,2.6l-1.9,2.6l-2.2,2.4l-2.5,2.5l-2.8,2.2
			l-3.2,2.4l-3.6,2.2l-4,2.2L264.9,475.5L264.9,475.5z"/>
		<path fill="#555555" stroke="#000000" stroke-width="0.254" d="M242.5,476.9l6.8,0.3l6.4-0.3l5.7-1l5.3-1.5l4.9-2.1l4.3-2.5l4-2.9
			l3.6-3.3l3.3-3.6l3.1-3.9l2.6-4l2.5-4.3l2.4-4.3l2.1-4.3l1.9-4.4l1.8-4.3l-1.2,0.1l-1.7,0.3l-2.1,0.3l-2.1,0.3l-2.2,0.4l-1.9,0.3
			l-1.7,0.3l-1.3,0.1l-1.7,3.9l-1.8,3.9l-2.1,3.6l-2.1,3.5l-2.4,3.2l-2.5,3.2l-2.6,2.9l-2.9,2.9l-2.9,2.6l-3.2,2.5l-3.3,2.5
			l-3.5,2.2l-3.6,2.1l-3.9,1.9l-3.9,1.8L242.5,476.9L242.5,476.9z"/>
		<path fill="#555555" stroke="#000000" stroke-width="0.254" d="M229.3,478.9l3.7-0.1l3.9-0.6l4.2-1l4.3-1.5l4.3-1.8l4.3-2.2
			l4.3-2.6l4.3-2.9l4.2-3.3l4-3.5l3.7-3.9l3.6-4.2l3.2-4.3l2.9-4.6l2.5-4.9l2.1-5l-2.1,0.3l-2.1,0.3l-2.2,0.1l-2.2,0.3l-1.9,0.1
			l-1.7,0.3l-1.4,0.3l-0.7,0.4l-2.5,1.9l-2.5,2.1l-2.6,2.5l-2.6,2.5l-2.6,2.8l-2.8,2.9l-2.8,3.1l-2.8,3.1l-2.8,3.2l-2.9,3l-2.9,3
			l-3.1,3l-3,3.1l-3.1,2.8l-3,2.8L229.3,478.9L229.3,478.9z"/>
		<path fill="#555555" stroke="#000000" stroke-width="0.254" d="M209,478.9l3.6,2.4l3.7,1h3.7l3.9-1l3.9-1.9l3.9-2.6l4-3.3l4-3.7
			l4-4.3l4.2-4.4l4.3-4.7l4.3-4.7l4.3-4.6l4.4-4.6l4.4-4.2l4.4-3.7h-1.5l-1.8,0.3l-2.1,0.1l-2.1,0.4l-2.2,0.3l-2.2,0.4l-2.1,0.4
			l-1.8,0.3l-3.5,3.2l-3.5,3.2l-3.3,3.3l-3.3,3.3l-3.2,3.3l-3.2,3.3l-3.2,3.3l-3.1,3l-3.1,3l-3,2.8l-2.9,2.5l-2.9,2.2l-2.9,1.9
			l-2.8,1.7l-2.8,1.2L209,478.9L209,478.9z"/>
		<path fill="#555555" stroke="#000000" stroke-width="0.254" d="M193.2,480.7h5.7l5.4-0.5l4.9-1.4l4.7-1.8l4.3-2.2l4-2.8l3.9-3
			l3.6-3.3l3.6-3.6l3.5-3.7l3.3-3.7l3.5-3.9l3.5-3.9l3.6-3.7l3.7-3.5l3.9-3.3l-1.4,0.1l-1.7,0.1l-2.1,0.3h-2l-2.1,0.3l-1.7,0.1
			l-1.4,0.1h-0.8l-2.4,0.5l-2.4,1.1l-2.4,1.5l-2.5,2.1l-2.5,2.5l-2.6,2.9l-2.8,3.1l-2.8,3.3l-3.2,3.5l-3.2,3.5l-3.6,3.6l-3.7,3.5
			l-4,3.5l-4.3,3.2l-4.6,2.9L193.2,480.7L193.2,480.7z"/>
		<path fill="#555555" stroke="#000000" stroke-width="0.254" d="M503.5,365.8v-0.6l0.1-1.5l0.1-2.4l0.1-2.9l0.1-3.5l-0.1-3.7
			l-0.1-3.9l-0.4-4l-0.8-3.7l-1.1-3.6l-1.4-3.2l-2.1-2.6l-2.4-1.9l-3.1-1.1l-3.7-0.1l-4.3,1.1l1.4,1.4l1.2,1.7l1.2,2.1l1.1,2.2
			l1.1,2.5l1,2.5l1,2.8l1,2.9l0.8,2.8l0.7,2.9l0.7,2.9l0.7,2.8l0.6,2.8l0.6,2.6l0.4,2.4l0.4,2.2l0.7-0.1l0.6-0.1l0.7-0.3l0.6-0.1
			l0.5-0.3l0.6-0.3l0.7-0.1L503.5,365.8L503.5,365.8z"/>
		<path fill="#555555" stroke="#000000" stroke-width="0.254" d="M498.4,367.9l-1.8-9.1l-1.9-7.6l-1.9-6.5l-1.9-5.4l-2-4.3l-1.9-3.5
			l-1.9-2.5l-1.8-1.8l-1.9-1.3l-1.7-0.6l-1.8-0.1l-1.5,0.3l-1.5,0.6l-1.4,0.7l-1.3,0.8l-1.1,0.8l1.9,1.8l1.9,2.1l1.7,1.9l1.8,2.2
			l1.5,2.2l1.5,2.3l1.4,2.4l1.2,2.5l1.2,2.6l1.1,2.8l1.1,2.8l1,2.9l0.8,3l0.8,3l0.8,3.2l0.7,3.3l1.7-0.3l1.2-0.1l0.8-0.3l0.6-0.3
			l0.5-0.1l0.6-0.3l0.7-0.1l0.8-0.3L498.4,367.9z"/>
		<path fill="#555555" stroke="#000000" stroke-width="0.254" d="M491.4,370.6l-0.4-3.3l-0.7-3.7l-1.1-4.2l-1.4-4.4l-1.8-4.6
			l-2.1-4.4l-2.2-4.3l-2.5-4l-2.6-3.6l-2.8-3.1l-2.9-2.4l-3-1.5l-3.2-0.6l-3.2,0.6l-3,1.8l-3.2,3.2l2.5,1.8l2.4,2.1l2.2,2.1l2.1,2.1
			l2.1,2.2l1.8,2.5l1.7,2.5l1.5,2.5l1.5,2.8l1.2,2.8l1.2,2.9l1,3l1,3.2l0.7,3.3l0.5,3.4l0.6,3.6l1.5-0.4l1.7-0.6l1.8-0.6l1.8-0.7
			l1.7-0.7l1.5-0.6l1.2-0.5L491.4,370.6L491.4,370.6z"/>
		<path fill="#555555" stroke="#000000" stroke-width="0.254" d="M437,334l3.3-2.2l3.3-1.2l3.5-0.4l3.3,0.4l3.5,1.1l3.3,1.8l3.2,2.5
			l3.1,2.9l2.8,3.3l2.8,3.9l2.4,4.3l2.1,4.4l1.8,4.7l1.4,5l1.1,5l0.5,5.1l-1.7,0.4l-1.7,0.4l-1.7,0.5l-1.7,0.6l-1.8,0.7l-1.8,0.4
			l-1.7,0.6l-1.8,0.3l-1.3-3.2l-1.1-3.5l-1.4-3.5l-1.3-3.5l-1.4-3.6l-1.5-3.6l-1.5-3.5l-1.5-3.3l-1.7-3.2l-1.8-2.9l-1.9-2.8l-2-2.4
			l-2.2-2.1l-2.2-1.7l-2.3-1.3L437,334L437,334z"/>
		<path fill="#555555" stroke="#000000" stroke-width="0.254" d="M421.6,338.2l5.3-2.3l4.7-1.2l4.2-0.1l3.7,0.7l3.3,1.5l2.9,2.4
			l2.6,2.9l2.4,3.5l2.1,3.9l1.8,4.3l1.8,4.5l1.7,4.4l1.7,4.6l1.5,4.6l1.7,4.3l1.8,4l-1.5,0.1l-1.4,0.4l-1.4,0.4l-1.4,0.6l-1.4,0.4
			l-1.4,0.5l-1.5,0.4l-1.5,0.3l-0.1-0.5l-0.1-1.4l-0.4-1.8l-0.4-2.5l-0.7-2.9l-1-3.3l-1.1-3.6l-1.5-3.7l-1.8-3.7l-2.1-3.7l-2.8-4.1
			l-2.9-3.5l-3.5-3.3l-3.9-2.8l-4.4-2.5L421.6,338.2L421.6,338.2z"/>
		<path fill="#555555" stroke="#000000" stroke-width="0.254" d="M401.9,341.1l3.2-2.4l3.6-1.5l3.9-0.6l3.9,0.1l4.2,0.8l4.2,1.7
			l4,2.2l4,2.8l3.9,3.5l3.6,3.9l3.2,4.4l2.9,4.9l2.5,5.1l1.9,5.6l1.2,5.7l0.7,6.1l-14.5,3.7l-0.8-2.4l-1.1-2.8l-1.1-2.9l-1.4-3.2
			l-1.7-3.3l-1.7-3.5l-1.9-3.5l-2.1-3.5l-2.4-3.5l-2.6-3.3l-2.8-3l-2.9-2.9l-3.2-2.6l-3.5-2.2l-3.6-1.9L401.9,341.1L401.9,341.1z"/>
		<path fill="#555555" stroke="#000000" stroke-width="0.254" d="M438.8,387.8l-2.1,0.4l-2.6,0.6l-2.6,0.8l-2.9,0.8l-2.8,1l-2.6,0.7
			l-2.4,0.7l-1.9,0.6l-1.4-3.5l-1.5-3.6l-1.5-3.6l-1.5-3.8l-1.5-3.7l-1.7-3.6l-1.8-3.6l-1.8-3.6l-1.9-3.3l-2.1-3.1l-2.2-2.9
			l-2.4-2.6l-2.4-2.4l-2.6-1.9l-2.9-1.5l-2.9-1.1l2.5-1.7l2.8-1.2l2.9-0.8l3.2-0.3l3.3,0.3l3.5,0.8l3.5,1.4l3.6,2.1l3.6,2.6l3.6,3.3
			l3.6,4.2l3.5,4.7l3.3,5.5l3.3,6.2l3.1,7.2L438.8,387.8L438.8,387.8z"/>
		<path fill="#555555" stroke="#000000" stroke-width="0.254" d="M368.8,351.3l5.7-3l5.1-1.8l4.7-0.4l4.3,0.7l3.7,1.7l3.6,2.5l3,3.2
			l2.9,3.9l2.5,4.3l2.4,4.6l2.1,4.9l1.9,4.9l1.9,4.7l1.8,4.6l1.7,4.2l1.7,3.7l-1.9,0.3l-1.7,0.4l-1.5,0.3l-1.5,0.4L410,396l-1.7,0.4
			l-1.8,0.3l-2.1,0.4l-1.8-3.7l-1.7-3.8l-1.7-3.6l-1.7-3.5l-1.7-3.5l-1.8-3.2l-1.8-3.2l-1.8-2.9l-2.1-2.9l-2.2-2.6l-2.2-2.5
			l-2.5-2.4l-2.8-2.2l-2.9-1.9l-3.3-1.8L368.8,351.3L368.8,351.3z"/>
		<path fill="#555555" stroke="#000000" stroke-width="0.254" d="M351.6,356.2l5.1-2.8l4.8-1.4l4.6-0.3l4.4,0.7l4,1.7l3.9,2.5
			l3.6,3.1l3.3,3.6l3,4.2l2.9,4.3l2.8,4.4l2.4,4.6l2.2,4.6l1.9,4.2l1.6,4l1.5,3.5l-2.1,0.4l-1.8,0.4l-1.7,0.4l-1.5,0.3l-1.7,0.4
			l-1.7,0.4l-1.9,0.3l-2.2,0.4l-2.5-5.6l-2.5-5.1l-2.3-4.7l-2.4-4.3l-2.2-3.9l-2.1-3.5l-2.2-3l-2.1-2.9l-2.2-2.4l-2.2-2.1l-2.2-1.8
			l-2.4-1.5l-2.4-1.1l-2.5-1l-2.6-0.6L351.6,356.2L351.6,356.2z"/>
		<path fill="#555555" stroke="#000000" stroke-width="0.254" d="M338.5,360l5-2.4l4.7-1.1h4.4l4.3,0.8l3.9,1.7l3.7,2.4l3.5,3.1
			l3.3,3.5l2.9,3.9l2.8,4.2l2.6,4.3l2.2,4.3l2.2,4.3l1.8,4.2l1.7,3.7l1.5,3.5l-1.7,0.4l-1.5,0.4l-1.5,0.3l-1.4,0.4l-1.5,0.3
			l-1.5,0.3l-1.7,0.4l-1.8,0.3l-0.8-2.8l-1.2-3.1l-1.5-3l-1.8-3.3l-1.9-3.3l-2.4-3.3l-2.4-3.3l-2.6-3.3l-2.8-3l-2.9-3.1l-2.9-2.8
			l-2.9-2.4l-3.1-2.2l-2.9-1.8l-2.9-1.4L338.5,360L338.5,360z"/>
		<path fill="#555555" stroke="#000000" stroke-width="0.254" d="M322.7,364l5.1-2.8l5-1.2l5,0.1l4.7,1.4l4.6,2.2l4.4,3.2l4.2,3.8
			l3.9,4.2l3.6,4.5l3.2,4.6l2.9,4.4l2.4,4.3l1.9,3.8l1.5,3.2l0.8,2.4l0.4,1.4l-2.1,0.4l-1.8,0.4l-1.8,0.4l-1.8,0.4l-1.8,0.4
			l-1.7,0.3l-1.8,0.3l-1.7,0.1l-1.2-2.4l-1.4-2.9l-1.7-3.2l-1.9-3.3l-2.1-3.7l-2.2-3.7l-2.3-3.6l-2.5-3.7l-2.6-3.5l-2.8-3.2
			l-2.9-2.9l-2.9-2.4l-3.1-1.9l-3.1-1.2l-3.2-0.6H322.7L322.7,364z"/>
		<path fill="#555555" stroke="#000000" stroke-width="0.254" d="M311.2,368.4l4.6-3l4.4-1.7l4.2-0.4l4.2,0.7l3.9,1.7l3.7,2.5l3.5,3
			l3.3,3.7l3.1,4l2.9,4.3l2.6,4.5l2.5,4.4l2.1,4.2l1.9,3.9l1.5,3.3l1.4,2.8l-1.7,0.3l-1.4,0.4l-1.2,0.4l-1.1,0.4l-1.3,0.4l-1.1,0.4
			l-1.1,0.3l-1.2,0.3l-1.2-3.5l-1.5-3.5l-1.5-3.3l-1.7-3.3l-1.9-3.3l-1.9-3.1l-2.2-3.1l-2.4-2.9l-2.5-2.8l-2.8-2.5l-2.8-2.2
			l-3.1-2.1l-3.3-1.8l-3.3-1.5l-3.6-1.1L311.2,368.4L311.2,368.4z"/>
		<path fill="#555555" stroke="#000000" stroke-width="0.254" d="M296.7,371.8l4-1.5l4-1l4.2-0.3l3.9,0.3l4,0.8l3.7,1.2l3.7,1.9
			l3.7,2.4l3.5,2.8l3.3,3.3l3.2,3.6l3,4l2.9,4.4l2.5,4.9l2.5,5.1l2.1,5.4l-1.8,0.3l-1.8,0.3l-1.7,0.6l-1.8,0.6l-1.8,0.4l-1.8,0.6
			l-1.8,0.4l-1.8,0.3l-1.2-3l-1.2-3.2l-1.3-3.1l-1.2-3.2l-1.5-3l-1.5-2.9l-1.8-3l-1.9-2.8l-2.4-2.6l-2.5-2.6l-2.9-2.4l-3.2-2.2
			l-3.6-1.9l-4-1.8l-4.6-1.5L296.7,371.8L296.7,371.8z"/>
		<path fill="#555555" stroke="#000000" stroke-width="0.254" d="M276,376.7l5.3-2.2l5.3-1.4l4.9-0.7l4.9-0.1l4.6,0.7l4.4,1.3
			l4.2,1.8l4,2.4l3.6,2.9l3.6,3.3l3.2,3.8l3,4.2l2.8,4.6l2.4,4.9l2.2,5l1.9,5.4l-1.7,0.3l-1.7,0.3l-1.9,0.3l-1.8,0.3l-1.9,0.3
			l-1.9,0.3l-1.9,0.3l-1.9,0.3l-1-3.9l-1.4-3.6L318,404l-1.9-3.5l-2.1-3.2l-2.4-3.1l-2.5-2.9l-2.8-2.6l-3-2.5l-3.3-2.1l-3.5-2
			l-3.6-1.7l-3.9-1.3l-4-1.1l-4.2-0.7L276,376.7L276,376.7z"/>
		<path fill="#555555" stroke="#000000" stroke-width="0.254" d="M265.9,377.8l4.7-0.7l4.6-0.4l4.6,0.1l4.4,0.6l4.4,1.1l4.2,1.4
			l4,1.8l3.9,2.2l3.6,2.6l3.5,3.1l3.1,3.3l2.9,3.7l2.5,4.2l2.2,4.5l1.8,4.9l1.4,5.1l-1.7,0.1l-1.4,0.1l-1.4,0.3l-1.4,0.3l-1.4,0.3
			l-1.4,0.3l-1.7,0.4l-1.8,0.3l-2.4-4l-2.2-3.9l-1.9-3.5l-1.8-3.5l-1.9-3.1l-1.8-2.9l-1.8-2.8l-2.1-2.5l-2.2-2.4l-2.5-2.1l-2.8-1.9
			l-3-1.8l-3.6-1.5l-3.9-1.4l-4.6-1.3L265.9,377.8L265.9,377.8z"/>
		<path fill="#555555" stroke="#000000" stroke-width="0.254" d="M243.8,380.7l6.9-1.7l6.5-1l6-0.3l5.5,0.6l5.1,1.1l4.7,1.7l4.3,2.1
			l3.9,2.8l3.7,3l3.3,3.5l3.1,3.7l2.9,4l2.6,4.2l2.5,4.4l2.2,4.4l2.2,4.6l-1.1,0.1l-1.5,0.1l-1.7,0.4l-1.8,0.3l-1.7,0.6l-1.7,0.4
			l-1.5,0.1l-1.3,0.1l-2.1-4.2l-2.2-3.7l-2.5-3.6l-2.6-3.3l-2.8-3.2l-2.9-2.9l-3.2-2.6l-3.3-2.5l-3.5-2.2l-3.6-2.1l-3.7-1.8
			l-3.9-1.8l-4-1.5l-4.2-1.4l-4.3-1.3L243.8,380.7L243.8,380.7z"/>
		<path fill="#555555" stroke="#000000" stroke-width="0.254" d="M230.5,382l3.9-0.7l4-0.1l4.4,0.1l4.6,0.7l4.6,1l4.7,1.4l4.7,1.8
			l4.7,2.2l4.7,2.6l4.4,3.1l4.3,3.3l4.2,3.7l3.7,4.2l3.5,4.4l3,4.9l2.6,5.3l-1.9,0.1l-1.9,0.3l-1.9,0.4l-1.9,0.4l-1.7,0.4l-1.4,0.4
			l-1.1,0.1l-0.7-0.1l-2.8-1.7l-2.8-1.9l-2.9-2.2l-3.1-2.5l-3.1-2.6l-3-2.7l-3.3-2.8l-3.3-2.9l-3.5-2.9l-3.5-2.9l-3.6-2.9l-3.6-2.6
			l-3.7-2.6l-3.6-2.4l-3.9-2.2L230.5,382L230.5,382z"/>
		<path fill="#555555" stroke="#000000" stroke-width="0.254" d="M211.9,387.4l3.5-3.5l3.7-2.1l3.9-0.8l4,0.3l4.2,1.1l4.4,2.1
			l4.4,2.8l4.7,3.2l4.7,3.9l4.9,4l4.9,4.3l4.9,4.3l5,4.3l5,4l5,3.7l5,3.3l-1.5,0.3l-1.8,0.1l-2.2,0.1l-2.2,0.1l-2.3,0.1H270h-1.8
			l-3.7-2.8l-3.6-2.9l-3.6-2.9l-3.3-3l-3.3-2.9l-3.2-2.9l-3.2-2.9l-3.2-2.8l-3.3-2.5l-3.2-2.4l-3.3-2.1l-3.5-1.8l-3.6-1.5l-3.7-1.2
			l-3.9-0.7L211.9,387.4L211.9,387.4z"/>
		<path fill="#555555" stroke="#000000" stroke-width="0.254" d="M198,389.1l5.8-1.4l5.4-0.6l5.1,0.3l4.9,1l4.6,1.7l4.4,2.1l4.3,2.6
			l4.2,2.9l4,3.3l4,3.3l3.9,3.6l4,3.6l4,3.5l4,3.5l4.3,3.1l4.3,2.9l-1.4,0.1l-1.8,0.3l-2.1,0.3l-2.1,0.1l-2.1,0.3l-1.8,0.3l-1.4,0.1
			l-0.8,0.1h-2.5l-2.5-0.7l-2.6-1.3l-2.8-1.8l-2.8-2.2l-3.1-2.6l-3.2-2.9l-3.3-3.1l-3.5-3.2l-3.7-3.3l-4-3.2l-4.2-3.1l-4.6-2.9
			l-4.7-2.6l-5-2.4L198,389.1L198,389.1z"/>
		<path fill="#555555" stroke="#000000" stroke-width="0.254" d="M180.4,393.9l5.1-2.9l5.4-1.2h5.3l5.4,1.1l5.4,2.1l5.4,2.9l5.3,3.5
			l5.1,3.7l4.8,4.2l4.7,4.2l4.6,3.9l4.2,3.6l3.7,3.1l3.5,2.4l3.1,1.4l2.6,0.4l-2.2,0.3l-2.4,0.4l-2.6,0.4l-2.8,0.4l-2.8,0.3
			l-2.8,0.4l-2.6,0.1l-2.4,0.1l-3.9-2.9l-3.5-2.8l-3.2-2.8l-3-2.6l-2.8-2.6l-2.6-2.6l-2.8-2.5l-2.6-2.4l-2.6-2.2l-2.9-2.1l-3-1.9
			l-3.3-1.8l-3.6-1.7l-3.9-1.4l-4.4-1.3L180.4,393.9L180.4,393.9z"/>
		<g>
			<path fill="#555555" stroke="#000000" stroke-width="0.254" d="M518.2,336.7l0.7-1.4l0.6-1.5l0.6-1.5l0.4-1.5l0.4-1.7l0.4-1.8
				l0.3-1.7l0.2-1.8l0.1-1.7l0.1-1.8v-1.8l-0.1-1.7l-0.1-1.7l-0.3-1.7l-0.4-1.7l-0.4-1.5l2.2,2.9l1.7,3.2l1.2,3l0.7,3.2l0.3,3.3v3.3
				l-0.4,3.3l-0.7,3.3l-0.8,3.3l-1.1,3.2l-1.2,3.2l-1.2,3.2l-1.4,3.1l-1.3,3l-1.3,2.8l-1.2,2.8l0.3-0.6l0.1-1l0.2-1v-1.2l0.1-1.5
				v-2.9v-1.8l0.1-1.8v-1.8l0.1-1.9l0.1-1.8l0.1-1.7l0.3-1.7l0.3-1.5L518.2,336.7L518.2,336.7z"/>
			<path fill="#555555" stroke="#000000" stroke-width="0.254" d="M560.7,394.6l-2.6-1.5l-2.6-1.7l-2.5-1.5l-2.5-1.5l-2.4-1.4
				l-2.4-1.5l-2.2-1.4l-2.2-1.5l-2.4-1.4l-2.2-1.4l-2.2-1.5l-2.4-1.4l-2.2-1.4l-2.4-1.2l-2.5-1.4l-2.5-1.4l2.2,2.2l2.2,2.2l2.2,2.2
				l2.2,2.1l2.4,2.2l2.4,1.9l2.4,2l2.5,1.8l2.4,1.7l2.5,1.4l2.4,1.3l2.5,1l2.5,0.8l2.5,0.4l2.5,0.1L560.7,394.6L560.7,394.6z"/>
			<path fill="#555555" stroke="#000000" stroke-width="0.254" d="M540,338.8l-1.9,1.1l-1.8,1.2l-1.8,1.2l-1.7,1.2l-1.7,1.2
				l-1.5,1.4l-1.5,1.5l-1.5,1.4l-1.4,1.5l-1.4,1.5l-1.4,1.5l-1.2,1.7l-1.4,1.5l-1.3,1.7l-1.2,1.7l-1.3,1.7l0.6-1.8l0.7-1.8l0.7-1.9
				l0.8-1.9l0.8-1.9l1-1.8l1.1-1.8l1.3-1.8l1.4-1.7l1.7-1.4l1.8-1.4l1.9-1.2l2.2-1l2.4-0.8l2.6-0.5L540,338.8L540,338.8z"/>
			<path fill="#555555" stroke="#000000" stroke-width="0.254" d="M519.2,322.1l-0.6,2.8l-0.4,2.8l-0.6,2.8l-0.4,2.5l-0.3,2.6
				l-0.4,2.5l-0.3,2.5l-0.3,2.4l-0.3,2.5l-0.4,2.5l-0.3,2.4l-0.4,2.5l-0.4,2.5l-0.4,2.5l-0.5,2.5l-0.6,2.6l-0.3-3l-0.4-2.9l-0.3-3.1
				l-0.3-3l-0.1-2.9l-0.1-2.9l0.1-2.9l0.1-2.8l0.3-2.8l0.4-2.5l0.7-2.5l0.8-2.4l1-2.1l1.4-1.9l1.5-1.7L519.2,322.1L519.2,322.1z"/>
			<path fill="#555555" stroke="#000000" stroke-width="0.254" d="M534.1,317.5l2.5,2.3l1.5,2.6l0.7,2.8l0.1,2.9l-0.6,2.9l-1.1,3.1
				l-1.5,3.1l-1.8,3l-2.1,2.9l-2.2,2.9l-2.4,2.8l-2.4,2.5l-2.2,2.5l-1.9,2.1l-1.7,2l-1.4,1.5l0.3-4.2l0.6-3.6l0.7-3.1l1.1-2.8
				l1.1-2.4l1.4-2.1l1.4-1.9l1.5-1.8l1.4-1.8l1.5-1.8l1.4-1.9l1.1-2.2l1.1-2.5l0.8-2.8l0.7-3.3L534.1,317.5L534.1,317.5z"/>
			<path fill="#555555" stroke="#000000" stroke-width="0.254" d="M516.3,362.1v-2.9l-0.1-2.8l-0.1-2.8l-0.1-2.8l-0.1-2.6l-0.3-2.6
				l-0.3-2.6l-0.3-2.5l-0.4-2.5l-0.4-2.6l-0.7-2.5l-0.6-2.5l-0.7-2.5l-1-2.5l-0.8-2.5l-1.1-2.5l4,3.9l3.3,3.7l2.4,3.5l1.7,3.3
				l1.1,3.2l0.5,2.9l0.1,2.9l-0.3,2.6l-0.7,2.5l-0.7,2.4l-1,2.2l-1,1.9l-0.8,1.9l-0.8,1.7l-0.6,1.7L516.3,362.1L516.3,362.1z"/>
			<path fill="#555555" stroke="#000000" stroke-width="0.254" d="M557.1,371.8l-2.2,0.4l-2.2,0.4l-2.2,0.3l-2.2,0.3l-2.2,0.1
				l-2.2,0.1h-4.3l-2.2-0.1h-2.1L533,373l-2.1-0.1l-2.2-0.1l-2.1-0.3l-2.2-0.3l-2.1-0.3l1.8,0.8l1.8,0.7l1.9,0.8l1.9,0.7l2.1,0.7
				l2.1,0.5l2.2,0.6l2.2,0.3l2.2,0.1h2.4l2.4-0.1l2.4-0.5l2.4-0.7l2.4-1l2.3-1.4L557.1,371.8L557.1,371.8z"/>
			<path fill="#555555" stroke="#000000" stroke-width="0.254" d="M544.1,383l1.7,0.3l1.5,0.3l1.7,0.4l1.7,0.4l1.7,0.7l1.7,0.5
				l1.5,0.7l1.7,0.8l1.5,0.8l1.5,1l1.4,1l1.4,1l1.2,1.1l1.1,1.1l1.1,1.1l1,1.2l-1-3.3l-1.5-2.9l-1.8-2.5l-2.2-2.4l-2.5-1.9l-2.8-1.8
				l-3.1-1.5l-3.2-1.3l-3.3-1.1l-3.3-1.1l-3.5-0.8l-3.5-0.8l-3.5-0.7l-3.3-0.7l-3.1-0.6l-3-0.7l1.5,0.6l2.1,1.1l2.5,1.7l3,1.8
				l3.1,1.9l3.2,1.8l3,1.7L544.1,383L544.1,383z"/>
			<path fill="#555555" stroke="#000000" stroke-width="0.254" d="M550.5,408l1.2-3.2l0.4-3.1l-0.4-3l-1.1-2.8l-1.7-2.6l-2.2-2.6
				l-2.6-2.5l-2.9-2.2l-3.1-2.2l-3.2-1.9l-3.3-1.9l-3.2-1.7l-2.9-1.5l-2.8-1.4l-2.4-1.2l-1.8-1.1l1.9,4l1.9,3.3l2.1,2.6l1.9,2.4
				l2.1,1.8l2.1,1.7l2.1,1.3l2.1,1.3l2.1,1.3l2.1,1.4l2.1,1.4l1.9,1.7l1.9,2.1l1.9,2.5l1.8,2.9L550.5,408L550.5,408z"/>
			<path fill="#555555" stroke="#000000" stroke-width="0.254" d="M515.4,373.7l1.5,2.4l1.5,2.4l1.5,2.4l1.4,2.2l1.3,2.2l1.2,2.4
				l1.3,2.2l1.1,2.2l1.1,2.4l1,2.4l1,2.2l0.8,2.4l0.7,2.5l0.7,2.4l0.6,2.5l0.6,2.6l1.4-5.3l0.7-4.6l0.1-4.2l-0.4-3.6l-0.8-3.1
				l-1.3-2.8l-1.5-2.4l-1.7-1.9l-1.9-1.8l-1.9-1.5l-2.1-1.3l-1.9-1.1l-1.8-1.1l-1.7-1l-1.2-1.1L515.4,373.7L515.4,373.7z"/>
		</g>
	</g>
</g>
</svg>
