<?xml version="1.0" encoding="utf-8"?>
<!-- Generator: Adobe Illustrator 18.0.0, SVG Export Plug-In . SVG Version: 6.00 Build 0)  -->
<!DOCTYPE svg PUBLIC "-//W3C//DTD SVG 1.1//EN" "http://www.w3.org/Graphics/SVG/1.1/DTD/svg11.dtd">
<svg version="1.1" id="Layer_1" xmlns="http://www.w3.org/2000/svg" xmlns:xlink="http://www.w3.org/1999/xlink" x="0px" y="0px"
	 viewBox="16.2 15.5 70.4 34" enable-background="new 16.2 15.5 70.4 34" xml:space="preserve">
<path fill="#555555" d="M16.4,15.5c0,0,6.8,16.6,47.9,26.3c0,0-5.1-7.4-13.9-11.4c0,0,0.7,2.9,0.2,3.4c-0.5,0.5-0.4-2.5-2.6-3.7
	C45.8,29.1,22.9,20.4,16.4,15.5z"/>
<path fill="#555555" d="M16.2,15.5c0,0,5.2,10.5,23.9,20c0,0-5.8,0.2-11.3-1.4c0,0,4.4,3.1,11.8,1.6c0,0,11.7,5.3,23.9,8.1
	c0,0-30,4.3-37.6-10.4c0,0-7.8-2.9-9.3-9.3c0,0,1.8,0.6,2,0.3c0,0-1.7-0.8-2.4-1.8C16.7,21.7,16,16.5,16.2,15.5z"/>
<path fill="#555555" d="M65.1,44c0,0-8,2-11.8,1.1c0,0,4.8,3.3,11.5,0.8c0,0,0.8-0.2,0.6,0.4c-0.2,0.6-2,3.1-4,2.8
	c0,0,1.4,1.7,7.6-2c0,0,3.7-1.8,0.2,0.9c0,0-2.7,2,0.9,0.3c3.7-1.8,6.5-1.5,6.5-1.5S65.3,44.1,65.1,44z"/>
<path fill="#555555" d="M61.9,37.6c0,0,0.2-1.2,4.3,1.9c4.9,3.7,2.8,0.5,1.6-0.6c-1.2-1.1,0.1-0.7,0.1-0.7c2.5,0.7,4,2.8,4.1,3
	c0.1,0.2,1.1,2.6,1.1,2.6l-8.4-1.9c-0.3-1.6-2.8-4.4-2.8-4.4"/>
<path fill="#555555" d="M48.5,38.7c0,0,17.1,6.2,38.1,9.6c0,0,0.1-1.7-3-2.2c-18.9-3.1-34.2-8.3-34.2-8.3c-0.2-0.1-0.3-0.1-0.5-0.2"
	/>
<path fill="#555555" d="M48.5,38.7c-14.8-5.7-20.3-11-20.3-11s6.3,4.8,20.7,10"/>
</svg>
