<?xml version="1.0" encoding="utf-8"?>
<!-- Generator: Adobe Illustrator 18.0.0, SVG Export Plug-In . SVG Version: 6.00 Build 0)  -->
<!DOCTYPE svg PUBLIC "-//W3C//DTD SVG 1.1//EN" "http://www.w3.org/Graphics/SVG/1.1/DTD/svg11.dtd">
<svg version="1.1" id="body" xmlns="http://www.w3.org/2000/svg" xmlns:xlink="http://www.w3.org/1999/xlink" x="0px" y="0px"
	 viewBox="0.3 0.2 608.6 171.2" enable-background="new 0.3 0.2 608.6 171.2" xml:space="preserve">
<g id="Layer_x0020_1">
	<g>
		<path fill="#555555" stroke="#000000" stroke-width="0.5956" d="M0.9,147.3c49.1-6.8,230.4-15.9,311.2-29.2
			c65-10.6,128.6-30,189.2-50.3c15.7-5.3,43.4-16.1,61.2-25.6c11.2-8.6,38.3-21.3,45.7-33.4C490.6,64.6,443.3,80,305.4,107.9
			C249.5,119.3,46.1,135.8,0.9,147.3L0.9,147.3z"/>
		<path fill="#555555" stroke="#000000" stroke-width="0.254" d="M174.8,168.9l5.3,1.8l5.1,0.4l5.1-0.8l5.1-2.1l5-2.8l5-3.6l4.7-4.2
			l4.7-4.4l4.4-4.6l4.2-4.6l4-4.4l3.7-4.2l3.5-3.5l3.2-2.8l2.8-1.8l2.5-0.8l-2.1,0.1l-2.2,0.1l-2.5,0.3l-2.5,0.3l-2.5,0.3l-2.5,0.3
			l-2.5,0.1l-2.2,0.3l-3.5,3.2l-3.3,3l-2.9,3l-2.6,3.1l-2.6,2.9l-2.5,2.9l-2.4,2.8l-2.5,2.6l-2.5,2.6l-2.6,2.4l-2.8,2.4l-3.2,2.2
			l-3.3,2.1l-3.7,1.9l-4.2,1.8L174.8,168.9L174.8,168.9z"/>
		<path fill="#555555" stroke="#000000" stroke-width="0.254" d="M157.6,168.2l6.1,1l5.7,0.1l5.3-0.5l5-1.2l4.6-1.9l4.2-2.4l4.2-2.8
			l3.7-3.2l3.7-3.3l3.5-3.6l3.5-3.9l3.3-3.7l3.5-3.7l3.5-3.7l3.5-3.5l3.6-3.2l-1.4,0.1h-1.5l-1.4,0.1l-1.5,0.1l-1.5,0.1l-1.5,0.3
			l-1.5,0.1l-1.5,0.1l-1.5,0.1l-1.7,0.1l-1.5,0.3l-1.7,0.1l-1.7,0.1l-1.7,0.1H201l-1.7,0.1l-1.3,1.9l-1.5,2.4l-1.9,2.8l-2.1,2.9
			L190,144l-2.6,3.2l-2.8,3.3l-2.9,3.2l-3.1,3.1l-3,2.9l-3.2,2.6l-3,2.2l-3.1,1.8l-3.1,1.3l-2.9,0.7L157.6,168.2L157.6,168.2z"/>
		<path fill="#555555" stroke="#000000" stroke-width="0.254" d="M146.2,168.3l3.5,0.4l3.3,0.3l3.2-0.1l3.2-0.6l3.2-0.7l3.1-1.2
			l3-1.5l3.2-2.1l3.2-2.4l3.2-2.8l3.2-3.3l3.3-3.6l3.5-4.3l3.6-4.7l3.7-5.1l3.9-5.8l-2.4,0l-2.2,0.1l-2.2,0.3l-2.2,0.3l-2.2,0.3
			L186,132h-5.1l-2.2,2.2l-2.1,2.4l-2.1,2.2l-2.1,2.5l-2.1,2.4l-1.9,2.5l-2.1,2.3l-2,2.5l-2.1,2.4l-2.1,2.4l-2.2,2.4l-2.1,2.2
			l-2.4,2.1l-2.4,2.1l-2.4,2.1L146.2,168.3L146.2,168.3z"/>
		<path fill="#555555" stroke="#000000" stroke-width="0.254" d="M134.1,167.8l2.6,1.4l2.9,0.6l2.9-0.4l3-1.2l3.1-1.8l3.2-2.5
			l3.2-2.8l3.2-3.3l3-3.5l3.2-3.6l2.9-3.6l2.9-3.5l2.8-3.5l2.6-3l2.5-2.6l2.2-2.2l-14.8,1.4l-1.7,2.2l-1.8,2.2l-1.7,2.2l-1.7,2.2
			l-1.7,2.2l-1.8,2.2l-1.7,2.2l-1.8,2.2l-1.9,2.1l-1.9,2.2l-1.9,2.1l-2.2,2.1l-2.2,2.1l-2.4,2.1l-2.5,1.9L134.1,167.8L134.1,167.8z"
			/>
		<path fill="#555555" stroke="#000000" stroke-width="0.254" d="M109.6,164.6l4.3,2.8l4,1.8l4,0.8h3.9l3.7-0.7l3.6-1.2l3.5-1.9
			l3.5-2.5l3.3-3l3.3-3.2l3-3.8l3.2-3.7l3.1-4l3.1-4.2l2.9-4.2l2.9-4l-2.5,0.4l-1.9,0.1l-1.4,0.1l-1.2,0.1l-1.2,0.1l-1.3,0l-1.8,0.1
			l-2.4,0.1l-2.6,3.7l-2.6,3.5l-2.6,3.3l-2.9,2.9l-2.8,2.6l-2.8,2.5l-2.9,2.2l-2.8,1.9l-2.8,1.7l-2.8,1.5l-2.6,1.1l-2.5,1l-2.5,0.8
			l-2.2,0.6l-2.2,0.3L109.6,164.6L109.6,164.6z"/>
		<path fill="#555555" stroke="#000000" stroke-width="0.254" d="M96.7,163.7l4.4,0.6l4.3,0.3l4.2-0.3l4-0.5l3.8-0.8l3.7-1.2
			l3.5-1.5l3.3-1.9l3.3-2.1l3.1-2.4l3.1-2.6l2.9-2.9l2.8-3l2.6-3.3l2.6-3.5l2.5-3.6l-2.8,0.1l-3.1,0.3l-2.9,0.3l-2.9,0.1l-2.5,0.3
			l-2.1,0.1l-1.5,0.1l-0.7,0.1l-0.3,0.3l-0.7,0.7l-1.1,1.1l-1.4,1.4l-1.5,1.7l-1.9,1.9l-2.1,2.1l-2.3,2.2l-2.6,2.2l-2.8,2.4
			l-2.8,2.2l-3.1,2.2l-3.2,2.1l-3.2,1.9l-3.3,1.7L96.7,163.7L96.7,163.7z"/>
		<path fill="#555555" stroke="#000000" stroke-width="0.254" d="M79.6,164.7l3.7,0.7l3.6,0.3l3.7-0.4l3.7-0.7l3.7-1.2l3.6-1.5
			l3.6-1.8l3.6-2.2l3.3-2.3l3.3-2.5l3.2-2.6l3.1-2.8l2.9-2.9l2.8-2.8l2.5-2.8l2.4-2.8h-1.7l-2.1,0.1l-2.2,0.1h-2.4l-2.2,0.3
			l-2.2,0.1l-1.8,0.1l-1.5,0.3v0.3l-0.6,0.7l-1.4,1.3l-1.9,1.5l-2.4,1.9l-2.8,2.2l-3.1,2.4l-3.2,2.3l-3.3,2.5l-3.3,2.5l-3.2,2.4
			l-3.1,2.1l-2.8,2l-2.5,1.5L81,164L79.6,164.7L79.6,164.7z"/>
		<path fill="#555555" stroke="#000000" stroke-width="0.254" d="M60.8,164.5l2.2,2.2l2.9,1l3.6,0l4-1l4.4-1.7l4.6-2.3l4.9-2.8
			l4.7-3l4.7-3.3l4.4-3.3l4.2-3.2l3.6-3.1l3.2-2.5l2.4-2.1l1.5-1.4l0.7-0.6l-1.8,0.1l-1.9,0.1l-2.1,0.1l-2.1,0.1l-2.2,0.3l-2.2,0.1
			l-2.2,0.1l-2.4,0.1l-2.5,1.5l-2.5,1.5l-2.5,1.7l-2.4,1.5l-2.5,1.7l-2.4,1.8l-2.5,1.7l-2.4,1.7l-2.5,1.8l-2.4,1.7l-2.5,1.7
			l-2.4,1.7l-2.5,1.5l-2.5,1.5l-2.4,1.5L60.8,164.5L60.8,164.5z"/>
		<path fill="#555555" stroke="#000000" stroke-width="0.254" d="M46.9,164.8l2.4,0.8l2.4,0.4l2.4,0.1l2.4-0.4l2.4-0.7l2.5-1
			l2.6-1.4l2.8-1.7l3.1-1.9l3.2-2.2l3.5-2.5l3.9-2.6l4.3-2.9l4.6-3.2l5-3.3l5.6-3.5l-2.4,0.1l-2.6,0.1l-2.4,0l-2.4,0.1l-2.1,0.1
			l-1.7,0.1l-1.1,0.1l-0.4,0.1l-0.3,0.4l-0.8,0.8l-1.3,1.1l-1.7,1.5l-2.1,1.8l-2.4,2.1l-2.5,2.1l-2.9,2.2l-2.9,2.2l-3.1,2.2
			l-3.1,1.9l-3.2,1.9l-3,1.7l-3,1.4l-2.9,1L46.9,164.8L46.9,164.8z"/>
		<path fill="#555555" stroke="#000000" stroke-width="0.254" d="M36.8,163.3l3.2,1.2l3.5,0.6l3.6-0.3l3.7-1l3.9-1.4l3.7-1.8
			l3.9-2.2l3.6-2.5l3.5-2.5l3.3-2.6l3.1-2.5l2.6-2.5l2.4-2.1l1.8-1.8l1.4-1.2l0.8-0.8l-2.2,0.1l-2.1,0.1l-2.1,0.1l-2.1,0.3l-1.9,0.1
			l-2.1,0.1l-2.2,0.3l-2.2,0.1l-1.7,1.5l-1.8,1.5l-1.7,1.5l-1.8,1.7l-1.8,1.8l-1.8,1.7l-1.9,1.7l-1.9,1.7l-1.9,1.5l-1.9,1.5
			l-2.1,1.4l-1.9,1.2l-2.2,1.1l-2.1,1l-2.2,0.7L36.8,163.3L36.8,163.3z"/>
		<path fill="#555555" stroke="#000000" stroke-width="0.254" d="M24.6,159.4l2.8,1.9l2.8,1.2l2.8,0.6l2.8,0.1l2.8-0.5l2.8-0.8
			l2.8-1.2l2.8-1.7l2.6-1.8l2.8-2.2l2.6-2.2l2.6-2.4l2.6-2.3l2.5-2.5l2.5-2.4l2.5-2.2l-1.5,0.1l-1.7,0.3l-1.8,0.1l-1.9,0.1l-2.1,0.3
			l-2.2,0.1l-2.4,0.3l-2.2,0.1l-0.7,1.7l-1,1.7l-1,1.5l-1.3,1.5l-1.4,1.4l-1.5,1.4l-1.5,1.4l-1.8,1.1l-1.8,1.1l-1.9,1l-2.1,1
			l-2.1,0.7l-2.2,0.6l-2.2,0.5l-2.4,0.3L24.6,159.4L24.6,159.4z"/>
		<path fill="#555555" stroke="#000000" stroke-width="0.254" d="M13.6,157.3l2.4,1l2.5,0.7l2.6,0.4l2.9,0l2.8-0.1l3-0.4l2.9-0.8
			l2.9-0.8l2.8-1.2l2.6-1.4l2.4-1.5l2.2-1.8l1.9-1.9l1.7-2.1l1.2-2.4l0.8-2.4l-1.7,0.1l-1.7,0.1l-1.8,0.3l-1.8,0.1l-1.8,0.1
			l-1.9,0.1l-2.1,0.1l-2.4,0.1l-1,1.4l-1.1,1.4l-1.1,1.2l-1.1,1.1l-1.1,1.1l-1.3,0.8l-1.2,1l-1.3,0.8l-1.4,0.7l-1.5,0.7l-1.5,0.7
			l-1.7,0.6l-1.7,0.6l-1.8,0.6l-1.9,0.4L13.6,157.3L13.6,157.3z"/>
		<path fill="#555555" stroke="#000000" stroke-width="0.254" d="M7.9,155.3l0.8,0.8l1.3,0.6l1.5,0.3h1.7l1.9-0.1l2.1-0.4l2.2-0.7
			l2.2-0.7l2.2-1l2.2-1.1l2.2-1.2l1.9-1.4l1.9-1.5l1.7-1.7l1.2-1.7l1.1-1.8l-1.2,0.1l-1.1,0.1l-1.4,0.1l-1.2,0.1l-1.2,0.1l-1.1,0.1
			l-1,0l-1,0v0.6l-1.2,1.1l-2.1,1.5l-2.8,1.8l-3.3,1.8l-3.3,1.8l-3.3,1.4L7.9,155.3L7.9,155.3z"/>
		<path fill="#555555" stroke="#000000" stroke-width="0.254" d="M3.9,151.5l0.3,1.9l0.7,1.2l1.1,0.6l1.5,0.3l1.8-0.3l2.1-0.7
			l2.1-0.8l2.2-1.1l2.2-1.3l2.1-1.4l2.1-1.4l1.7-1.3l1.5-1.1l1.1-0.8l0.7-0.6l0.1-0.3l-10.8,1.2l-0.8,0.6l-1.4,0.7l-1.7,0.8
			l-1.8,0.8l-1.9,1L7,150.3L5.3,151L3.9,151.5L3.9,151.5z"/>
		<path fill="#555555" stroke="#000000" stroke-width="0.254" d="M16.4,145.8l-2.4,0.1l-2.1,0.1l-1.9,0.1l-1.8,0.1l-1.7,0.1
			l-1.8,0.1L3,146.9l-2.1,0.4l0.4,2.6l1.2,1.2l1.9,0l2.5-0.7l2.5-1.3l2.6-1.4l2.4-1.2L16.4,145.8z"/>
		<path fill="#555555" stroke="#000000" stroke-width="0.254" d="M16,144.4l-2.4,0.4l-2.1,0.3l-1.8,0.4L8,145.8l-1.7,0.4l-1.7,0.4
			L2.7,147l-2.1,0.6l-0.1-3.1l1.2-1.9l1.9-0.7l2.6-0.1l2.8,0.5l2.8,0.7l2.4,0.8L16,144.4L16,144.4z"/>
		<path fill="#555555" stroke="#000000" stroke-width="0.254" d="M160.3,88.1l6.1-2.4l5.8-1.5l5.4-0.4l5.1,0.3l5,1.1l4.6,1.7
			l4.4,2.4l4.3,2.6l4.2,3.1l4,3.3l4,3.5l3.9,3.6l3.9,3.5l3.9,3.3l3.9,3.2l4,2.9l-1.4,0.3l-1.5,0.1l-1.5,0.1l-1.4,0.3l-1.5,0.1
			l-1.5,0.1l-1.7,0.1l-1.5,0.1l-1.5,0.1l-1.7,0.1l-1.7,0.3l-1.5,0.1l-1.7,0.1l-1.7,0.3l-1.8,0.1l-1.7,0.3l-1.4-1.9l-1.8-2.4
			l-2.1-2.8l-2.5-2.8l-2.6-3.1l-2.9-3.1l-3.2-3.1l-3.2-2.9l-3.5-2.8l-3.5-2.5l-3.5-2.2l-3.6-1.8l-3.5-1.4l-3.5-0.8l-3.5-0.1
			L160.3,88.1L160.3,88.1z"/>
		<path fill="#555555" stroke="#000000" stroke-width="0.254" d="M149.9,90.4l3.5-1.2l3.3-0.8l3.2-0.6l3.3-0.3l3.2,0.3l3.3,0.7
			l3.2,1l3.3,1.5l3.5,1.9l3.5,2.5l3.6,2.9l3.7,3.5l4,4l4,4.6l4.3,5.1l4.6,5.7l-2.5,0.1l-2.2,0.3l-2.1,0.1l-1.9,0.3l-1.9,0.3
			l-2.1,0.3l-2.4,0.4l-2.8,0.4l-2.5-2.1l-2.4-2.2l-2.5-2.4l-2.2-2.4l-2.4-2.4l-2.4-2.4l-2.2-2.4l-2.4-2.4l-2.4-2.2l-2.5-2.1
			l-2.4-2.1l-2.5-2.1l-2.6-1.8l-2.8-1.5l-2.8-1.5L149.9,90.4L149.9,90.4z"/>
		<path fill="#555555" stroke="#000000" stroke-width="0.254" d="M138.2,93.4l2.6-2.2l2.9-1.1l3.2-0.3l3.2,0.7l3.5,1.4l3.5,1.9
			l3.6,2.5l3.6,2.9l3.6,3.2l3.6,3.3l3.5,3.3l3.3,3.5l3,3.2l3,2.9l2.6,2.5l2.5,2.1l-15.1,1.8l-1.9-2.2l-1.9-2.2l-1.8-2.2l-1.9-2.2
			l-1.9-2.2l-1.9-2.4l-2.1-2.2l-1.9-2.1l-2.2-2.1l-2.2-2.1l-2.4-1.9l-2.5-1.8l-2.6-1.8l-2.8-1.5l-2.9-1.4L138.2,93.4L138.2,93.4z"/>
		<path fill="#555555" stroke="#000000" stroke-width="0.254" d="M115.5,103.1l4.2-4l4-2.9l3.9-1.9l3.9-1.1l3.9-0.1l3.7,0.6l3.7,1.4
			l3.6,1.8l3.6,2.5l3.5,2.9l3.6,3.3l3.3,3.6l3.5,3.7l3.3,4l3.3,4l3.3,4l-2.6,0.1l-2.2,0.1l-1.8,0.1l-1.7,0.3l-1.7,0.3l-1.8,0.3
			l-2.1,0.3l-2.5,0.4l-2.9-3.7l-2.8-3.3l-2.9-3.1l-2.8-2.6l-2.9-2.2l-2.8-1.9l-2.6-1.7l-2.8-1.4l-2.6-1.1l-2.5-0.8l-2.6-0.7
			l-2.5-0.6l-2.3-0.3l-2.4-0.3h-2.4L115.5,103.1L115.5,103.1z"/>
		<path fill="#555555" stroke="#000000" stroke-width="0.254" d="M99.2,106.9l4.6-1.7l4.3-1.2l4.3-0.7l4-0.3l4,0l3.9,0.6l3.7,0.8
			l3.6,1.3l3.6,1.5l3.3,1.9l3.5,2.2l3.2,2.5l3.2,2.8l3,3l2.9,3.3l2.9,3.6l-2.9,0.4l-3.3,0.4l-3.3,0.4l-3.3,0.4l-3,0.4L139,129
			l-1.8,0.1l-0.7,0l-0.3-0.3l-0.7-0.6l-1-1l-1.2-1.3l-1.5-1.5L130,123l-2.1-1.8l-2.4-1.9l-2.6-1.8l-2.8-1.9l-3.1-1.8l-3.3-1.8
			l-3.3-1.5l-3.6-1.4l-3.7-1.3L99.2,106.9L99.2,106.9z"/>
		<path fill="#555555" stroke="#000000" stroke-width="0.254" d="M78.7,109.3l3.7-1.5l3.7-1.1l4-0.4l3.9,0l4,0.4l4,0.8l3.9,1.3
			l4,1.5l3.7,1.8l3.7,1.9l3.6,2.4l3.6,2.4l3.2,2.5l3.2,2.6l2.9,2.6l2.6,2.6l-1.8,0.1l-2.2,0.3l-2.5,0.3l-2.6,0.3l-2.6,0.3l-2.4,0.3
			l-2.1,0.1h-1.5l0-0.3l-0.7-0.7l-1.4-1l-2.1-1.4l-2.5-1.5l-2.9-1.8l-3.3-1.9l-3.5-1.9l-3.5-2l-3.6-1.9l-3.6-1.8l-3.3-1.7l-3.1-1.4
			l-2.8-1.1l-2.2-0.7L78.7,109.3L78.7,109.3z"/>
		<path fill="#555555" stroke="#000000" stroke-width="0.254" d="M59.3,113.4l1.9-3l2.9-1.8l3.6-0.7h4.2l4.6,1l5,1.5l5.3,2.1
			l5.1,2.4l5.3,2.6l4.8,2.8l4.6,2.6l4.2,2.6l3.5,2.2l2.6,1.7l1.8,1.2l0.8,0.4l-1.9,0.4l-2.2,0.3l-2.4,0.3l-2.5,0.1l-2.6,0.3
			l-2.6,0.3l-2.5,0.4l-2.5,0.4l-2.6-1.3l-2.5-1.3l-2.6-1.4l-2.5-1.4l-2.5-1.3l-2.5-1.4l-2.6-1.4l-2.5-1.4l-2.5-1.3l-2.5-1.4
			l-2.6-1.2l-2.5-1.1l-2.5-1.3l-2.6-1.1l-2.6-1.1L59.3,113.4L59.3,113.4z"/>
		<path fill="#555555" stroke="#000000" stroke-width="0.254" d="M34.5,120l3.1-2.2l3.5-1.3l3.6-0.5l3.9,0l4,0.7l4.2,1.3l4,1.5
			l4,1.8l3.7,2.1l3.7,2.1l3.3,2.2l2.9,1.9l2.6,1.8l2.1,1.7l1.5,1.1l0.8,0.7l-2.2,0.3l-2.1,0.3l-1.8,0.3l-1.8,0.1l-1.9,0.1l-1.8,0.3
			l-2.1,0.3l-2.2,0.3l-1.9-1.2l-1.9-1.3l-2.1-1.5l-2.1-1.4l-2.2-1.5l-2.2-1.5l-2.2-1.5l-2.2-1.4l-2.2-1.4l-2.3-1.1l-2.4-1.1
			l-2.2-0.8l-2.3-0.7l-2.2-0.4h-2.2L34.5,120L34.5,120z"/>
		<path fill="#555555" stroke="#000000" stroke-width="0.254" d="M43.6,116l2.4-1.5l2.5-1.1l2.4-0.6l2.5-0.3l2.5,0.1l2.6,0.6l2.9,1
			l3,1.1l3.3,1.5l3.5,1.7l3.9,2.1l4.2,2.2l4.6,2.4l5,2.5l5.4,2.8l6,2.8l-2.2,0.1l-2.5,0.3l-2.5,0.3l-2.5,0.4l-2.2,0.3l-1.7,0.3
			l-1.3,0.1l-0.6-0.1l-0.3-0.3l-1-0.7l-1.2-1.1l-1.7-1.2l-2.1-1.5l-2.5-1.7l-2.6-1.8l-2.9-1.8l-3.2-1.8l-3.2-1.8l-3.5-1.5l-3.5-1.4
			l-3.5-1.1l-3.5-0.7l-3.3-0.4L43.6,116L43.6,116z"/>
		<path fill="#555555" stroke="#000000" stroke-width="0.254" d="M23.4,127.1l2.5-2.8l2.6-2.1l2.6-1.4l2.8-0.8l2.8-0.1l2.9,0.3
			l3.1,0.7l2.9,1l3,1.5l2.9,1.5l3,1.9l3.1,2l3.1,1.9l2.9,2.1l2.9,2.1l2.9,1.8l-1.7,0.3l-1.8,0.1l-2.1,0.4l-2.2,0.3l-2.4,0.3
			l-2.5,0.3l-2.4,0.3l-2.4,0.3l-0.8-1.8l-1-1.5l-1.1-1.5l-1.4-1.4l-1.4-1.2l-1.5-1l-1.8-1l-1.8-0.8l-1.9-0.7l-2.1-0.6l-2.1-0.4
			l-2.2-0.3l-2.4-0.1l-2.4,0l-2.4,0.3L23.4,127.1L23.4,127.1z"/>
		<path fill="#555555" stroke="#000000" stroke-width="0.254" d="M6.3,136.2l0.7-1.1l1.1-1l1.5-0.8l1.7-0.6l1.9-0.4l2.2-0.1l2.2,0
			l2.5,0.1l2.4,0.4l2.5,0.6l2.4,0.8l2.2,1l2.1,1.1l1.9,1.4l1.5,1.5l1.4,1.7l-1.2,0.3l-1.5,0.3l-1.5,0.3l-1.5,0.3l-1.4,0.1l-1.1,0.1
			h-1.1l-0.6-0.3l-1.4-0.8l-2.4-1.1l-2.8-1.2l-3.2-1.1l-3.6-1l-3.5-0.6L6.3,136.2L6.3,136.2z"/>
		<path fill="#555555" stroke="#000000" stroke-width="0.254" d="M3,141.9l-0.1-2.2l0.6-1.7l1-1.1l1.5-0.7l1.8-0.3l2.1,0.1l2.2,0.3
			l2.5,0.6l2.4,0.8l2.4,0.8l2.2,0.8l1.9,0.8l1.7,0.8l1.4,0.6l0.7,0.6l0.3,0.1l-11.1,1.9l-1-0.4l-1.5-0.4l-1.7-0.6l-1.9-0.6l-1.9-0.4
			l-1.9-0.3l-1.8,0L3,141.9L3,141.9z"/>
		<path fill="#555555" stroke="#000000" stroke-width="0.254" d="M12.1,132.6l2.2-1.8l2.4-1.4l2.6-1.2l2.9-0.8l2.9-0.6l2.9-0.4
			l3.1,0l3,0.3l2.9,0.6l2.9,1l2.6,1.1l2.5,1.4l2.4,1.7l1.9,1.9l1.5,2.2l1.2,2.5l-1.8,0.1l-1.7,0.3l-1.8,0.1l-1.9,0.3l-1.9,0.3
			l-2.1,0.1l-2.2,0.4l-2.4,0.3l-0.8-1.2l-1-1.1l-1.1-1l-1.2-1l-1.4-0.8l-1.5-0.8l-1.5-0.7l-1.7-0.5l-1.7-0.6l-1.8-0.4l-1.7-0.3
			l-1.8-0.1l-1.8-0.1l-1.8,0l-1.8,0.1L12.1,132.6L12.1,132.6z"/>
		<path fill="#555555" stroke="#000000" stroke-width="0.254" d="M505.9,66.3l0.3,0.4l0.7,1.1l1,1.8l1.2,2.2l1.4,2.6l1.4,2.9
			l1.3,3.3l1.1,3.3l0.8,3.5l0.3,3.3l-0.2,3.3l-0.7,3l-1.5,2.8l-2.4,2.5l-3.3,1.9l-4.3,1.4l0.7-2.1l0.4-2.2l0.4-2.2l0.3-2.5l0.1-2.5
			v-2.6l-0.1-2.5l-0.1-2.6l-0.3-2.6l-0.3-2.6l-0.4-2.5l-0.6-2.4l-0.4-2.4l-0.6-2.1l-0.7-2.1l-0.6-1.8l0.7-0.3l0.6-0.1l0.7-0.3
			l0.6-0.1l0.6-0.3l0.5-0.1l0.7-0.3L505.9,66.3L505.9,66.3z"/>
		<path fill="#555555" stroke="#000000" stroke-width="0.254" d="M501.2,68.2l1.9,7.6l1.4,6.9l0.7,6l0.1,5.3l-0.3,4.6l-0.8,3.9
			l-1.1,3.3l-1.3,2.8l-1.7,2.2l-1.8,1.8l-1.8,1.3l-1.8,1l-2,0.7l-1.7,0.3l-1.5,0.1h-1.4l0.8-2.2l0.8-2.2l0.7-2.5l0.6-2.5l0.6-2.8
			l0.4-2.8l0.4-2.8l0.3-2.9l0.1-2.9l0-3.1l-0.1-2.9l-0.3-3.1l-0.4-2.9l-0.6-3.1l-0.7-2.8l-0.8-2.9l1.7-0.6l1.7-0.6l1.5-0.6l1.5-0.4
			l1.3-0.4l1.4-0.4l1.1-0.3L501.2,68.2L501.2,68.2z"/>
		<path fill="#555555" stroke="#000000" stroke-width="0.254" d="M489.9,71.7l0.8,2.8l0.8,3.5l0.6,3.9l0.3,4.3l0.1,4.7l0,4.7
			l-0.4,4.7l-0.7,4.6l-1,4.3l-1.2,4l-1.8,3.5l-2.1,2.8l-2.6,2.1l-3,1.1l-3.5,0.1l-4-1.1l1.5-2.5l1.5-2.6l1.3-2.8l1.1-2.6l0.8-2.9
			l0.8-2.8l0.6-2.9l0.6-2.9l0.3-2.9l0.1-3v-2.9l-0.3-3l-0.3-3l-0.6-2.9l-0.6-3.1l-0.8-2.9l1.4-0.6l1.7-0.6L483,74l1.7-0.6l1.7-0.5
			l1.4-0.6l1.3-0.4L489.9,71.7L489.9,71.7z"/>
		<path fill="#555555" stroke="#000000" stroke-width="0.254" d="M454.7,129.2l3.8,0.3l3.6-0.6l3.2-1.4l2.9-1.9l2.8-2.6l2.4-3.2
			l1.9-3.6l1.8-4l1.4-4.3l1.1-4.6l0.7-4.7l0.3-4.7l0-4.7l-0.4-4.7l-0.8-4.6l-1.2-4.3l-1.5,0.6l-1.5,0.6l-1.7,0.4l-1.7,0.6l-1.7,0.6
			l-1.8,0.6l-1.7,0.6l-1.8,0.6v2.9l0,3.2l-0.1,3.6l-0.1,3.7l-0.1,3.7l-0.1,3.9l-0.4,4l-0.4,3.7l-0.6,3.7l-0.6,3.5l-0.8,3.3l-1,2.9
			l-1.1,2.5l-1.4,2.1l-1.5,1.5L454.7,129.2L454.7,129.2z"/>
		<path fill="#555555" stroke="#000000" stroke-width="0.254" d="M464.5,80l-1.4,0.6l-1.4,0.4l-1.2,0.4l-1.4,0.3l-1.4,0.4l-1.3,0.4
			l-1.4,0.4l-1.4,0.6l-0.3,2.8l-0.1,3l-0.1,3.3L453,96l0,3.5l0,3.7l-0.1,3.8l-0.1,3.6l-0.3,3.6l-0.4,3.6l-0.7,3.3l-0.7,3.1l-1.1,2.9
			l-1.3,2.6l-1.5,2.2l-1.9,1.8l4-1l3.3-1.4l2.8-1.9l2.4-2.2l1.9-2.6l1.5-3l1.1-3.3l0.8-3.5l0.6-3.9l0.4-4l0.1-4.2l0.2-4.4l0.1-4.4
			l0.1-4.6l0-4.6L464.5,80L464.5,80z"/>
		<path fill="#555555" stroke="#000000" stroke-width="0.254" d="M427.7,139.2l5.5-0.3l4.7-1.1l3.9-1.8l3.2-2.4l2.5-3l1.8-3.5
			l1.5-3.9l1-4.3l0.6-4.4l0.4-4.6l0.1-4.7l0-4.6l0-4.7l0-4.4l0.3-4.2l0.3-3.9l-1.5,0.4l-1.4,0.4l-1.2,0.4l-1.4,0.4l-1.4,0.4
			l-1.2,0.4l-1.4,0.3l-1.5,0.4l0.1,0.4l0.3,1l0.3,1.5l0.4,1.9l0.3,2.5l0.3,2.8l0.1,3.2l-0.1,3.6l-0.4,3.7l-0.7,4.1l-1.3,4.3
			l-1.5,4.4l-2.2,4.6l-2.8,4.8l-3.3,4.7L427.7,139.2L427.7,139.2z"/>
		<path fill="#555555" stroke="#000000" stroke-width="0.254" d="M408.8,145.1l3.7,0.7l3.7-0.3l3.6-1.3l3.6-1.9l3.5-2.6l3.3-3.2
			l3.1-3.9l2.8-4.3l2.4-4.6l2.1-5l1.7-5.3l1.1-5.4l0.7-5.4l0.1-5.5l-0.6-5.3l-1.1-5.3l-13.2,4.2l0.1,2.2l0.1,2.6l-0.1,2.9l-0.3,3.3
			l-0.4,3.5l-0.7,3.7l-0.7,3.9l-1.1,4l-1.3,4l-1.5,3.9l-1.7,3.9l-2.1,3.7l-2.2,3.6l-2.6,3.3l-2.9,3L408.8,145.1L408.8,145.1z"/>
		<path fill="#555555" stroke="#000000" stroke-width="0.254" d="M429.7,90.5l-2.1,0.7l-2.6,0.7l-2.9,1l-3,0.8l-2.9,1l-2.9,0.8
			l-2.5,0.7l-1.9,0.4l-0.3,3.2l-0.2,3.5l-0.3,3.5l-0.1,3.6l-0.4,3.6l-0.3,3.8l-0.4,3.6l-0.6,3.6l-0.7,3.5l-0.8,3.3l-1.1,3.3l-1.2,3
			l-1.5,2.9l-1.8,2.5l-1.9,2.4l-2.4,2.1l2.8,0.4l2.9-0.1l2.9-0.7l2.9-1.2l2.9-1.8l2.9-2.2l2.8-2.8l2.8-3.5l2.5-3.7l2.2-4.4l2.1-4.8
			l1.8-5.5l1.4-6l1.1-6.4l0.7-7.1L429.7,90.5L429.7,90.5z"/>
		<path fill="#555555" stroke="#000000" stroke-width="0.254" d="M376.5,150.6l6.2,0.3l5.3-0.6l4.6-1.5l3.6-2.4l3-2.9l2.5-3.5
			l1.8-3.9l1.4-4.4l1.1-4.4l0.7-4.9l0.4-4.7l0.4-4.7l0.1-4.7l0.3-4.3l0.3-4l0.4-3.6l-1.9,0.4l-1.7,0.4l-1.5,0.6l-1.5,0.4l-1.7,0.4
			l-1.5,0.4l-1.8,0.6l-2.1,0.5l-0.4,3.8l-0.4,3.6l-0.4,3.6l-0.6,3.5l-0.4,3.5l-0.6,3.3l-0.7,3.2l-0.7,3.2l-1,3.1l-1.1,3l-1.4,2.9
			l-1.5,2.9l-1.9,2.9l-2.1,2.8l-2.5,2.6L376.5,150.6L376.5,150.6z"/>
		<path fill="#555555" stroke="#000000" stroke-width="0.254" d="M359.8,153.7l5.5,0.3l4.9-0.7l4.3-1.5l3.8-2.4l3.2-2.9l2.8-3.5
			l2.2-4l1.9-4.3l1.7-4.4l1.3-4.7l1-4.6l0.7-4.7l0.7-4.4l0.4-4.2l0.4-3.9l0.3-3.3l-2,0.4l-1.7,0.4l-1.5,0.4l-1.5,0.3l-1.4,0.4
			l-1.5,0.3l-1.8,0.6l-2.1,0.4l-0.7,5.4l-0.8,5.1l-1,4.7l-1,4.4l-1.1,4l-1.2,3.9l-1.4,3.3l-1.4,3.2l-1.4,2.9l-1.5,2.6l-1.7,2.2
			l-1.5,2.1l-1.7,1.9l-1.7,1.5l-1.8,1.4L359.8,153.7L359.8,153.7z"/>
		<path fill="#555555" stroke="#000000" stroke-width="0.254" d="M344,155.7l5.3,0.3l4.7-0.7l4.2-1.5l3.9-2.2l3.2-2.9l2.9-3.3
			l2.5-3.9l2.2-4.2l1.9-4.3l1.5-4.6l1.3-4.6l1.1-4.6l1-4.3l0.7-4.2l0.6-3.7l0.6-3.3l-1.7,0.3l-1.7,0.4l-1.7,0.4l-1.7,0.4l-1.7,0.4
			l-1.7,0.4l-1.7,0.4l-1.8,0.4l-0.1,2.6l-0.4,2.9l-0.6,3.1l-1,3.3l-1,3.6l-1.4,3.5l-1.4,3.7l-1.5,3.6l-1.8,3.6l-1.9,3.5l-1.9,3.2
			l-2.1,3l-2.1,2.9l-2.2,2.5l-2.4,2.1L344,155.7L344,155.7z"/>
		<path fill="#555555" stroke="#000000" stroke-width="0.254" d="M326.6,158.9l5.4,0.7l5-0.7l4.6-1.8l4.2-2.8l3.9-3.5l3.3-4.2l3-4.7
			l2.8-4.9l2.2-5.1l1.9-5l1.7-4.7l1.4-4.6l0.8-3.9l0.7-3.2l0.4-2.4l0-1.4l-2.1,0.4l-1.9,0.4l-1.9,0.6l-1.9,0.4l-1.9,0.6l-1.8,0.4
			l-1.8,0.4l-1.8,0.3l-0.7,2.4l-0.7,2.8l-0.8,3.2l-1,3.6l-1.1,3.7l-1.2,3.9l-1.4,3.9l-1.5,4l-1.7,3.9l-1.8,3.6l-1.9,3.5l-2.1,3
			l-2.4,2.6l-2.4,2.1l-2.6,1.5L326.6,158.9L326.6,158.9z"/>
		<path fill="#555555" stroke="#000000" stroke-width="0.254" d="M314,158.2l5,1.1l4.4,0l4-1l3.7-1.9l3.2-2.6l2.9-3.2l2.6-3.9
			l2.4-4.2l2-4.4l1.8-4.6l1.4-4.6l1.4-4.4l1.1-4.2l0.8-3.7l0.8-3.3l0.7-2.6l-1.5,0.3l-1.5,0.1l-1.4,0.3l-1.3,0.3l-1.4,0.3l-1.3,0.3
			l-1.1,0.3l-1.2,0.1l-0.4,3.2l-0.7,3.3l-0.8,3.3l-0.8,3.2l-1.1,3.3l-1.3,3.2l-1.4,3.1l-1.7,3l-1.7,3l-1.9,2.9l-2.2,2.8l-2.2,2.5
			l-2.6,2.5l-2.6,2.2l-2.9,2.1L314,158.2L314,158.2z"/>
		<path fill="#555555" stroke="#000000" stroke-width="0.254" d="M298.2,160.7l4.2,0l4-0.4l3.9-1l3.8-1.4l3.5-1.9l3.5-2.4l3-2.8l3-3
			l2.6-3.5l2.5-3.7l2.2-4.2l2.1-4.3l1.7-4.6l1.4-4.9l1.3-5l0.8-5.1l-1.8,0.4l-1.8,0.3l-1.9,0.4l-1.8,0.3l-1.8,0.3l-1.7,0.4l-1.8,0.3
			l-1.7,0.4l-0.8,2.9l-0.7,3l-0.8,2.9l-0.7,2.9l-0.8,2.9l-0.8,2.9l-1.1,2.8l-1.3,2.9l-1.5,2.8l-1.7,2.9l-2.1,2.8l-2.5,2.8l-2.8,2.6
			l-3.3,2.8l-3.9,2.8L298.2,160.7L298.2,160.7z"/>
		<path fill="#555555" stroke="#000000" stroke-width="0.254" d="M275.7,163.3l5.4,0.4l5.3-0.3l4.9-0.8l4.6-1.4l4.3-1.8l4-2.4
			l3.7-2.8l3.3-3.3l3.1-3.5l2.8-3.9l2.5-4.2l2.1-4.4l1.8-4.7l1.5-4.9l1.1-5l0.8-5l-1.5,0.3l-1.7,0.4l-1.7,0.3l-1.7,0.3l-1.7,0.3
			l-1.8,0.4l-1.8,0.3l-1.8,0.4l-0.6,3.5l-0.8,3.5l-1.1,3.5l-1.4,3.3l-1.7,3.3l-1.8,3.3l-2.1,3.2l-2.3,3.1l-2.5,3.1l-2.8,2.8
			l-2.9,2.6l-3.2,2.5l-3.3,2.2l-3.6,2.1l-3.6,1.8L275.7,163.3L275.7,163.3z"/>
		<path fill="#555555" stroke="#000000" stroke-width="0.254" d="M263.4,164.7l4.6-0.3l4.4-0.7l4.4-1.1l4.3-1.7l4-1.9l4-2.3l3.7-2.6
			l3.5-3l3.2-3.3l3.1-3.6l2.6-3.9l2.4-4l1.9-4.3l1.7-4.4l1.3-4.6l0.8-4.7l-1.5,0.3l-1.4,0.1l-1.3,0.1l-1.2,0.1l-1.3,0.1l-1.4,0.3
			l-1.7,0.3l-2,0.3l-1.9,4l-1.7,3.7l-1.7,3.6l-1.5,3.3l-1.7,3.2l-1.5,2.9l-1.7,2.8l-1.8,2.6l-1.9,2.6l-2.2,2.4l-2.5,2.5l-2.8,2.2
			l-3.2,2.4l-3.6,2.2l-4,2.2L263.4,164.7L263.4,164.7z"/>
		<path fill="#555555" stroke="#000000" stroke-width="0.254" d="M241.2,166.1l6.8,0.3l6.4-0.3l5.7-1l5.3-1.5l4.9-2.1l4.3-2.5l4-2.9
			l3.6-3.3l3.3-3.6l3.1-3.9l2.6-4l2.5-4.3l2.4-4.3l2.1-4.3l1.9-4.4l1.8-4.3l-1.2,0.1l-1.7,0.3l-2.1,0.3l-2.1,0.3l-2.2,0.4l-1.9,0.3
			l-1.7,0.3l-1.3,0.1l-1.7,3.9l-1.8,3.9l-2.1,3.6l-2.1,3.5l-2.4,3.2l-2.5,3.2l-2.6,2.9l-2.9,2.9l-2.9,2.6l-3.2,2.5l-3.3,2.5
			l-3.5,2.2l-3.6,2.1l-3.9,1.9l-3.9,1.8L241.2,166.1L241.2,166.1z"/>
		<path fill="#555555" stroke="#000000" stroke-width="0.254" d="M228,168l3.7-0.1l3.9-0.6l4.2-1l4.3-1.5l4.3-1.8l4.3-2.2l4.3-2.6
			l4.3-2.9l4.2-3.3l4-3.5l3.7-3.9l3.6-4.2l3.2-4.3l2.9-4.6l2.5-4.9l2.1-5l-2.1,0.3l-2.1,0.3l-2.2,0.1l-2.2,0.3l-1.9,0.1l-1.7,0.3
			l-1.4,0.3l-0.7,0.4l-2.5,1.9l-2.5,2.1l-2.6,2.5l-2.6,2.5l-2.6,2.8l-2.8,2.9l-2.8,3.1l-2.8,3.1l-2.8,3.2l-2.9,3l-2.9,3l-3.1,3
			l-3,3.1l-3.1,2.8l-3,2.8L228,168L228,168z"/>
		<path fill="#555555" stroke="#000000" stroke-width="0.254" d="M207.8,168l3.6,2.4l3.7,1l3.7,0l3.9-1l3.9-1.9l3.9-2.6l4-3.3l4-3.7
			l4-4.3l4.2-4.4l4.3-4.7l4.3-4.7l4.3-4.6l4.4-4.6l4.4-4.2l4.4-3.7h-1.5l-1.8,0.3l-2.1,0.1l-2.1,0.4l-2.2,0.3l-2.2,0.4l-2.1,0.4
			l-1.8,0.3l-3.5,3.2l-3.5,3.2l-3.3,3.3l-3.3,3.3l-3.2,3.3l-3.2,3.3l-3.2,3.3l-3.1,3l-3.1,3l-3,2.8l-2.9,2.5l-2.9,2.2l-2.9,1.9
			l-2.8,1.7l-2.8,1.2L207.8,168L207.8,168z"/>
		<path fill="#555555" stroke="#000000" stroke-width="0.254" d="M192.1,169.8l5.7,0l5.4-0.5l4.9-1.4l4.7-1.8l4.3-2.2l4-2.8l3.9-3
			l3.6-3.3l3.6-3.6l3.5-3.7l3.3-3.7l3.5-3.9l3.5-3.9l3.6-3.7l3.7-3.5l3.9-3.3l-1.4,0.1l-1.7,0.1l-2.1,0.3L250,126l-2.1,0.3l-1.7,0.1
			l-1.4,0.1l-0.8,0l-2.4,0.5l-2.4,1.1l-2.4,1.5l-2.5,2.1l-2.5,2.5l-2.6,2.9l-2.8,3.1l-2.8,3.3l-3.2,3.5l-3.2,3.5l-3.6,3.6l-3.7,3.5
			l-4,3.5l-4.3,3.2l-4.6,2.9L192.1,169.8L192.1,169.8z"/>
		<path fill="#555555" stroke="#000000" stroke-width="0.254" d="M500.7,55.6V55l0.1-1.5l0.1-2.4l0.1-2.9l0.1-3.5l-0.1-3.7l-0.1-3.9
			l-0.4-4l-0.8-3.7l-1.1-3.6l-1.4-3.2l-2.1-2.6l-2.4-1.9l-3.1-1.1l-3.7-0.1l-4.3,1.1l1.4,1.4l1.2,1.7l1.2,2.1l1.1,2.2l1.1,2.5l1,2.5
			l1,2.8l1,2.9l0.8,2.8l0.7,2.9l0.7,2.9l0.7,2.8l0.6,2.8l0.6,2.6l0.4,2.4l0.4,2.2l0.7-0.1l0.6-0.1l0.7-0.3l0.6-0.1l0.5-0.3l0.6-0.3
			l0.7-0.1L500.7,55.6L500.7,55.6z"/>
		<path fill="#555555" stroke="#000000" stroke-width="0.254" d="M495.6,57.7l-1.8-9l-1.9-7.6l-1.9-6.5l-1.9-5.4l-2-4.3l-1.9-3.5
			l-1.9-2.5l-1.8-1.8l-1.9-1.3l-1.7-0.6l-1.8-0.1l-1.5,0.3l-1.5,0.6l-1.4,0.7l-1.3,0.8l-1.1,0.8l1.9,1.8l1.9,2.1l1.7,1.9l1.8,2.2
			l1.5,2.2l1.5,2.3l1.4,2.4l1.2,2.5l1.2,2.6l1.1,2.8l1.1,2.8l1,2.9l0.8,3l0.8,3l0.8,3.2l0.7,3.3l1.7-0.3l1.2-0.1l0.8-0.3l0.6-0.3
			l0.5-0.1l0.6-0.3l0.7-0.1l0.8-0.3L495.6,57.7z"/>
		<path fill="#555555" stroke="#000000" stroke-width="0.254" d="M488.7,60.3l-0.4-3.3l-0.7-3.7l-1.1-4.2l-1.4-4.4l-1.8-4.6
			l-2.1-4.4l-2.2-4.3l-2.5-4l-2.6-3.6l-2.8-3.1l-2.9-2.4l-3-1.5l-3.2-0.6l-3.2,0.6l-3,1.8l-3.2,3.2l2.5,1.8l2.4,2.1l2.2,2.1l2.1,2.1
			l2.1,2.2l1.8,2.5l1.7,2.5l1.5,2.5l1.5,2.8l1.2,2.8l1.2,2.9l1,3l1,3.2l0.7,3.3L476,61l0.6,3.6l1.5-0.4l1.7-0.6l1.8-0.6l1.8-0.7
			l1.7-0.7l1.5-0.6l1.2-0.5L488.7,60.3L488.7,60.3z"/>
		<path fill="#555555" stroke="#000000" stroke-width="0.254" d="M434.6,23.9l3.3-2.2l3.3-1.2l3.5-0.4l3.3,0.4l3.5,1.1l3.3,1.8
			l3.2,2.5l3.1,2.9l2.8,3.3l2.8,3.9l2.4,4.3l2.1,4.4l1.8,4.7l1.4,5l1.1,5l0.5,5.1l-1.7,0.4l-1.7,0.4l-1.7,0.5l-1.7,0.6l-1.8,0.7
			l-1.8,0.4l-1.7,0.6l-1.8,0.3l-1.3-3.2l-1.1-3.5l-1.4-3.5l-1.3-3.5l-1.4-3.6l-1.5-3.6l-1.5-3.5l-1.5-3.3l-1.7-3.2l-1.8-2.9
			l-1.9-2.8l-2-2.4l-2.2-2.1l-2.2-1.7l-2.3-1.3L434.6,23.9L434.6,23.9z"/>
		<path fill="#555555" stroke="#000000" stroke-width="0.254" d="M419.3,28.1l5.3-2.3l4.7-1.2l4.2-0.1l3.7,0.7l3.3,1.5l2.9,2.4
			l2.6,2.9l2.4,3.5l2.1,3.9l1.8,4.3l1.8,4.5l1.7,4.4l1.7,4.6l1.5,4.6l1.7,4.3l1.8,4l-1.5,0.1l-1.4,0.4l-1.4,0.4l-1.4,0.6l-1.4,0.4
			l-1.4,0.5l-1.5,0.4l-1.5,0.3l-0.1-0.5l-0.1-1.4l-0.4-1.8l-0.4-2.5l-0.7-2.9l-1-3.3l-1.1-3.6l-1.5-3.7l-1.8-3.7l-2.1-3.7L439,42
			l-2.9-3.5l-3.5-3.3l-3.9-2.8l-4.4-2.5L419.3,28.1L419.3,28.1z"/>
		<path fill="#555555" stroke="#000000" stroke-width="0.254" d="M399.7,31l3.2-2.4l3.6-1.5l3.9-0.6l3.9,0.1l4.2,0.8l4.2,1.7l4,2.2
			l4,2.8l3.9,3.5l3.6,3.9l3.2,4.4l2.9,4.9l2.5,5.1l1.9,5.6l1.2,5.7l0.7,6.1L436.2,77l-0.8-2.4l-1.1-2.8l-1.1-2.9l-1.4-3.2l-1.7-3.3
			l-1.7-3.5l-1.9-3.5l-2.1-3.5l-2.4-3.5l-2.6-3.3l-2.8-3l-2.9-2.9l-3.2-2.6l-3.5-2.2l-3.6-1.9L399.7,31L399.7,31z"/>
		<path fill="#555555" stroke="#000000" stroke-width="0.254" d="M436.4,77.4l-2.1,0.4l-2.6,0.6l-2.6,0.8l-2.9,0.8l-2.8,1l-2.6,0.7
			l-2.4,0.7l-1.9,0.6l-1.4-3.5l-1.5-3.6l-1.5-3.6l-1.5-3.8l-1.5-3.7l-1.7-3.6l-1.8-3.6l-1.8-3.6l-1.9-3.3l-2.1-3.1l-2.2-2.9
			l-2.4-2.6l-2.4-2.4l-2.6-1.9l-2.9-1.5l-2.9-1.1l2.5-1.7l2.8-1.2l2.9-0.8l3.2-0.3l3.3,0.3l3.5,0.8l3.5,1.4l3.6,2.1l3.6,2.6l3.6,3.3
			l3.6,4.2l3.5,4.7l3.3,5.5l3.3,6.2l3.1,7.2L436.4,77.4L436.4,77.4z"/>
		<path fill="#555555" stroke="#000000" stroke-width="0.254" d="M366.8,41.1l5.7-3l5.1-1.8l4.7-0.4l4.3,0.7l3.7,1.7l3.6,2.5l3,3.2
			l2.9,3.9l2.5,4.3l2.4,4.6l2.1,4.9l1.9,4.9l1.9,4.7l1.8,4.6l1.7,4.2l1.7,3.7l-1.9,0.3l-1.7,0.4l-1.5,0.3l-1.5,0.4l-1.5,0.4
			l-1.7,0.4l-1.8,0.3l-2.1,0.4l-1.8-3.7l-1.7-3.8l-1.7-3.6l-1.7-3.5l-1.7-3.5l-1.8-3.2l-1.8-3.2l-1.8-2.9l-2.1-2.9l-2.2-2.6
			l-2.2-2.5l-2.5-2.4l-2.8-2.2l-2.9-1.9l-3.3-1.8L366.8,41.1L366.8,41.1z"/>
		<path fill="#555555" stroke="#000000" stroke-width="0.254" d="M349.6,46l5.1-2.8l4.8-1.4l4.6-0.3l4.4,0.7l4,1.7l3.9,2.5l3.6,3.1
			l3.3,3.6l3,4.2l2.9,4.3L392,66l2.4,4.6l2.2,4.6l1.9,4.2l1.6,4l1.5,3.5l-2.1,0.4l-1.8,0.4l-1.7,0.4l-1.5,0.3l-1.7,0.4l-1.7,0.4
			l-1.9,0.3l-2.2,0.4l-2.5-5.6l-2.5-5.1l-2.3-4.7l-2.4-4.3l-2.2-3.9l-2.1-3.5l-2.2-3l-2.1-2.9l-2.2-2.4l-2.2-2.1l-2.2-1.8l-2.4-1.5
			l-2.4-1.1l-2.5-1l-2.6-0.6L349.6,46L349.6,46z"/>
		<path fill="#555555" stroke="#000000" stroke-width="0.254" d="M336.6,49.8l5-2.4l4.7-1.1l4.4,0l4.3,0.8l3.9,1.7l3.7,2.4l3.5,3.1
			l3.3,3.5l2.9,3.9l2.8,4.2l2.6,4.3l2.2,4.3l2.2,4.3l1.8,4.2l1.7,3.7l1.5,3.5l-1.7,0.4l-1.5,0.4l-1.5,0.3l-1.4,0.4l-1.5,0.3
			l-1.5,0.3l-1.7,0.4l-1.8,0.3l-0.8-2.8l-1.2-3.1l-1.5-3l-1.8-3.3l-1.9-3.3l-2.4-3.3l-2.4-3.3l-2.6-3.3l-2.8-3l-2.9-3.1l-2.9-2.8
			l-2.9-2.4l-3.1-2.2l-2.9-1.8l-2.9-1.4L336.6,49.8L336.6,49.8z"/>
		<path fill="#555555" stroke="#000000" stroke-width="0.254" d="M320.9,53.8L326,51l5-1.2l5,0.1l4.7,1.4l4.6,2.2l4.4,3.2l4.2,3.8
			l3.9,4.2l3.6,4.5l3.2,4.6l2.9,4.4l2.4,4.3l1.9,3.8l1.5,3.2l0.8,2.4l0.4,1.4l-2.1,0.4l-1.8,0.4l-1.8,0.4l-1.8,0.4l-1.8,0.4
			l-1.7,0.3l-1.8,0.3L360,96l-1.2-2.4l-1.4-2.9l-1.7-3.2l-1.9-3.3l-2.1-3.7l-2.2-3.7l-2.3-3.6l-2.5-3.7l-2.6-3.5l-2.8-3.2l-2.9-2.9
			l-2.9-2.4l-3.1-1.9l-3.1-1.2l-3.2-0.6L320.9,53.8L320.9,53.8z"/>
		<path fill="#555555" stroke="#000000" stroke-width="0.254" d="M309.5,58.2l4.6-3l4.4-1.7l4.2-0.4l4.2,0.7l3.9,1.7l3.7,2.5l3.5,3
			l3.3,3.7l3.1,4l2.9,4.3l2.6,4.5l2.5,4.4l2.1,4.2l1.9,3.9l1.5,3.3l1.4,2.8l-1.7,0.3l-1.4,0.4l-1.2,0.4l-1.1,0.4l-1.3,0.4l-1.1,0.4
			l-1.1,0.3l-1.2,0.3l-1.2-3.5l-1.5-3.5l-1.5-3.3l-1.7-3.3l-1.9-3.3l-1.9-3.1l-2.2-3.1l-2.4-2.9l-2.5-2.8l-2.8-2.5l-2.8-2.2
			l-3.1-2.1l-3.3-1.8l-3.3-1.5l-3.6-1.1L309.5,58.2L309.5,58.2z"/>
		<path fill="#555555" stroke="#000000" stroke-width="0.254" d="M295.1,61.5l4-1.5l4-1l4.2-0.3l3.9,0.3l4,0.8l3.7,1.2l3.7,1.9
			l3.7,2.4l3.5,2.8l3.3,3.3l3.2,3.6l3,4l2.9,4.4l2.5,4.9l2.5,5.1l2.1,5.4l-1.8,0.3l-1.8,0.3L344,100l-1.8,0.6l-1.8,0.4l-1.8,0.6
			l-1.8,0.4l-1.8,0.3l-1.2-3l-1.2-3.2l-1.3-3.1l-1.2-3.2l-1.5-3l-1.5-2.9l-1.8-3l-1.9-2.8l-2.4-2.6l-2.5-2.6l-2.9-2.4l-3.2-2.2
			l-3.6-1.9l-4-1.8l-4.6-1.5L295.1,61.5L295.1,61.5z"/>
		<path fill="#555555" stroke="#000000" stroke-width="0.254" d="M274.5,66.4l5.3-2.2l5.3-1.4l4.9-0.7l4.9-0.1l4.6,0.7l4.4,1.3
			l4.2,1.8l4,2.4l3.6,2.9l3.6,3.3l3.2,3.8l3,4.2l2.8,4.6l2.4,4.9l2.2,5l1.9,5.4l-1.7,0.3l-1.7,0.3l-1.9,0.3l-1.8,0.3l-1.9,0.3
			l-1.9,0.3l-1.9,0.3l-1.9,0.3l-1-3.9l-1.4-3.6l-1.5-3.6l-1.9-3.5l-2.1-3.2l-2.4-3.1l-2.5-2.9l-2.8-2.6l-3-2.5l-3.3-2.1l-3.5-2
			l-3.6-1.7l-3.9-1.3l-4-1.1l-4.2-0.7L274.5,66.4L274.5,66.4z"/>
		<path fill="#555555" stroke="#000000" stroke-width="0.254" d="M264.4,67.5l4.7-0.7l4.6-0.4l4.6,0.1l4.4,0.6l4.4,1.1l4.2,1.4
			l4,1.8l3.9,2.2l3.6,2.6l3.5,3.1l3.1,3.3l2.9,3.7l2.5,4.2L317,95l1.8,4.9l1.4,5.1l-1.7,0.1l-1.4,0.1l-1.4,0.3l-1.4,0.3l-1.4,0.3
			l-1.4,0.3l-1.7,0.4l-1.8,0.3l-2.4-4l-2.2-3.9l-1.9-3.5l-1.8-3.5l-1.9-3.1l-1.8-2.9l-1.8-2.8l-2.1-2.5l-2.2-2.4l-2.5-2.1l-2.8-1.9
			l-3-1.8l-3.6-1.5l-3.9-1.4l-4.6-1.3L264.4,67.5L264.4,67.5z"/>
		<path fill="#555555" stroke="#000000" stroke-width="0.254" d="M242.4,70.4l6.9-1.7l6.5-1l6-0.3l5.5,0.6l5.1,1.1l4.7,1.7l4.3,2.1
			l3.9,2.8l3.7,3l3.3,3.5l3.1,3.7l2.9,4l2.6,4.2l2.5,4.4l2.2,4.4l2.2,4.6l-1.1,0.1l-1.5,0.1l-1.7,0.4l-1.8,0.3L300,109l-1.7,0.4
			l-1.5,0.1l-1.3,0.1l-2.1-4.2l-2.2-3.7l-2.5-3.6l-2.6-3.3l-2.8-3.2l-2.9-2.9l-3.2-2.6l-3.3-2.5l-3.5-2.2l-3.6-2.1l-3.7-1.8
			l-3.9-1.8l-4-1.5l-4.2-1.4l-4.3-1.3L242.4,70.4L242.4,70.4z"/>
		<path fill="#555555" stroke="#000000" stroke-width="0.254" d="M229.2,71.7l3.9-0.7l4-0.1l4.4,0.1l4.6,0.7l4.6,1l4.7,1.4l4.7,1.8
			l4.7,2.2l4.7,2.6l4.4,3.1l4.3,3.3l4.2,3.7l3.7,4.2l3.5,4.4l3,4.9l2.6,5.3l-1.9,0.1l-1.9,0.3l-1.9,0.4l-1.9,0.4l-1.7,0.4l-1.4,0.4
			l-1.1,0.1l-0.7-0.1l-2.8-1.7l-2.8-1.9l-2.9-2.2l-3.1-2.5l-3.1-2.6L265,98l-3.3-2.8l-3.3-2.9l-3.5-2.9l-3.5-2.9l-3.6-2.9l-3.6-2.6
			l-3.7-2.6l-3.6-2.4l-3.9-2.2L229.2,71.7L229.2,71.7z"/>
		<path fill="#555555" stroke="#000000" stroke-width="0.254" d="M210.7,77l3.5-3.5l3.7-2.1l3.9-0.8l4,0.3L230,72l4.4,2.1l4.4,2.8
			l4.7,3.2l4.7,3.9l4.9,4l4.9,4.3l4.9,4.3l5,4.3l5,4l5,3.7l5,3.3l-1.5,0.3l-1.8,0.1l-2.2,0.1l-2.2,0.1l-2.3,0.1h-4.4l-1.8,0
			l-3.7-2.8l-3.6-2.9l-3.6-2.9l-3.3-3l-3.3-2.9l-3.2-2.9l-3.2-2.9l-3.2-2.8l-3.3-2.5l-3.2-2.4l-3.3-2.1l-3.5-1.8l-3.6-1.5l-3.7-1.2
			l-3.9-0.7L210.7,77L210.7,77z"/>
		<path fill="#555555" stroke="#000000" stroke-width="0.254" d="M196.9,78.7l5.8-1.4l5.4-0.6l5.1,0.3l4.9,1l4.6,1.7l4.4,2.1
			l4.3,2.6l4.2,2.9l4,3.3l4,3.3l3.9,3.6l4,3.6l4,3.5l4,3.5l4.3,3.1l4.3,2.9l-1.4,0.1l-1.8,0.3l-2.1,0.3l-2.1,0.1l-2.1,0.3l-1.8,0.3
			l-1.4,0.1l-0.8,0.1l-2.5,0l-2.5-0.7l-2.6-1.3l-2.8-1.8l-2.8-2.2l-3.1-2.6l-3.2-2.9l-3.3-3.1l-3.5-3.2l-3.7-3.3l-4-3.2l-4.2-3.1
			l-4.6-2.9l-4.7-2.6l-5-2.4L196.9,78.7L196.9,78.7z"/>
		<path fill="#555555" stroke="#000000" stroke-width="0.254" d="M179.4,83.5l5.1-2.9l5.4-1.2h5.3l5.4,1.1l5.4,2.1l5.4,2.9l5.3,3.5
			l5.1,3.7l4.8,4.2l4.7,4.2l4.6,3.9l4.2,3.6l3.7,3.1l3.5,2.4l3.1,1.4l2.6,0.4l-2.2,0.3l-2.4,0.4l-2.6,0.4l-2.8,0.4l-2.8,0.3
			l-2.8,0.4l-2.6,0.1l-2.4,0.1l-3.9-2.9l-3.5-2.8l-3.2-2.8l-3-2.6l-2.8-2.6l-2.6-2.6l-2.8-2.5l-2.6-2.4l-2.6-2.2l-2.9-2.1l-3-1.9
			l-3.3-1.8l-3.6-1.7l-3.9-1.4l-4.4-1.3L179.4,83.5L179.4,83.5z"/>
		<g>
			<path fill="#555555" stroke="#000000" stroke-width="0.254" d="M515.3,26.6l0.7-1.4l0.6-1.5l0.6-1.5l0.4-1.5l0.4-1.7l0.4-1.8
				l0.3-1.7l0.2-1.8l0.1-1.7l0.1-1.8l0-1.8l-0.1-1.7l-0.1-1.7l-0.3-1.7l-0.4-1.7l-0.4-1.5l2.2,2.9l1.7,3.2l1.2,3l0.7,3.2l0.3,3.3
				v3.3l-0.4,3.3l-0.7,3.3l-0.8,3.3l-1.1,3.2l-1.2,3.2l-1.2,3.2l-1.4,3.1l-1.3,3l-1.3,2.8l-1.2,2.8l0.3-0.6l0.1-1l0.2-1v-1.2
				l0.1-1.5V42l0-1.8l0.1-1.8v-1.8l0.1-1.9l0.1-1.8l0.1-1.7l0.3-1.7l0.3-1.5L515.3,26.6L515.3,26.6z"/>
			<path fill="#555555" stroke="#000000" stroke-width="0.254" d="M557.6,84.2l-2.6-1.5l-2.6-1.7l-2.5-1.5l-2.5-1.5l-2.4-1.4
				l-2.4-1.5l-2.2-1.4l-2.2-1.5l-2.4-1.4l-2.2-1.4l-2.2-1.5l-2.4-1.4l-2.2-1.4l-2.4-1.2l-2.5-1.4l-2.5-1.4l2.2,2.2l2.2,2.2l2.2,2.2
				l2.2,2.1l2.4,2.2l2.4,1.9l2.4,2l2.5,1.8l2.4,1.7l2.5,1.4l2.4,1.3l2.5,1l2.5,0.8l2.5,0.4l2.5,0.1L557.6,84.2L557.6,84.2z"/>
			<path fill="#555555" stroke="#000000" stroke-width="0.254" d="M537,28.7l-1.9,1.1l-1.8,1.2l-1.8,1.2l-1.7,1.2l-1.7,1.2l-1.5,1.4
				l-1.5,1.5l-1.5,1.4l-1.4,1.5l-1.4,1.5l-1.4,1.5l-1.2,1.7l-1.4,1.5l-1.3,1.7l-1.2,1.7l-1.3,1.7l0.6-1.8l0.7-1.8l0.7-1.9l0.8-1.9
				l0.8-1.9l1-1.8l1.1-1.8l1.3-1.8l1.4-1.7l1.7-1.4l1.8-1.4l1.9-1.2l2.2-1l2.4-0.8L534,29L537,28.7L537,28.7z"/>
			<path fill="#555555" stroke="#000000" stroke-width="0.254" d="M516.3,12.1l-0.6,2.8l-0.4,2.8l-0.6,2.8l-0.4,2.5l-0.3,2.6
				l-0.4,2.5l-0.3,2.5L513,33l-0.3,2.5l-0.4,2.5l-0.3,2.4l-0.4,2.5l-0.4,2.5l-0.4,2.5l-0.5,2.5l-0.6,2.6l-0.3-3l-0.4-2.9l-0.3-3.1
				l-0.3-3l-0.1-2.9l-0.1-2.9l0.1-2.9l0.1-2.8l0.3-2.8l0.4-2.5l0.7-2.5l0.8-2.4l1-2.1l1.4-1.9l1.5-1.7L516.3,12.1L516.3,12.1z"/>
			<path fill="#555555" stroke="#000000" stroke-width="0.254" d="M531.1,7.5l2.5,2.3l1.5,2.6l0.7,2.8l0.1,2.9l-0.6,2.9l-1.1,3.1
				l-1.5,3.1l-1.8,3l-2.1,2.9l-2.2,2.9l-2.4,2.8l-2.4,2.5l-2.2,2.5l-1.9,2.1l-1.7,2l-1.4,1.5l0.3-4.2l0.6-3.6l0.7-3.1l1.1-2.8
				l1.1-2.4l1.4-2.1l1.4-1.9l1.5-1.8l1.4-1.8l1.5-1.8l1.4-1.9l1.1-2.2l1.1-2.5l0.8-2.8l0.7-3.3L531.1,7.5L531.1,7.5z"/>
			<path fill="#555555" stroke="#000000" stroke-width="0.254" d="M513.4,51.9v-2.9l-0.1-2.8l-0.1-2.8l-0.1-2.8l-0.1-2.6l-0.3-2.6
				l-0.3-2.6l-0.3-2.5l-0.4-2.5l-0.4-2.6l-0.7-2.5l-0.6-2.5l-0.7-2.5l-1-2.5l-0.8-2.5l-1.1-2.5l4,3.9l3.3,3.7l2.4,3.5l1.7,3.3
				l1.1,3.2l0.5,2.9l0.1,2.9l-0.3,2.6l-0.7,2.5l-0.7,2.4l-1,2.2l-1,1.9l-0.8,1.9l-0.8,1.7l-0.6,1.7L513.4,51.9L513.4,51.9z"/>
			<path fill="#555555" stroke="#000000" stroke-width="0.254" d="M554,61.5l-2.2,0.4l-2.2,0.4l-2.2,0.3l-2.2,0.3l-2.2,0.1l-2.2,0.1
				h-4.3l-2.2-0.1h-2.1l-2.2-0.3l-2.1-0.1l-2.2-0.1l-2.1-0.3l-2.2-0.3l-2.1-0.3l1.8,0.8l1.8,0.7l1.9,0.8l1.9,0.7l2.1,0.7l2.1,0.5
				l2.2,0.6l2.2,0.3l2.2,0.1h2.4l2.4-0.1l2.4-0.5l2.4-0.7l2.4-1l2.3-1.4L554,61.5L554,61.5z"/>
			<path fill="#555555" stroke="#000000" stroke-width="0.254" d="M541.1,72.7l1.7,0.3l1.5,0.3l1.7,0.4l1.7,0.4l1.7,0.7l1.7,0.5
				l1.5,0.7l1.7,0.8l1.5,0.8l1.5,1l1.4,1l1.4,1l1.2,1.1l1.1,1.1l1.1,1.1l1,1.2l-1-3.3l-1.5-2.9l-1.8-2.5l-2.2-2.4l-2.5-1.9l-2.8-1.8
				l-3.1-1.5l-3.2-1.3l-3.3-1.1l-3.3-1.1l-3.5-0.8l-3.5-0.8l-3.5-0.7l-3.3-0.7l-3.1-0.6l-3-0.7l1.5,0.6l2.1,1.1l2.5,1.7l3,1.8
				l3.1,1.9l3.2,1.8l3,1.7L541.1,72.7L541.1,72.7z"/>
			<path fill="#555555" stroke="#000000" stroke-width="0.254" d="M547.4,97.5l1.2-3.2l0.4-3.1l-0.4-3l-1.1-2.8l-1.7-2.6l-2.2-2.6
				l-2.6-2.5l-2.9-2.2l-3.1-2.2l-3.2-1.9l-3.3-1.9l-3.2-1.7l-2.9-1.5l-2.8-1.4l-2.4-1.2l-1.8-1.1l1.9,4l1.9,3.3l2.1,2.6l1.9,2.4
				l2.1,1.8l2.1,1.7l2.1,1.3l2.1,1.3l2.1,1.3l2.1,1.4l2.1,1.4l1.9,1.7l1.9,2.1l1.9,2.5l1.8,2.9L547.4,97.5L547.4,97.5z"/>
			<path fill="#555555" stroke="#000000" stroke-width="0.254" d="M512.5,63.4l1.5,2.4l1.5,2.4l1.5,2.4l1.4,2.2l1.3,2.2l1.2,2.4
				l1.3,2.2l1.1,2.2l1.1,2.4l1,2.4l1,2.2l0.8,2.4l0.7,2.5l0.7,2.4l0.6,2.5l0.6,2.6l1.4-5.3l0.7-4.6l0.1-4.2l-0.4-3.6l-0.8-3.1
				l-1.3-2.8l-1.5-2.4l-1.7-1.9l-1.9-1.8l-1.9-1.5l-2.1-1.3l-1.9-1.1l-1.8-1.1l-1.7-1l-1.2-1.1L512.5,63.4L512.5,63.4z"/>
		</g>
	</g>
</g>
</svg>
