<?xml version="1.0" encoding="utf-8"?>
<!-- Generator: Adobe Illustrator 18.0.0, SVG Export Plug-In . SVG Version: 6.00 Build 0)  -->
<!DOCTYPE svg PUBLIC "-//W3C//DTD SVG 1.1//EN" "http://www.w3.org/Graphics/SVG/1.1/DTD/svg11.dtd">
<svg version="1.1" id="Layer_1" xmlns="http://www.w3.org/2000/svg" xmlns:xlink="http://www.w3.org/1999/xlink" x="0px" y="0px"
	 viewBox="0 270 612 612" enable-background="new 0 270 612 612" xml:space="preserve">
<g id="punchout" sodipodi:docname="twitter_bootstrap_logo.svg" inkscape:version="0.48.1 r9760" xmlns:svg="http://www.w3.org/2000/svg" xmlns:rdf="http://www.w3.org/1999/02/22-rdf-syntax-ns#" xmlns:dc="http://purl.org/dc/elements/1.1/" xmlns:cc="http://creativecommons.org/ns#" xmlns:sodipodi="http://sodipodi.sourceforge.net/DTD/sodipodi-0.dtd" xmlns:inkscape="http://www.inkscape.org/namespaces/inkscape">
	<g>
		<path fill="#555555" d="M383.5,611.8c-10.5-9.5-25.2-14.2-44.2-14.2H228.8V709h110.5c19,0,33.8-4.9,44.2-14.8
			c10.5-9.8,15.8-23.8,15.8-41.8C399.2,634.8,394,621.2,383.5,611.8z"/>
		<path fill="#555555" d="M368.2,539.8c10-8.5,15-20.8,15-36.8c0-18-4.5-30.7-13.5-38s-22-11-39-11h-102v98.5h102
			C345.7,552.5,358.2,548.2,368.2,539.8z"/>
		<path fill="#555555" d="M510,270H102C45.9,270,0,315.9,0,372v408c0,56.1,45.9,102,102,102h408c56.1,0,102-45.9,102-102V372
			C612,315.9,566.1,270,510,270z M454.2,699.8c-5,12.2-12.8,22.7-23.5,31.5s-24.3,15.8-41,21s-36.5,7.8-59.5,7.8h-164V403h173.5
			c32,0,57.7,7.3,77,22s29,36.8,29,66.5c0,18-4.4,33.4-13.2,46.2c-8.8,12.8-21.4,22.8-37.8,29.8v1c22,4.7,38.7,15.1,50,31.2
			c11.3,16.2,17,36.4,17,60.8C461.7,674.5,459.2,687.6,454.2,699.8z"/>
	</g>
</g>
</svg>
