<?xml version="1.0" encoding="utf-8"?>
<!-- Generator: Adobe Illustrator 18.0.0, SVG Export Plug-In . SVG Version: 6.00 Build 0)  -->
<!DOCTYPE svg PUBLIC "-//W3C//DTD SVG 1.1//EN" "http://www.w3.org/Graphics/SVG/1.1/DTD/svg11.dtd">
<svg version="1.1" id="Layer_1" xmlns="http://www.w3.org/2000/svg" xmlns:xlink="http://www.w3.org/1999/xlink" x="0px" y="0px"
	 viewBox="24.2 3.8 54.1 61" enable-background="new 24.2 3.8 54.1 61" xml:space="preserve">
<path fill="#555555" d="M78.4,19.9c0-4.3-3.5-7.8-7.8-7.8c-0.6,0-1.2,0.1-1.8,0.2C67.5,7.4,63,3.8,57.9,3.8c-2.4,0-4.7,0.8-6.6,2.1
	c-1.9-1.4-4.2-2.1-6.6-2.1c-5.2,0-9.7,3.6-10.9,8.5c-0.6-0.1-1.1-0.2-1.7-0.2c-4.3,0-7.8,3.5-7.8,7.8c0,3.8,2.7,7,6.3,7.7
	c0.8,3,3.1,5.3,6.1,6c0,0,0,0.1,0.1,0.1c0.1,0.1,8.7,10.9,8.7,26.7c0,0,0,0,0,0c0.1,1.6,0.9,4.4,3.3,4.4H54c2.5,0,3.3-2.8,3.3-4.4
	c0,0,0,0,0,0c0-15.7,8.6-26.6,8.7-26.7c0,0,0-0.1,0.1-0.1c2.4-0.7,4.4-2.5,5.4-4.8c0-0.1,0.1-0.1,0.1-0.2c0.1-0.3,0.2-0.7,0.3-1.1
	C75.7,26.9,78.4,23.7,78.4,19.9z M55.5,60.3c0,0.2-0.2,2.6-1.5,2.6h-5.4c-1.3,0-1.5-2.4-1.5-2.6c0-13.3-5.7-23-8.1-26.4
	c1.7-0.1,3.2-0.6,4.6-1.5c-0.1,0.2-0.1,0.4,0,0.7c0,0.1,3,8.8,3.5,12c0.1,0.4,0.5,0.8,0.9,0.8c0,0,0,0,0,0c0.5,0,0.8-0.3,0.9-0.8
	l1.2-8.5c0.4,0,0.7,0.1,1.1,0.1c0.4,0,0.8,0,1.2-0.1l1.2,8.5c0.1,0.5,0.4,0.8,0.9,0.8c0,0,0,0,0,0c0.4,0,0.8-0.3,0.9-0.8
	c0.7-3.6,3.5-11.9,3.5-12c0.1-0.2,0.1-0.3,0-0.5c1.3,0.9,2.9,1.4,4.5,1.4C61.2,37.5,55.5,47.1,55.5,60.3z M46.2,35
	c0.6,0.5,1.4,0.8,2.1,1.1l-0.5,4C47.3,38.3,46.7,36.4,46.2,35z M54.3,36c0.8-0.3,1.5-0.7,2.2-1.2c-0.5,1.4-1.1,3.3-1.6,5.2L54.3,36z
	 M72.3,25.6c0.2-3-0.7-6.7-5.2-8.4c-0.5-0.2-1,0-1.2,0.5c-0.2,0.5,0,1,0.5,1.2c4.3,1.7,4.3,5.4,3.9,7.6c0,0,0,0.1,0,0.1
	c-0.6,3.2-3.3,5.5-6.6,5.5c-1.8,0-3.4-0.7-4.7-1.9c-0.2-0.2-0.5-0.3-0.8-0.2c-0.3,0.1-0.6,0.3-0.7,0.6c-1,2.6-3.5,4.2-6.2,4.2
	c-2.8,0-5.2-1.7-6.2-4.3c-0.1-0.3-0.4-0.5-0.7-0.6c-0.1,0-0.1,0-0.2,0c-0.2,0-0.5,0.1-0.6,0.3c-1.3,1.2-2.9,1.9-4.7,1.9
	c-2.8,0-5.2-1.7-6.2-4.2c-0.3-0.8-2.2-6.7,3.5-9c0.5-0.2,0.7-0.7,0.5-1.2c-0.2-0.5-0.7-0.7-1.2-0.5c-4.4,1.8-5.4,5.4-5.2,8.4
	c-2.4-0.8-4.2-3-4.2-5.7c0-3.3,2.7-5.9,5.9-5.9c0.7,0,1.4,0.1,2.1,0.4c0.3,0.1,0.6,0.1,0.8-0.1c0.2-0.1,0.4-0.4,0.4-0.7
	c0.7-4.5,4.7-8,9.3-8c2.2,0,4.3,0.8,6,2.2c0.3,0.3,0.8,0.3,1.2,0c1.7-1.4,3.8-2.2,6-2.2c4.6,0,8.6,3.4,9.3,8c0,0.3,0.2,0.5,0.5,0.7
	s0.5,0.2,0.8,0.1c0.7-0.3,1.4-0.4,2.2-0.4c3.3,0,5.9,2.7,5.9,5.9C76.5,22.6,74.8,24.9,72.3,25.6z"/>
</svg>
