<?xml version="1.0" encoding="utf-8"?>
<!-- Generator: Adobe Illustrator 18.0.0, SVG Export Plug-In . SVG Version: 6.00 Build 0)  -->
<!DOCTYPE svg PUBLIC "-//W3C//DTD SVG 1.1//EN" "http://www.w3.org/Graphics/SVG/1.1/DTD/svg11.dtd">
<svg version="1.1" id="Layer_1" xmlns="http://www.w3.org/2000/svg" xmlns:xlink="http://www.w3.org/1999/xlink" x="0px" y="0px"
	 viewBox="0 0 81.3 80" enable-background="new 0 0 81.3 80" xml:space="preserve">
<g>
	<g>
		<defs>
			<rect id="SVGID_1_" x="-876.9" y="-441.1" width="1836" height="1188"/>
		</defs>
		<clipPath id="SVGID_2_">
			<use xlink:href="#SVGID_1_"  overflow="visible"/>
		</clipPath>
	</g>
	<g>
		<defs>
			<rect id="SVGID_3_" x="-876.9" y="-441.1" width="1836" height="1188"/>
		</defs>
		<clipPath id="SVGID_4_">
			<use xlink:href="#SVGID_3_"  overflow="visible"/>
		</clipPath>
	</g>
	<g>
		<defs>
			<rect id="SVGID_5_" x="-876.9" y="-441.1" width="1836" height="1188"/>
		</defs>
		<clipPath id="SVGID_6_">
			<use xlink:href="#SVGID_5_"  overflow="visible"/>
		</clipPath>
	</g>
	<g>
		<defs>
			<rect id="SVGID_7_" x="-876.9" y="-441.1" width="1836" height="1188"/>
		</defs>
		<clipPath id="SVGID_8_">
			<use xlink:href="#SVGID_7_"  overflow="visible"/>
		</clipPath>
	</g>
	<g>
		<defs>
			<rect id="SVGID_9_" x="-876.9" y="-441.1" width="1836" height="1188"/>
		</defs>
		<clipPath id="SVGID_10_">
			<use xlink:href="#SVGID_9_"  overflow="visible"/>
		</clipPath>
		<path clip-path="url(#SVGID_10_)" fill="#555555" d="M39.5,56.7c-9.6,0-17.4-7.8-17.4-17.4c0-9.6,7.8-17.4,17.4-17.4
			c7.9,0,14.6,5.3,16.7,12.6H63C60.7,23.5,51,15.3,39.5,15.3c-13.2,0-24,10.8-24,24c0,13.2,10.8,24,24,24C51,63.2,60.7,55,63,44.1
			h-6.7C54.1,51.4,47.4,56.7,39.5,56.7"/>
	</g>
	<g>
		<defs>
			<rect id="SVGID_11_" x="-876.9" y="-441.1" width="1836" height="1188"/>
		</defs>
		<clipPath id="SVGID_12_">
			<use xlink:href="#SVGID_11_"  overflow="visible"/>
		</clipPath>
		<path clip-path="url(#SVGID_12_)" fill="#555555" d="M27.7,51c3,3,7.2,4.9,11.7,4.9v-6.9c-2.7,0-5.1-1.1-6.8-2.8L27.7,51z"/>
	</g>
	<g>
		<defs>
			<rect id="SVGID_13_" x="-876.9" y="-441.1" width="1836" height="1188"/>
		</defs>
		<clipPath id="SVGID_14_">
			<use xlink:href="#SVGID_13_"  overflow="visible"/>
		</clipPath>
		<path clip-path="url(#SVGID_14_)" fill="#555555" d="M22.9,39.3c0,2.4,0.5,4.6,1.4,6.7l6.4-2.8c-0.5-1.2-0.8-2.5-0.8-3.9
			c0-5.3,4.3-9.7,9.7-9.7v-6.9C30.3,22.6,22.9,30.1,22.9,39.3"/>
	</g>
	<g>
		<defs>
			<rect id="SVGID_15_" x="-876.9" y="-441.1" width="1836" height="1188"/>
		</defs>
		<clipPath id="SVGID_16_">
			<use xlink:href="#SVGID_15_"  overflow="visible"/>
		</clipPath>
		<path clip-path="url(#SVGID_16_)" fill="#555555" d="M45.5,23.8L43,30.2c2.1,0.8,3.8,2.3,4.9,4.2h7.5
			C53.9,29.5,50.2,25.6,45.5,23.8"/>
	</g>
	<g>
		<defs>
			<rect id="SVGID_17_" x="-876.9" y="-441.1" width="1836" height="1188"/>
		</defs>
		<clipPath id="SVGID_18_">
			<use xlink:href="#SVGID_17_"  overflow="visible"/>
		</clipPath>
		<path clip-path="url(#SVGID_18_)" fill="#555555" d="M43,48.3l2.5,6.5c4.7-1.8,8.4-5.8,9.9-10.6h-7.5C46.8,46,45.1,47.5,43,48.3"
			/>
	</g>
	<g>
		<defs>
			<rect id="SVGID_19_" x="-876.9" y="-441.1" width="1836" height="1188"/>
		</defs>
		<clipPath id="SVGID_20_">
			<use xlink:href="#SVGID_19_"  overflow="visible"/>
		</clipPath>
		<path clip-path="url(#SVGID_20_)" fill="#555555" d="M8.7,48.6c-0.1-0.4-0.2-0.7-0.3-1.1c0,0,0,0,0-0.1c-0.1-0.3-0.2-0.7-0.3-1
			c0-0.1,0-0.1,0-0.2c-0.1-0.3-0.1-0.6-0.2-0.9c0-0.1,0-0.3-0.1-0.4c0-0.2-0.1-0.5-0.1-0.7c0-0.2-0.1-0.4-0.1-0.6
			c-0.2-1.4-0.3-2.8-0.3-4.3H0.8c0,1.6,0.1,3.1,0.3,4.7l0,0c0,0,0,0.1,0,0.1c0.1,0.4,0.1,0.8,0.2,1.2c0,0.1,0,0.2,0.1,0.3
			c0.1,0.3,0.1,0.7,0.2,1c0,0.2,0.1,0.4,0.1,0.5c0.1,0.3,0.1,0.5,0.2,0.8c0.1,0.2,0.1,0.5,0.2,0.7c0.1,0.2,0.1,0.4,0.2,0.6
			c0.1,0.3,0.2,0.5,0.2,0.8c0,0.1,0.1,0.2,0.1,0.3h0c0.5,1.5,1,3,1.6,4.4l6-2.6C9.6,51,9.1,49.8,8.7,48.6z"/>
	</g>
	<g>
		<defs>
			<rect id="SVGID_21_" x="-876.9" y="-441.1" width="1836" height="1188"/>
		</defs>
		<clipPath id="SVGID_22_">
			<use xlink:href="#SVGID_21_"  overflow="visible"/>
		</clipPath>
		<path clip-path="url(#SVGID_22_)" fill="#555555" d="M39.5,71.4c-8.9,0-16.9-3.6-22.7-9.4l-4.6,4.6c7,7,16.7,11.3,27.3,11.3
			c19.7,0,36-14.8,38.4-33.8h-6.6C68.9,59.5,55.6,71.4,39.5,71.4"/>
	</g>
	<g>
		<defs>
			<rect id="SVGID_23_" x="-876.9" y="-441.1" width="1836" height="1188"/>
		</defs>
		<clipPath id="SVGID_24_">
			<use xlink:href="#SVGID_23_"  overflow="visible"/>
		</clipPath>
		<path clip-path="url(#SVGID_24_)" fill="#555555" d="M39.5,7.1c7.2,0,13.8,2.4,19.2,6.4l3.9-5.3c-6.5-4.8-14.5-7.7-23.1-7.7
			C23.1,0.6,9,10.8,3.4,25.2l6.1,2.4C14.2,15.6,25.9,7.1,39.5,7.1"/>
	</g>
	<g>
		<defs>
			<rect id="SVGID_25_" x="-876.9" y="-441.1" width="1836" height="1188"/>
		</defs>
		<clipPath id="SVGID_26_">
			<use xlink:href="#SVGID_25_"  overflow="visible"/>
		</clipPath>
		<path clip-path="url(#SVGID_26_)" fill="#555555" d="M71.2,34.4h6.6c-0.7-5.7-2.7-11-5.6-15.6l-5.6,3.5C69,25.9,70.6,30,71.2,34.4
			"/>
	</g>
	<g>
		<defs>
			<rect id="SVGID_27_" x="-876.9" y="-441.1" width="1836" height="1188"/>
		</defs>
		<clipPath id="SVGID_28_">
			<use xlink:href="#SVGID_27_"  overflow="visible"/>
		</clipPath>
		<path clip-path="url(#SVGID_28_)" fill="#555555" d="M63.8,34.4h6.6c-1.7-11.1-9.4-20.4-19.6-24.3l-2.4,6.1
			C56.2,19.2,62.1,26.1,63.8,34.4"/>
	</g>
	<g>
		<defs>
			<rect id="SVGID_29_" x="-876.9" y="-441.1" width="1836" height="1188"/>
		</defs>
		<clipPath id="SVGID_30_">
			<use xlink:href="#SVGID_29_"  overflow="visible"/>
		</clipPath>
		<path clip-path="url(#SVGID_30_)" fill="#555555" d="M39.5,14.5L39.5,14.5l0-6.5h0c-13.3,0-24.6,8.3-29.2,20l6.1,2.4
			C20,21,29,14.5,39.5,14.5"/>
	</g>
	<g>
		<defs>
			<rect id="SVGID_31_" x="-876.9" y="-441.1" width="1836" height="1188"/>
		</defs>
		<clipPath id="SVGID_32_">
			<use xlink:href="#SVGID_31_"  overflow="visible"/>
		</clipPath>
		<path clip-path="url(#SVGID_32_)" fill="#555555" d="M14.7,39.3L14.7,39.3H8.2l0,0c0,13.2,8.2,24.4,19.7,29.1l2.4-6.1
			C21.2,58.6,14.7,49.7,14.7,39.3"/>
	</g>
	<g>
		<defs>
			<rect id="SVGID_33_" x="-876.9" y="-441.1" width="1836" height="1188"/>
		</defs>
		<clipPath id="SVGID_34_">
			<use xlink:href="#SVGID_33_"  overflow="visible"/>
		</clipPath>
		<path clip-path="url(#SVGID_34_)" fill="#555555" d="M39.5,64v6.5c15.6,0,28.6-11.5,30.9-26.5h-6.6C61.5,55.4,51.5,64,39.5,64"/>
	</g>
</g>
</svg>
