<?xml version="1.0" encoding="utf-8"?>
<!-- Generator: Adobe Illustrator 18.0.0, SVG Export Plug-In . SVG Version: 6.00 Build 0)  -->
<!DOCTYPE svg PUBLIC "-//W3C//DTD SVG 1.1//EN" "http://www.w3.org/Graphics/SVG/1.1/DTD/svg11.dtd">
<svg version="1.1" id="Ebene_1" xmlns="http://www.w3.org/2000/svg" xmlns:xlink="http://www.w3.org/1999/xlink" x="0px" y="0px"
	 viewBox="0 0 64 40.2" enable-background="new 0 0 64 40.2" xml:space="preserve">
<polygon fill="#555555" points="58.7,14.2 58.7,3.1 5.3,3.1 5.3,14.2 1.1,14.2 1.1,37.1 62.8,37.1 62.8,14.2 "/>
<path fill="#555555" d="M0,37.6V13.1h4.2V2h55.7v11.2H64v24.5H0L0,37.6z M1.7,36.7L62,36.8l-0.3-21.4h-4.1V4.2H6.4v11.2H2.2L1.8,36
	L1.7,36.7z"/>
<polygon fill="#F9FBF4" points="8.1,1.9 8.1,6.9 10,9.5 15.6,7.6 15.6,0 "/>
<polygon fill="#333333" stroke="#333333" points="9.2,27.5 21.9,30.3 54.7,27.3 54.8,37.1 9.2,37.1 "/>
<polygon fill="#333333" stroke="#333333" points="46.8,20.5 43.4,19.3 36.3,15.2 27.7,17.4 9.2,16.2 9.2,21.8 21,24.6 54.5,22.1 
	54.5,16.3 "/>
<polygon fill="#F9FBF4" points="4.2,11 2.1,13.2 2.1,19.2 5,20.5 5,17 6.3,18 6.3,15.7 9.2,15.7 14.6,23.8 16.6,24.3 19.3,35.5 
	20.7,36.1 21.7,40.2 29.5,40.2 25.8,24.7 36.4,17.8 42.2,22.6 43.6,22.1 44.1,23.5 54.5,22.6 53.6,20.3 47.7,18.9 37.2,10.3 
	25.6,14.6 22.1,10 27.4,4.5 32.5,4.5 34.5,6.2 34.5,4.5 38.5,4.5 37.5,2.3 25.8,0.4 15,7.4 "/>
</svg>
