<?xml version="1.0" encoding="utf-8"?>
<!-- Generator: Adobe Illustrator 18.0.0, SVG Export Plug-In . SVG Version: 6.00 Build 0)  -->
<!DOCTYPE svg PUBLIC "-//W3C//DTD SVG 1.1//EN" "http://www.w3.org/Graphics/SVG/1.1/DTD/svg11.dtd">
<svg version="1.1" id="Ebene_1" xmlns="http://www.w3.org/2000/svg" xmlns:xlink="http://www.w3.org/1999/xlink" x="0px" y="0px"
	 viewBox="0 203.8 612 384.4" enable-background="new 0 203.8 612 384.4" xml:space="preserve">
<polygon fill="#555555" points="561.3,339.6 561.3,233.4 50.7,233.4 50.7,339.6 10.5,339.6 10.5,558.6 600.5,558.6 600.5,339.6 "/>
<path fill="#555555" d="M0,563.3V329.1h40.2V222.9h532.6V330H612v234.3H0V563.3z M16.3,554.7l576.6,1L590,351.1h-39.2V244H61.2
	v107.1H21l-3.8,197L16.3,554.7z"/>
<polygon fill="#F9FBF4" points="77.5,222 77.5,269.8 95.6,294.6 149.2,276.5 149.2,203.8 "/>
<polygon fill="#333333" stroke="#333333" points="88,466.8 209.4,493.5 523.1,464.8 524,558.6 88,558.6 "/>
<polygon fill="#333333" stroke="#333333" points="447.5,399.8 415,388.3 347.1,349.1 264.9,370.2 88,358.7 88,412.3 200.8,439 
	521.2,415.1 521.2,359.7 "/>
<polygon fill="#F9FBF4" points="40.2,309 20.1,330 20.1,387.4 47.8,399.8 47.8,366.4 60.2,375.9 60.2,353.9 88,353.9 139.6,431.4 
	158.7,436.2 184.6,543.3 197.9,549 207.5,588.2 282.1,588.2 246.7,440 348.1,374 403.5,419.9 416.9,415.1 421.7,428.5 521.2,419.9 
	512.5,397.9 456.1,384.5 355.7,302.3 244.8,343.4 211.3,299.4 262,246.8 310.8,246.8 329.9,263.1 329.9,246.8 368.2,246.8 
	358.6,225.8 246.7,207.6 143.4,274.6 "/>
</svg>
