<?xml version="1.0" encoding="utf-8"?>
<!-- Generator: Adobe Illustrator 18.0.0, SVG Export Plug-In . SVG Version: 6.00 Build 0)  -->
<!DOCTYPE svg PUBLIC "-//W3C//DTD SVG 1.1//EN" "http://www.w3.org/Graphics/SVG/1.1/DTD/svg11.dtd">
<svg version="1.1" id="Layer_1" xmlns="http://www.w3.org/2000/svg" xmlns:xlink="http://www.w3.org/1999/xlink" x="0px" y="0px"
	 viewBox="0 0 612 792" enable-background="new 0 0 612 792" xml:space="preserve">
<g>
	<g>
		<path fill="#555555" d="M203.2,90.5h94.3v436.3c-48.4,9.2-83.9,12.9-122.4,12.9C60,539.6,0,487.6,0,387.8
			c0-96.1,63.7-158.5,162.2-158.5c15.3,0,26.9,1.2,41,4.9V90.5L203.2,90.5z M203.2,310.1c-11-3.7-20.2-4.9-31.8-4.9
			c-47.7,0-75.3,29.4-75.3,80.8c0,50.2,26.3,77.7,74.7,77.7c10.4,0,19-0.6,32.4-2.4L203.2,310.1L203.2,310.1z"/>
		<path fill="#555555" d="M447.4,236.1v218.5c0,75.3-5.5,111.4-22,142.6c-15.3,30-35.5,49-77.1,69.8l-87.5-41.6
			c41.6-19.6,61.8-36.7,74.7-63c13.5-26.9,17.8-58.1,17.8-140.2V236.1H447.4z M353.1,91h94.3v96.7h-94.3L353.1,91L353.1,91z"/>
	</g>
</g>
</svg>
