<?xml version="1.0" encoding="utf-8"?>
<!-- Generator: Adobe Illustrator 18.0.0, SVG Export Plug-In . SVG Version: 6.00 Build 0)  -->
<!DOCTYPE svg PUBLIC "-//W3C//DTD SVG 1.1//EN" "http://www.w3.org/Graphics/SVG/1.1/DTD/svg11.dtd">
<svg version="1.1" id="Layer_1" xmlns="http://www.w3.org/2000/svg" xmlns:xlink="http://www.w3.org/1999/xlink" x="0px" y="0px"
	 viewBox="14.5 11.9 74.1 43" enable-background="new 14.5 11.9 74.1 43" xml:space="preserve">
<path fill="#555555" d="M86,25.2c1.4,0,2.6-1.2,2.6-2.6c0-1.4-1.2-2.6-2.6-2.6c-1.4,0-2.6,1.2-2.6,2.6c0,0.3,0.1,0.6,0.2,0.9
	l-7.5,6.4l-9.5-5.6c0.1-0.2,0.1-0.4,0.1-0.7c0-1.6-1.3-2.9-2.9-2.9c-0.6,0-1.2,0.2-1.7,0.6l-8.6-6.8c0-0.2,0.1-0.3,0.1-0.5
	c0-1.2-0.9-2.1-2.1-2.1c-1.2,0-2.1,0.9-2.1,2.1c0,0.5,0.2,1,0.5,1.4l-4.3,9.3c-0.2,0-0.4-0.1-0.6-0.1c-0.6,0-1.2,0.2-1.7,0.5
	l-11.4-5.1c0-0.2,0-0.3,0-0.5c0-1.8-1.4-3.2-3.2-3.2c-1.8,0-3.2,1.4-3.2,3.2c0,1.8,1.4,3.2,3.2,3.2c1,0,1.9-0.5,2.5-1.2l10.9,4.9
	c-0.3,0.5-0.4,1.1-0.4,1.7c0,0.6,0.2,1.2,0.5,1.7l-6.1,6.1c-0.8-0.6-1.9-1-3-1c-2,0-3.6,1.1-4.5,2.7l-0.1,0c0,0,0,0,0,0l-8.5-3.9
	c0-0.1,0-0.2,0-0.3c0-1.5-1.2-2.7-2.7-2.7s-2.7,1.2-2.7,2.7c0,1.5,1.2,2.7,2.7,2.7c0.8,0,1.5-0.3,2-0.9l8.7,3.9c0,0,0,0,0,0l0,0
	c0,0.3-0.1,0.5-0.1,0.8c0,1.4,0.6,2.8,1.6,3.7l0,0c0,0,0,0,0,0l-4.4,6.5c-0.1,0-0.2,0-0.4,0c-1.1,0-2,0.9-2,2c0,1.1,0.9,2,2,2
	c1.1,0,2-0.9,2-2c0-0.4-0.1-0.7-0.3-1l4-5.9l0.5-0.6c0.7,0.3,1.4,0.5,2.1,0.5c1.4,0,2.7-0.6,3.6-1.5l5.2,3.7
	c-0.1,0.4-0.2,0.8-0.2,1.2c0,1.9,1.5,3.4,3.4,3.4c1.6,0,2.9-1.1,3.3-2.6L60,45.7c0.7,1.3,2.1,2.3,3.8,2.3c0.9,0,1.8-0.3,2.5-0.8
	l5.3,4.9c0,0.1,0,0.3,0,0.4c0,1.3,1,2.3,2.3,2.3c1.3,0,2.3-1,2.3-2.3c0-1.3-1-2.3-2.3-2.3c-0.5,0-1,0.2-1.4,0.5l-5-4.7
	c0.4-0.7,0.7-1.4,0.7-2.3c0-2.1-1.2-3.8-3.5-4.2V26.4c0.7-0.1,0.8-0.4,1.1-0.7l9.9,5.8l8.3,11.6c-0.1,0.2-0.1,0.4-0.1,0.6
	c0,0.8,0.7,1.5,1.5,1.5c0.8,0,1.5-0.7,1.5-1.5s-0.7-1.5-1.5-1.5c0,0,0,0-0.1,0l-7.9-11.1l7.4-6.3C85,25,85.5,25.2,86,25.2z
	 M59.5,43.7c0,0.2,0,0.3,0,0.5l-11.3,3.5c-0.4-1.5-1.7-2.5-3.3-2.5c-0.8,0-1.6,0.3-2.2,0.8l-5.2-3.7c0.3-0.7,0.5-1.4,0.5-2.2
	c0-1.1-0.4-2.1-1-3l6.1-6.1c0.5,0.3,1.1,0.5,1.7,0.5c1.2,0,2.3-0.6,2.9-1.6l12.8,11C59.9,41.6,59.5,42.6,59.5,43.7z M63.1,39.5
	c-0.7,0.1-0.8,0.2-1.2,0.4L48.4,28.1c0,0,0-0.1,0-0.1c0-1.1-0.5-2.1-1.3-2.7l4.3-9.2c0,0,0.1,0,0.1,0c0.4,0,0.8-0.1,1.1-0.3l8.6,6.8
	c-0.1,0.3-0.1,0.6-0.1,1c0,1.3,0.7,2.4,2.1,2.8V39.5z"/>
</svg>
