<?xml version="1.0" encoding="utf-8"?>
<!-- Generator: Adobe Illustrator 18.0.0, SVG Export Plug-In . SVG Version: 6.00 Build 0)  -->
<!DOCTYPE svg PUBLIC "-//W3C//DTD SVG 1.1//EN" "http://www.w3.org/Graphics/SVG/1.1/DTD/svg11.dtd">
<svg version="1.1" id="Layer_1" xmlns="http://www.w3.org/2000/svg" xmlns:xlink="http://www.w3.org/1999/xlink" x="0px" y="0px"
	 viewBox="0 0 681.2 778.6" enable-background="new 0 0 681.2 778.6" xml:space="preserve">
<metadata><?xpacket begin="﻿" id="W5M0MpCehiHzreSzNTczkc9d"?>
<x:xmpmeta xmlns:x="adobe:ns:meta/" x:xmptk="Adobe XMP Core 5.6-c011 79.156289, 2014/03/31-23:39:12        ">
   <rdf:RDF xmlns:rdf="http://www.w3.org/1999/02/22-rdf-syntax-ns#">
      <rdf:Description rdf:about=""
            xmlns:xmp="http://ns.adobe.com/xap/1.0/"
            xmlns:xmpGImg="http://ns.adobe.com/xap/1.0/g/img/"
            xmlns:dc="http://purl.org/dc/elements/1.1/"
            xmlns:xmpTPg="http://ns.adobe.com/xap/1.0/t/pg/"
            xmlns:stDim="http://ns.adobe.com/xap/1.0/sType/Dimensions#"
            xmlns:xmpG="http://ns.adobe.com/xap/1.0/g/">
         <xmp:CreateDate>2005-04-19T17:04:57Z</xmp:CreateDate>
         <xmp:ModifyDate>2005-04-19T18:04:24Z</xmp:ModifyDate>
         <xmp:CreatorTool>Illustrator</xmp:CreatorTool>
         <xmp:Thumbnails>
            <rdf:Alt>
               <rdf:li rdf:parseType="Resource">
                  <xmpGImg:width>224</xmpGImg:width>
                  <xmpGImg:height>256</xmpGImg:height>
                  <xmpGImg:format>JPEG</xmpGImg:format>
                  <xmpGImg:image>/9j/4AAQSkZJRgABAgEASABIAAD/7QAsUGhvdG9zaG9wIDMuMAA4QklNA+0AAAAAABAASAAAAAEA&#xA;AQBIAAAAAQAB/+4ADkFkb2JlAGTAAAAAAf/bAIQABgQEBAUEBgUFBgkGBQYJCwgGBggLDAoKCwoK&#xA;DBAMDAwMDAwQDA4PEA8ODBMTFBQTExwbGxscHx8fHx8fHx8fHwEHBwcNDA0YEBAYGhURFRofHx8f&#xA;Hx8fHx8fHx8fHx8fHx8fHx8fHx8fHx8fHx8fHx8fHx8fHx8fHx8fHx8fHx8f/8AAEQgBAADgAwER&#xA;AAIRAQMRAf/EAaIAAAAHAQEBAQEAAAAAAAAAAAQFAwIGAQAHCAkKCwEAAgIDAQEBAQEAAAAAAAAA&#xA;AQACAwQFBgcICQoLEAACAQMDAgQCBgcDBAIGAnMBAgMRBAAFIRIxQVEGE2EicYEUMpGhBxWxQiPB&#xA;UtHhMxZi8CRygvElQzRTkqKyY3PCNUQnk6OzNhdUZHTD0uIIJoMJChgZhJRFRqS0VtNVKBry4/PE&#xA;1OT0ZXWFlaW1xdXl9WZ2hpamtsbW5vY3R1dnd4eXp7fH1+f3OEhYaHiImKi4yNjo+Ck5SVlpeYmZ&#xA;qbnJ2en5KjpKWmp6ipqqusra6voRAAICAQIDBQUEBQYECAMDbQEAAhEDBCESMUEFURNhIgZxgZEy&#xA;obHwFMHR4SNCFVJicvEzJDRDghaSUyWiY7LCB3PSNeJEgxdUkwgJChgZJjZFGidkdFU38qOzwygp&#xA;0+PzhJSktMTU5PRldYWVpbXF1eX1RlZmdoaWprbG1ub2R1dnd4eXp7fH1+f3OEhYaHiImKi4yNjo&#xA;+DlJWWl5iZmpucnZ6fkqOkpaanqKmqq6ytrq+v/aAAwDAQACEQMRAD8A9U4q7FXYq7FXYq7FXYq7&#xA;FXYq7FXYq7FWEfnTffU/y51QrIUmnMEMNKglmmQkAj/IDHFUu/Kb8yH1uJ/L2tt6fmTTuUblzvcL&#xA;EeLMP+LFp8Y7/aHeir0jFXYq7FXYq7FXYq7FXYq7FXYq7FXYq7FXYq7FXYq7FXYq7FXYq7FXYq7F&#xA;XYq7FXYq81/Ndhq/mDyl5RQCX67fC9vYwaMLe3BqfkyGT/gcVeM/mKbrQvzQ1eewka2uobz61DKu&#xA;zK8wE1RX/XxV75+WP5kWPnHSqScYNatVAvrQdD29aOvVGP8AwJ2PYlVmmKuxV2KuxV2KuxV2KuxV&#xA;2KuxV2KuxV2KuxV2KuxV2KuxV2KuxV2KuxV2KuxVSu7u2s7Wa6upFhtoEaSaVzRVRBVmJ9hirzT8&#xA;t0ufNXm7VfP93GyWRB0/QI5BuIUNHkFa0O29DTkzjtiryP8AOiWOX8zNaZDVQ0CE+6W0SsPoIxVi&#xA;+ia3qeiapBqemzGC8t25RuOh7FWHdWGxGKvqb8uvzG0rzjpoeMrb6rAo+u2JO69vUSu7Rk9+3Q+6&#xA;rLsVdirsVdirsVdirsVdirsVdirsVdirsVdirsVdirsVdirsVdirsVdiqG1PU9P0uxmv9QuEtbOB&#xA;eUs0hooH8SegA3JxV5Zd3GufmteLZ2Ql0vyDBJW6vGHCa+aM/ZQH9kEbdh9pqtRQqy3zd5t8ufl/&#xA;5ajijREeOL0tL0xD8TlRRa714D9pj+JOKvlPUL661C+uL66f1Lm6keaZz3dyWY/ecVUMVRelatqW&#xA;k6hDqGm3D2t5btyimjNCOxB7EEbEHYjY4q+gfIP576NqyR2PmMppmpdBdE0tZT/rH+6P+t8P+V2x&#xA;V6qjq6h0IZWAKsDUEHoQcVbxV2KuxV2KuxV2KuxV2KuxV2KuxV2KuxV2KuxV2KuxV2KuxVhnmz80&#xA;dD0S5/Rlkj6z5gclItKsxzcPvtIyhuHTcbt7Yqk2n/l95h8030Ws/mFOGijPO08t27EW8R7GUgnk&#xA;3iAT7tT4cVUvzT/MHzN5RgWx0TRPq1iqJFFq7oGt0qvwpFGnwqV6Dn4fZIxV886pq2p6teyX2pXM&#xA;l3dyfbmlYsfYDwA7AbYqhMVdirsVdirKvKP5mebvKzKmn3ZlsQd9PuKyQd/sioZNzX4CPfFXtPlL&#xA;8/PKurcLfWFOjXrUHKQ87ZiaDaUCqePxgAfzYq9Lt7i3uYEnt5UmglAaOWNgyMp6FWFQRiqpirsV&#xA;dirsVdirsVdirsVdirsVdirsVdirsVdirFvNn5k+VvLJEF3ObnUmIWPTLUCW4ZjSgKg0StduRFe1&#xA;cVYwbH80vO7A30h8oeXnpW0iPK/lTuHb4Sldxvx91bFWZeVPI3lrytbelpFoI5WHGa7f455On25D&#xA;vSorxFF9sVT7FXlf/OQXmezsvKg0EEPfaq6N6fdIYZBIXPhV0Cjx38MVfOOKuxV2KuxV2KuxV2Kp&#xA;55Z87eZ/LM4k0e+kgjJrJbE84H8eUTVWvv198Ve5eSPz60LVzHZ6+q6TqDbCev8Aojn/AFm3i/2e&#xA;3+Vir1RWVlDKQVIqCNwQcVdirsVdirsVdirsVdirsVdirsVdiqF1TVdN0mxlv9SuUtbOEcpJpDQD&#xA;2HiT2A3PbFXmknmjzx+YE72vlFH0Py2GKTa/OCJpQDRvQUbjv9k18WXpirLfJ/5ceWfKy+rZwm41&#xA;Jq+tqdxSSdia8qMfsA16L171xVlGKuxVjPnzz5pPk/STd3Z9W7lqtlZKaPK4/wCIov7TdvnQYq+V&#xA;PMPmDU/MGr3Gq6lL6l1cNU0+yi/sog7Ko2GKpdirsVdirsVdirsVdirsVdirOfIH5t+YfKbpasxv&#xA;9GrRrGVjWME1Jgffgfb7PtXfFX0j5W826F5n01b/AEi4Esewmhb4ZYmP7EiVPE/gexOKpxirsVdi&#xA;rsVdirsVdirsVdiqQecvOui+U9L+u6i9ZJKraWibyzyAfZQeA/aY7D6RVVhmk+Sdf86ahF5h8+gw&#xA;2KfHpnlpSVSNT0afvyPcH4j3oBwxV6fDDDBCkMEaxQxqEjjQBVVVFAqgbAAYqvxV2KsR/MH8yNG8&#xA;nWNZiLjVJlJtLBT8TdaPJ/Kle/3Yq+X/ADJ5k1fzHq0uqarN6tzLsANkjQfZSNd+Kj/b3xVK8Vdi&#xA;rsVdirsVdirsVdirsVdirsVTTy35m1ny5qkepaTcGC4T4XHVJEPVJF6Mp/tG+Kvp/wDLz8yNI85W&#xA;BMVLbVYFreaeTVlFac0O3JCe/boe1VWX4q7FXYq7FXYq7FXYqx3zx5203ylpH1y5Bnu5j6dhYIf3&#xA;k8vgOpCio5NTb5kAqsc8keRdTu9T/wAZedKXGvz0aysWH7qyjG6BUNQHXt/L13apxV6LirsVd0xV&#xA;5N+Yv556dpIl03y2yX2piqyXn2reE/5PaRh/wI9+mKvn7UNRvtSvZb6/ne5u525SzSHkzH/PpiqH&#xA;xV2KuxV2KuxV2KuxV2KuxV2KuxV2KuxVGaRq+paPqUGpabO1te2zcopV7diCDsVI2IOxGKvqj8t/&#xA;zCsPOWj+soWHVLYKuoWgrRWPR0rUlGpt4dD7qsuxV2KuxV2KuxVLPMnmLTPL2jXGralJwtrda8Ru&#xA;7ufsxoO7Mdh+O2KsD/L3y9qHmTVv+Vg+aI63Mw/3A2DfYt7ep4SUPUmvwf8ABdSKKvT8VdiqQ+bP&#xA;O/lzytafWNXuhHIwJhtU+KeX/UQfrNB74q+e/Pv5yeYvM/qWdsTpujNVTaxN+8lX/i6QUrX+UbfP&#xA;FXn+KuxV2KuxV2KuxV2KuxV2KuxV2KuxV2KuxV2KuxVNfK/mXVPLetW+rabJxnhPxoa8JIz9qNwO&#xA;qt/aN8VfW3lTzPpvmbQ7bV9PasU4pJETV4pF+3G/up+8b9Diqb4q7FXYq7FXzp5588WHnL8xNK0m&#xA;SenlS0vYoSa0SYtIFlmYj9k/ZU9l32qcVfRSqqKFUBVUUVRsAB2GKpH5g89eUvL6MdV1OGCVf+Pc&#xA;N6kx/wCeScn/AApirx/zh/zkRf3Ie18sWv1OM1H1+5CtN80jFUX/AGXL5DFXkN9f3t/dSXd9PJc3&#xA;UprJNKxd2PuTviqhirsVdirsVdirsVdirsVdirsVdirsVdirsVdirsVdirsVZ9+T3n9vK3mFbe8k&#xA;I0XUSsd2D9mJ+iT+3Ho3+T40GKvqTFXYq7FXmn55+djoXlsaVZycdS1gNFUU5R2wFJW9i1eC/TTc&#xA;Yq+aMVTJvM/mR7ZbV9WvGtUXgkBuJTGF/lC8qAYqluKuxV2KuxV2KuxV2KuxV2KuxV2KuxV2KuxV&#xA;2KuxV2KuxV2KuxV2KuxV9M/kZ50Ou+WP0ZdPy1HRwsJJO725H7lv9iBwPyBPXFXpOKuJABJNAOpx&#xA;V8hfmL5rk80ebb3U+RNqG9CwU1otvGSE2Nact3PuTirGsVdirsVdirsVdirsVdirsVdirsVdirsV&#xA;dirsVdirsVdirsVdirsVdirsVdirKvyy81Hyz5xsb934WUrfVr/eg9CUgFj1+w1H+jFX1xirCfzk&#xA;8wtonkG/eNitzf0sbcgV3nB5/L90r0Pjir5TxV2KuxV2KuxV2KuxV2KuxV2KuxV2KuxV2KuxV2Ku&#xA;xV2KuxV2KuxV2KuxV2KuxV2KvrL8pvMZ17yJp1xI3K6tV+p3R3J5wUUEk9S0fFj88VeY/wDOSWsm&#xA;XWNJ0dT8FtA91JQ9WnbgoI8VEVf9lirxvFXYq7FXYq7FXYq7FXYq7FXYq7FXYq7FXYq7FXYq7FXY&#xA;q7FXYq7FXYq7FXYq7FXYq9s/5xr1phc6xojsSrol7An7IKH0pTTxbnH92KsC/NzU/wBIfmLrUo2W&#xA;GYWyjrT6uixN97ITirEMVdirsVdirsVdirsVdirsVdirsVdirsVdirsVdirsVdirsVdirsVdirsV&#xA;dirsVdirOPyW1MWH5jaWWcpFdGS2kp39WNgg/wCRgXFWKa5fPqGtahfuavd3M07HbrJIXPQDx8MV&#xA;QWKuxV2KuxV2KuxV2KuxV2KuxV2KuxV2KuxV2KuxV2KuxV2KuxV2KuxV2KuxV2KuxVNPKt8th5n0&#xA;i+YVW1vbeZh4hJVYjv4YqlZNTU9cVdirsVdirsVdirsVdirsVdirsVdirsVdirsVdirsVdirsVdi&#xA;rsVdirsVdirsVdirsVbRirBh1Ugj6MVaxV2KuxV2KuxV2KuxV2Kq1lY3l9cpa2UElzcymkcMSl3Y&#xA;+yqCcVem+Xf+cevNmoIs2rTw6RE2/pt+/np/qIQg+l6+2Ks3sf8AnHHyhEg+uX99cyU3KNFEn/A8&#xA;HP8Aw2Koub/nHryDItFe+iNKVSZCa+PxRtvirH9X/wCca4CrNo+ssrD7MN5GGBPvJHxp/wAAcVeb&#xA;eZvyt87eXVaW9sGmtFrW8tT60QA7tx+JB/rqMVYnirsVdirsVdirsVdirsVdirsVTDSfL2u6w5TS&#xA;tPuL1l2f0I2cL/rECg+nFURq/k3zXo8Zl1PSbq1hWlZ3ib0xX/iwAr+OKpPirsVVbyB7e7ngcUeG&#xA;Ro2HTdWIOKqWKuxV2KuxV2KuxVlfkD8u9Z846gYrUehp8JAvL9hVEqK8VG3Nz4D6aYq+mfKXkfy7&#xA;5Vsvq2k2wWRgBPdvRp5SP538PYbe2Kp9irsVdirsVdirz/zt+S/lbzGJLm1QaVqjb/WbdR6bt/xb&#xA;EKKa+Iofnir5983+RfMflO89DVbekTkiC8jq0EtP5XoN/wDJND7Yqx/FXYq7FXYq7FXYqitL0rUt&#xA;VvorHTbaS6u5jSOGIcmPv7Adydhir3TyL/zj9ZWojvvNTi6uNmXTYifRQ/8AFjjdz7Db54q9ftLO&#xA;0s7dLa0hjt7eMUjhiUIijwCqABiqo6I6MjqGRgQykVBB2IIOKvnv87/yxtNEK+YtFhEOnTv6d7aI&#xA;KJDK32XQdkfpTop6ddlXkkSGSVIxuXYKB8zTFWRfmVp8lh59163deJN5LMqjYcJz6yf8LIMVY3ir&#xA;sVdirsVdiqb+U/LN/wCZtftdHshSSdv3kpFVjiXd5G9lH3nbFX1z5d8vaZ5f0i30rTYhHbW60r+0&#xA;7ftSOe7MdziqZYq7FXYq7FXYq7FXYqhtR02w1Kzlsr+3jurSYcZIZVDKR8j38DirwT8xPyIvtN9X&#xA;U/K4e8sBVpNPNWniHX92f92KP+C+fXFXkJBBIIoRsQetcVdirsVdirN/IX5TeYvNjpc8TYaPX4r+&#xA;VT8YruIU2Ln36e+Kvo3yj5J8veVLH6rpNuFdgPXuno00pH870G3gBsPDFU+xV2KuxVKPN+jx6z5X&#xA;1TTHUMbq2kWMEVpIF5Rt/sXAOKvk3yVZLfecNEtGBaOa+t1kA68PVXl1/wAmuKs5/wCch9GNp5yg&#xA;1JUIi1O2UtIehmgPpsB8o/T+/FXluKuxV2KuxV2KvoX/AJx28rx2ug3PmGVP9J1FzBbue1vC1Gp/&#xA;rSg1/wBUYq9dxV2KuxV2KuxV2KuxV2KuxV2KsE89fk/5a81F7tR+jtXbc3sKghz/AMXR7B/nUN74&#xA;q8Q8wfkx5+0eVwmntqVuK8Liy/e8h/xjH70H/Y4qhdH/ACm/MDVZQkejz2qE/FLeL9WVR4kScWP+&#xA;xBxV6/5K/IPQtJaO81+RdWvlowt6EWqH/VO8v+yoP8nFXqiIiIqIoVFACqBQADYAAYq3irsVdirs&#xA;Vd0xV8wfkZpn1/8AMe2uEjAgsIp7pkO9Bx9JOvUh5VxV6j/zkD5fOoeTE1KNaz6RMJCe/oy0jkA/&#xA;2XBvkMVfNeKuxV2KuxV2KvsP8v7GOx8kaFbIAKWMDsB05yIJHP0sxxVP8VdirsVdirsVdirsVdir&#xA;sVdirsVU57i3t4zLcSpDGOryMFX7ziqnZajp99GZLK6iuoxsXhkWRQfmpOKojFXYq7FXYq7FXYql&#xA;XmzUF07yxq18TT6tZzyL/rLGeI+k4q8t/wCcbdC9PTdV1yRRyuJVtICa8gsQ5yU9mMi/8Dir1/Ub&#xA;C21HT7mwul5213E8Ey9KpIpVt/kcVfGvmDRbvQ9bvdIux+/spWiZqEBgD8LrXfi60YexxVL8Vdir&#xA;sVdir7J8lzpP5P0OZPsvYWpHt+5Xb6MVTnFXYq7FXYq7FXYq7FXYq7FUDrOuaRoti99qt3HZ2qdZ&#xA;JDSppXio6s3sorirxPzl/wA5D3krPa+VYPq8W4OoXKhpD7xxGqr/ALKvyGKvJNV1vV9XuTc6peTX&#xA;k5/bmdnp7LXoPYYqs0zVdS0u7S8065ktLqP7MsTFW+W3UexxV9Aflj+dlvrbxaP5iKW2rNRLe7FE&#xA;huGJoFI6JIfuPamwxV6xirsVdirsVdirzj8+dZNl5IOnxEm61eeO2jjXdiqn1HoP9iF+nFWWeSfL&#xA;q+XfKum6Pt6ltCPrBBqDM55ykHw5sae2Kp3irxD/AJyI8mFkt/NdpHXgFtdT4jtX9zKaDxPAkn+U&#xA;Yq8MxV2KuxV2Kvpn8hPMcep+SU05mrdaRI0LqepikJkib5blf9jir0nFXYq7FXYq7FXYq7FWndER&#xA;ndgqKCWYmgAG5JJxV5X56/PnRdJ9Sy8vBNU1AVBuKn6rGf8AWFDIf9Xb/KxV4L5g8za55hvje6xd&#xA;vdT7hOWyID+yiCiqPkMVSzFXYq7FXYq95/J784HvHh8ueY5x9YoE07UJDQyEbCKUn9v+Vu/Q79VX&#xA;tOKuxV2KuxV5RCR55/N36wh9TQfJwojDdZL0tWo6dHWtdx+7H82KvV8VdiqG1LTrPUtPuNPvYxLa&#xA;XUbRTRnurCh37HwOKvkPzt5SvfKvmK50i6qyIedrORQSwMTwcfdRvBgRiqRYq7FXYqyHyJ501Dyj&#xA;r8Wp2o9SEj07y2JoJYSd19mHVT4+1cVfVvlvzNo3mPTI9S0m4E8D7OvR427pIvVWH+1tiqaYq7FX&#xA;Yq7FXYqwXzh+cfk/y4rwpONT1FagWdqwYBh2klFUT36n2xV4P50/NPzV5rZobmf6rppPw6fbkrGR&#xA;29Q/akP+tt4AYqw/FXof5d/k5rPmpU1C9Y6dohNVnK1lmA6+ip7f5Z28K4q9v0j8qvy90a3oNJt7&#xA;gqPjuL4C4YnxPq1Rf9iBiqN/Q35c3REP1HR5yT8MfpWrkn2FDiqUeYvyY8iaxbyLDYLpl2QfSubM&#xA;emFbtWIfu2HtT6Rir5q8y+XtQ8va3daRfrS4tmpyH2XQ7o6+zLviqWYq95/KP85UuFg8veZZ6XO0&#xA;djqUh2kHRY5mP7XZW7999yq9pxV2KvO/zb/MCXRbNNA0UmbzLqtIYI4ql4kkPAOAN+bE0T337Yqy&#xA;D8vfJ8PlPyxbaWOLXZ/fX8y1o87gciK9lACr7DxxVkmKuxV2KsM/NH8v4POGhGOLimr2dZNPmOwJ&#xA;P2onP8r0+g0PsVXyrdWtzaXMtrcxtDcQO0c0TijK6mjKQe4OKqWKuxV2KpjoXmLW9BvRe6ReSWdx&#xA;0Zozsw68XU1Vh7MMVeqaJ/zkjqsKLHrOlRXZGxntnMLfMowkUn5EYqyWD/nJDyeyD19P1CN+4RIH&#xA;H3mVP1YqiJP+cifIirVYNQkP8qwxV/4aVRirH9X/AOclF4FdH0Y8z9ma7k2HzjjG/wDweKvN/Mv5&#xA;oedfMStFfai8do/Wztv3MVPBgvxOP9cnFWK4q7FXp35Ifl/pnmXUrrUdVpNZaYY6WR6SySVK+oP5&#xA;F49P2vlXFXo/5lfnDpvldG0jRRHdayo4MBvDa02+OnVx2QdO/gVXz3rfmPXdcuWudWvpryUmo9Ri&#xA;VWv8ifZUeyjFUuxV6T+UX5najoWtW+l6ldPLoV4whKysWFu7GiSISfhXkfiHSm/XFWT/APOSel2A&#xA;Oj6orqt+/qWzxbc3iX41b5IxI/2WKvD8Vdir0ryT+efmLy/bJYajENX0+MBYRI5SeNR0VZaPyUeD&#xA;D2qBiqd65/zkhqk9s8OjaUllMwoLqeT1yte6oFRaj3qPbFU5/JXyNfXNy3nrzGZJ7+7q2m+uSXIc&#xA;Ua4av8w+GP8Ayd/5Tir2TFXYq7FXYq7FXl/5v/lQvmSFta0dFXXYUpNENhdIooAT/vxQKKe42Pai&#xA;r5vlilileKVGjljYrJGwKsrKaEEHcEHFVuKuxV2KuxV2KuxV2KuxV2KuxVH6T5g1vRzOdKvprI3K&#xA;enOYHKFl7VI8OxxVAEkkkmpO5J61xV2KuxV2Kq97qF/fSrLe3Mt1KqhFkmdpGCKKKoLEmg7DFVDF&#xA;XYq7FXpv5QflVL5kuk1nVoymgW7/AAI2xupFP2F/4rU/bbv9kd+Kr6URFRQiAKqgBVAoAB0AGKt4&#xA;q7FXYq7FXYq7FXmX5qfk/beZVk1bRwlvryisiH4Y7kKOjfyyeDfQ3iFXzjfWF7p93LZ3sD211A3G&#xA;WGQFWU+4OKqGKuxV2KuxV2KuxVP/ACZ5J1vzdqhsNLRR6a87m4lPGOJK0qxFSanoAK/jiqcedvyi&#xA;80+Voxcug1DTqVe8tlYiM9/UU/Eo/wArp74qwjFXYq7FXYq7FXAEkACpPQYq9C8kfkt5o8wyxz30&#xA;TaVpRILTzqRK69f3URoTX+ZqD54qx7z/AOWIPLHmy90W3uDcw23pmORqc6SRrJR6bVHLFWPYq9S/&#xA;Kz8m7vX3h1jXUe30MUeKDdZbrwp3WM926n9n+YKvoy2tre1t47a2jWG3hUJFEgCqqqKBVA2AAxVU&#xA;xV2KuxV2KuxV2KuxV2KsV89flx5f84WvG9T0NQjXjbajEB6qdwrfzpX9k/RTFXzf51/LnzL5SuCN&#xA;Qg9WxZuMOowgtC9egJ/Yb/Jb6KjfFWL4q7FXYq7FXYqzL8r/AMwn8mazLPJAbnTr1VjvYloJAFNV&#xA;dK7clqdj19uuKvpvy95o0DzFZC70i8juoqfvEU0kQntJGfiU/MYqkev/AJR+Qdad5Z9MW2uX3M9o&#xA;TA1T1JVf3ZPuVxVh15/zjXoLt/oWsXUK+EyRzH719HFUB/0LL/38n/Tl/wBnGKro/wDnGaMN+88x&#xA;Fl8Fswp+8ztiqdaf/wA46eTYGDXl3e3hHVOaRIfoVeX/AA2Kspg8u/lv5Jthe/VrLTFT7N3cENKS&#xA;N6JJKWkJ9lOKvOfPH/OQgaOSy8pRFSaqdUnWhHvDEf1v/wADirx22tdZ17VfTt45tR1O7csQoaSR&#xA;2O7M3X5knFXun5d/kPaaeYtT80hLu9FGi00UaCM9f3p6St7fZ/1sVewdMVdirsVdirsVdirsVdir&#xA;sVdirsVU7i3t7mCS3uYkmglUrLFIodGU9QymoIxV5P5x/wCcfNG1AyXflucaZdNv9Tlq9qx2+yRV&#xA;4+5/aHgBirxXzJ5I80+W5eOsafJbxk0S5A5wsT04ypVK+1a4qkeKuxV2KuxVXsr++sLhbmxuJbW5&#xA;T7E0LtG4+TKQcVZzpP55/mHp6qkl3FqEa9Fu4gxp7vH6bn6WxVkVv/zkprygfWdHtZD+16byR1+V&#xA;fUpiqu3/ADkvqHE8dBhDdibhiK/LgMVQdx/zkl5oYf6PpdjGaf7s9aTevs8eKpBqv55fmJfqyJex&#xA;2KNsVtYlU/Q7+o4+hsVYgz695g1IBmutV1KbZQfUuJmpvQfaY0xV6X5Q/wCcfNevzHc+YZhpdoaE&#xA;20ZWS5YbHtWOOo8SSO64q9v8seTvLvlm0+raPZpbhgPWmPxSyEd3kPxH5dB2AxVOcVdirsVdirsV&#xA;dirsVdirsVdirsVdirsVdiq2WKOWN4pUEkcgKujAFWUihBB6g4qwXzD+SnkHWC0i2babcMamaxb0&#xA;h/yKIaKnyUYq871j/nG3W4iW0jVbe7ShPp3KPA9R0UFfWVvmeOKsM1L8pPzF08BptEmlUmgNsUuP&#xA;+FhZ2H0jFWO32ia1YOUvrC5tHHVZ4ZIyOnZgPHFUEQRseuKuxVWgs7y4YJbwSTMeixozH7gDiqe2&#xA;H5cefL6REt9BvRzpxeWFoUNeh5y8Fp71xVlek/8AOPfnm7o181rpqVAZZZPVkp4qIQ6n6XGKs+0L&#xA;/nHbypZssmrXc+quDvGP9GhI91QtJ90mKvR9H8v6Jotv9X0mxhsoiAGEKBS1NgXYfEx92OKo/FXY&#xA;q7FXYq7FXYq7FXYq/wD/2Q==</xmpGImg:image>
               </rdf:li>
            </rdf:Alt>
         </xmp:Thumbnails>
         <dc:format>image/svg+xml</dc:format>
         <xmpTPg:MaxPageSize rdf:parseType="Resource">
            <stDim:w>681.166992</stDim:w>
            <stDim:h>778.583008</stDim:h>
            <stDim:unit>Points</stDim:unit>
         </xmpTPg:MaxPageSize>
         <xmpTPg:NPages>1</xmpTPg:NPages>
         <xmpTPg:HasVisibleTransparency>False</xmpTPg:HasVisibleTransparency>
         <xmpTPg:HasVisibleOverprint>False</xmpTPg:HasVisibleOverprint>
         <xmpTPg:PlateNames>
            <rdf:Seq>
               <rdf:li>Cyan</rdf:li>
               <rdf:li>Magenta</rdf:li>
               <rdf:li>Yellow</rdf:li>
               <rdf:li>Black</rdf:li>
            </rdf:Seq>
         </xmpTPg:PlateNames>
         <xmpTPg:SwatchGroups>
            <rdf:Seq>
               <rdf:li rdf:parseType="Resource">
                  <xmpG:groupName>Default Swatch Group</xmpG:groupName>
                  <xmpG:groupType>0</xmpG:groupType>
               </rdf:li>
            </rdf:Seq>
         </xmpTPg:SwatchGroups>
      </rdf:Description>
   </rdf:RDF>
</x:xmpmeta>
                                                                                                    
                                                                                                    
                                                                                                    
                                                                                                    
                                                                                                    
                                                                                                    
                                                                                                    
                                                                                                    
                                                                                                    
                                                                                                    
                                                                                                    
                                                                                                    
                                                                                                    
                                                                                                    
                                                                                                    
                                                                                                    
                                                                                                    
                                                                                                    
                                                                                                    
                                                                                                    
                           
<?xpacket end="w"?>
	</metadata>
<path fill="#555555" d="M510,144.8c-39-24.8-77.2-34.5-114.8-59.2C372,70.5,339.8,32.2,312.8,0c-5.2,51.8-20.2,73.5-39,87.8
	c-38.2,30-62.2,39-95.2,57C150.8,159.8,0,249,0,442.5c0,61.8,16.6,118.4,45.1,166.8c60.7,103.2,175.4,169.2,298.4,169.2
	c180.8,0,337.5-131.2,337.5-330c0-109.1-44.3-185.5-88.3-234.6C556.6,173.5,520.8,151.5,510,144.8z M601.2,232.5
	c49.2,61.6,74.2,134.2,74.2,216c0,47.4-9,92.2-26.8,133.2c-16.9,38.8-41.2,73.2-72.3,102.3c-61.5,57.4-144.1,89-232.7,89
	c-43.8,0-86.8-8.4-127.8-24.9c-40.3-16.2-76.5-39.4-107.8-69C41.9,616.7,5.6,532.7,5.6,442.5c0-80.3,26.1-151.7,77.5-212.2
	c39.3-46.2,81.7-71.8,98-80.6c8-4.3,15.4-8.2,22.6-11.9c22.6-11.6,44-22.6,73.4-45.6c15.7-11.9,32.4-30.8,39.5-78.7
	c24.8,29.5,53.5,62.6,75.5,76.8c19.5,12.9,39.5,21.9,58.8,30.6c18.3,8.2,37.2,16.8,55.9,28.7c0,0,0.7,0.4,0.7,0.4
	C562.4,184.1,591.6,220.6,601.2,232.5z"/>
<path fill="#555555" d="M510.2,144.8c-0.6-0.4-1.3-0.8-1.9-1.2c-34.1-21.3-67.7-31.4-100.7-50.6c-4.1-2.4-8.1-4.8-12.1-7.5
	c-23.2-15.8-55.5-53.2-82.5-85.5c0,0,0,0.1,0,0.1c-0.1-0.1-0.1-0.1-0.2-0.2c-1.6,15.9-4.2,29-7.4,39.9c-6.9,22.2-17,35.1-28.1,45.1
	c-1.1,0.9-2.3,1.9-3.4,2.7c-38.2,30-62.2,39-95.2,57c-2.8,1.5-6.9,3.8-11.9,6.8c-19.9,11.9-54.9,36.4-87.7,75
	C37.7,275,0,345.7,0,442.5c0,61.8,16.6,118.4,45.1,166.8l0.1,0c60.7,103.3,175.4,169.3,298.5,169.3c180.8,0,337.5-131.2,337.5-330
	S534.2,159.8,510.2,144.8z M75.8,270c-2.2-1.5-13.5-8.2-2.2-25.5c36.8-56.2,107.2-95.2,126.8-105c7.5-3.8,40.5-19.5,74.2-45
	c20.2-15.8,35.2-30.8,42-80.2c5.2,17.2,6.8,30.8,6,50.2S303.8,96,300,99s-19.5,10.5-23.2,12.8s-3,3.8,0,4.5c6,1.5,9.8,3.8,9.8,9
	c0,4.5-2.2,14.2-18.8,31.5C237,189,213,208.5,158.2,241.5S78,271.5,75.8,270z M514.5,708c-3.8,3.8-38.2,27.8-78.8,31.5
	s-95.2,6-128.2-24c-5.2-5.2-3.8-12.8,0-15.8s6.8-5.2,11.2-5.2s3.8,0,6,1.5c15,12,37.5,21.8,85.5,21.8S492,704.2,507,693
	c6.8-5.2,9.8-0.8,10.5,2.2S519.8,702.8,514.5,708z M383.2,639.8c8.2-7.5,21.8-19.5,34.5-24.8s19.5-4.5,31.5-4.5s24.8,0.8,33.8,6.8
	s14.2,19.5,17.2,27s0,12-6,15c-5.2,3-6,1.5-11.2-8.2s-9.8-19.5-36-19.5s-34.5,9-47.2,19.5s-17.2,14.2-21.8,8.2
	S375,647.2,383.2,639.8z M582,645.8c-27-2.2-81-86.2-115.5-87.8c-43.5-1.5-138,90.8-212.2,90.8c-45,0-58.5-6.8-73.5-16.5
	c-22.5-15.8-33.8-39.8-33-72.8c0.8-58.5,55.5-113.2,124.5-114c87.8-0.8,148.5,87,192.8,86.2c37.5-0.8,109.5-74.2,144.8-74.2
	c37.5,0,48,39,48,62.2s-7.5,65.2-25.5,91.5S603,647.2,582,645.8z"/>
<path fill="none" d="M599.2,235.5c15,45.8,0.8,87-9,112.5s-60,136.5-331.5,258c-50.2,22.5-60.8,32.2-117.8,33
	c-48,0.8-72.8-15.8-88.5-30l-7.4,0.3c60.7,103.2,175.4,169.2,298.4,169.2c180.8,0,337.5-131.2,337.5-330
	c0-109.1-44.3-185.5-88.3-234.6C594.2,219.6,596.4,226.7,599.2,235.5z"/>
</svg>
