<?xml version="1.0" encoding="utf-8"?>
<!-- Generator: Adobe Illustrator 18.0.0, SVG Export Plug-In . SVG Version: 6.00 Build 0)  -->
<!DOCTYPE svg PUBLIC "-//W3C//DTD SVG 1.1//EN" "http://www.w3.org/Graphics/SVG/1.1/DTD/svg11.dtd">
<svg version="1.1" id="Layer_1" xmlns="http://www.w3.org/2000/svg" xmlns:xlink="http://www.w3.org/1999/xlink" x="0px" y="0px"
	 viewBox="0 0 401.5 381.7" enable-background="new 0 0 401.5 381.7" xml:space="preserve">
<g>
	<g id="g156" transform="translate(468.3311,284.624)">
		<path id="path158" fill="#565656" stroke="#565656" d="M-168.8,27.9c-1.9-2.4-3.9-4.7-6.1-6.9c-0.5-0.5-1-1-1.5-1.5
			c-0.1,0-0.2-0.1-0.4-0.1c-0.9-0.3-2.4-0.6-3.8-0.8c-5.9-0.9-12.4-1.1-18.7-1.2c-12.8-0.2-25.8,0.3-38.7,0.9
			c-25.9,1.3-51.8,3.4-77.5,6.2c-12.9,1.4-25.7,3-38.5,5c-6.4,1-12.7,2.1-18.9,3.4c-3.1,0.7-6.1,1.4-9,2.3c-1.4,0.4-2.8,0.9-4.1,1.4
			c-0.6,0.2-1.2,0.5-1.6,0.7c-0.1,0.1-0.2,0.1-0.2,0.1c-1.5,2.1-2.9,4.1-4.2,6.3c-1.4,2.3-2.6,4.7-3.7,7.1c-2.3,4.9-4.3,10-6.2,15.2
			c-1.9,5.2-3.8,10.5-5.9,15.7c-1,2.6-2.1,5.2-3.2,7.9c-0.5,1.2-1,2.5-1.6,3.7h17.5c9.4-21,27.2-45.2,42.1-51.3
			c4.1-1.7,70.1-9.9,113.7-9.9c16.2,0,27.4,1.2,33.3,3.5c17.9,6.9,53.4,39.8,57.1,57.7h10.1c-2.1-11.2-6.1-22.4-10.9-33
			C-154.9,48.8-161.2,37.7-168.8,27.9"/>
	</g>
	<g id="g160" transform="translate(462.6572,290.8379)">
		<path id="path162" fill="#565656" d="M-170.9,13.3L-170.9,13.3L-170.9,13.3L-170.9,13.3L-170.9,13.3L-170.9,13.3z"/>
	</g>
	<g id="g168" transform="translate(439.96,276.1006)">
		<path id="path170" fill="#565656" stroke="#565656" d="M-179,48c-5.5-2.1-16.2-3.2-31.8-3.2c-43.9,0-108.6,8.3-112.2,9.6
			c-13.3,5.4-29.9,27.9-39,47.4h237.5C-128.3,86.6-161.4,54.9-179,48"/>
	</g>
	<g id="g172" transform="translate(441.04,278.915)">
		<path id="path174" fill="#565656" stroke="#565656" d="M-178.7,41.4c-5.9-2.3-17.1-3.5-33.3-3.5c-43.6,0-109.6,8.2-113.7,9.9
			c-14.9,6.1-32.6,30.3-42.1,51.3h4.6c9.2-19.5,25.7-42,39-47.4c3.5-1.3,68.3-9.6,112.2-9.6c15.7,0,26.4,1.1,31.8,3.2
			c17.7,6.8,50.7,38.5,54.4,53.9h4.1C-125.2,81.2-160.8,48.3-178.7,41.4"/>
	</g>
	<g id="g176" transform="translate(500.667,277.667)">
		<path id="path178" fill="#565656" d="M-157.2,44.3c-2.5,5-15.4,18.3-26.3,15.2c-5.7-1.6-4.7,28.6,8.5,40.8h23.9
			c6.6-10.4,16.8-42.5,18-45.8C-131.8,50.7-154.7,39.4-157.2,44.3"/>
	</g>
	<g id="g180" transform="translate(519.248,272.0898)">
		<path id="path182" fill="#565656" d="M-150.5,57.5c-0.3-6.6-4.4-11.2-11.3-12.8c-5.5-1.2-13-0.2-14.8,3.3
			c-3.7,6.9-8.2,15.5-30.6,16.5c-1.5,0.1-2.7,1.3-2.6,2.8c0.1,1.5,1.3,2.6,2.8,2.6c23.4-1,30.2-10,35.1-19.2c1.1-0.8,6.5-1.9,11,0
			c3.2,1.3,4.8,3.6,4.9,7.1c0.6,12.8-12.7,36.3-20,48.2h6.4C-161.3,92.2-149.9,70.6-150.5,57.5"/>
	</g>
	<g>
		<g id="g186">
		</g>
		<g id="g184">
			<g id="g192">
				<defs>
					<rect id="SVGID_1_" x="321.1" y="325.8" width="48.1" height="55.9"/>
				</defs>
				<clipPath id="SVGID_2_">
					<use xlink:href="#SVGID_1_"  overflow="visible"/>
				</clipPath>
				<g id="g194" opacity="0.15" clip-path="url(#SVGID_2_)">
					<g id="g196" transform="translate(485.335,236)">
						<path id="path198" fill="#787878" d="M-162.7,142.7c14.5-3.4,27.4-17.9,28.6-38.8c0.2-3.9-7.7-11.3-7.7-13.4
							s24.5,0.5,25.6,6.1c1.1,5.7-15.2,40.3-20.6,46S-171.2,144.7-162.7,142.7"/>
					</g>
				</g>
			</g>
		</g>
		<g id="g200" transform="translate(493.834,288)">
			<path id="path202" fill="#565656" d="M-159.7,20c-1.8,12.7,23,30.2,39.7,29.7c14.1-0.5,29.7-7,27.4-14.7
				c-2.3-7.9-15.9,1.4-17-4.1c-1.1-5.4,15.9-15.4,9.1-22.7c-6.3-6.7-13.6,10.7-21.1,8.2c-7.4-2.5,1.4-19.4-7.7-20.4
				c-10.9-1.1-6.8,23.1-15,23.6C-150.1,19.8-159.1,15.8-159.7,20"/>
		</g>
		<g>
			<g id="g210">
			</g>
			<g id="g208">
				<g id="g216">
					<defs>
						<rect id="SVGID_3_" x="341.1" y="297.7" width="16" height="13.1"/>
					</defs>
					<clipPath id="SVGID_4_">
						<use xlink:href="#SVGID_3_"  overflow="visible"/>
					</clipPath>
					<g id="g218" opacity="0.5" clip-path="url(#SVGID_4_)">
						<g id="g220" transform="translate(498.9385,288.042)">
							<path id="path222" fill="#565656" d="M-157.8,19.9c2.7,2,12.2,4.7,13.8,1.2c1.6-3.5,2.9-10.4,1.8-11.4
								c-0.7,3.2-1.8,9.4-5.4,10.7C-150.3,21.4-155.9,20.2-157.8,19.9"/>
						</g>
					</g>
				</g>
			</g>
			<g>
				<g id="g226">
				</g>
				<g id="g224">
					<g id="g232">
						<defs>
							<rect id="SVGID_5_" x="367" y="294.3" width="15.7" height="14.6"/>
						</defs>
						<clipPath id="SVGID_6_">
							<use xlink:href="#SVGID_5_"  overflow="visible"/>
						</clipPath>
						<g id="g234" opacity="0.5" clip-path="url(#SVGID_6_)">
							<g id="g236" transform="translate(518.459,298.042)">
								<path id="path238" fill="#565656" d="M-150.8-3.7c-0.5,2.2-2.2,12.9,3.2,14.3c4.8,1.3,8.2-1.6,11.9-7.6
									c-2,1.9-7.1,6.3-11.2,4.6C-150.6,6-151.1,1.7-150.8-3.7"/>
							</g>
						</g>
					</g>
				</g>
				<g>
					<g id="g242">
					</g>
					<g id="g240">
						<g id="g248">
							<defs>
								<polygon id="SVGID_7_" points="343.8,318.6 376.1,318.6 376.1,336.3 343.8,336.3 343.8,318.6 								"/>
							</defs>
							<clipPath id="SVGID_8_">
								<use xlink:href="#SVGID_7_"  overflow="visible"/>
							</clipPath>
							<g id="g250" opacity="0.25" clip-path="url(#SVGID_8_)">
								<g id="g252" transform="translate(500.876,276.958)">
									<path id="path254" fill="#565656" d="M-157.1,46c27.9-13.6,33.5,8.6,32.2,13.1C-135.8,61-155.4,49.6-157.1,46"/>
								</g>
							</g>
						</g>
					</g>
					<g>
						<g id="g258">
						</g>
						<g id="g256">
							<g id="g264">
								<defs>
									<rect id="SVGID_9_" x="381.7" y="314.2" width="11.7" height="10.3"/>
								</defs>
								<clipPath id="SVGID_10_">
									<use xlink:href="#SVGID_9_"  overflow="visible"/>
								</clipPath>
								<g id="g266" opacity="0.5" clip-path="url(#SVGID_10_)">
									<g id="g268" transform="translate(530.751,283.3955)">
										<path id="path270" fill="#565656" d="M-146.4,30.8c-4.8,5.4-2.4,9.6,0.6,10.2c4,0.7,8.9-3.2,8.3-3.2
											c-1.1-0.1-8.6,2.6-10.1-1.2C-148.6,33.7-146.9,32.1-146.4,30.8"/>
									</g>
								</g>
							</g>
						</g>
						<g id="g288" transform="translate(440.25,484.25)">
							<path id="path290" fill="none" d="M-178.9-443.2c40.1-3.7,63.6-45.3,88.1-38.9c-16.3,10.2-32.6,30.7-55.4,64.4
								C-151.7-409.8-189.9-442.2-178.9-443.2"/>
						</g>
						<g id="g292" transform="translate(440.25,484.25)">
							
								<path id="path294" fill="none" stroke="#565656" stroke-width="3" stroke-linecap="round" stroke-linejoin="round" stroke-miterlimit="10" d="
								M-178.9-443.2c40.1-3.7,63.6-45.3,88.1-38.9c-16.3,10.2-32.6,30.7-55.4,64.4C-151.7-409.8-189.9-442.2-178.9-443.2z"/>
						</g>
						<g id="g296" transform="translate(255.75,491.0005)">
							<path id="path298" fill="#565656" d="M-245.4-459.1c18.1-16.8,50.5-10.2,76.8-0.7c15,5.4,34.3,1,35.7,4.1
								c3.2,7.2-16.1,21.9-32.1,21.6C-180.9-434.5-207.3-464.2-245.4-459.1"/>
						</g>
						<g id="g300" transform="translate(255.75,491.0005)">
							
								<path id="path302" fill="none" stroke="#565656" stroke-width="2" stroke-linecap="round" stroke-linejoin="round" stroke-miterlimit="10" d="
								M-245.4-459.1c18.1-16.8,50.5-10.2,76.8-0.7c15,5.4,34.3,1,35.7,4.1c3.2,7.2-16.1,21.9-32.1,21.6
								C-180.9-434.5-207.3-464.2-245.4-459.1z"/>
						</g>
						<g id="g304" transform="translate(460.5,469.75)">
							<path id="path306" fill="#565656" d="M-171.7-409c9.2,2.7,44.2-66,61.2-59.2c54.1,21.6-16.3,104.4-38.8,106.1
								C-171.7-360.4-176.9-410.5-171.7-409"/>
						</g>
						<g id="g308" transform="translate(460.5,469.75)">
							<path id="path310" fill="none" stroke="#565656" stroke-width="2" stroke-miterlimit="10" d="M-171.7-409
								c9.2,2.7,44.2-66,61.2-59.2c54.1,21.6-16.3,104.4-38.8,106.1C-171.7-360.4-176.9-410.5-171.7-409z"/>
						</g>
						<g id="g312" transform="translate(316.75,475.75)">
							<path id="path314" fill="#565656" d="M-223.4-423.1c-15,6.5-68-49-90.4-13.3c-14.8,23.5,29.9,71.1,61.9,76.2
								C-220-355.1-215.5-426.5-223.4-423.1"/>
						</g>
						<g>
							<g id="g322">
							</g>
							<g id="g320">
								<g id="g328">
									<defs>
										<rect id="SVGID_11_" x="294.6" y="14.9" width="36.9" height="91.3"/>
									</defs>
									<clipPath id="SVGID_12_">
										<use xlink:href="#SVGID_11_"  overflow="visible"/>
									</clipPath>
									<g id="g330" clip-path="url(#SVGID_12_)">
										<g id="g332" transform="translate(491.167,503.5005)">
											<path id="path334" fill="#565656" d="M-160.6-488.6c-2.9,9.4-27.1,33.8-23.7,54.7c1.2,7.7,9.5,30.7,13,29.8
												c3.5-0.9,12.4-6.3,11.6-5.1c-0.8,1.2-12.2,9.7-16.7,11.9c-4.2-2.3-22.6-44.6-19.9-46.9
												C-188.5-451.2-164-488.2-160.6-488.6"/>
										</g>
									</g>
								</g>
							</g>
							<g>
								<g id="g338">
								</g>
								<g id="g336">
									<g id="g344">
										<defs>
											<polygon id="SVGID_13_" points="3.7,28.6 94.3,28.6 94.3,93.4 3.7,93.4 3.7,28.6 											"/>
										</defs>
										<clipPath id="SVGID_14_">
											<use xlink:href="#SVGID_13_"  overflow="visible"/>
										</clipPath>
										<g id="g346" clip-path="url(#SVGID_14_)">
											<g id="g348" transform="translate(250.833,484.5005)">
												<path id="path350" fill="#565656" d="M-247.1-443.8c16.3-10,46.2-5.8,63.6,11.2c6.2,6.1,7.9,26.6-6,40.7
													c-5.5,5.6,32.9-19.7,33-27.1c0.1-7.4-2.5-9.5-8.2-11.6c-21.1-7.8-43.2-25.7-62.4-25.3
													C-239.6-455.6-245.4-447-247.1-443.8"/>
											</g>
										</g>
									</g>
								</g>
								<g>
									<g id="g354">
									</g>
									<g id="g352">
										<g id="g360">
											<defs>
												<rect id="SVGID_15_" x="295.7" y="9.6" width="53.6" height="90.5"/>
											</defs>
											<clipPath id="SVGID_16_">
												<use xlink:href="#SVGID_15_"  overflow="visible"/>
											</clipPath>
											<g id="g362" opacity="0.25" clip-path="url(#SVGID_16_)">
												<g id="g364" transform="translate(496,507.375)">
													<path id="path366" fill="#565656" d="M-158.9-497.8c37.2,20.6-22.8,51.7-18.4,90.4c-7.8-0.8-27.1-38.3-22.3-41.6
														C-192.9-453.6-165.1-499.5-158.9-497.8"/>
												</g>
											</g>
										</g>
									</g>
									<g id="g368" transform="translate(284.5205,414.8398)">
										<path id="path370" fill="#565656" d="M-235-279.4c0.6-2.7,0.9-5.5,1.2-8.3c0.2-2.8,0.4-5.7,0.9-8.5c0.2-1.4,0.6-2.8,1.2-4
											c0.5-1.3,1-2.6,1.5-3.9c1-2.6,2.1-5.2,3.2-7.8c4.6-10.3,10.1-20.2,16.6-29.5c6.4-9.2,13.7-17.8,22-25.3
											c8.3-7.5,17.8-13.6,28.2-17.9c10.3-4.3,21.2-7,32.3-8.3c11-1.4,22.2-1.7,33.2-1.5c11.1,0.1,22.2,0.7,33.2,2.2
											c11,1.5,22.1,3.9,32.7,7.8c5.3,2,10.5,4.3,15.5,7.2c5,2.9,9.6,6.4,13.9,10.4c4.2,4,7.9,8.6,11,13.5
											c3.1,5,5.5,10.3,7.3,15.7c1.9,5.4,3.3,10.9,4.5,16.4c1.2,5.4,2.1,10.9,3.4,16c0.6,2.6,1.3,5,2.3,7.4c1,2.6,2,5.1,3,7.7
											c1.9,5.2,3.8,10.3,5.7,15.6c7.2,20.9,13.5,42.2,17.4,63.9c1.9,10.9,3.3,21.9,3.5,33c0.2,11-0.8,22.2-4,32.7
											c-0.8,2.6-1.7,5.2-2.7,7.8c-1,2.6-2.4,4.9-3.3,7.6c-0.5,1.3-0.9,2.7-1.5,3.9c-0.6,1.3-1.4,2.4-2.2,3.6
											c-1.5,2.3-3.2,4.6-5,6.8c-7.2,8.6-16.5,15.6-26.3,21C3.7-89-6.8-85-17.5-81.9c-10.7,3.1-21.6,5.5-32.5,7.5
											c-10.9,2-21.9,3.5-32.9,4.9c-5.5,0.7-11,1.2-16.5,1.8l-8.3,0.8c-2.7,0.2-5.5,0.5-8.4,0.6c-22.6,1.2-45.1-2-66.7-8
											c-10.8-3-21.4-6.8-31.6-11.2c-10.3-4.5-20.3-9.6-29.8-15.9c-4.7-3.1-9.3-6.5-13.7-10.5c-1.1-1-2.2-2.1-3.2-3.1
											c-1-1.1-1.9-2.1-2.9-3.2c-1.9-2.2-3.6-4.5-5.3-6.8c-6.7-9.4-11.7-20.4-13.5-32.1c-1.8-11.7-0.2-23.6,3.1-34.5
											c3.4-11,8.3-21.2,13.8-30.9c5.5-9.7,11.5-19,17.2-28.3c2.8-4.7,5.6-9.3,8-14.1C-238.2-269.8-236.1-274.5-235-279.4
											L-235-279.4z M-226.9-277.5c-1.4,5.8-3.8,11.2-6.4,16.2c-2.6,5-5.5,9.8-8.4,14.5c-5.8,9.4-11.7,18.6-16.9,28.1
											c-5.2,9.5-9.8,19.2-12.7,29.3c-2.9,10.1-4,20.6-2.4,30.7c1.6,10.1,5.9,19.7,12.1,28.1c1.5,2.1,3.2,4.2,4.9,6.1
											c0.9,1,1.8,2,2.6,2.9c0.9,0.9,1.7,1.8,2.7,2.7c3.8,3.5,8,6.6,12.5,9.5c8.9,5.8,18.5,10.8,28.4,15.1
											c9.9,4.3,20.1,7.9,30.5,10.8c10.4,2.9,21,5.1,31.6,6.4c10.7,1.3,21.4,1.9,32.1,1.4c2.7-0.1,5.3-0.4,8.1-0.6l8.2-0.7
											c5.4-0.5,10.9-1,16.3-1.6c10.9-1.1,21.7-2.5,32.4-4.3c10.7-1.8,21.4-3.9,31.8-6.7c10.4-2.8,20.7-6.1,30.5-10.5
											c9.7-4.4,19-10,26.7-17.6c1.9-1.9,3.7-3.9,5.4-6c0.9-1,1.6-2.2,2.5-3.2c0.8-1.1,1.8-2.1,2.7-3.2c1.8-2.2,2.7-4.8,3.8-7.3
											c1-2.5,1.9-5.2,2.6-7.8c2.7-10.6,3.4-21.7,2.6-32.6c-0.7-10.9-2.7-21.7-5.2-32.3c-5.2-21.2-12.7-41.8-20.7-62.2
											c-2-5.1-4-10.2-6.1-15.2l-3.2-7.6c-1.1-2.7-2-5.6-2.8-8.3c-1.4-5.5-2.5-10.9-3.6-16.2c-1.1-5.3-2.4-10.5-4.2-15.4
											c-3.4-9.9-8.7-19-16.1-26.3c-7.4-7.3-16.6-12.8-26.4-16.8c-9.9-4-20.4-6.7-31.1-8.5c-10.7-1.8-21.6-2.9-32.5-3.4
											c-10.9-0.5-21.8-0.6-32.7,0.6c-10.8,1.2-21.5,3.5-31.5,7.7c-10,4.2-19.2,10.1-27.1,17.4c-7.9,7.4-14.3,16.3-19.2,25.9
											c-4.9,9.6-8.4,19.8-11.4,30.1c-0.7,2.6-1.5,5.2-2.1,7.8c-0.3,1.3-0.7,2.6-0.9,3.9c-0.1,0.7-0.2,1.3-0.4,2
											c-0.2,0.6-0.5,1.3-0.7,1.9c-1,2.5-2.3,4.9-3.4,7.4C-225.3-282.8-226.3-280.2-226.9-277.5L-226.9-277.5z"/>
									</g>
									<g id="g372" transform="translate(287.501,414.166)">
										<path id="path374" fill="none" d="M-233.9-277.8c-8.6,38.1-83.9,98.4-26.7,160c19.5,21,82.6,53.1,146,47.1
											C50-86.2,91.6-125.9,22.2-296.4c-11.3-27.7,1.4-91.6-119.7-95.2C-148.3-393.1-209.4-386.1-233.9-277.8"/>
									</g>
									<g id="g380" transform="translate(306.6748,469.791)">
										<path id="path382" fill="#565656" d="M-227-409.1c3.1-4.8,6.7-8.8,10.6-12.4c3.9-3.6,8-6.8,12.3-9.6
											c8.6-5.7,17.9-10.2,27.5-13.7c19.2-6.8,39.7-9.5,59.7-9c19.8,0.5,40,3.1,59.2,10c9.6,3.5,18.8,8.1,27.2,14.1
											c8.4,6,15.8,13.4,21.8,21.8c6,8.4,10.6,17.7,13.9,27.2c3.4,9.6,5.5,19.4,7.1,29.1c0.8,4.9,1.5,9.7,2.2,14.5
											c0.7,4.8,1.3,9.5,2.3,14c0.5,2.2,1.1,4.3,1.9,6l0.1,0.3l0.2,0.3l0.4,0.8l0.9,1.6l1.8,3.3c2.3,4.4,4.5,8.9,6.5,13.4
											c3.9,9.1,7.2,18.6,9.4,28.3c2.2,9.7,3.3,19.7,3.2,29.7c-0.2,20-5.7,40-16.3,56.9l0,0c-0.8,1.3-2.4,1.7-3.7,1
											c-1.2-0.7-1.6-2.1-1.2-3.3l0-0.1c2.9-7.3,5.9-14.4,8.3-21.6c2.4-7.2,4.1-14.6,4.1-21.8c0.1-7.2-1.9-14.2-6.1-19.7
											c-0.3-0.3-0.5-0.7-0.8-1l-0.4-0.5l-0.5-0.5c-0.6-0.6-1.2-1.3-1.8-1.9c-1.3-1.2-2.7-2.4-4.2-3.5c-2.9-2.3-6.1-4.4-9.3-6.4
											c-12.9-8.1-26.7-15-40.6-21.8c-13.9-6.8-28-13.3-42-19.7c-28.2-12.9-56.5-25.8-84.4-39.8c-13.9-7.1-27.8-14.4-41.2-23
											c-6.7-4.3-13.3-8.9-19.5-14.7c-3.1-3-6.1-6.1-8.6-10.6c-1.2-2.3-2.3-4.9-2.5-8.2c-0.1-1.6,0-3.3,0.4-5
											c0.2-0.8,0.5-1.6,0.8-2.4c0.3-0.7,0.9-1.8,1.1-2L-227-409.1z M-215.6-402.1c-0.4,0.6-0.2,0.3-0.3,0.5
											c-0.1,0.1-0.1,0.2-0.1,0.4c-0.1,0.2-0.1,0.5-0.1,0.8c0,0.6,0.3,1.7,0.9,2.9c1.2,2.4,3.5,5,5.9,7.4
											c5.1,4.9,11.2,9.4,17.4,13.6c12.6,8.4,26.1,15.9,39.7,23.1C-125-339-96.9-325.8-69-312.2c14,6.8,27.9,13.6,41.8,20.8
											c13.8,7.2,27.6,14.5,40.9,23.2c3.3,2.2,6.6,4.5,9.7,7.1c1.6,1.3,3.1,2.6,4.6,4.1c0.7,0.7,1.5,1.5,2.2,2.4l0.5,0.6l0.5,0.7
											c0.4,0.4,0.7,0.9,1,1.3c2.5,3.5,4.4,7.5,5.5,11.6c1.1,4.1,1.5,8.4,1.4,12.5c-0.3,8.3-2.4,16.2-5.1,23.6
											c-2.7,7.5-6,14.6-9,21.7l-4.9-2.4v0c9.6-16.3,14.2-35.3,13.9-54.1c-0.3-18.9-5.4-37.4-13.3-54.6c-2-4.3-4.1-8.5-6.5-12.7
											l-3.7-6.5c-1.4-2.7-2.1-5.3-2.7-7.8c-1.3-5-2-9.9-2.8-14.7c-0.8-4.8-1.6-9.5-2.5-14.2c-1.8-9.4-4.1-18.5-7.3-27.2
											c-3.2-8.7-7.5-16.9-13-24.3c-5.4-7.3-12.1-13.7-19.6-18.8c-7.5-5.2-15.8-9.1-24.6-12.1c-17.5-5.9-36.5-8-55.4-8.2
											c-9.4-0.1-18.7,0.5-27.9,2c-9.2,1.4-18.2,3.7-26.9,6.8c-8.7,3.1-17.1,7-24.7,12c-3.8,2.5-7.4,5.2-10.7,8.2
											c-3.3,3-6.2,6.2-8.4,9.6L-215.6-402.1z"/>
									</g>
									<g id="g384" transform="translate(310,468)">
										<path id="path386" fill="#565656" d="M-225.8-404.8c-22.5,34.8,4.4,168.6,145.9,150.6c15-1.9,64.7-28.4,98.3,8.8
											c18.4,20.4-6.4,72.2,0,61.5c7.1-11.9,34.7-57.8-6.5-128.5c-13.2-22.7,8.5-132-133.2-133.3
											C-175.8-446.1-210.9-428-225.8-404.8"/>
									</g>
									<g>
										<g id="g406">
										</g>
										<g id="g404">
											<g id="g412">
												<defs>
													<rect id="SVGID_17_" x="167.6" y="167.4" width="26.7" height="11.3"/>
												</defs>
												<clipPath id="SVGID_18_">
													<use xlink:href="#SVGID_17_"  overflow="visible"/>
												</clipPath>
												<g id="g414" opacity="0.25" clip-path="url(#SVGID_18_)">
													<g id="g416" transform="translate(391,387.166)">
														<path id="path418" fill="#787878" d="M-196.7-214.1c0,3.1-6,5.7-13.4,5.7c-7.4,0-13.4-2.5-13.4-5.7
															c0-3.1,6-5.7,13.4-5.7C-202.7-219.7-196.7-217.2-196.7-214.1"/>
													</g>
												</g>
											</g>
										</g>
										<g id="g420" transform="translate(373.75,399.5)">
											<path id="path422" fill="#787878" d="M-202.9-243.2c3.1-2,19.4-1.4,21.4,0.7c2,2,6.6,10.7,1.4,14.3
												c-1.8,1.2-1.9-3.9-5.9-3.1c-4.9,1-2.3,7.4-6.1,7.3c-5.9-0.2-0.2-6.9-5.4-7.8c-3.9-0.7-4.8,3-6.5,2.7
												C-209.9-230.1-207.2-240.3-202.9-243.2"/>
										</g>
										<g>
											<g id="g426">
											</g>
											<g id="g424">
												<g id="g432">
													<defs>
														<rect id="SVGID_19_" x="166.4" y="155.1" width="29.7" height="20.3"/>
													</defs>
													<clipPath id="SVGID_20_">
														<use xlink:href="#SVGID_19_"  overflow="visible"/>
													</clipPath>
													<g id="g434" clip-path="url(#SVGID_20_)">
														<g id="g436" transform="translate(380.2207,400.4053)">
															<path id="path438" fill="#787878" d="M-200.6-245.3c-3.9,0-7.5,0.4-8.8,1.2c-4.3,2.9-7,13.1-1.2,14.1
																c0.1,0,0.1,0,0.2,0c1.4,0,2.3-2.8,5.3-2.8c0.3,0,0.6-0.1,0.9,0c5.2,0.9-0.5,7.7,5.4,7.7h0.1c3.7,0,1.1-6.2,6-7.2
																c0.3-0.1,0.6,0,0.8,0c2.8,0,3.3,3.4,4.6,3.4c0.2,0,0.3,0,0.5-0.2c5.3-3.6,0.7-12.2-1.4-14.3
																C-189.1-244.6-195.1-245.3-200.6-245.3 M-200.6-244L-200.6-244c6.2,0,10.9,0.9,11.7,1.5c1.3,1.3,3.7,5.7,3.4,9
																c-0.1,1.3-0.6,2.2-1.5,3c-0.1-0.1-0.2-0.3-0.3-0.4c-0.7-1-2-2.7-4.4-2.7c-0.4,0-0.7,0-1.1,0.1
																c-3.4,0.7-4.1,3.4-4.6,5.2c-0.5,1.9-0.6,1.9-1.2,1.9h0c-1.7,0-1.7-0.3-1.7-2.3c0-1.8,0.1-4.7-3.6-5.3
																c-0.4-0.1-0.8-0.1-1.2-0.1c-2.3,0-3.7,1.3-4.6,2.2c-0.2,0.2-0.6,0.6-0.8,0.6c-0.7-0.1-1.7-0.5-2-2.2
																c-0.6-3,1.3-7.8,3.8-9.5C-207.8-243.5-205.1-244-200.6-244"/>
														</g>
													</g>
												</g>
											</g>
											<g>
												<g id="g442">
												</g>
												<g id="g440">
													<g id="g448">
														<defs>
															<polygon id="SVGID_21_" points="76.5,178.9 307.8,178.9 307.8,310.2 76.5,310.2 76.5,178.9 															"/>
														</defs>
														<clipPath id="SVGID_22_">
															<use xlink:href="#SVGID_21_"  overflow="visible"/>
														</clipPath>
														<g id="g450" opacity="0.25" clip-path="url(#SVGID_22_)">
														</g>
													</g>
												</g>
												<g>
													<g id="g458">
													</g>
													<g id="g456">
														<g id="g464">
															<defs>
																<rect id="SVGID_23_" x="88.6" y="181.1" width="191.7" height="97.4"/>
															</defs>
															<clipPath id="SVGID_24_">
																<use xlink:href="#SVGID_23_"  overflow="visible"/>
															</clipPath>
															<g id="g466" opacity="0.5" clip-path="url(#SVGID_24_)">
																<g id="g468" transform="translate(347.2148,315.9766)">
																	<path id="path470" fill="#787878" d="M-212.4-46.1c-1.8-2.9-2.9-6.3-4-9.5c-1.1-3.3-2-6.6-3-9.9
																		c-2-6.6-4.3-13.1-7.3-19.2c-3-6.1-7-11.8-11.9-16.2c-5-4.3-10.9-7.1-17.1-8.5h0l-0.1,0c-2.1-0.7-3.3-3-2.5-5.2
																		c0.7-2,2.8-3.1,4.8-2.6c14.8,3.5,30.1,5.1,45.4,5.4c15.3,0.3,30.7-0.6,46-2.5c15.3-1.8,30.5-4.6,45.5-8
																		c15-3.5,29.9-7.6,44.5-12.5c2.1-0.7,4.5,0.4,5.2,2.5c0.6,1.6,0,3.3-1.2,4.4l-0.1,0.1l0,0c-0.5,0.4-1.2,1-1.8,1.6
																		c-0.6,0.6-1.3,1.4-1.9,2.1c-1.2,1.5-2.5,3-3.6,4.6c-2.4,3.2-4.6,6.6-6.8,9.9c-4.4,6.8-8.5,13.8-12.5,20.9
																		c-3.9,7.1-7.7,14.3-11.3,21.6c-1.8,3.6-3.4,7.3-5,11.1c-0.8,1.9-1.5,3.8-2.1,5.7c-0.3,1-0.6,1.9-0.8,2.9
																		c0,0,0,0.2-0.1,0.3c0,0.1-0.1,0.2-0.2,0.3c-0.1,0.2-0.2,0.3-0.4,0.5c-0.3,0.3-0.5,0.4-0.8,0.6
																		c-0.5,0.3-1,0.6-1.5,0.8c-4,1.6-8,2.4-12,3.2c-4,0.8-8.1,1.4-12.1,1.9c-8.1,1-16.2,1.7-24.4,2
																		c-8.1,0.3-16.3,0.4-24.4-0.4c-4.1-0.4-8.1-1-12.1-2c-2-0.5-3.9-1.2-5.7-2.1C-209.6-43.1-211.3-44.3-212.4-46.1
																		 M-212.3-46.1c1.1,1.7,2.9,2.9,4.7,3.8c1.8,0.9,3.8,1.5,5.7,2.1c3.9,1,8,1.6,12,1.9c8.1,0.7,16.3,0.6,24.4,0.1
																		c8.1-0.5,16.2-1.4,24.3-2.6c4-0.6,8-1.3,12-2.2c3.9-0.9,7.9-1.9,11.5-3.5c0.4-0.2,0.8-0.4,1.2-0.7
																		c0.4-0.3,0.6-0.5,0.5-0.6c0.2-1,0.5-2,0.8-3c0.6-2,1.2-3.9,1.9-5.9c1.4-3.9,3-7.6,4.5-11.4
																		c3.2-7.5,6.6-15,10.2-22.3c3.5-7.4,7.2-14.7,11.1-21.9c2-3.6,4-7.2,6.1-10.8c1.1-1.8,2.2-3.6,3.4-5.3
																		c0.6-0.9,1.2-1.8,2-2.7c0.7-0.9,1.5-1.8,2.5-2.7l0,0l3.9,7c-14.9,5.1-30,9.2-45.3,12.8
																		c-15.3,3.5-30.7,6.3-46.3,8.2c-15.6,1.9-31.3,2.9-47.1,2.5c-15.8-0.3-31.6-2.3-47.1-5.9l2.2-8.1h0
																		c6.9,4.1,13,7.9,17.6,13.5c4.7,5.5,8,12,10.6,18.4c2.6,6.5,4.4,13.2,6.2,19.9c0.9,3.3,1.7,6.7,2.7,10
																		C-215.2-52.4-214.1-49.1-212.3-46.1"/>
																</g>
															</g>
														</g>
													</g>
													<g id="g472">
														<g id="g474">
														</g>
														<g id="g480">
														</g>
													</g>
													<g id="g488" transform="translate(347.25,316)">
														<path id="path490" fill="#333333" d="M-212.4-46.1c10.5,16.3,95.8,5.1,97.2-1.4c3.7-16.7,34.3-75.1,44.2-83.3
															c-17.7,6.1-109.1,35.4-183.6,17.7C-220.9-102.2-220.6-58.8-212.4-46.1"/>
													</g>
													<g>
														<g id="g494">
														</g>
														<g id="g492">
															<g id="g500">
																<defs>
																	<rect id="SVGID_25_" x="92.7" y="185.2" width="183.6" height="93.1"/>
																</defs>
																<clipPath id="SVGID_26_">
																	<use xlink:href="#SVGID_25_"  overflow="visible"/>
																</clipPath>
																<g id="g502" clip-path="url(#SVGID_26_)">
																	<g id="g504" transform="translate(451.25,378.25)">
																		<path id="path506" fill="#333333" d="M-175-193c-13.7,4.7-71.5,23.3-131.4,23.3c-17.6,0-35.3-1.6-52.2-5.6
																			c33.7,10.9,34,54.3,42.2,67c4,6.2,18.9,8.4,35.9,8.4c27.5,0,60.5-5.8,61.3-9.8C-215.4-126.4-184.8-184.9-175-193
																			 M-186.4-185.1c-13.3,20-32.6,58.8-36.4,73.3c-5,2.8-31.5,7.7-57.6,7.7c-20.8,0-30.4-3.4-32.5-6.6
																			c-2-3-3.6-8.8-5.4-15.4c-3.5-12.6-8.3-29.7-20.1-41.7c10.2,1.3,20.9,1.9,32.2,1.9
																			C-257.4-165.7-209.7-178-186.4-185.1"/>
																	</g>
																</g>
															</g>
														</g>
														<g id="g540" transform="translate(373.084,309.7188)">
															<path id="path542" fill="#565656" d="M-203.1-31.3c-17.6,0-29.2-2.5-33.6-7.3c-0.3-0.4-0.4-2.8,1.6-7.5
																c4.9-11.2,20.1-30.6,46.2-32.2c1.7-0.1,3.5-0.2,5.2-0.2c30.7,0,49.2,15.6,49.3,18.4c-0.3,0.8-0.9,2.1-1.5,3.6
																c-1.7,4-4.1,9.9-6.4,16.6C-145-37.4-175.6-31.3-203.1-31.3"/>
														</g>
														<g id="g544" transform="translate(387.3955,345.3672)">
															<path id="path546" fill="#787878" d="M-198-115.4c-1.7,0-3.5,0.1-5.3,0.2c-36,2.2-52.5,37.8-48.7,41.9
																c5.3,5.7,19,7.7,34.6,7.7c27.7,0,61.1-6.4,62.1-9.3c3.1-9.2,6.6-16.9,7.9-20.4C-146-98.9-166.9-115.4-198-115.4
																 M-198-112.7c27.4,0,45.8,13.2,47.8,17c-0.3,0.9-0.8,1.9-1.3,3.1c-1.6,3.9-4.1,9.7-6.3,16.2
																c-4.3,2.5-33.1,8.1-59.7,8.1c-16.7,0-28.2-2.4-32.4-6.7c-0.2-1.4,1.2-7.1,6.3-14.4c4.6-6.5,17.7-21.8,40.4-23.2
																C-201.4-112.7-199.7-112.7-198-112.7L-198-112.7"/>
														</g>
														<g>
															<g id="g550">
															</g>
															<g id="g548">
																<g id="g556">
																	<defs>
																		<rect id="SVGID_27_" x="135.9" y="229.2" width="102.9" height="42.3"/>
																	</defs>
																	<clipPath id="SVGID_28_">
																		<use xlink:href="#SVGID_27_"  overflow="visible"/>
																	</clipPath>
																	<g id="g558" clip-path="url(#SVGID_28_)">
																		<g id="g560" transform="translate(348.084,315.917)">
																			<path id="path562" fill="#565656" d="M-212.1-45.9c-2.4,11.1,65.4-43.2,101.9-17.1c7.5-10-32.9-27.1-56.4-23.1
																				C-186.6-82.8-207-70.1-212.1-45.9"/>
																		</g>
																	</g>
																</g>
															</g>
															<g id="g564" transform="translate(358.25,358.75)">
																<path id="path566" fill="#F9FCF5" d="M-208.5-147c3.4,6.1,9.9,36,12.6,36.7c2.7,0.7,19.4,5.4,21.8,4.4
																	c2.4-1,2.2-6.8,4.8-5.1c2,1.4,3.1,4.1,5.1,3.1c3.7-1.8,14.6-8.5,16.3-11.6s1.4-20.1,0-33.7
																	C-155.1-150.1-196.2-145.7-208.5-147"/>
															</g>
															<g>
																<g id="g570">
																</g>
																<g id="g568">
																	<g id="g576">
																		<defs>
																			<rect id="SVGID_29_" x="149.8" y="205.6" width="61.7" height="47.4"/>
																		</defs>
																		<clipPath id="SVGID_30_">
																			<use xlink:href="#SVGID_29_"  overflow="visible"/>
																		</clipPath>
																		<g id="g578" clip-path="url(#SVGID_30_)">
																			<g id="g580" transform="translate(402.75,363.25)">
																				<path id="path582" fill="#787878" stroke="#787878" d="M-192.4-157.6c-6.2,2.7-38.3,6.4-54.5,6.4
																					c-2.4,0-4.4-0.1-6-0.3c3.4,6.1,9.9,36,12.6,36.7c2.5,0.6,16.3,4.6,20.7,4.6c0.5,0,0.8,0,1.1-0.1
																					c2.1-0.9,2.2-5.4,3.9-5.4c0.2,0,0.5,0.1,0.8,0.3c1.7,1.2,2.7,3.3,4.2,3.3c0.3,0,0.6-0.1,0.9-0.2
																					c3.7-1.8,14.6-8.5,16.3-11.6S-191.1-144-192.4-157.6 M-193.6-155.8c1.3,14,1.3,28.8,0,31.2
																					c-1.4,2.5-11.3,8.8-15.7,11c-0.1,0-0.2,0.1-0.3,0.1c-0.3,0-0.9-0.7-1.4-1.2c-0.6-0.6-1.2-1.3-2-1.8
																					c-0.5-0.4-1.1-0.5-1.6-0.5c-1.8,0-2.5,1.8-3.1,3.2c-0.4,0.9-0.9,2.1-1.4,2.3c0,0-0.1,0-0.5,0
																					c-3.5,0-13.9-2.8-18.3-4c-0.8-0.2-1.4-0.4-1.9-0.5c-1.3-1.4-4-11-6-18.1c-1.8-6.3-3.5-12.3-4.9-15.9
																					c1.1,0.1,2.4,0.1,3.8,0.1C-231.4-149.9-202.7-153.1-193.6-155.8"/>
																			</g>
																		</g>
																	</g>
																</g>
																<g>
																	<g id="g602">
																	</g>
																	<g id="g600">
																		<g id="g608">
																			<defs>
																				<rect id="SVGID_31_" x="178.7" y="217.7" width="11.2" height="30.2"/>
																			</defs>
																			<clipPath id="SVGID_32_">
																				<use xlink:href="#SVGID_31_"  overflow="visible"/>
																			</clipPath>
																			<g id="g610" clip-path="url(#SVGID_32_)">
																				<g id="g612" transform="translate(380.458,354.3682)">
																					<path id="path614" fill="#787878" d="M-200.5-136.7c1.1,2.4,2,4.8,2.9,7.2c0.9,2.4,1.7,4.9,2.5,7.3l2.3,7.4
																						l2.2,7.3l-3.5,1l-1.7-7.5l-1.8-7.5c-0.6-2.5-1.2-5-1.9-7.4c-0.7-2.5-1.4-4.9-2.3-7.3L-200.5-136.7z"/>
																				</g>
																			</g>
																		</g>
																	</g>
																	<g>
																		<g id="g618">
																		</g>
																		<g id="g616">
																			<g id="g624">
																				<defs>
																					<rect id="SVGID_33_" x="4.7" y="28.6" width="80.8" height="73.2"/>
																				</defs>
																				<clipPath id="SVGID_34_">
																					<use xlink:href="#SVGID_33_"  overflow="visible"/>
																				</clipPath>
																				<g id="g626" opacity="0.4" clip-path="url(#SVGID_34_)">
																					<g id="g628" transform="translate(253.584,481.9165)">
																						<path id="path630" fill="#565656" d="M-246.1-437.7c27.1,6.9,22.7,53.7,38.8,57.3
																							c16.1,3.6,37.3-38.5,39.3-47.8c-31.2-13.3-45.6-28.9-67.9-24.4C-243.4-451-253.8-439.6-246.1-437.7"/>
																					</g>
																				</g>
																			</g>
																		</g>
																		<g id="g648" transform="translate(378.75,431.75)">
																			<path id="path650" fill="#333333" d="M-201.1-319.3c2.4,0,12.1-0.7,14.3,1c12.3,9.7,11.8,49.1,24.8,61.5
																				c11.5,11,74.1,19,85,6.5s26.9-50.7,30.6-53.4c3.7-2.7,11.9-4.8,14.3-8.5c2.4-3.7,0.3-20.4-5.4-19.7
																				s-16.7,4.4-23.5,2.4c-6.8-2-39.8-22.8-122.7-10.2c-7.9,1.2-16,0-21.4-1.4c-5.4-1.4-36.7-19.4-120-7.5
																				c-8.3,1.2-19.7-2.4-23.8-2c-4.1,0.3-5.4,13.3-3.7,16.7s10.2,6.1,11.2,10.2c1,4.1,8.5,44.2,28.2,60.9
																				c20.8,17.6,74.2,5.4,78.9,2C-213-276.1-208.2-319.3-201.1-319.3"/>
																		</g>
																		<g>
																			<g id="g654">
																			</g>
																			<g id="g652">
																				<g id="g660">
																					<defs>
																						<polygon id="SVGID_35_" points="25.3,79.2 347.6,79.2 347.6,187.9 25.3,187.9 25.3,79.2 
																																													"/>
																					</defs>
																					<clipPath id="SVGID_36_">
																						<use xlink:href="#SVGID_35_"  overflow="visible"/>
																					</clipPath>
																					<g id="g662" clip-path="url(#SVGID_36_)">
																						<g id="g664" transform="translate(326.0381,456.2231)">
																							<path id="path666" fill="#1A1A1A" d="M-220.1-377.1c-14.6,0-31.9,1.1-52.4,4c-1.2,0.2-2.5,0.2-3.8,0.2
																								c-7.3,0-15.6-2.3-19.4-2.3c-0.2,0-0.4,0-0.6,0c-4.1,0.3-5.4,13.3-3.7,16.7c1.7,3.4,10.2,6.1,11.2,10.2
																								c1,4.1,8.5,44.2,28.2,60.9c8.3,7,21.7,9.3,35.2,9.3c20.4,0,40.8-5.2,43.7-7.2c21.4-15.3,26.2-58.5,33.3-58.5
																								c1.1,0,3.6-0.1,6.3-0.1c3.3,0,6.8,0.2,8,1.2c12.3,9.7,11.8,49.1,24.8,61.5c7.3,7,35.6,12.8,57.9,12.8
																								c12.6,0,23.2-1.9,27.1-6.4c10.9-12.6,26.9-50.7,30.6-53.4s11.9-4.8,14.3-8.5c2.3-3.7,0.4-19.7-5.1-19.7
																								c-0.1,0-0.2,0-0.3,0c-4.6,0.5-12.3,3-18.7,3c-1.7,0-3.3-0.2-4.7-0.6c-5.2-1.6-26-14.2-73.1-14.2
																								c-14.1,0-30.5,1.1-49.6,4c-2.3,0.3-4.6,0.5-6.8,0.5c-5.5,0-10.7-0.9-14.6-1.9
																								C-156.6-366.6-175.3-377.1-220.1-377.1 M-220.1-373c37.1,0,56,7.4,63.2,10.2c1.6,0.6,2.6,1,3.5,1.2
																								c3.6,0.9,9.2,2,15.6,2c2.6,0,5.1-0.2,7.4-0.5c17.4-2.6,33.9-4,49-4c39,0,59.3,8.7,67.9,12.5
																								c1.7,0.7,3,1.3,4,1.6c1.7,0.5,3.7,0.8,5.9,0.8c4.5,0,9.3-1,13.6-1.9c1.9-0.4,3.7-0.8,5.1-1
																								c1.9,2,3,11.1,2,13.5c-0.9,1.3-4.3,2.8-6.8,4c-2.4,1.1-4.6,2.1-6.4,3.4c-2.2,1.6-4.5,6-11.1,19.1
																								c-6.3,12.5-14.2,28-20.2,34.9c-2.1,2.4-9.5,5-24,5c-21.6,0-48.9-5.8-55.1-11.7c-5.6-5.4-8.6-17.8-11.5-29.8
																								c-3.2-13.5-6.3-26.2-13.6-32c-1.9-1.5-4.8-2-10.6-2c-1.7,0-3.3,0.1-4.5,0.1c-0.7,0-1.3,0-1.7,0
																								c-5.7,0-8.1,6.7-12.5,18.9c-4.8,13.4-11.4,31.8-23.1,40.3c-2.7,1.6-22,6.5-41.3,6.5
																								c-14.9,0-26.1-2.9-32.6-8.3c-7.8-6.6-18.7-21.8-26.5-57c-0.2-0.8-0.3-1.4-0.4-1.7c-0.9-3.8-4.6-6.2-7.8-8.3
																								c-1.2-0.8-3.3-2.1-3.7-2.8c-0.7-1.9-0.1-8.6,1.2-10.8c1.3,0.1,3.4,0.4,5.6,0.8c3.9,0.7,8.8,1.5,13.3,1.5
																								c1.5,0,3-0.1,4.3-0.3C-253.3-371.6-235.9-373-220.1-373"/>
																						</g>
																					</g>
																				</g>
																			</g>
																			<g>
																				<g id="g670">
																				</g>
																				<g id="g668">
																					<g id="g676">
																						<defs>
																							<rect id="SVGID_37_" x="56.6" y="94.1" width="103.4" height="70"/>
																						</defs>
																						<clipPath id="SVGID_38_">
																							<use xlink:href="#SVGID_37_"  overflow="visible"/>
																						</clipPath>
																						<g id="g678" opacity="0.5" clip-path="url(#SVGID_38_)">
																							<g id="g680" transform="translate(292.5,434.75)">
																								<path id="path682" fill="none" stroke="#333333" stroke-width="4" stroke-miterlimit="10" d="M-232.1-326.4
																									c-1.9,2.4-3.1,38.8,12.2,48.6c10,6.5,52.7,5.1,61.2,0.3c13.4-7.5,26.5-42,22.8-46.9
																									c-6.1-8.2-50.3-19-83.6-10.5C-223.5-333.9-229.8-329.4-232.1-326.4z"/>
																							</g>
																						</g>
																					</g>
																				</g>
																				<g id="g684" transform="translate(292.5,434.75)">
																					<path id="path686" fill="#F9FCF5" d="M-232.1-326.4c-1.9,2.4-3.1,38.8,12.2,48.6c10,6.5,52.7,5.1,61.2,0.3
																						c13.4-7.5,26.5-42,22.8-46.9c-6.1-8.2-50.3-19-83.6-10.5C-223.5-333.9-229.8-329.4-232.1-326.4"/>
																				</g>
																				<g>
																					<g id="g690">
																					</g>
																					<g id="g688">
																						<g id="g696">
																							<defs>
																								<rect id="SVGID_39_" x="211.2" y="103.7" width="102.6" height="71.7"/>
																							</defs>
																							<clipPath id="SVGID_40_">
																								<use xlink:href="#SVGID_39_"  overflow="visible"/>
																							</clipPath>
																							<g id="g698" opacity="0.5" clip-path="url(#SVGID_40_)">
																								<g id="g700" transform="translate(476.5938,423.063)">
																									<path id="path702" fill="none" stroke="#333333" stroke-width="4" stroke-miterlimit="10" d="
																										M-165.9-298.8c1.6,2.7-2,38.8-18.4,46.6c-10.8,5.1-52.9-1.8-60.7-7.6c-12.3-9.2-20.8-45.1-16.5-49.5
																										c7.1-7.3,52.4-12.4,84.3,0.4C-173.4-307.3-167.8-302.1-165.9-298.8z"/>
																								</g>
																							</g>
																						</g>
																					</g>
																					<g id="g704" transform="translate(476.5938,423.063)">
																						<path id="path706" fill="#F9FCF5" d="M-165.9-298.8c1.6,2.7-2,38.8-18.4,46.6c-10.8,5.1-52.9-1.8-60.7-7.6
																							c-12.3-9.2-20.8-45.1-16.5-49.5c7.1-7.3,52.4-12.4,84.3,0.4C-173.4-307.3-167.8-302.1-165.9-298.8"/>
																					</g>
																					<g id="g708" transform="translate(328.1855,418.5469)">
																						<path id="path710" fill="#010101" d="M-219.3-288.1c-1.1,7.9-5.1,13.9-8.9,13.3c-3.8-0.5-6-7.4-4.9-15.3
																							c1.1-7.9,5.1-13.9,8.9-13.3C-220.3-302.9-218.2-296-219.3-288.1"/>
																					</g>
																					<g id="g712" transform="translate(448.209,411.8008)">
																						<path id="path714" fill="#010101" d="M-176.1-272.2c0.8,7.9-1.6,14.7-5.4,15.1c-3.8,0.4-7.6-5.7-8.4-13.6
																							c-0.8-7.9,1.6-14.7,5.4-15.1C-180.7-286.3-176.9-280.2-176.1-272.2"/>
																					</g>
																					<g id="g796">
																						<g id="g718">
																						</g>
																						<g id="g716">
																							<g id="g724">
																								<defs>
																									<rect id="SVGID_41_" x="25.3" y="90.3" width="320.1" height="94.2"/>
																								</defs>
																								<clipPath id="SVGID_42_">
																									<use xlink:href="#SVGID_41_"  overflow="visible"/>
																								</clipPath>
																								<g id="g726" opacity="0.3" clip-path="url(#SVGID_42_)">
																									<g id="g728" transform="translate(270.375,446.25)">
																										<path id="path730" fill="#333333" d="M-240.1-353.5c4.6,3.1,9,1.2,10,7.3c1,6.1,15.1,59.5,32.8,65.6
																											c28.9,10,65.3,0.2,70.2-2.9c4.9-3.1,28.1-54.9,32-57c3.9-2,16.2,0.2,18.9,1.4c8,3.4,22.6,59.5,26.7,62.4
																											c17.8,12.6,75,11.6,77.7,8.2s24.2-52.5,28-55.4c5.6-4.2,18.5-7.1,18.9-5.3c0.3,1.9-10.4,3.6-13.6,7.7
																											c-3.2,4.1-24.8,51-31.6,55.1c-6.8,4.1-56.9,10.8-82.1-7c-12.1-8.5-16.8-59.7-26.3-62.4
																											c-6.2-1.8-10.9-1.7-15.3-0.5c-6,3.9-14.3,47.3-32.1,58.3c-7.1,4.4-62.7,15.1-79.2-2.2
																											c-30.9-32.3-21.6-61.2-31.6-65.5c-6.9-2.9-8.3-6.5-8.2-9C-244.9-357.3-242.6-355.2-240.1-353.5"/>
																									</g>
																								</g>
																							</g>
																						</g>
																						<g id="g876">
																							<g id="g734">
																							</g>
																							<g id="g740">
																								<g id="g742">
																									<g id="g744" transform="translate(270.75,454.25)">
																									</g>
																								</g>
																							</g>
																							<g id="g892">
																								<g id="g750">
																								</g>
																								<g id="g756">
																									<g id="g758">
																									</g>
																								</g>
																								<g id="g772">
																									<g id="g766">
																									</g>
																									<g id="g774">
																										<rect x="308.8" y="99.3" fill="none" width="25.2" height="7.9"/>
																									</g>
																								</g>
																								<g id="g788">
																									<g id="g782">
																									</g>
																									<g id="g790">
																										<polygon fill="none" points="52.3,92.7 111.6,92.7 111.6,151.3 52.3,151.3 52.3,92.7 
																																																					"/>
																									</g>
																								</g>
																								<g id="g804">
																									<g id="g798">
																									</g>
																									<g id="g806">
																										<rect x="262.9" y="103" fill="none" width="57" height="62.6"/>
																									</g>
																								</g>
																								<g id="g884">
																									<g id="g878">
																									</g>
																									<g id="g886">
																										<rect x="103.7" y="118.2" fill="none" width="4.1" height="4.1"/>
																									</g>
																								</g>
																								<g id="g900">
																									<g id="g894">
																									</g>
																									<g id="g902">
																										<rect x="265.6" y="127.8" fill="none" width="4.1" height="4.1"/>
																									</g>
																								</g>
																								<g id="g940" transform="translate(489.875,433.1875)">
																									<path id="path942" fill="#D0DDDC" d="M-161.1-322.7c0,0.6-3.2,1.1-7.1,1.1s-7.1-0.5-7.1-1.1
																										c0-0.6,3.2-1.1,7.1-1.1S-161.1-323.3-161.1-322.7"/>
																								</g>
																								<g id="g944" transform="translate(286.8008,446.3066)">
																									<path id="path946" fill="#D0DDDC" d="M-234.2-353.7c-0.1,0.6-3.3,0.6-7.2-0.1c-3.9-0.7-7-1.7-6.9-2.3
																										c0.1-0.6,3.3-0.6,7.2,0.1C-237.1-355.3-234.1-354.3-234.2-353.7"/>
																								</g>
																							</g>
																						</g>
																					</g>
																				</g>
																			</g>
																		</g>
																	</g>
																</g>
															</g>
														</g>
													</g>
												</g>
											</g>
										</g>
									</g>
								</g>
							</g>
						</g>
					</g>
				</g>
			</g>
		</g>
	</g>
</g>
</svg>
