<?xml version="1.0" encoding="utf-8"?>
<!-- Generator: Adobe Illustrator 18.0.0, SVG Export Plug-In . SVG Version: 6.00 Build 0)  -->
<!DOCTYPE svg PUBLIC "-//W3C//DTD SVG 1.1//EN" "http://www.w3.org/Graphics/SVG/1.1/DTD/svg11.dtd">
<svg version="1.1" id="Layer_1" xmlns="http://www.w3.org/2000/svg" xmlns:xlink="http://www.w3.org/1999/xlink" x="0px" y="0px"
	 viewBox="0 105.7 612 581.2" enable-background="new 0 105.7 612 581.2" xml:space="preserve">
<g>
	<g id="g156" transform="translate(468.3311,284.624)">
		<path id="path158" fill="#565656" stroke="#565656" d="M-11.8,296.8c-2.9-3.7-5.9-7.2-9.3-10.5c-0.8-0.8-1.5-1.5-2.3-2.3
			c-0.2,0-0.3-0.2-0.6-0.2c-1.4-0.5-3.7-0.9-5.8-1.2c-9-1.4-18.9-1.7-28.5-1.8c-19.5-0.3-39.3,0.5-59,1.4c-39.5,2-79,5.2-118.1,9.5
			c-19.7,2.1-39.2,4.6-58.7,7.6c-9.8,1.5-19.4,3.2-28.8,5.2c-4.7,1.1-9.3,2.1-13.7,3.5c-2.1,0.6-4.3,1.4-6.2,2.1
			c-0.9,0.3-1.8,0.8-2.4,1.1c-0.2,0.2-0.3,0.2-0.3,0.2c-2.3,3.2-4.4,6.2-6.4,9.6c-2.1,3.5-4,7.2-5.6,10.8
			c-3.5,7.5-6.6,15.2-9.5,23.2c-2.9,7.9-5.8,16-9,23.9c-1.5,4-3.2,7.9-4.9,12c-0.8,1.8-1.5,3.8-2.4,5.6h26.7
			c14.3-32,41.5-68.9,64.2-78.2c6.2-2.6,106.9-15.1,173.3-15.1c24.7,0,41.8,1.8,50.8,5.3c27.3,10.5,81.4,60.7,87,88H34
			c-3.2-17.1-9.3-34.1-16.6-50.3C9.4,328.7-0.2,311.8-11.8,296.8"/>
	</g>
	<g id="g160" transform="translate(462.6572,290.8379)">
		<path id="path162" fill="#565656" d="M-17.9,277.8L-17.9,277.8L-17.9,277.8L-17.9,277.8L-17.9,277.8L-17.9,277.8z"/>
	</g>
	<g id="g168" transform="translate(439.96,276.1006)">
		<path id="path170" fill="#565656" stroke="#565656" d="M-42.2,323c-8.4-3.2-24.7-4.9-48.5-4.9c-66.9,0-165.5,12.7-171,14.6
			c-20.3,8.2-45.6,42.5-59.4,72.3h362C35.1,381.8-15.4,333.5-42.2,323"/>
	</g>
	<g id="g172" transform="translate(441.04,278.915)">
		<path id="path174" fill="#565656" stroke="#565656" stroke-width="10" d="M-41.2,314.2c-9-3.3-26.1-5.1-50.8-5.1
			c-66.5,0-167.1,11.9-173.3,14.4c-22.7,8.9-49.7,44.1-64.2,74.6h7c14-28.4,39.2-61.1,59.4-68.9c5.3-1.9,104.1-14,171-14
			c23.9,0,40.2,1.6,48.5,4.7c27,9.9,77.3,56,82.9,78.4h6.2C40.4,372.1-13.9,324.2-41.2,314.2"/>
	</g>
	<g id="g176" transform="translate(500.667,277.667)">
		<path id="path178" fill="#565656" d="M22.9,318.2c-3.8,7.6-23.5,27.9-40.1,23.2c-8.7-2.4-7.2,43.6,13,62.2h36.4
			c10.1-15.9,25.6-64.8,27.4-69.8C61.6,327.9,26.7,310.7,22.9,318.2"/>
	</g>
	<g id="g180" transform="translate(519.248,272.0898)">
		<path id="path182" fill="#565656" d="M42.8,335.4c-0.5-10.1-6.7-17.1-17.2-19.5c-8.4-1.8-19.8-0.3-22.6,5
			c-5.6,10.5-12.5,23.6-46.6,25.2c-2.3,0.2-4.1,2-4,4.3c0.2,2.3,2,4,4.3,4c35.7-1.5,46-15.2,53.5-29.3c1.7-1.2,9.9-2.9,16.8,0
			c4.9,2,7.3,5.5,7.5,10.8c0.9,19.5-19.4,55.3-30.5,73.5h9.8C26.4,388.3,43.7,355.4,42.8,335.4"/>
	</g>
	<g>
		<g id="g186">
		</g>
		<g id="g184">
			<g id="g192">
				<g>
					<g>
						<defs>
							<rect id="SVGID_1_" x="489.4" y="601.7" width="73.3" height="85.2"/>
						</defs>
						<clipPath id="SVGID_2_">
							<use xlink:href="#SVGID_1_"  overflow="visible"/>
						</clipPath>
						<g id="g194" opacity="0.15" clip-path="url(#SVGID_2_)">
							<g id="g196" transform="translate(485.335,236)">
								<path id="path198" fill="#787878" d="M6.5,446.3c22.1-5.2,41.8-27.3,43.6-59.1c0.3-5.9-11.7-17.2-11.7-20.4s37.3,0.8,39,9.3
									c1.7,8.7-23.2,61.4-31.4,70.1S-6.5,449.4,6.5,446.3"/>
							</g>
						</g>
					</g>
				</g>
			</g>
		</g>
		<g id="g200" transform="translate(493.834,288)">
			<path id="path202" fill="#565656" d="M15.5,286.6c-2.7,19.4,35.1,46,60.5,45.3c21.5-0.8,45.3-10.7,41.8-22.4
				c-3.5-12-24.2,2.1-25.9-6.2c-1.7-8.2,24.2-23.5,13.9-34.6c-9.6-10.2-20.7,16.3-32.2,12.5c-11.3-3.8,2.1-29.6-11.7-31.1
				c-16.6-1.7-10.4,35.2-22.9,36C30.1,286.3,16.4,280.2,15.5,286.6"/>
		</g>
		<g>
			<g id="g210">
			</g>
			<g id="g208">
				<g id="g216">
					<g>
						<g>
							<defs>
								<rect id="SVGID_3_" x="519.9" y="558.9" width="24.4" height="20"/>
							</defs>
							<clipPath id="SVGID_4_">
								<use xlink:href="#SVGID_3_"  overflow="visible"/>
							</clipPath>
							<g id="g218" opacity="0.5" clip-path="url(#SVGID_4_)">
								<g id="g220" transform="translate(498.9385,288.042)">
									<path id="path222" fill="#565656" d="M21.1,286.4c4.1,3,18.6,7.2,21,1.8c2.4-5.3,4.4-15.9,2.7-17.4
										c-1.1,4.9-2.7,14.3-8.2,16.3C32.5,288.7,23.9,286.9,21.1,286.4"/>
								</g>
							</g>
						</g>
					</g>
				</g>
			</g>
			<g>
				<g id="g226">
				</g>
				<g id="g224">
					<g id="g232">
						<g>
							<g>
								<defs>
									<rect id="SVGID_5_" x="559.4" y="553.7" width="23.9" height="22.3"/>
								</defs>
								<clipPath id="SVGID_6_">
									<use xlink:href="#SVGID_5_"  overflow="visible"/>
								</clipPath>
								<g id="g234" opacity="0.5" clip-path="url(#SVGID_6_)">
									<g id="g236" transform="translate(518.459,298.042)">
										<path id="path238" fill="#565656" d="M42,255.7c-0.8,3.4-3.4,19.7,4.9,21.8c7.3,2,12.5-2.4,18.1-11.6
											c-3,2.9-10.8,9.6-17.1,7C42.3,270.5,41.5,263.9,42,255.7"/>
									</g>
								</g>
							</g>
						</g>
					</g>
				</g>
				<g>
					<g id="g242">
					</g>
					<g id="g240">
						<g id="g248">
							<g>
								<g>
									<defs>
										<rect id="SVGID_7_" x="524" y="590.7" width="49.2" height="27"/>
									</defs>
									<clipPath id="SVGID_8_">
										<use xlink:href="#SVGID_7_"  overflow="visible"/>
									</clipPath>
									<g id="g250" opacity="0.25" clip-path="url(#SVGID_8_)">
										<g id="g252" transform="translate(500.876,276.958)">
											<path id="path254" fill="#565656" d="M23.1,320.4c42.5-20.7,51.1,13.1,49.1,20C55.6,343.3,25.7,325.9,23.1,320.4"/>
										</g>
									</g>
								</g>
							</g>
						</g>
					</g>
					<g>
						<g id="g258">
						</g>
						<g id="g256">
							<g id="g264">
								<g>
									<g>
										<defs>
											<rect id="SVGID_9_" x="581.8" y="584" width="17.8" height="15.7"/>
										</defs>
										<clipPath id="SVGID_10_">
											<use xlink:href="#SVGID_9_"  overflow="visible"/>
										</clipPath>
										<g id="g266" opacity="0.5" clip-path="url(#SVGID_10_)">
											<g id="g268" transform="translate(530.751,283.3955)">
												<path id="path270" fill="#565656" d="M55.1,300.6c-7.3,8.2-3.7,14.6,0.9,15.5c6.1,1.1,13.6-4.9,12.7-4.9
													c-1.7-0.2-13.1,4-15.4-1.8C51.8,305,54.3,302.6,55.1,300.6"/>
											</g>
										</g>
									</g>
								</g>
							</g>
						</g>
						<g id="g288" transform="translate(440.25,484.25)">
							<path id="path290" fill="none" d="M-41.9-316.6c61.1-5.6,96.9-69.1,134.3-59.3C67.6-360.3,42.7-329.1,8-277.7
								C-0.4-265.7-58.6-315.1-41.9-316.6"/>
						</g>
						<g id="g292" transform="translate(440.25,484.25)">
							
								<path id="path294" fill="none" stroke="#565656" stroke-width="3" stroke-linecap="round" stroke-linejoin="round" stroke-miterlimit="10" d="
								M-41.9-316.6c61.1-5.6,96.9-69.1,134.3-59.3C67.6-360.3,42.7-329.1,8-277.7C-0.4-265.7-58.6-315.1-41.9-316.6z"/>
						</g>
						<g id="g296" transform="translate(255.75,491.0005)">
							<path id="path298" fill="#565656" d="M-240-337.3c27.6-25.6,77-15.5,117.1-1.1c22.9,8.2,52.3,1.5,54.4,6.2
								c4.9,11-24.5,33.4-48.9,32.9C-141.7-299.8-181.9-345.1-240-337.3"/>
						</g>
						<g id="g300" transform="translate(255.75,491.0005)">
							
								<path id="path302" fill="none" stroke="#565656" stroke-width="2" stroke-linecap="round" stroke-linejoin="round" stroke-miterlimit="10" d="
								M-240-337.3c27.6-25.6,77-15.5,117.1-1.1c22.9,8.2,52.3,1.5,54.4,6.2c4.9,11-24.5,33.4-48.9,32.9
								C-141.7-299.8-181.9-345.1-240-337.3z"/>
						</g>
						<g id="g304" transform="translate(460.5,469.75)">
							<path id="path306" fill="#565656" d="M-20.3-272.1c14,4.1,67.4-100.6,93.3-90.2c82.5,32.9-24.8,159.1-59.1,161.7
								C-20.3-198-28.2-274.3-20.3-272.1"/>
						</g>
						<g id="g308" transform="translate(460.5,469.75)">
							<path id="path310" fill="none" stroke="#565656" stroke-width="2" stroke-miterlimit="10" d="M-20.3-272.1
								c14,4.1,67.4-100.6,93.3-90.2c82.5,32.9-24.8,159.1-59.1,161.7C-20.3-198-28.2-274.3-20.3-272.1z"/>
						</g>
						<g id="g312" transform="translate(316.75,475.75)">
							<path id="path314" fill="#565656" d="M-174.5-290.4c-22.9,9.9-103.7-74.7-137.8-20.3c-22.6,35.8,45.6,108.4,94.4,116.2
								C-169.3-186.8-162.4-295.6-174.5-290.4"/>
						</g>
						<g>
							<g id="g322">
							</g>
							<g id="g320">
								<g id="g328">
									<g>
										<g>
											<defs>
												<rect id="SVGID_11_" x="449.1" y="127.8" width="56.2" height="139.2"/>
											</defs>
											<clipPath id="SVGID_12_">
												<use xlink:href="#SVGID_11_"  overflow="visible"/>
											</clipPath>
											<g id="g330" clip-path="url(#SVGID_12_)">
												<g id="g332" transform="translate(491.167,503.5005)">
													<path id="path334" fill="#565656" d="M12.7-375.7c-4.4,14.3-41.3,51.5-36.1,83.4c1.8,11.7,14.5,46.8,19.8,45.4
														c5.3-1.4,18.9-9.6,17.7-7.8s-18.6,14.8-25.5,18.1c-6.4-3.5-34.4-68-30.3-71.5C-29.8-318.7,7.5-375.1,12.7-375.7"/>
												</g>
											</g>
										</g>
									</g>
								</g>
							</g>
							<g>
								<g id="g338">
								</g>
								<g id="g336">
									<g id="g344">
										<g>
											<g>
												<defs>
													<rect id="SVGID_13_" x="5.6" y="148.7" width="138.1" height="98.8"/>
												</defs>
												<clipPath id="SVGID_14_">
													<use xlink:href="#SVGID_13_"  overflow="visible"/>
												</clipPath>
												<g id="g346" clip-path="url(#SVGID_14_)">
													<g id="g348" transform="translate(250.833,484.5005)">
														<path id="path350" fill="#565656" d="M-245.1-317.4c24.8-15.2,70.4-8.8,96.9,17.1c9.5,9.3,12,40.5-9.1,62
															c-8.4,8.5,50.1-30,50.3-41.3c0.2-11.3-3.8-14.5-12.5-17.7c-32.2-11.9-65.8-39.2-95.1-38.6
															C-233.7-335.4-242.6-322.2-245.1-317.4"/>
													</g>
												</g>
											</g>
										</g>
									</g>
								</g>
								<g>
									<g id="g354">
									</g>
									<g id="g352">
										<g id="g360">
											<g>
												<g>
													<defs>
														<rect id="SVGID_15_" x="450.7" y="119.7" width="81.7" height="137.9"/>
													</defs>
													<clipPath id="SVGID_16_">
														<use xlink:href="#SVGID_15_"  overflow="visible"/>
													</clipPath>
													<g id="g362" opacity="0.25" clip-path="url(#SVGID_16_)">
														<g id="g364" transform="translate(496,507.375)">
															<path id="path366" fill="#565656" d="M17.8-387.7c56.7,31.4-34.8,78.8-28,137.8c-11.9-1.2-41.3-58.4-34-63.4
																C-34-320.3,8.4-390.3,17.8-387.7"/>
														</g>
													</g>
												</g>
											</g>
										</g>
									</g>
									<g id="g368" transform="translate(284.5205,414.8398)">
										<path id="path370" fill="#565656" d="M-209-103.3c0.9-4.1,1.4-8.4,1.8-12.7c0.3-4.3,0.6-8.7,1.4-13
											c0.3-2.1,0.9-4.3,1.8-6.1c0.8-2,1.5-4,2.3-5.9c1.5-4,3.2-7.9,4.9-11.9c7-15.7,15.4-30.8,25.3-45
											c9.8-14,20.9-27.1,33.5-38.6c12.7-11.4,27.1-20.7,43-27.3c15.7-6.6,32.3-10.7,49.2-12.7c16.8-2.1,33.8-2.6,50.6-2.3
											c16.9,0.2,33.8,1.1,50.6,3.4s33.7,5.9,49.8,11.9c8.1,3,16,6.6,23.6,11s14.6,9.8,21.2,15.9c6.4,6.1,12,13.1,16.8,20.6
											c4.7,7.6,8.4,15.7,11.1,23.9c2.9,8.2,5,16.6,6.9,25c1.8,8.2,3.2,16.6,5.2,24.4c0.9,4,2,7.6,3.5,11.3c1.5,4,3,7.8,4.6,11.7
											c2.9,7.9,5.8,15.7,8.7,23.8c11,31.9,20.6,64.3,26.5,97.4c2.9,16.6,5,33.4,5.3,50.3c0.3,16.8-1.2,33.8-6.1,49.8
											c-1.2,4-2.6,7.9-4.1,11.9s-3.7,7.5-5,11.6c-0.8,2-1.4,4.1-2.3,5.9c-0.9,2-2.1,3.7-3.4,5.5c-2.3,3.5-4.9,7-7.6,10.4
											c-11,13.1-25.2,23.8-40.1,32c-15.2,7.9-31.2,14-47.6,18.7c-16.3,4.7-32.9,8.4-49.5,11.4s-33.4,5.3-50.1,7.5
											c-8.4,1.1-16.8,1.8-25.2,2.7l-12.7,1.2c-4.1,0.3-8.4,0.8-12.8,0.9c-34.4,1.8-68.7-3-101.7-12.2
											c-16.5-4.6-32.6-10.4-48.2-17.1c-15.7-6.9-30.9-14.6-45.4-24.2c-7.2-4.7-14.2-9.9-20.9-16c-1.7-1.5-3.4-3.2-4.9-4.7
											c-1.5-1.7-2.9-3.2-4.4-4.9c-2.9-3.4-5.5-6.9-8.1-10.4c-10.2-14.3-17.8-31.1-20.6-48.9c-2.7-17.8-0.3-36,4.7-52.6
											c5.2-16.8,12.7-32.3,21-47.1c8.4-14.8,17.5-29,26.2-43.1c4.3-7.2,8.5-14.2,12.2-21.5C-213.9-88.7-210.7-95.8-209-103.3
											L-209-103.3z M-196.7-100.4c-2.1,8.8-5.8,17.1-9.8,24.7c-4,7.6-8.4,14.9-12.8,22.1c-8.8,14.3-17.8,28.4-25.8,42.8
											C-253,3.7-260,18.5-264.5,33.9c-4.4,15.4-6.1,31.4-3.7,46.8s9,30,18.4,42.8c2.3,3.2,4.9,6.4,7.5,9.3c1.4,1.5,2.7,3,4,4.4
											c1.4,1.4,2.6,2.7,4.1,4.1c5.8,5.3,12.2,10.1,19.1,14.5c13.6,8.8,28.2,16.5,43.3,23c15.1,6.6,30.6,12,46.5,16.5
											s32,7.8,48.2,9.8c16.3,2,32.6,2.9,48.9,2.1c4.1-0.2,8.1-0.6,12.3-0.9l12.5-1.1c8.2-0.8,16.6-1.5,24.8-2.4
											c16.6-1.7,33.1-3.8,49.4-6.6s32.6-5.9,48.5-10.2s31.6-9.3,46.5-16c14.8-6.7,29-15.2,40.7-26.8c2.9-2.9,5.6-5.9,8.2-9.1
											c1.4-1.5,2.4-3.4,3.8-4.9c1.2-1.7,2.7-3.2,4.1-4.9c2.7-3.4,4.1-7.3,5.8-11.1c1.5-3.8,2.9-7.9,4-11.9
											c4.1-16.2,5.2-33.1,4-49.7c-1.1-16.6-4.1-33.1-7.9-49.2C220.7-30,209.2-61.4,197-92.5c-3-7.8-6.1-15.5-9.3-23.2l-4.9-11.6
											c-1.7-4.1-3-8.5-4.3-12.7c-2.1-8.4-3.8-16.6-5.5-24.7c-1.7-8.1-3.7-16-6.4-23.5c-5.2-15.1-13.3-29-24.5-40.1
											c-11.3-11.1-25.3-19.5-40.2-25.6c-15.1-6.1-31.1-10.2-47.4-13c-16.3-2.7-32.9-4.4-49.5-5.2c-16.6-0.8-33.2-0.9-49.8,0.9
											c-16.5,1.8-32.8,5.3-48,11.7c-15.2,6.4-29.3,15.4-41.3,26.5c-12,11.3-21.8,24.8-29.3,39.5s-12.8,30.2-17.4,45.9
											c-1.1,4-2.3,7.9-3.2,11.9c-0.5,2-1.1,4-1.4,5.9c-0.2,1.1-0.3,2-0.6,3c-0.3,0.9-0.8,2-1.1,2.9c-1.5,3.8-3.5,7.5-5.2,11.3
											C-194.3-108.5-195.8-104.5-196.7-100.4L-196.7-100.4z"/>
									</g>
									<g id="g372" transform="translate(287.501,414.166)">
										<path id="path374" fill="none" d="M-205.8-101.2c-13.1,58.1-127.9,150-40.7,243.9c29.7,32,125.9,80.9,222.5,71.8
											c250.9-23.6,314.3-84.1,208.5-344C167.3-171.7,186.6-269.1,2-274.6C-75.3-277-168.5-266.3-205.8-101.2"/>
									</g>
									<g id="g380" transform="translate(306.6748,469.791)">
										<path id="path382" fill="#565656" d="M-185.2-272.2c4.7-7.3,10.2-13.4,16.2-18.9c5.9-5.5,12.2-10.4,18.7-14.6
											c13.1-8.7,27.3-15.5,41.9-20.9c29.3-10.4,60.5-14.5,91-13.7c30.2,0.8,61,4.7,90.2,15.2c14.6,5.3,28.7,12.3,41.5,21.5
											c12.8,9.1,24.1,20.4,33.2,33.2c9.1,12.8,16.2,27,21.2,41.5c5.2,14.6,8.4,29.6,10.8,44.4c1.2,7.5,2.3,14.8,3.4,22.1
											c1.1,7.3,2,14.5,3.5,21.3c0.8,3.4,1.7,6.6,2.9,9.1l0.2,0.5l0.3,0.5l0.6,1.2l1.4,2.4l2.7,5c3.5,6.7,6.9,13.6,9.9,20.4
											c5.9,13.9,11,28.4,14.3,43.1c3.4,14.8,5,30,4.9,45.3c-0.3,30.5-8.7,61-24.8,86.7l0,0c-1.2,2-3.7,2.6-5.6,1.5
											c-1.8-1.1-2.4-3.2-1.8-5v-0.2c4.4-11.1,9-21.9,12.7-32.9s6.2-22.3,6.2-33.2c0.2-11-2.9-21.6-9.3-30
											c-0.5-0.5-0.8-1.1-1.2-1.5l-0.6-0.8l-0.8-0.8c-0.9-0.9-1.8-2-2.7-2.9c-2-1.8-4.1-3.7-6.4-5.3c-4.4-3.5-9.3-6.7-14.2-9.8
											c-19.7-12.3-40.7-22.9-61.9-33.2s-42.7-20.3-64-30c-43-19.7-86.1-39.3-128.6-60.7c-21.2-10.8-42.4-21.9-62.8-35.1
											c-10.2-6.6-20.3-13.6-29.7-22.4c-4.7-4.6-9.3-9.3-13.1-16.2c-1.8-3.5-3.5-7.5-3.8-12.5c-0.2-2.4,0-5,0.6-7.6
											c0.3-1.2,0.8-2.4,1.2-3.7c0.5-1.1,1.4-2.7,1.7-3L-185.2-272.2z M-167.9-261.5c-0.6,0.9-0.3,0.5-0.5,0.8
											c-0.2,0.2-0.2,0.3-0.2,0.6c-0.2,0.3-0.2,0.8-0.2,1.2c0,0.9,0.5,2.6,1.4,4.4c1.8,3.7,5.3,7.6,9,11.3
											c7.8,7.5,17.1,14.3,26.5,20.7c19.2,12.8,39.8,24.2,60.5,35.2c41.5,21.9,84.3,42.1,126.8,62.8
											c21.3,10.4,42.5,20.7,63.7,31.7c21,11,42.1,22.1,62.3,35.4c5,3.4,10.1,6.9,14.8,10.8c2.4,2,4.7,4,7,6.2
											c1.1,1.1,2.3,2.3,3.4,3.7l0.8,0.9l0.8,1.1c0.6,0.6,1.1,1.4,1.5,2c3.8,5.3,6.7,11.4,8.4,17.7s2.3,12.8,2.1,19.1
											c-0.5,12.7-3.7,24.7-7.8,36c-4.1,11.4-9.1,22.3-13.7,33.1l-7.5-3.7l0,0c14.6-24.8,21.6-53.8,21.2-82.5
											c-0.5-28.8-8.2-57-20.3-83.2c-3-6.6-6.2-13-9.9-19.4l-5.6-9.9c-2.1-4.1-3.2-8.1-4.1-11.9c-2-7.6-3-15.1-4.3-22.4
											c-1.2-7.3-2.4-14.5-3.8-21.6c-2.7-14.3-6.2-28.2-11.1-41.5c-4.9-13.3-11.4-25.8-19.8-37c-8.2-11.1-18.4-20.9-29.9-28.7
											c-11.4-7.9-24.1-13.9-37.5-18.4c-26.7-9-55.6-12.2-84.4-12.5c-14.3-0.2-28.5,0.8-42.5,3c-14,2.1-27.7,5.6-41,10.4
											c-13.3,4.7-26.1,10.7-37.6,18.3c-5.8,3.8-11.3,7.9-16.3,12.5s-9.5,9.5-12.8,14.6L-167.9-261.5z"/>
									</g>
									<g id="g384" transform="translate(310,468)">
										<path id="path386" fill="#565656" d="M-181.7-266.6C-216-213.6-175-9.6,40.7-37c22.9-2.9,98.6-43.3,149.8,13.4
											c28,31.1-9.8,110.1,0,93.7c10.8-18.1,52.9-88.1-9.9-195.9c-20.1-34.6,13-201.2-203-203.2
											C-105.4-329.5-158.9-301.9-181.7-266.6"/>
									</g>
									<g>
										<g id="g406">
										</g>
										<g id="g404">
											<g id="g412">
												<g>
													<g>
														<defs>
															<rect id="SVGID_17_" x="255.5" y="360.3" width="40.7" height="17.2"/>
														</defs>
														<clipPath id="SVGID_18_">
															<use xlink:href="#SVGID_17_"  overflow="visible"/>
														</clipPath>
														<g id="g414" opacity="0.25" clip-path="url(#SVGID_18_)">
															<g id="g416" transform="translate(391,387.166)">
																<path id="path418" fill="#787878" d="M-94.8-18.3c0,4.7-9.1,8.7-20.4,8.7s-20.4-3.8-20.4-8.7
																	c0-4.7,9.1-8.7,20.4-8.7C-104-26.8-94.8-23-94.8-18.3"/>
															</g>
														</g>
													</g>
												</g>
											</g>
										</g>
										<g id="g420" transform="translate(373.75,399.5)">
											<path id="path422" fill="#787878" d="M-113.3-56.2c4.7-3,29.6-2.1,32.6,1.1c3,3,10.1,16.3,2.1,21.8
												c-2.7,1.8-2.9-5.9-9-4.7c-7.5,1.5-3.5,11.3-9.3,11.1c-9-0.3-0.3-10.5-8.2-11.9c-5.9-1.1-7.3,4.6-9.9,4.1
												C-124-36.2-119.9-51.7-113.3-56.2"/>
										</g>
										<g>
											<g id="g426">
											</g>
											<g id="g424">
												<g id="g432">
													<g>
														<g>
															<defs>
																<rect id="SVGID_19_" x="253.6" y="341.5" width="45.3" height="30.9"/>
															</defs>
															<clipPath id="SVGID_20_">
																<use xlink:href="#SVGID_19_"  overflow="visible"/>
															</clipPath>
															<g id="g434" clip-path="url(#SVGID_20_)">
																<g id="g436" transform="translate(380.2207,400.4053)">
																	<path id="path438" fill="#787878" d="M-106.4-58.9c-5.9,0-11.4,0.6-13.4,1.8c-6.6,4.4-10.7,20-1.8,21.5
																		c0.2,0,0.2,0,0.3,0c2.1,0,3.5-4.3,8.1-4.3c0.5,0,0.9-0.2,1.4,0c7.9,1.4-0.8,11.7,8.2,11.7h0.2
																		c5.6,0,1.7-9.5,9.1-11c0.5-0.2,0.9,0,1.2,0c4.3,0,5,5.2,7,5.2c0.3,0,0.5,0,0.8-0.3c8.1-5.5,1.1-18.6-2.1-21.8
																		C-88.9-57.8-98-58.9-106.4-58.9 M-106.4-56.9L-106.4-56.9c9.5,0,16.6,1.4,17.8,2.3c2,2,5.6,8.7,5.2,13.7
																		c-0.2,2-0.9,3.4-2.3,4.6c-0.2-0.2-0.3-0.5-0.5-0.6c-1.1-1.5-3-4.1-6.7-4.1c-0.6,0-1.1,0-1.7,0.2
																		c-5.2,1.1-6.2,5.2-7,7.9c-0.8,2.9-0.9,2.9-1.8,2.9l0,0c-2.6,0-2.6-0.5-2.6-3.5c0-2.7,0.2-7.2-5.5-8.1
																		c-0.6-0.2-1.2-0.2-1.8-0.2c-3.5,0-5.6,2-7,3.4c-0.3,0.3-0.9,0.9-1.2,0.9c-1.1-0.2-2.6-0.8-3-3.4
																		c-0.9-4.6,2-11.9,5.8-14.5C-117.4-56.1-113.3-56.9-106.4-56.9"/>
																</g>
															</g>
														</g>
													</g>
												</g>
											</g>
											<g>
												<g id="g442">
												</g>
												<g id="g440">
													<g id="g448">
														<g>
															<g>
																<defs>
																	<rect id="SVGID_21_" x="116.6" y="377.8" width="352.6" height="200.1"/>
																</defs>
																<clipPath id="SVGID_22_">
																	<use xlink:href="#SVGID_21_"  overflow="visible"/>
																</clipPath>
																<g id="g450" opacity="0.25" clip-path="url(#SVGID_22_)">
																</g>
															</g>
														</g>
													</g>
												</g>
												<g>
													<g id="g458">
													</g>
													<g id="g456">
														<g id="g464">
															<g>
																<g>
																	<defs>
																		<rect id="SVGID_23_" x="135.1" y="381.1" width="292.2" height="148.5"/>
																	</defs>
																	<clipPath id="SVGID_24_">
																		<use xlink:href="#SVGID_23_"  overflow="visible"/>
																	</clipPath>
																	<g id="g466" opacity="0.5" clip-path="url(#SVGID_24_)">
																		<g id="g468" transform="translate(347.2148,315.9766)">
																			<path id="path470" fill="#787878" d="M-141.7,200.5c-2.7-4.4-4.4-9.6-6.1-14.5c-1.7-5-3-10.1-4.6-15.1
																				c-3-10.1-6.6-20-11.1-29.3s-10.7-18-18.1-24.7c-7.6-6.6-16.6-10.8-26.1-13l0,0h-0.2c-3.2-1.1-5-4.6-3.8-7.9
																				c1.1-3,4.3-4.7,7.3-4c22.6,5.3,45.9,7.8,69.2,8.2s46.8-0.9,70.1-3.8c23.3-2.7,46.5-7,69.4-12.2
																				C27.2,79,49.9,72.7,72.1,65.3c3.2-1.1,6.9,0.6,7.9,3.8c0.9,2.4,0,5-1.8,6.7L78,76l0,0c-0.8,0.6-1.8,1.5-2.7,2.4
																				c-0.9,0.9-2,2.1-2.9,3.2c-1.8,2.3-3.8,4.6-5.5,7c-3.7,4.9-7,10.1-10.4,15.1c-6.7,10.4-13,21-19.1,31.9
																				c-5.9,10.8-11.7,21.8-17.2,32.9c-2.7,5.5-5.2,11.1-7.6,16.9c-1.2,2.9-2.3,5.8-3.2,8.7c-0.5,1.5-0.9,2.9-1.2,4.4
																				c0,0,0,0.3-0.2,0.5c0,0.2-0.2,0.3-0.3,0.5c-0.2,0.3-0.3,0.5-0.6,0.8c-0.5,0.5-0.8,0.6-1.2,0.9
																				c-0.8,0.5-1.5,0.9-2.3,1.2c-6.1,2.4-12.2,3.7-18.3,4.9s-12.3,2.1-18.4,2.9c-12.3,1.5-24.7,2.6-37.2,3
																				c-12.3,0.5-24.8,0.6-37.2-0.6c-6.2-0.6-12.3-1.5-18.4-3c-3-0.8-5.9-1.8-8.7-3.2
																				C-137.5,205.1-140,203.2-141.7,200.5 M-141.6,200.5c1.7,2.6,4.4,4.4,7.2,5.8c2.7,1.4,5.8,2.3,8.7,3.2
																				c5.9,1.5,12.2,2.4,18.3,2.9c12.3,1.1,24.8,0.9,37.2,0.2c12.3-0.8,24.7-2.1,37-4c6.1-0.9,12.2-2,18.3-3.4
																				c5.9-1.4,12-2.9,17.5-5.3c0.6-0.3,1.2-0.6,1.8-1.1s0.9-0.8,0.8-0.9c0.3-1.5,0.8-3,1.2-4.6c0.9-3,1.8-5.9,2.9-9
																				c2.1-5.9,4.6-11.6,6.9-17.4c4.9-11.4,10.1-22.9,15.5-34c5.3-11.3,11-22.4,16.9-33.4c3-5.5,6.1-11,9.3-16.5
																				c1.7-2.7,3.4-5.5,5.2-8.1c0.9-1.4,1.8-2.7,3-4.1c1.1-1.4,2.3-2.7,3.8-4.1l0,0l5.9,10.7
																				C53.2,85.2,30.2,91.5,6.9,97c-23.3,5.3-46.8,9.6-70.6,12.5s-47.7,4.4-71.8,3.8c-24.1-0.5-48.2-3.5-71.8-9
																				l3.4-12.3l0,0c10.5,6.2,19.8,12,26.8,20.6c7.2,8.4,12.2,18.3,16.2,28c4,9.9,6.7,20.1,9.5,30.3
																				c1.4,5,2.6,10.2,4.1,15.2C-146,190.9-144.3,195.9-141.6,200.5"/>
																		</g>
																	</g>
																</g>
															</g>
														</g>
													</g>
													<g id="g472">
														<g id="g474">
														</g>
														<g id="g480">
														</g>
													</g>
													<g id="g488" transform="translate(347.25,316)">
														<path id="path490" fill="#333333" d="M-141.7,200.5c16,24.8,146,7.8,148.2-2.1c5.6-25.5,52.3-114.5,67.4-127
															c-27,9.3-166.3,54-279.9,27C-154.7,115-154.2,181.1-141.7,200.5"/>
													</g>
													<g>
														<g id="g494">
														</g>
														<g id="g492">
															<g id="g500">
																<g>
																	<g>
																		<defs>
																			<rect id="SVGID_25_" x="141.3" y="387.4" width="279.9" height="141.9"/>
																		</defs>
																		<clipPath id="SVGID_26_">
																			<use xlink:href="#SVGID_25_"  overflow="visible"/>
																		</clipPath>
																		<g id="g502" clip-path="url(#SVGID_26_)">
																			<g id="g504" transform="translate(451.25,378.25)">
																				<path id="path506" fill="#333333" d="M-30.2,9.2c-20.9,7.2-109,35.5-200.3,35.5c-26.8,0-53.8-2.4-79.6-8.5
																					c51.4,16.6,51.8,82.8,64.3,102.1c6.1,9.5,28.8,12.8,54.7,12.8c41.9,0,92.2-8.8,93.4-14.9
																					C-91.7,110.7-45.1,21.6-30.2,9.2 M-47.5,21.3C-67.8,51.7-97.2,110.9-103,133c-7.6,4.3-48,11.7-87.8,11.7
																					c-31.7,0-46.3-5.2-49.5-10.1c-3-4.6-5.5-13.4-8.2-23.5c-5.3-19.2-12.7-45.3-30.6-63.6c15.5,2,31.9,2.9,49.1,2.9
																					C-155.8,50.8-83.1,32.1-47.5,21.3"/>
																			</g>
																		</g>
																	</g>
																</g>
															</g>
														</g>
														<g id="g540" transform="translate(373.084,309.7188)">
															<path id="path542" fill="#565656" d="M-114,219.8c-26.8,0-44.5-3.8-51.2-11.1c-0.5-0.6-0.6-4.3,2.4-11.4
																c7.5-17.1,30.6-46.6,70.4-49.1c2.6-0.2,5.3-0.3,7.9-0.3c46.8,0,75,23.8,75.1,28c-0.5,1.2-1.4,3.2-2.3,5.5
																c-2.6,6.1-6.2,15.1-9.8,25.3C-25.4,210.5-72.1,219.8-114,219.8"/>
														</g>
														<g id="g544" transform="translate(387.3955,345.3672)">
															<path id="path546" fill="#787878" d="M-98.7,110.3c-2.6,0-5.3,0.2-8.1,0.3c-54.9,3.4-80,57.6-74.2,63.9
																c8.1,8.7,29,11.7,52.7,11.7c42.2,0,93.1-9.8,94.7-14.2c4.7-14,10.1-25.8,12-31.1C-19.4,135.4-51.3,110.3-98.7,110.3
																 M-98.7,114.4c41.8,0,69.8,20.1,72.9,25.9c-0.5,1.4-1.2,2.9-2,4.7c-2.4,5.9-6.2,14.8-9.6,24.7
																c-6.6,3.8-50.5,12.3-91,12.3c-25.5,0-43-3.7-49.4-10.2c-0.3-2.1,1.8-10.8,9.6-21.9c7-9.9,27-33.2,61.6-35.4
																C-103.9,114.4-101.3,114.4-98.7,114.4L-98.7,114.4"/>
														</g>
														<g>
															<g id="g550">
															</g>
															<g id="g548">
																<g id="g556">
																	<g>
																		<g>
																			<defs>
																				<rect id="SVGID_27_" x="207.2" y="454.5" width="156.8" height="64.5"/>
																			</defs>
																			<clipPath id="SVGID_28_">
																				<use xlink:href="#SVGID_27_"  overflow="visible"/>
																			</clipPath>
																			<g id="g558" clip-path="url(#SVGID_28_)">
																				<g id="g560" transform="translate(348.084,315.917)">
																					<path id="path562" fill="#565656" d="M-140.8,200.8c-3.7,16.9,99.7-65.8,155.3-26.1
																						c11.4-15.2-50.1-41.3-86-35.2C-101.9,144.5-133,163.9-140.8,200.8"/>
																				</g>
																			</g>
																		</g>
																	</g>
																</g>
															</g>
															<g id="g564" transform="translate(358.25,358.75)">
																<path id="path566" fill="#F9FCF5" d="M-130,69.1c5.2,9.3,15.1,54.9,19.2,55.9c4.1,1.1,29.6,8.2,33.2,6.7
																	c3.7-1.5,3.4-10.4,7.3-7.8c3,2.1,4.7,6.2,7.8,4.7c5.6-2.7,22.3-13,24.8-17.7c2.6-4.7,2.1-30.6,0-51.4
																	C-48.6,64.4-111.2,71.1-130,69.1"/>
															</g>
															<g>
																<g id="g570">
																</g>
																<g id="g568">
																	<g id="g576">
																		<g>
																			<g>
																				<defs>
																					<rect id="SVGID_29_" x="228.3" y="418.5" width="94" height="72.3"/>
																				</defs>
																				<clipPath id="SVGID_30_">
																					<use xlink:href="#SVGID_29_"  overflow="visible"/>
																				</clipPath>
																				<g id="g578" clip-path="url(#SVGID_30_)">
																					<g id="g580" transform="translate(402.75,363.25)">
																						<path id="path582" fill="#787878" stroke="#787878" d="M-82.1,55.3c-9.5,4.1-58.4,9.8-83.1,9.8
																							c-3.7,0-6.7-0.2-9.1-0.5c5.2,9.3,15.1,54.9,19.2,55.9c3.8,0.9,24.8,7,31.6,7c0.8,0,1.2,0,1.7-0.2
																							c3.2-1.4,3.4-8.2,5.9-8.2c0.3,0,0.8,0.2,1.2,0.5c2.6,1.8,4.1,5,6.4,5c0.5,0,0.9-0.2,1.4-0.3
																							c5.6-2.7,22.3-13,24.8-17.7S-80.1,76-82.1,55.3 M-83.9,58.1c2,21.3,2,43.9,0,47.6
																							c-2.1,3.8-17.2,13.4-23.9,16.8c-0.2,0-0.3,0.2-0.5,0.2c-0.5,0-1.4-1.1-2.1-1.8c-0.9-0.9-1.8-2-3-2.7
																							c-0.8-0.6-1.7-0.8-2.4-0.8c-2.7,0-3.8,2.7-4.7,4.9c-0.6,1.4-1.4,3.2-2.1,3.5c0,0-0.2,0-0.8,0
																							c-5.3,0-21.2-4.3-27.9-6.1c-1.2-0.3-2.1-0.6-2.9-0.8c-2-2.1-6.1-16.8-9.1-27.6c-2.7-9.6-5.3-18.7-7.5-24.2
																							c1.7,0.2,3.7,0.2,5.8,0.2C-141.6,67-97.8,62.2-83.9,58.1"/>
																					</g>
																				</g>
																			</g>
																		</g>
																	</g>
																</g>
																<g>
																	<g id="g602">
																	</g>
																	<g id="g600">
																		<g id="g608">
																			<g>
																				<g>
																					<defs>
																						<rect id="SVGID_31_" x="272.4" y="436.9" width="17.1" height="46"/>
																					</defs>
																					<clipPath id="SVGID_32_">
																						<use xlink:href="#SVGID_31_"  overflow="visible"/>
																					</clipPath>
																					<g id="g610" clip-path="url(#SVGID_32_)">
																						<g id="g612" transform="translate(380.458,354.3682)">
																							<path id="path614" fill="#787878" d="M-106.2,82.5c1.7,3.7,3,7.3,4.4,11s2.6,7.5,3.8,11.1l3.5,11.3l3.4,11.1
																								l-5.3,1.5l-2.6-11.4l-2.7-11.4c-0.9-3.8-1.8-7.6-2.9-11.3c-1.1-3.8-2.1-7.5-3.5-11.1L-106.2,82.5z"/>
																						</g>
																					</g>
																				</g>
																			</g>
																		</g>
																	</g>
																	<g>
																		<g id="g618">
																		</g>
																		<g id="g616">
																			<g id="g624">
																				<g>
																					<g>
																						<defs>
																							<rect id="SVGID_33_" x="7.2" y="148.7" width="123.2" height="111.6"/>
																						</defs>
																						<clipPath id="SVGID_34_">
																							<use xlink:href="#SVGID_33_"  overflow="visible"/>
																						</clipPath>
																						<g id="g626" opacity="0.4" clip-path="url(#SVGID_34_)">
																							<g id="g628" transform="translate(253.584,481.9165)">
																								<path id="path630" fill="#565656" d="M-242.2-309.4c41.3,10.5,34.6,81.9,59.1,87.3
																									c24.5,5.5,56.9-58.7,59.9-72.9c-47.6-20.3-69.5-44.1-103.5-37.2C-238.1-329.7-253.9-312.3-242.2-309.4"/>
																							</g>
																						</g>
																					</g>
																				</g>
																			</g>
																		</g>
																		<g id="g648" transform="translate(378.75,431.75)">
																			<path id="path650" fill="#333333" d="M-108-155.3c3.7,0,18.4-1.1,21.8,1.5c18.7,14.8,18,74.8,37.8,93.7
																				c17.5,16.8,112.9,29,129.6,9.9s41-77.3,46.6-81.4c5.6-4.1,18.1-7.3,21.8-13c3.7-5.6,0.5-31.1-8.2-30
																				s-25.5,6.7-35.8,3.7s-60.7-34.8-187-15.5c-12,1.8-24.4,0-32.6-2.1s-56-29.6-183-11.4c-12.7,1.8-30-3.7-36.3-3
																				c-6.2,0.5-8.2,20.3-5.6,25.5s15.5,9.3,17.1,15.5c1.5,6.2,13,67.4,43,92.8c31.7,26.8,113.1,8.2,120.3,3
																				C-126.1-89.4-118.8-155.3-108-155.3"/>
																		</g>
																		<g>
																			<g id="g654">
																			</g>
																			<g id="g652">
																				<g id="g660">
																					<g>
																						<g>
																							<defs>
																								<rect id="SVGID_35_" x="38.6" y="225.8" width="491.3" height="165.7"/>
																							</defs>
																							<clipPath id="SVGID_36_">
																								<use xlink:href="#SVGID_35_"  overflow="visible"/>
																							</clipPath>
																							<g id="g662" clip-path="url(#SVGID_36_)">
																								<g id="g664" transform="translate(326.0381,456.2231)">
																									<path id="path666" fill="#1A1A1A" d="M-164.6-230.5c-22.3,0-48.6,1.7-79.9,6.1c-1.8,0.3-3.8,0.3-5.8,0.3
																										c-11.1,0-23.8-3.5-29.6-3.5c-0.3,0-0.6,0-0.9,0c-6.2,0.5-8.2,20.3-5.6,25.5s15.5,9.3,17.1,15.5
																										c1.5,6.2,13,67.4,43,92.8c12.7,10.7,33.1,14.2,53.7,14.2c31.1,0,62.2-7.9,66.6-11
																										c32.6-23.3,39.9-89.2,50.8-89.2c1.7,0,5.5-0.2,9.6-0.2c5,0,10.4,0.3,12.2,1.8c18.7,14.8,18,74.8,37.8,93.7
																										C15.5-73.8,58.7-65,92.7-65c19.2,0,35.4-2.9,41.3-9.8c16.6-19.2,41-77.3,46.6-81.4s18.1-7.3,21.8-13
																										c3.5-5.6,0.6-30-7.8-30c-0.2,0-0.3,0-0.5,0c-7,0.8-18.7,4.6-28.5,4.6c-2.6,0-5-0.3-7.2-0.9
																										C150.5-197.8,118.8-217,47-217c-21.5,0-46.5,1.7-75.6,6.1c-3.5,0.5-7,0.8-10.4,0.8
																										c-8.4,0-16.3-1.4-22.3-2.9C-67.8-214.5-96.3-230.5-164.6-230.5 M-164.6-224.3c56.6,0,85.4,11.3,96.3,15.5
																										c2.4,0.9,4,1.5,5.3,1.8c5.5,1.4,14,3,23.8,3c4,0,7.8-0.3,11.3-0.8c26.5-4,51.7-6.1,74.7-6.1
																										c59.4,0,90.4,13.3,103.5,19.1c2.6,1.1,4.6,2,6.1,2.4c2.6,0.8,5.6,1.2,9,1.2c6.9,0,14.2-1.5,20.7-2.9
																										c2.9-0.6,5.6-1.2,7.8-1.5c2.9,3,4.6,16.9,3,20.6c-1.4,2-6.6,4.3-10.4,6.1c-3.7,1.7-7,3.2-9.8,5.2
																										c-3.4,2.4-6.9,9.1-16.9,29.1c-9.6,19.1-21.6,42.7-30.8,53.2c-3.2,3.7-14.5,7.6-36.6,7.6
																										c-32.9,0-74.5-8.8-84-17.8C-0.1-96.8-4.7-115.7-9.1-134c-4.9-20.6-9.6-39.9-20.7-48.8
																										c-2.9-2.3-7.3-3-16.2-3c-2.6,0-5,0.2-6.9,0.2c-1.1,0-2,0-2.6,0c-8.7,0-12.3,10.2-19.1,28.8
																										c-7.3,20.4-17.4,48.5-35.2,61.4c-4.1,2.4-33.5,9.9-63,9.9c-22.7,0-39.8-4.4-49.7-12.7
																										c-11.9-10.1-28.5-33.2-40.4-86.9c-0.3-1.2-0.5-2.1-0.6-2.6c-1.4-5.8-7-9.5-11.9-12.7
																										c-1.8-1.2-5-3.2-5.6-4.3c-1.1-2.9-0.2-13.1,1.8-16.5c2,0.2,5.2,0.6,8.5,1.2c5.9,1.1,13.4,2.3,20.3,2.3
																										c2.3,0,4.6-0.2,6.6-0.5C-215.2-222.1-188.6-224.3-164.6-224.3"/>
																								</g>
																							</g>
																						</g>
																					</g>
																				</g>
																			</g>
																			<g>
																				<g id="g670">
																				</g>
																				<g id="g668">
																					<g id="g676">
																						<g>
																							<g>
																								<defs>
																									<rect id="SVGID_37_" x="86.3" y="248.5" width="157.6" height="106.7"/>
																								</defs>
																								<clipPath id="SVGID_38_">
																									<use xlink:href="#SVGID_37_"  overflow="visible"/>
																								</clipPath>
																								<g id="g678" opacity="0.5" clip-path="url(#SVGID_38_)">
																									<g id="g680" transform="translate(292.5,434.75)">
																										<path id="path682" fill="none" stroke="#333333" stroke-width="4" stroke-miterlimit="10" d="
																											M-200.4-164.5c-2.9,3.7-4.7,59.1,18.6,74.1c15.2,9.9,80.3,7.8,93.3,0.5c20.4-11.4,40.4-64,34.8-71.5
																											c-9.3-12.5-76.7-29-127.4-16C-187.3-175.9-196.9-169.1-200.4-164.5z"/>
																									</g>
																								</g>
																							</g>
																						</g>
																					</g>
																				</g>
																				<g id="g684" transform="translate(292.5,434.75)">
																					<path id="path686" fill="#F9FCF5" d="M-200.4-164.5c-2.9,3.7-4.7,59.1,18.6,74.1c15.2,9.9,80.3,7.8,93.3,0.5
																						c20.4-11.4,40.4-64,34.8-71.5c-9.3-12.5-76.7-29-127.4-16C-187.3-175.9-196.9-169.1-200.4-164.5"/>
																				</g>
																				<g>
																					<g id="g690">
																					</g>
																					<g id="g688">
																						<g id="g696">
																							<g>
																								<g>
																									<defs>
																										<rect id="SVGID_39_" x="321.9" y="263.2" width="156.4" height="109.3"/>
																									</defs>
																									<clipPath id="SVGID_40_">
																										<use xlink:href="#SVGID_39_"  overflow="visible"/>
																									</clipPath>
																									<g id="g698" opacity="0.5" clip-path="url(#SVGID_40_)">
																										<g id="g700" transform="translate(476.5938,423.063)">
																											<path id="path702" fill="none" stroke="#333333" stroke-width="4" stroke-miterlimit="10" d="M-3-128.6
																												c2.4,4.1-3,59.1-28,71c-16.5,7.8-80.6-2.7-92.5-11.6c-18.7-14-31.7-68.7-25.2-75.5
																												c10.8-11.1,79.9-18.9,128.5,0.6C-14.4-141.5-5.9-133.6-3-128.6z"/>
																										</g>
																									</g>
																								</g>
																							</g>
																						</g>
																					</g>
																					<g id="g704" transform="translate(476.5938,423.063)">
																						<path id="path706" fill="#F9FCF5" d="M-3-128.6c2.4,4.1-3,59.1-28,71c-16.5,7.8-80.6-2.7-92.5-11.6
																							c-18.7-14-31.7-68.7-25.2-75.5c10.8-11.1,79.9-18.9,128.5,0.6C-14.4-141.5-5.9-133.6-3-128.6"/>
																					</g>
																					<g id="g708" transform="translate(328.1855,418.5469)">
																						<path id="path710" fill="#010101" d="M-162.2-114.6c-1.7,12-7.8,21.2-13.6,20.3c-5.8-0.8-9.1-11.3-7.5-23.3
																							c1.7-12,7.8-21.2,13.6-20.3C-163.7-137.2-160.5-126.7-162.2-114.6"/>
																					</g>
																					<g id="g712" transform="translate(448.209,411.8008)">
																						<path id="path714" fill="#010101" d="M-33.4-93.9c1.2,12-2.4,22.4-8.2,23s-11.6-8.7-12.8-20.7
																							c-1.2-12,2.4-22.4,8.2-23C-40.4-115.4-34.7-106.1-33.4-93.9"/>
																					</g>
																					<g id="g796">
																						<g id="g718">
																						</g>
																						<g id="g716">
																							<g id="g724">
																								<g>
																									<g>
																										<defs>
																											<rect id="SVGID_41_" x="38.6" y="242.7" width="487.9" height="143.6"/>
																										</defs>
																										<clipPath id="SVGID_42_">
																											<use xlink:href="#SVGID_41_"  overflow="visible"/>
																										</clipPath>
																										<g id="g726" opacity="0.3" clip-path="url(#SVGID_42_)">
																											<g id="g728" transform="translate(270.375,446.25)">
																												<path id="path730" fill="#333333" d="M-224.2-199.8c7,4.7,13.7,1.8,15.2,11.1s23,90.7,50,100
																													c44.1,15.2,99.5,0.3,107-4.4c7.5-4.7,42.8-83.7,48.8-86.9c5.9-3,24.7,0.3,28.8,2.1
																													c12.2,5.2,34.4,90.7,40.7,95.1C93.4-63.5,180.6-65,184.7-70.2c4.1-5.2,36.9-80,42.7-84.4
																													c8.5-6.4,28.2-10.8,28.8-8.1c0.5,2.9-15.9,5.5-20.7,11.7c-4.9,6.2-37.8,77.7-48.2,84
																													S100.6-50.6,62.2-77.7c-18.4-13-25.6-91-40.1-95.1c-9.5-2.7-16.6-2.6-23.3-0.8
																													c-9.1,5.9-21.8,72.1-48.9,88.9c-10.8,6.7-95.6,23-120.7-3.4c-47.1-49.2-32.9-93.3-48.2-99.8
																													c-10.5-4.4-12.7-9.9-12.5-13.7C-231.5-205.6-228-202.4-224.2-199.8"/>
																											</g>
																										</g>
																									</g>
																								</g>
																							</g>
																						</g>
																						<g id="g876">
																							<g id="g734">
																							</g>
																							<g id="g740">
																								<g id="g742">
																									<g id="g744" transform="translate(270.75,454.25)">
																									</g>
																								</g>
																							</g>
																							<g id="g892">
																								<g id="g750">
																								</g>
																								<g id="g756">
																									<g id="g758">
																									</g>
																								</g>
																								<g id="g772">
																									<g id="g766">
																									</g>
																									<g id="g774">
																										<rect x="470.7" y="256.5" fill="none" width="38.4" height="12"/>
																									</g>
																								</g>
																								<g id="g788">
																									<g id="g782">
																									</g>
																									<g id="g790">
																										<polygon fill="none" points="79.7,246.4 170.1,246.4 170.1,335.7 79.7,335.7 																										
																											"/>
																									</g>
																								</g>
																								<g id="g804">
																									<g id="g798">
																									</g>
																									<g id="g806">
																										<rect x="400.7" y="262.1" fill="none" width="86.9" height="95.4"/>
																									</g>
																								</g>
																								<g id="g884">
																									<g id="g878">
																									</g>
																									<g id="g886">
																										<rect x="158.1" y="285.3" fill="none" width="6.2" height="6.2"/>
																									</g>
																								</g>
																								<g id="g900">
																									<g id="g894">
																									</g>
																									<g id="g902">
																										<rect x="404.8" y="299.9" fill="none" width="6.2" height="6.2"/>
																									</g>
																								</g>
																								<g id="g940" transform="translate(489.875,433.1875)">
																									<path id="path942" fill="#D0DDDC" d="M11.3-159.7c0,0.9-4.9,1.7-10.8,1.7s-10.8-0.8-10.8-1.7
																										s4.9-1.7,10.8-1.7S11.3-160.6,11.3-159.7"/>
																								</g>
																								<g id="g944" transform="translate(286.8008,446.3066)">
																									<path id="path946" fill="#D0DDDC" d="M-206.6-200.1c-0.2,0.9-5,0.9-11-0.2s-10.7-2.6-10.5-3.5
																										s5-0.9,11,0.2C-211-202.5-206.5-201-206.6-200.1"/>
																								</g>
																							</g>
																						</g>
																					</g>
																				</g>
																			</g>
																		</g>
																	</g>
																</g>
															</g>
														</g>
													</g>
												</g>
											</g>
										</g>
									</g>
								</g>
							</g>
						</g>
					</g>
				</g>
			</g>
		</g>
	</g>
</g>
</svg>
