<?xml version="1.0" encoding="UTF-8" standalone="no"?>
<svg
xmlns:dc="http://purl.org/dc/elements/1.1/"
xmlns:cc="http://creativecommons.org/ns#"
xmlns:rdf="http://www.w3.org/1999/02/22-rdf-syntax-ns#"
xmlns:svg="http://www.w3.org/2000/svg"
xmlns="http://www.w3.org/2000/svg"
viewBox="250 100 600 600"
preserveAspectRatio="xMinYMin meet"
xml:space="preserve"
version="1.1"
id="svg2">
<metadata id="metadata8">
    <rdf:RDF>
        <cc:Work rdf:about="">
            <dc:format>image/svg+xml</dc:format>
            <dc:type rdf:resource="http://purl.org/dc/dcmitype/StillImage"/>
        </cc:Work>
    </rdf:RDF>
</metadata>
<defs id="defs6">
    <clipPath id="clipPath18" clipPathUnits="userSpaceOnUse">
        <path id="path20" d="M 0,653 774,653 774,0 0,0 0,653 Z"/>
    </clipPath>
    <clipPath id="clipPath102" clipPathUnits="userSpaceOnUse">
        <path id="path104" d="m 256.742,458.01 255.42,0 0,-89.229 -255.42,0 0,89.229 z"/>
    </clipPath>
    <clipPath id="clipPath118" clipPathUnits="userSpaceOnUse">
        <path id="path120" d="m 260.5,464.5 50.367,0 0,-24.384 -50.367,0 0,24.384 z"/>
    </clipPath>
    <clipPath id="clipPath134" clipPathUnits="userSpaceOnUse">
        <path id="path136" d="m 465.5,451.433 38.192,0 0,-25.823 -38.192,0 0,25.823 z"/>
    </clipPath>
    <clipPath id="clipPath152" clipPathUnits="userSpaceOnUse">
        <path id="path154" d="M 0,653 774,653 774,0 0,0 0,653 Z"/>
    </clipPath>
    <clipPath id="clipPath188" clipPathUnits="userSpaceOnUse">
        <path id="path190" d="m 484.194,274.852 35.348,0 0,-41.074 -35.348,0 0,41.074 z"/>
    </clipPath>
    <clipPath id="clipPath212" clipPathUnits="userSpaceOnUse">
        <path id="path214" d="m 498.938,295.541 11.787,0 0,-9.622 -11.787,0 0,9.622 z"/>
    </clipPath>
    <clipPath id="clipPath228" clipPathUnits="userSpaceOnUse">
        <path id="path230" d="m 517.982,298.042 11.56,0 0,-10.771 -11.56,0 0,10.771 z"/>
    </clipPath>
    <clipPath id="clipPath244" clipPathUnits="userSpaceOnUse">
        <path id="path246" d="m 500.876,280.162 23.804,0 0,-12.99 -23.804,0 0,12.99 z"/>
    </clipPath>
    <clipPath id="clipPath260" clipPathUnits="userSpaceOnUse">
        <path id="path262" d="m 528.744,283.396 8.588,0 0,-7.548 -8.588,0 0,7.548 z"/>
    </clipPath>
    <clipPath id="clipPath276" clipPathUnits="userSpaceOnUse">
        <path id="path278" d="m 292.392,295.941 194.211,0 0,-54.993 -194.211,0 0,54.993 z"/>
    </clipPath>
    <clipPath id="clipPath324" clipPathUnits="userSpaceOnUse">
        <path id="path326" d="m 464.729,503.5 27.141,0 0,-67.167 -27.141,0 0,67.167 z"/>
    </clipPath>
    <clipPath id="clipPath340" clipPathUnits="userSpaceOnUse">
        <path id="path342" d="m 250.833,493.38 66.587,0 0,-47.632 -66.587,0 0,47.632 z"/>
    </clipPath>
    <clipPath id="clipPath356" clipPathUnits="userSpaceOnUse">
        <path id="path358" d="m 465.571,507.41 39.427,0 0,-66.535 -39.427,0 0,66.535 z"/>
    </clipPath>
    <clipPath id="clipPath392" clipPathUnits="userSpaceOnUse">
        <path id="path394" d="m 285.734,473.585 176.74,0 0,-168.575 -176.74,0 0,168.575 z"/>
    </clipPath>
    <clipPath id="clipPath408" clipPathUnits="userSpaceOnUse">
        <path id="path410" d="m 371.333,391.333 19.667,0 0,-8.333 -19.667,0 0,8.333 z"/>
    </clipPath>
    <clipPath id="clipPath428" clipPathUnits="userSpaceOnUse">
        <path id="path430" d="m 370.439,400.405 21.858,0 0,-14.905 -21.858,0 0,14.905 z"/>
    </clipPath>
    <clipPath id="clipPath444" clipPathUnits="userSpaceOnUse">
        <path id="path446" d="m 304.397,382.873 170.071,0 0,-96.553 -170.071,0 0,96.553 z"/>
    </clipPath>
    <clipPath id="clipPath460" clipPathUnits="userSpaceOnUse">
        <path id="path462" d="m 313.252,381.248 140.99,0 0,-71.604 -140.99,0 0,71.604 z"/>
    </clipPath>
    <clipPath id="clipPath476" clipPathUnits="userSpaceOnUse">
        <path id="path478" d="m 314.751,379.745 137.995,0 0,-70.027 -137.995,0 0,70.027 z"/>
    </clipPath>
    <clipPath id="clipPath496" clipPathUnits="userSpaceOnUse">
        <path id="path498" d="m 316.25,378.25 135,0 0,-68.457 -135,0 0,68.457 z"/>
    </clipPath>
    <clipPath id="clipPath512" clipPathUnits="userSpaceOnUse">
        <path id="path514" d="m 318.102,364.62 52.244,0 0,-48.745 -52.244,0 0,48.745 z"/>
    </clipPath>
    <clipPath id="clipPath528" clipPathUnits="userSpaceOnUse">
        <path id="path530" d="m 395.24,372.499 48.26,0 0,-41.5 -48.26,0 0,41.5 z"/>
    </clipPath>
    <clipPath id="clipPath552" clipPathUnits="userSpaceOnUse">
        <path id="path554" d="m 348.04,345.93 75.63,0 0,-31.136 -75.63,0 0,31.136 z"/>
    </clipPath>
    <clipPath id="clipPath572" clipPathUnits="userSpaceOnUse">
        <path id="path574" d="m 358.25,363.25 45.347,0 0,-34.854 -45.347,0 0,34.854 z"/>
    </clipPath>
    <clipPath id="clipPath588" clipPathUnits="userSpaceOnUse">
        <path id="path590" d="m 358.334,363.75 44.761,0 0,-15.5 -44.761,0 0,15.5 z"/>
    </clipPath>
    <clipPath id="clipPath604" clipPathUnits="userSpaceOnUse">
        <path id="path606" d="m 379.544,354.368 8.255,0 0,-22.239 -8.255,0 0,22.239 z"/>
    </clipPath>
    <clipPath id="clipPath620" clipPathUnits="userSpaceOnUse">
        <path id="path622" d="m 251.601,493.399 59.399,0 0,-53.812 -59.399,0 0,53.812 z"/>
    </clipPath>
    <clipPath id="clipPath636" clipPathUnits="userSpaceOnUse">
        <path id="path638" d="m 282.95,437.271 201.392,0 0,-64.021 -201.392,0 0,64.021 z"/>
    </clipPath>
    <clipPath id="clipPath656" clipPathUnits="userSpaceOnUse">
        <path id="path658" d="m 266.724,456.223 236.993,0 0,-79.92 -236.993,0 0,79.92 z"/>
    </clipPath>
    <clipPath id="clipPath672" clipPathUnits="userSpaceOnUse">
        <path id="path674" d="m 289.705,445.271 76.009,0 0,-51.499 -76.009,0 0,51.499 z"/>
    </clipPath>
    <clipPath id="clipPath692" clipPathUnits="userSpaceOnUse">
        <path id="path694" d="m 403.417,438.197 75.422,0 0,-52.734 -75.422,0 0,52.734 z"/>
    </clipPath>
    <clipPath id="clipPath720" clipPathUnits="userSpaceOnUse">
        <path id="path722" d="m 266.74,448.01 235.391,0 0,-69.229 -235.391,0 0,69.229 z"/>
    </clipPath>
    <clipPath id="clipPath736" clipPathUnits="userSpaceOnUse">
        <path id="path738" d="m 270.454,454.616 30.419,0 0,-4.5 -30.419,0 0,4.5 z"/>
    </clipPath>
    <clipPath id="clipPath752" clipPathUnits="userSpaceOnUse">
        <path id="path754" d="m 368.5,447.25 32.643,0 0,-8.034 -32.643,0 0,8.034 z"/>
    </clipPath>
    <clipPath id="clipPath768" clipPathUnits="userSpaceOnUse">
        <path id="path770" d="m 475.136,441.433 18.56,0 0,-5.823 -18.56,0 0,5.823 z"/>
    </clipPath>
    <clipPath id="clipPath784" clipPathUnits="userSpaceOnUse">
        <path id="path786" d="m 286.577,446.302 43.61,0 0,-43.135 -43.61,0 0,43.135 z"/>
    </clipPath>
    <clipPath id="clipPath800" clipPathUnits="userSpaceOnUse">
        <path id="path802" d="m 441.409,438.673 41.893,0 0,-46.031 -41.893,0 0,46.031 z"/>
    </clipPath>
    <clipPath id="clipPath816" clipPathUnits="userSpaceOnUse">
        <path id="path818" d="m 291.925,443.209 72.013,0 0,-41.396 -72.013,0 0,41.396 z"/>
    </clipPath>
    <clipPath id="clipPath832" clipPathUnits="userSpaceOnUse">
        <path id="path834" d="m 293.481,415.835 53.02,0 0,-20.936 -53.02,0 0,20.936 z"/>
    </clipPath>
    <clipPath id="clipPath848" clipPathUnits="userSpaceOnUse">
        <path id="path850" d="m 405.556,436.137 71.799,0 0,-38.464 -71.799,0 0,38.464 z"/>
    </clipPath>
    <clipPath id="clipPath864" clipPathUnits="userSpaceOnUse">
        <path id="path866" d="m 419.032,404.637 54.683,0 0,-17.618 -54.683,0 0,17.618 z"/>
    </clipPath>
    <clipPath id="clipPath880" clipPathUnits="userSpaceOnUse">
        <path id="path882" d="m 324.375,427.5 3,0 0,-3 -3,0 0,3 z"/>
    </clipPath>
    <clipPath id="clipPath896" clipPathUnits="userSpaceOnUse">
        <path id="path898" d="m 443.375,420.5 3,0 0,-3 -3,0 0,3 z"/>
    </clipPath>
    <clipPath id="clipPath912" clipPathUnits="userSpaceOnUse">
        <path id="path914" d="m 271.125,451.727 97.609,0 0,-14.275 -97.609,0 0,14.275 z"/>
    </clipPath>
    <clipPath id="clipPath928" clipPathUnits="userSpaceOnUse">
        <path id="path930" d="m 400.159,447.009 72.091,0 0,-13.921 -72.091,0 0,13.921 z"/>
    </clipPath>
    <clipPath id="clipPath952" clipPathUnits="userSpaceOnUse">
        <path id="path954" d="M 0,653 774,653 774,0 0,0 0,653 Z"/>
    </clipPath>
</defs>
<g transform="matrix(1.3333333,0,0,-1.3333333,0,870.66667)" id="g10">
    <g id="g148">
        <g clip-path="url(#clipPath152)" id="g150">
            <g transform="translate(468.3311,284.624)" id="g156">
                <path id="path158" style="fill:#555555;fill-opacity:1;fill-rule:nonzero;stroke:#555555" d="m 0,0 c -1.412,1.781 -2.893,3.485 -4.45,5.04 -0.37,0.372 -0.748,0.731 -1.127,1.081 -0.06,0.027 -0.153,0.067 -0.277,0.11 -0.679,0.241 -1.742,0.461 -2.788,0.623 -4.322,0.635 -9.093,0.785 -13.774,0.873 -9.427,0.127 -18.949,-0.185 -28.455,-0.63 -19.022,-0.933 -38.056,-2.469 -56.995,-4.529 -9.466,-1.043 -18.917,-2.222 -28.274,-3.692 -4.673,-0.741 -9.33,-1.552 -13.878,-2.536 -2.267,-0.495 -4.517,-1.034 -6.639,-1.665 -1.055,-0.316 -2.086,-0.658 -2.979,-1.026 -0.443,-0.18 -0.851,-0.373 -1.14,-0.536 -0.071,-0.039 -0.132,-0.076 -0.181,-0.107 -1.123,-1.521 -2.144,-3.046 -3.115,-4.659 -0.999,-1.679 -1.895,-3.436 -2.757,-5.225 -1.697,-3.592 -3.161,-7.36 -4.563,-11.189 -1.428,-3.819 -2.793,-7.701 -4.304,-11.55 -0.743,-1.93 -1.515,-3.855 -2.317,-5.774 -0.379,-0.912 -0.756,-1.826 -1.152,-2.733 l 12.843,0 c 6.941,15.458 19.983,33.225 30.923,37.701 3.017,1.235 51.551,7.266 83.622,7.266 11.887,0 20.126,-0.869 24.486,-2.552 13.142,-5.072 39.272,-29.296 41.985,-42.415 l 7.453,0 c -1.552,8.257 -4.481,16.451 -8.004,24.282 C 10.275,-15.384 5.633,-7.177 0,0"/>
            </g>
            <g transform="translate(462.6572,290.8379)" id="g160">
                <path id="path162" style="fill:#555555;fill-opacity:1;fill-rule:nonzero;stroke:none" d="M 0,0 -0.017,0.014 -0.05,0.042 0.011,-0.012 0.018,-0.017 0,0 Z"/>
            </g>
            <g transform="translate(439.96,276.1006)" id="g168">
                <path id="path170" style="fill:#555555;fill-opacity:1;fill-rule:nonzero;stroke:#555555" d="m 0,0 c -4.015,1.55 -11.89,2.335 -23.406,2.335 -32.267,0 -79.888,-6.102 -82.492,-7.076 -9.79,-4.005 -21.961,-20.518 -28.696,-34.86 l 174.624,0 C 37.294,-28.322 13.009,-5.021 0,0"/>
            </g>
            <g transform="translate(441.04,278.915)" id="g172">
                <path id="path174" style="fill:#555555;fill-opacity:1;fill-rule:nonzero;stroke:#555555" d="m 0,0 c -4.36,1.683 -12.599,2.552 -24.486,2.552 -32.071,0 -80.605,-6.031 -83.622,-7.266 -10.94,-4.476 -23.982,-22.243 -30.923,-37.701 l 3.357,0 c 6.735,14.342 18.905,30.854 28.695,34.859 2.605,0.975 50.226,7.077 82.493,7.077 11.516,0 19.391,-0.786 23.406,-2.335 13.009,-5.021 37.294,-28.323 40.03,-39.601 l 3.035,0 C 39.272,-29.296 13.142,-5.072 0,0"/>
            </g>
            <g transform="translate(500.667,277.667)" id="g176">
                <path id="path178" style="fill:#555555;fill-opacity:1;fill-rule:nonzero;stroke:none" d="m 0,0 c -1.834,-3.667 -11.314,-13.457 -19.333,-11.167 -4.205,1.201 -3.429,-21.028 6.232,-30 l 17.541,0 C 9.26,-33.508 16.808,-9.935 17.667,-7.5 18.667,-4.667 1.834,3.667 0,0"/>
            </g>
            <g transform="translate(519.248,272.0898)" id="g180">
                <path id="path182" style="fill:#555555;fill-opacity:1;fill-rule:nonzero;stroke:none" d="m 0,0 c -0.218,4.844 -3.24,8.272 -8.294,9.409 -4.065,0.914 -9.537,0.155 -10.888,-2.396 -2.684,-5.071 -6.026,-11.382 -22.529,-12.105 -1.103,-0.048 -1.959,-0.982 -1.91,-2.086 0.048,-1.103 0.98,-1.94 2.086,-1.91 17.23,0.755 22.234,7.362 25.82,14.101 0.809,0.602 4.803,1.376 8.089,0.008 2.329,-0.97 3.517,-2.671 3.63,-5.201 0.422,-9.386 -9.335,-26.685 -14.681,-35.41 l 4.683,0 C -7.957,-25.508 0.434,-9.648 0,0"/>
            </g>
            <g id="g184">
                <g id="g186"/>
                <g id="g192">
                    <g style="opacity:0.14999402" id="g194" clip-path="url(#clipPath188)">
                        <g id="g196" transform="translate(485.335,236)">
                            <path id="path198" style="fill:#777777;fill-opacity:1;fill-rule:nonzero;stroke:none" d="m 0,0 c 10.666,2.499 20.166,13.166 20.999,28.499 0.154,2.844 -5.667,8.334 -5.667,9.834 0,1.5 18,-0.333 18.834,-4.5 C 35,29.666 23.001,4.167 19,0 14.999,-4.167 -6.242,-1.463 0,0"/>
                        </g>
                    </g>
                </g>
            </g>
            <g transform="translate(493.834,288)" id="g200">
                <path id="path202" style="fill:#555555;fill-opacity:1;fill-rule:nonzero;stroke:none" d="M 0,0 C -1.333,-9.333 16.934,-22.228 29.167,-21.833 39.5,-21.5 51,-16.666 49.333,-11 47.628,-5.204 37.666,-12 36.833,-8 36,-4 48.5,3.334 43.5,8.667 c -4.616,4.923 -10,-7.833 -15.5,-6 -5.452,1.817 1.065,14.299 -5.667,15 -8,0.833 -5,-17 -11,-17.333 C 7.004,0.094 0.435,3.042 0,0"/>
            </g>
            <g id="g208">
                <g id="g210"/>
                <g id="g216">
                    <g style="opacity:0.5" id="g218" clip-path="url(#clipPath212)">
                        <g id="g220" transform="translate(498.9385,288.042)">
                            <path id="path222" style="fill:#555555;fill-opacity:1;fill-rule:nonzero;stroke:none" d="m 0,0 c 1.979,-1.458 8.979,-3.459 10.146,-0.876 1.167,2.583 2.166,7.625 1.333,8.375 C 10.938,5.124 10.168,0.615 7.521,-0.396 5.5,-1.167 1.396,-0.229 0,0"/>
                        </g>
                    </g>
                </g>
            </g>
            <g id="g224">
                <g id="g226"/>
                <g id="g232">
                    <g style="opacity:0.5" id="g234" clip-path="url(#clipPath228)">
                        <g id="g236" transform="translate(518.459,298.042)">
                            <path id="path238" style="fill:#555555;fill-opacity:1;fill-rule:nonzero;stroke:none" d="m 0,0 c -0.354,-1.646 -1.625,-9.459 2.333,-10.543 3.508,-0.961 6.042,1.167 8.75,5.625 C 9.625,-6.335 5.875,-9.563 2.875,-8.292 0.134,-7.131 -0.229,-4 0,0"/>
                        </g>
                    </g>
                </g>
            </g>
            <g id="g240">
                <g id="g242"/>
                <g id="g248">
                    <g style="opacity:0.25" id="g250" clip-path="url(#clipPath244)">
                        <g id="g252" transform="translate(500.876,276.958)">
                            <path id="path254" style="fill:#555555;fill-opacity:1;fill-rule:nonzero;stroke:none" d="M 0,0 C 20.5,9.999 24.667,-6.293 23.667,-9.626 15.667,-11.042 1.25,-2.667 0,0"/>
                        </g>
                    </g>
                </g>
            </g>
            <g id="g256">
                <g id="g258"/>
                <g id="g264">
                    <g style="opacity:0.5" id="g266" clip-path="url(#clipPath260)">
                        <g id="g268" transform="translate(530.751,283.3955)">
                            <path id="path270" style="fill:#555555;fill-opacity:1;fill-rule:nonzero;stroke:none" d="M 0,0 C -3.542,-3.938 -1.752,-7.074 0.458,-7.479 3.416,-8.021 7,-5.141 6.541,-5.104 5.729,-5.041 0.188,-7 -0.875,-4.229 -1.677,-2.14 -0.396,-0.937 0,0"/>
                        </g>
                    </g>
                </g>
            </g>
            <g transform="translate(440.25,484.25)" id="g288">
                <path id="path290" style="fill:none;fill-opacity:1;fill-rule:nonzero;stroke:none" d="M 0,0 C 29.5,2.75 46.751,33.333 64.751,28.583 52.751,21.083 40.75,6 24,-18.75 20.066,-24.562 -8.035,-0.749 0,0"/>
            </g>
            <g transform="translate(440.25,484.25)" id="g292">
                <path id="path294" style="fill:none;stroke:#555555;stroke-width:3;stroke-linecap:round;stroke-linejoin:round;stroke-miterlimit:10;stroke-dasharray:none;stroke-opacity:1" d="M 0,0 C 29.5,2.75 46.751,33.333 64.751,28.583 52.751,21.083 40.75,6 24,-18.75 20.066,-24.562 -8.035,-0.749 0,0 Z"/>
            </g>
            <g transform="translate(255.75,491.0005)" id="g296">
                <path id="path298" style="fill:#555555;fill-opacity:1;fill-rule:nonzero;stroke:none" d="m 0,0 c 13.333,12.333 37.168,7.529 56.5,0.5 11,-4 25.25,-0.75 26.25,-3 C 85.111,-7.814 70.875,-18.625 59.125,-18.375 47.375,-18.125 28,3.75 0,0"/>
            </g>
            <g transform="translate(255.75,491.0005)" id="g300">
                <path id="path302" style="fill:none;stroke:#555555;stroke-width:2;stroke-linecap:round;stroke-linejoin:round;stroke-miterlimit:10;stroke-dasharray:none;stroke-opacity:1" d="m 0,0 c 13.333,12.333 37.168,7.529 56.5,0.5 11,-4 25.25,-0.75 26.25,-3 C 85.111,-7.814 70.875,-18.625 59.125,-18.375 47.375,-18.125 28,3.75 0,0 Z"/>
            </g>
            <g transform="translate(460.5,469.75)" id="g304">
                <path id="path306" style="fill:#555555;fill-opacity:1;fill-rule:nonzero;stroke:none" d="M 0,0 C 6.75,-2 32.5,48.5 45,43.5 84.774,27.59 33,-33.25 16.5,-34.5 0,-35.75 -3.865,1.145 0,0"/>
            </g>
            <g transform="translate(460.5,469.75)" id="g308">
                <path id="path310" style="fill:none;stroke:#555555;stroke-width:2;stroke-linecap:butt;stroke-linejoin:miter;stroke-miterlimit:10;stroke-dasharray:none;stroke-opacity:1" d="M 0,0 C 6.75,-2 32.5,48.5 45,43.5 84.774,27.59 33,-33.25 16.5,-34.5 0,-35.75 -3.865,1.145 0,0 Z"/>
            </g>
            <g transform="translate(316.75,475.75)" id="g312">
                <path id="path314" style="fill:#555555;fill-opacity:1;fill-rule:nonzero;stroke:none" d="m 0,0 c -11,-4.75 -50,36 -66.5,9.75 -10.86,-17.278 22,-52.25 45.5,-56 C 2.5,-50 5.811,2.509 0,0"/>
            </g>
            <g id="g320">
                <g id="g322"/>
                <g id="g328">
                    <g id="g330" clip-path="url(#clipPath324)">
                        <g id="g332" transform="translate(491.167,503.5005)">
                            <path id="path334" style="fill:#555555;fill-opacity:1;fill-rule:nonzero;stroke:none" d="m 0,0 c -2.167,-6.917 -19.917,-24.833 -17.417,-40.25 0.919,-5.666 6.999,-22.584 9.583,-21.917 2.584,0.667 9.083,4.667 8.5,3.75 -0.583,-0.917 -9,-7.166 -12.25,-8.75 -3.083,1.667 -16.597,32.765 -14.666,34.5 C -20.5,-27.5 -2.5,-0.333 0,0"/>
                        </g>
                    </g>
                </g>
            </g>
            <g id="g336">
                <g id="g338"/>
                <g id="g344">
                    <g id="g346" clip-path="url(#clipPath340)">
                        <g id="g348" transform="translate(250.833,484.5005)">
                            <path id="path350" style="fill:#555555;fill-opacity:1;fill-rule:nonzero;stroke:none" d="m 0,0 c 12,7.333 34,4.25 46.75,-8.25 4.542,-4.453 5.834,-19.583 -4.416,-29.917 -4.067,-4.101 24.167,14.5 24.25,19.917 0.083,5.416 -1.836,6.953 -6,8.5 C 45.104,-4 28.813,9.166 14.667,8.875 5.567,8.688 1.25,2.333 0,0"/>
                        </g>
                    </g>
                </g>
            </g>
            <g id="g352">
                <g id="g354"/>
                <g id="g360">
                    <g style="opacity:0.25" id="g362" clip-path="url(#clipPath356)">
                        <g id="g364" transform="translate(496,507.375)">
                            <path id="path366" style="fill:#555555;fill-opacity:1;fill-rule:nonzero;stroke:none" d="m 0,0 c 27.375,-15.125 -16.75,-38 -13.5,-66.5 -5.75,0.625 -19.891,28.191 -16.375,30.625 C -25,-32.5 -4.588,1.27 0,0"/>
                        </g>
                    </g>
                </g>
            </g>
            <g transform="translate(284.5205,414.8398)" id="g368">
                <path id="path370" style="fill:#555555;fill-opacity:1;fill-rule:nonzero;stroke:none" d="m 0,0 c 0.442,1.999 0.693,4.043 0.847,6.125 0.163,2.078 0.298,4.18 0.675,6.224 0.122,1.042 0.453,2.026 0.903,2.971 0.398,0.961 0.748,1.937 1.133,2.901 0.757,1.931 1.551,3.85 2.382,5.753 3.371,7.592 7.446,14.885 12.189,21.664 4.725,6.789 10.092,13.088 16.192,18.593 6.076,5.529 13.108,10.026 20.699,13.159 7.577,3.173 15.618,5.122 23.728,6.115 8.111,1.042 16.29,1.254 24.408,1.131 8.135,-0.089 16.29,-0.544 24.411,-1.646 8.112,-1.115 16.214,-2.837 24.036,-5.719 3.907,-1.438 7.734,-3.186 11.387,-5.306 3.651,-2.125 7.085,-4.688 10.184,-7.636 3.098,-2.948 5.833,-6.308 8.094,-9.945 2.252,-3.646 4.008,-7.557 5.398,-11.533 1.392,-3.979 2.41,-8.03 3.286,-12.034 0.891,-3.998 1.548,-7.989 2.486,-11.752 0.475,-1.898 0.987,-3.65 1.707,-5.407 0.753,-1.883 1.48,-3.777 2.194,-5.677 1.431,-3.797 2.827,-7.61 4.181,-11.439 5.322,-15.339 9.92,-30.999 12.806,-47.021 1.416,-8.006 2.39,-16.109 2.539,-24.235 0.111,-8.109 -0.565,-16.299 -2.915,-24.06 -0.564,-1.943 -1.248,-3.847 -2.002,-5.721 -0.719,-1.897 -1.743,-3.634 -2.392,-5.586 -0.337,-0.972 -0.655,-1.973 -1.119,-2.892 -0.462,-0.922 -1.024,-1.784 -1.583,-2.649 -1.125,-1.725 -2.358,-3.385 -3.685,-4.972 -5.328,-6.35 -12.1,-11.442 -19.357,-15.411 -7.282,-3.967 -15.03,-6.948 -22.914,-9.229 -7.887,-2.293 -15.891,-4.028 -23.919,-5.485 -8.029,-1.449 -16.092,-2.603 -24.165,-3.578 -4.035,-0.496 -8.078,-0.896 -12.12,-1.289 l -6.069,-0.552 c -1.99,-0.169 -4.064,-0.358 -6.144,-0.467 -16.611,-0.916 -33.177,1.453 -49.029,5.88 -7.933,2.223 -15.711,4.98 -23.272,8.263 -7.556,3.298 -14.915,7.088 -21.891,11.666 -3.481,2.304 -6.871,4.791 -10.048,7.718 -0.784,0.726 -1.586,1.515 -2.319,2.302 -0.739,0.8 -1.421,1.57 -2.114,2.376 -1.371,1.607 -2.682,3.274 -3.917,5.004 -4.951,6.888 -8.633,14.987 -9.899,23.578 -1.305,8.59 -0.169,17.325 2.297,25.351 2.476,8.062 6.13,15.559 10.155,22.701 4.036,7.144 8.476,13.961 12.631,20.826 2.086,3.423 4.098,6.864 5.857,10.361 1.751,3.502 3.277,7.017 4.076,10.614 L 0,0 Z m 5.953,-1.383 c -1.024,-4.293 -2.819,-8.221 -4.724,-11.91 -1.934,-3.694 -4.04,-7.214 -6.154,-10.693 -4.266,-6.93 -8.595,-13.702 -12.425,-20.683 -3.829,-6.963 -7.236,-14.123 -9.373,-21.574 -2.158,-7.425 -2.97,-15.144 -1.754,-22.565 1.148,-7.431 4.362,-14.453 8.862,-20.641 1.122,-1.551 2.32,-3.056 3.582,-4.515 0.628,-0.722 1.292,-1.459 1.927,-2.14 0.645,-0.691 1.286,-1.318 1.983,-1.965 2.77,-2.552 5.913,-4.869 9.171,-7.019 6.544,-4.29 13.606,-7.931 20.861,-11.089 7.267,-3.148 14.762,-5.8 22.393,-7.931 7.632,-2.129 15.405,-3.738 23.242,-4.729 7.834,-0.992 15.735,-1.401 23.584,-1.013 1.957,0.092 3.908,0.258 5.945,0.418 l 6.006,0.511 c 4.006,0.352 8.003,0.767 11.998,1.174 7.989,0.832 15.951,1.841 23.85,3.134 7.899,1.289 15.732,2.889 23.416,4.94 7.67,2.075 15.245,4.47 22.432,7.732 7.165,3.259 14.001,7.386 19.629,12.967 1.405,1.392 2.731,2.868 3.966,4.421 0.629,0.771 1.195,1.585 1.809,2.374 0.621,0.784 1.32,1.531 1.962,2.326 1.3,1.587 2.008,3.509 2.797,5.362 0.756,1.873 1.37,3.802 1.899,5.749 2.019,7.826 2.488,15.969 1.929,23.983 -0.522,8.03 -1.959,15.968 -3.858,23.774 -3.809,15.623 -9.345,30.762 -15.249,45.717 -1.466,3.746 -2.975,7.474 -4.519,11.19 l -2.321,5.574 c -0.845,1.971 -1.507,4.097 -2.041,6.11 -1.06,4.07 -1.837,8.04 -2.683,11.933 -0.844,3.889 -1.801,7.691 -3.073,11.346 -2.523,7.301 -6.394,13.991 -11.829,19.34 -5.422,5.351 -12.176,9.381 -19.416,12.353 -7.257,2.971 -14.999,4.919 -22.846,6.279 -7.859,1.349 -15.851,2.118 -23.868,2.505 C 95.032,81.716 87.001,81.771 79.051,80.93 71.12,80.051 63.255,78.337 55.904,75.271 48.567,72.2 41.776,67.862 35.947,62.456 30.119,57.036 25.454,50.449 21.858,43.393 18.257,36.321 15.652,28.811 13.487,21.227 12.936,19.332 12.417,17.428 11.936,15.514 11.704,14.554 11.443,13.604 11.257,12.631 11.164,12.145 11.101,11.649 10.964,11.176 10.838,10.7 10.63,10.248 10.441,9.789 9.704,7.95 8.779,6.152 7.949,4.313 7.106,2.479 6.414,0.594 5.961,-1.348 L 5.953,-1.383 Z"/>
            </g>
            <g transform="translate(287.501,414.166)" id="g372">
                <path id="path374" style="fill:none;fill-opacity:1;fill-rule:nonzero;stroke:none" d="m 0,0 c -6.334,-28 -61.667,-72.333 -19.667,-117.666 14.305,-15.44 60.715,-39.063 107.333,-34.667 121.083,11.417 151.667,40.667 100.667,166.001 -8.292,20.377 1,67.332 -88,69.999 C 62.962,84.787 18.021,79.661 0,0"/>
            </g>
            <g transform="translate(306.6748,469.791)" id="g380">
                <path id="path382" style="fill:#555555;fill-opacity:1;fill-rule:nonzero;stroke:none" d="m 0,0 c 2.244,3.547 4.92,6.475 7.766,9.125 2.852,2.641 5.899,4.972 9.067,7.075 6.34,4.202 13.158,7.496 20.203,10.052 14.13,5.034 29.158,7.003 43.899,6.59 14.593,-0.401 29.415,-2.255 43.53,-7.335 7.032,-2.545 13.848,-5.946 20.018,-10.37 6.174,-4.408 11.65,-9.859 16.052,-16.029 4.421,-6.164 7.766,-12.991 10.225,-20.006 2.468,-7.023 4.053,-14.24 5.243,-21.4 0.596,-3.581 1.092,-7.154 1.586,-10.68 0.501,-3.514 0.979,-7.021 1.711,-10.266 0.367,-1.608 0.817,-3.168 1.393,-4.38 l 0.107,-0.219 0.113,-0.212 0.315,-0.564 0.665,-1.194 1.297,-2.408 c 1.704,-3.225 3.291,-6.516 4.743,-9.871 2.903,-6.707 5.271,-13.675 6.879,-20.84 1.599,-7.161 2.446,-14.514 2.359,-21.872 -0.131,-14.699 -4.168,-29.425 -11.962,-41.848 l -0.001,-0.001 c -0.555,-0.953 -1.777,-1.278 -2.73,-0.723 -0.866,0.503 -1.213,1.556 -0.856,2.459 l 0.018,0.044 c 2.113,5.367 4.355,10.555 6.089,15.865 1.73,5.287 3.022,10.705 3.049,16.028 0.057,5.309 -1.382,10.429 -4.502,14.474 -0.195,0.251 -0.39,0.511 -0.582,0.733 l -0.289,0.348 -0.355,0.4 c -0.413,0.468 -0.864,0.921 -1.336,1.37 -0.945,0.896 -1.981,1.757 -3.053,2.589 -2.152,1.661 -4.458,3.212 -6.816,4.699 -9.486,5.929 -19.657,11.041 -29.844,16.041 -10.216,4.976 -20.554,9.758 -30.913,14.52 -20.728,9.515 -41.541,18.941 -62.051,29.273 -10.24,5.207 -20.419,10.595 -30.283,16.897 -4.919,3.191 -9.778,6.549 -14.343,10.808 -2.26,2.173 -4.505,4.514 -6.324,7.808 -0.882,1.655 -1.677,3.629 -1.849,6.017 -0.084,1.181 0.014,2.449 0.326,3.661 0.156,0.605 0.358,1.196 0.602,1.757 0.196,0.48 0.671,1.33 0.774,1.487 L 0,0 Z M 8.378,-5.151 C 8.104,-5.6 8.241,-5.379 8.146,-5.55 8.102,-5.642 8.072,-5.727 8.045,-5.811 7.995,-5.979 7.969,-6.15 7.977,-6.392 c 0.007,-0.47 0.219,-1.236 0.665,-2.096 0.891,-1.744 2.541,-3.682 4.365,-5.469 3.715,-3.608 8.205,-6.885 12.8,-9.972 9.261,-6.161 19.178,-11.658 29.18,-16.97 20.059,-10.591 40.693,-20.31 61.214,-30.321 10.27,-4.995 20.539,-10.019 30.73,-15.26 10.173,-5.28 20.327,-10.636 30.061,-17.033 2.425,-1.62 4.818,-3.316 7.134,-5.203 1.157,-0.947 2.295,-1.941 3.393,-3.037 0.546,-0.549 1.089,-1.121 1.604,-1.735 l 0.345,-0.409 0.385,-0.484 c 0.263,-0.326 0.49,-0.642 0.723,-0.961 1.847,-2.561 3.239,-5.479 4.064,-8.514 0.838,-3.038 1.119,-6.164 1.031,-9.211 -0.202,-6.119 -1.79,-11.899 -3.736,-17.383 -1.956,-5.494 -4.387,-10.732 -6.588,-15.924 l -3.569,1.779 0,0.001 c 7.069,12.003 10.456,25.949 10.201,39.781 -0.222,13.868 -3.974,27.525 -9.792,40.156 -1.458,3.163 -3.046,6.27 -4.747,9.318 l -2.718,4.754 c -0.995,1.997 -1.539,3.891 -2.021,5.744 -0.92,3.702 -1.476,7.268 -2.068,10.804 -0.578,3.53 -1.145,7.016 -1.802,10.463 -1.303,6.887 -2.978,13.626 -5.375,20.033 -2.385,6.404 -5.518,12.46 -9.525,17.831 -3.998,5.377 -8.868,10.04 -14.383,13.825 -5.513,3.795 -11.643,6.723 -18.069,8.912 -12.892,4.372 -26.812,5.901 -40.706,6.009 C 73.859,23.112 67.02,22.664 60.263,21.59 53.514,20.531 46.869,18.903 40.49,16.6 34.107,14.333 27.948,11.439 22.351,7.801 19.555,5.986 16.897,3.987 14.49,1.802 12.091,-0.376 9.915,-2.771 8.318,-5.249 l 0.06,0.098 z"/>
            </g>
            <g transform="translate(310,468)" id="g384">
                <path id="path386" style="fill:#555555;fill-opacity:1;fill-rule:nonzero;stroke:none" d="m 0,0 c -16.542,-25.563 3.25,-124 107.25,-110.75 11.016,1.403 47.593,20.896 72.25,-6.5 13.5,-15 -4.717,-53.112 0,-45.25 5.25,8.75 25.5,42.5 -4.75,94.5 -9.699,16.673 6.252,97.083 -97.916,98 C 36.803,30.352 11.001,17 0,0"/>
            </g>
            <g id="g404">
                <g id="g406"/>
                <g id="g412">
                    <g style="opacity:0.25" id="g414" clip-path="url(#clipPath408)">
                        <g id="g416" transform="translate(391,387.166)">
                            <path id="path418" style="fill:#777777;fill-opacity:1;fill-rule:nonzero;stroke:none" d="m 0,0 c 0,-2.301 -4.402,-4.166 -9.834,-4.166 -5.431,0 -9.833,1.865 -9.833,4.166 0,2.302 4.402,4.167 9.833,4.167 C -4.402,4.167 0,2.302 0,0"/>
                        </g>
                    </g>
                </g>
            </g>
            <g transform="translate(373.75,399.5)" id="g420">
                <path id="path422" style="fill:#777777;fill-opacity:1;fill-rule:nonzero;stroke:none" d="m 0,0 c 2.25,1.5 14.25,1 15.75,-0.5 1.5,-1.5 4.875,-7.875 1,-10.5 -1.325,-0.897 -1.427,2.86 -4.375,2.25 -3.625,-0.75 -1.706,-5.455 -4.5,-5.375 -4.375,0.125 -0.164,5.083 -4,5.75 -2.875,0.5 -3.52,-2.217 -4.75,-2 C -5.125,-9.625 -3.147,-2.099 0,0"/>
            </g>
            <g id="g424">
                <g id="g426"/>
                <g id="g432">
                    <g id="g434" clip-path="url(#clipPath428)">
                        <g id="g436" transform="translate(380.2207,400.4053)">
                            <path id="path438" style="fill:#777777;fill-opacity:1;fill-rule:nonzero;stroke:none" d="m 0,0 c -2.875,0 -5.528,-0.277 -6.471,-0.905 -3.147,-2.099 -5.125,-9.625 -0.875,-10.375 0.047,-0.009 0.094,-0.013 0.14,-0.013 1.043,0 1.719,2.074 3.927,2.074 0.213,0 0.44,0.043 0.683,10e-4 3.836,-0.667 -0.375,-5.687 4,-5.687 l 0.07,0 c 2.692,0 0.837,4.57 4.43,5.312 0.224,0.047 0.431,0.036 0.623,0.036 2.075,0 2.456,-2.472 3.362,-2.472 0.119,0 0.248,0.035 0.39,0.132 3.875,2.625 0.5,8.996 -1,10.496 C 8.407,-0.529 3.99,0.001 0,0 m 0.001,-1 0,0 c 4.525,0 8.044,-0.65 8.571,-1.112 0.965,-0.965 2.715,-4.174 2.483,-6.615 -0.089,-0.932 -0.451,-1.647 -1.106,-2.178 -0.072,0.094 -0.151,0.205 -0.218,0.299 -0.539,0.754 -1.44,2.018 -3.204,2.018 -0.265,0 -0.543,-0.029 -0.826,-0.088 -2.515,-0.52 -3.033,-2.504 -3.376,-3.858 -0.346,-1.367 -0.471,-1.371 -0.887,-1.371 l -0.005,0 c -1.231,0 -1.26,0.221 -1.228,1.717 0.027,1.303 0.074,3.455 -2.629,3.924 -0.292,0.051 -0.579,0.061 -0.855,0.061 -1.706,0 -2.722,-0.968 -3.394,-1.603 -0.173,-0.164 -0.427,-0.408 -0.553,-0.475 -0.524,0.102 -1.217,0.389 -1.468,1.585 -0.457,2.177 0.971,5.755 2.778,6.96 C -5.365,-1.369 -3.322,-1 0.001,-1"/>
                        </g>
                    </g>
                </g>
            </g>
            <g id="g440">
                <g id="g442"/>
                <g id="g448">
                    <g style="opacity:0.25" id="g450" clip-path="url(#clipPath444)">
                    </g>
                </g>
            </g>
            <g id="g456">
                <g id="g458"/>
                <g id="g464">
                    <g style="opacity:0.5" id="g466" clip-path="url(#clipPath460)">
                        <g id="g468" transform="translate(347.2148,315.9766)">
                            <path id="path470" style="fill:#777777;fill-opacity:1;fill-rule:nonzero;stroke:none" d="m 0,0 c -1.358,2.16 -2.143,4.604 -2.922,7.008 -0.782,2.412 -1.46,4.854 -2.211,7.272 -1.487,4.835 -3.134,9.64 -5.397,14.123 -2.237,4.482 -5.143,8.676 -8.763,11.903 -3.642,3.198 -7.997,5.217 -12.592,6.217 l -0.003,0 -0.054,-0.033 c -1.567,0.541 -2.397,2.223 -1.856,3.789 0.506,1.466 2.049,2.271 3.527,1.926 10.876,-2.576 22.11,-3.76 33.368,-4.001 11.264,-0.235 22.571,0.46 33.804,1.81 11.236,1.356 22.406,3.364 33.459,5.891 11.04,2.542 22.02,5.558 32.694,9.204 1.569,0.537 3.275,-0.302 3.811,-1.871 0.406,-1.189 0.024,-2.457 -0.869,-3.235 l -0.049,-0.041 -0.002,-0.002 c -0.371,-0.26 -0.85,-0.707 -1.306,-1.178 -0.461,-0.477 -0.925,-1 -1.381,-1.54 -0.914,-1.081 -1.807,-2.233 -2.68,-3.407 C 98.847,51.473 97.192,49.01 95.573,46.521 92.341,41.534 89.323,36.383 86.382,31.189 83.48,25.975 80.705,20.684 78.102,15.315 76.796,12.634 75.569,9.915 74.445,7.165 73.886,5.79 73.354,4.404 72.889,3.009 72.657,2.31 72.443,1.613 72.268,0.907 72.263,0.882 72.235,0.783 72.2,0.685 72.167,0.588 72.124,0.522 72.082,0.442 71.996,0.303 71.902,0.188 71.81,0.093 c -0.187,-0.19 -0.372,-0.329 -0.556,-0.452 -0.367,-0.242 -0.731,-0.418 -1.095,-0.582 -2.907,-1.2 -5.854,-1.757 -8.813,-2.342 -2.959,-0.558 -5.927,-1.023 -8.906,-1.406 -5.955,-0.765 -11.939,-1.263 -17.932,-1.492 -5.99,-0.215 -12,-0.268 -17.977,0.289 -2.983,0.286 -5.965,0.71 -8.866,1.489 -1.446,0.396 -2.876,0.882 -4.22,1.561 C 2.115,-2.164 0.828,-1.273 0,0 m 0.07,0.047 c 0.828,-1.25 2.104,-2.118 3.43,-2.781 1.337,-0.663 2.763,-1.136 4.205,-1.519 2.894,-0.754 5.869,-1.154 8.847,-1.415 5.964,-0.491 11.964,-0.458 17.936,-0.105 5.973,0.367 11.928,1.002 17.837,1.901 2.953,0.456 5.899,0.967 8.809,1.616 2.882,0.678 5.841,1.382 8.436,2.578 0.314,0.155 0.618,0.323 0.869,0.503 0.259,0.185 0.421,0.378 0.387,0.417 0.157,0.755 0.356,1.499 0.567,2.231 0.425,1.465 0.915,2.896 1.43,4.317 1.034,2.838 2.18,5.623 3.334,8.402 2.33,5.551 4.854,11.011 7.471,16.429 2.588,5.435 5.324,10.797 8.188,16.124 1.436,2.664 2.92,5.308 4.513,7.928 0.791,1.316 1.609,2.625 2.506,3.93 0.449,0.652 0.918,1.303 1.436,1.96 0.526,0.657 1.068,1.312 1.845,2.016 l 0.006,0.006 2.895,-5.147 C 94.046,55.691 82.941,52.646 71.699,50.055 60.459,47.484 49.09,45.439 37.619,44.055 26.15,42.677 14.573,41.957 2.969,42.199 c -11.595,0.249 -23.237,1.656 -34.627,4.354 l 1.616,5.97 0.004,0 c 5.053,-3 9.579,-5.799 12.968,-9.906 3.471,-4.041 5.876,-8.814 7.778,-13.558 1.895,-4.766 3.258,-9.718 4.541,-14.621 C -4.11,11.986 -3.47,9.511 -2.766,7.08 -2.024,4.669 -1.254,2.204 0.07,0.047"/>
                        </g>
                    </g>
                </g>
            </g>
            <g id="g472">
                <g id="g474"/>
                <g id="g480">
                </g>
            </g>
            <g transform="translate(347.25,316)" id="g488">
                <path id="path490" style="fill:#333333;fill-opacity:1;fill-rule:nonzero;stroke:none" d="M 0,0 C 7.75,-12 70.437,-3.736 71.5,1 74.25,13.25 96.75,56.25 104,62.25 91,57.75 23.75,36.25 -31,49.25 -6.25,41.25 -6.02,9.321 0,0"/>
            </g>
            <g id="g492">
                <g id="g494"/>
                <g id="g500">
                    <g id="g502" clip-path="url(#clipPath496)">
                        <g id="g504" transform="translate(451.25,378.25)">
                            <path id="path506" style="fill:#333333;fill-opacity:1;fill-rule:nonzero;stroke:none" d="m 0,0 c -10.052,-3.479 -52.537,-17.122 -96.599,-17.122 -12.924,0 -25.983,1.174 -38.401,4.122 24.75,-8 24.98,-39.929 31,-49.25 2.957,-4.578 13.914,-6.207 26.391,-6.207 20.226,0 44.451,4.277 45.109,7.207 C -29.75,-49 -7.25,-6 0,0 m -8.432,-5.867 c -9.785,-14.716 -24.002,-43.229 -26.798,-53.92 -3.708,-2.031 -23.159,-5.67 -42.379,-5.67 -15.297,0 -22.362,2.497 -23.87,4.835 -1.44,2.228 -2.623,6.434 -3.992,11.304 -2.598,9.243 -6.133,21.819 -14.779,30.625 7.483,-0.951 15.391,-1.429 23.651,-1.429 35.981,0 71.051,9.067 88.167,14.255"/>
                        </g>
                    </g>
                </g>
            </g>
            <g transform="translate(373.084,309.7188)" id="g540">
                <path id="path542" style="fill:#555555;fill-opacity:1;fill-rule:nonzero;stroke:none" d="m 0,0 c -12.929,0 -21.462,1.858 -24.678,5.373 -0.248,0.298 -0.3,2.094 1.166,5.483 3.57,8.251 14.745,22.523 33.988,23.677 1.274,0.076 2.564,0.115 3.836,0.115 22.58,0 36.202,-11.463 36.237,-13.504 -0.252,-0.616 -0.639,-1.54 -1.103,-2.652 -1.217,-2.91 -3.05,-7.298 -4.69,-12.197 C 42.765,4.489 20.221,0 0,0"/>
            </g>
            <g transform="translate(387.3955,345.3672)" id="g544">
                <path id="path546" style="fill:#777777;fill-opacity:1;fill-rule:nonzero;stroke:none" d="m 0,0 c -1.275,0 -2.575,-0.038 -3.896,-0.117 -26.453,-1.587 -38.615,-27.791 -35.832,-30.833 3.864,-4.223 13.983,-5.698 25.416,-5.698 20.383,0 44.942,4.69 45.667,6.865 2.25,6.75 4.833,12.416 5.833,15 C 38.214,-12.133 22.869,0.001 0,0 m 0.002,-2 c 20.179,0 33.689,-9.698 35.159,-12.473 -0.251,-0.628 -0.58,-1.414 -0.949,-2.298 -1.195,-2.858 -2.983,-7.132 -4.604,-11.932 -3.185,-1.804 -24.319,-5.945 -43.92,-5.945 -12.269,0 -20.702,1.739 -23.8,4.9 -0.155,1.056 0.881,5.226 4.632,10.568 3.367,4.798 13.002,16.065 29.705,17.067 C -2.522,-2.038 -1.252,-2 0.001,-2 l 0.001,0"/>
            </g>
            <g id="g548">
                <g id="g550"/>
                <g id="g556">
                    <g id="g558" clip-path="url(#clipPath552)">
                        <g id="g560" transform="translate(348.084,315.917)">
                            <path id="path562" style="fill:#555555;fill-opacity:1;fill-rule:nonzero;stroke:none" d="m 0,0 c -1.73,-8.188 48.082,31.749 74.916,12.582 5.5,7.333 -24.166,19.918 -41.5,17 C 18.782,27.118 3.75,17.75 0,0"/>
                        </g>
                    </g>
                </g>
            </g>
            <g transform="translate(358.25,358.75)" id="g564">
                <path id="path566" style="fill:#f9fbf4;fill-opacity:1;fill-rule:nonzero;stroke:none" d="m 0,0 c 2.5,-4.5 7.25,-26.5 9.25,-27 2,-0.5 14.25,-4 16,-3.25 1.75,0.75 1.628,4.998 3.5,3.75 1.5,-1 2.25,-3 3.75,-2.25 2.684,1.342 10.75,6.25 12,8.5 1.25,2.25 1,14.75 0,24.75 C 39.25,2.25 9,-1 0,0"/>
            </g>
            <g id="g568">
                <g id="g570"/>
                <g id="g576">
                    <g id="g578" clip-path="url(#clipPath572)">
                        <g id="g580" transform="translate(402.75,363.25)">
                            <path id="path582" style="fill:#777777;fill-opacity:1;fill-rule:nonzero;stroke:#777777" d="m 0,0 c -4.579,-1.963 -28.181,-4.687 -40.107,-4.687 -1.747,0 -3.244,0.059 -4.393,0.187 2.5,-4.5 7.25,-26.5 9.25,-27 1.808,-0.452 11.99,-3.354 15.223,-3.354 0.343,0 0.609,0.032 0.777,0.104 1.528,0.655 1.629,3.978 2.877,3.978 0.181,0 0.386,-0.07 0.623,-0.228 1.271,-0.848 2.004,-2.415 3.112,-2.415 0.199,0 0.409,0.051 0.638,0.165 2.684,1.342 10.75,6.25 12,8.5 C 1.25,-22.5 1,-10 0,0 m -0.875,-1.355 c 0.945,-10.273 0.962,-21.18 0.001,-22.91 -1.007,-1.811 -8.305,-6.457 -11.573,-8.09 -0.054,-0.028 -0.131,-0.06 -0.191,-0.06 -0.233,0 -0.694,0.494 -1.063,0.891 -0.418,0.447 -0.893,0.955 -1.494,1.356 -0.395,0.263 -0.79,0.396 -1.178,0.396 -1.295,0 -1.828,-1.308 -2.256,-2.359 -0.265,-0.646 -0.626,-1.533 -0.997,-1.693 -0.004,-0.001 -0.105,-0.03 -0.401,-0.03 -2.572,0 -10.208,2.048 -13.469,2.924 -0.584,0.157 -1.052,0.283 -1.363,0.363 -0.946,1.066 -2.948,8.106 -4.417,13.275 -1.312,4.61 -2.564,9.015 -3.616,11.667 0.822,-0.041 1.751,-0.062 2.785,-0.062 11.478,0 32.55,2.385 39.232,4.332"/>
                        </g>
                    </g>
                </g>
            </g>
            <g id="g600">
                <g id="g602"/>
                <g id="g608">
                    <g id="g610" clip-path="url(#clipPath604)">
                        <g id="g612" transform="translate(380.458,354.3682)">
                            <path id="path614" style="fill:#777777;fill-opacity:1;fill-rule:nonzero;stroke:none" d="m 0,0 c 0.842,-1.735 1.498,-3.521 2.148,-5.305 0.643,-1.786 1.247,-3.582 1.834,-5.383 l 1.715,-5.414 1.644,-5.395 -2.596,-0.742 -1.246,5.548 -1.296,5.496 c -0.448,1.827 -0.912,3.65 -1.413,5.459 -0.507,1.804 -1.024,3.613 -1.704,5.332 L 0,0 Z"/>
                        </g>
                    </g>
                </g>
            </g>
            <g id="g616">
                <g id="g618"/>
                <g id="g624">
                    <g style="opacity:0.39999402" id="g626" clip-path="url(#clipPath620)">
                        <g id="g628" transform="translate(253.584,481.9165)">
                            <path id="path630" style="fill:#555555;fill-opacity:1;fill-rule:nonzero;stroke:none" d="M 0,0 C 19.917,-5.083 16.667,-39.5 28.5,-42.167 40.333,-44.833 55.916,-13.875 57.416,-7.042 34.479,2.708 23.853,14.229 7.479,10.896 1.99,9.779 -5.641,1.439 0,0"/>
                        </g>
                    </g>
                </g>
            </g>
            <g transform="translate(378.75,431.75)" id="g648">
                <path id="path650" style="fill:#333333;fill-opacity:1;fill-rule:nonzero;stroke:none" d="m 0,0 c 1.797,0 8.914,0.5 10.5,-0.75 9.065,-7.146 8.676,-36.101 18.25,-45.25 8.451,-8.075 54.5,-14 62.5,-4.75 8,9.25 19.75,37.25 22.5,39.25 2.75,2 8.75,3.5 10.5,6.25 1.75,2.75 0.25,15 -4,14.5 C 116,8.75 108,6 103,7.5 98,9 73.75,24.25 12.75,15 6.933,14.118 1,15 -3,16 c -4,1 -27,14.25 -88.25,5.5 -6.122,-0.875 -14.5,1.75 -17.5,1.5 -3,-0.25 -4,-9.75 -2.75,-12.25 1.25,-2.5 7.5,-4.5 8.25,-7.5 0.75,-3 6.25,-32.5 20.75,-44.75 15.277,-12.907 54.536,-3.975 58,-1.5 C -8.75,-31.75 -5.25,0 0,0"/>
            </g>
            <g id="g652">
                <g id="g654"/>
                <g id="g660">
                    <g id="g662" clip-path="url(#clipPath656)">
                        <g id="g664" transform="translate(326.0381,456.2231)">
                            <path id="path666" style="fill:#1a1a1a;fill-opacity:1;fill-rule:nonzero;stroke:none" d="m 0,0 c -10.724,0 -23.473,-0.821 -38.538,-2.973 -0.88,-0.126 -1.808,-0.179 -2.758,-0.179 -5.359,0 -11.478,1.695 -14.297,1.696 -0.159,0 -0.307,-0.006 -0.445,-0.017 -3,-0.25 -4,-9.75 -2.75,-12.25 1.25,-2.5 7.5,-4.5 8.25,-7.5 0.75,-3 6.25,-32.5 20.75,-44.75 6.083,-5.14 15.973,-6.817 25.887,-6.817 14.984,0 30.028,3.828 32.113,5.317 15.75,11.25 19.25,43 24.5,43 0.799,0 2.649,0.099 4.598,0.099 2.434,0 5.021,-0.155 5.902,-0.849 9.065,-7.146 8.676,-36.101 18.25,-45.25 5.403,-5.163 26.18,-9.447 42.552,-9.447 9.232,0 17.063,1.361 19.948,4.697 8,9.25 19.75,37.25 22.5,39.25 2.75,2 8.75,3.5 10.5,6.25 1.715,2.695 0.309,14.515 -3.749,14.515 -0.083,0 -0.166,-0.005 -0.251,-0.015 -3.357,-0.395 -9.051,-2.193 -13.761,-2.193 -1.254,0 -2.437,0.127 -3.489,0.443 -3.85,1.155 -19.114,10.458 -53.765,10.46 -10.359,0 -22.445,-0.831 -36.485,-2.96 -1.681,-0.255 -3.372,-0.363 -5.023,-0.363 -4.062,0 -7.883,0.652 -10.727,1.363 C 46.696,-7.719 32.874,0 0,0 m 0,-3 c 27.26,0 41.191,-5.435 46.437,-7.48 1.143,-0.447 1.899,-0.742 2.547,-0.904 2.65,-0.662 6.788,-1.452 11.455,-1.452 1.897,0 3.738,0.134 5.473,0.397 12.806,1.941 24.93,2.926 36.035,2.926 28.661,-0.002 43.571,-6.417 49.937,-9.156 1.279,-0.551 2.204,-0.949 2.966,-1.178 1.277,-0.383 2.701,-0.569 4.351,-0.569 3.322,0 6.861,0.76 9.982,1.431 1.398,0.3 2.728,0.586 3.76,0.734 1.375,-1.505 2.225,-8.194 1.465,-9.896 -0.638,-0.936 -3.164,-2.079 -5.012,-2.916 -1.748,-0.791 -3.397,-1.537 -4.699,-2.484 -1.604,-1.167 -3.315,-4.382 -8.188,-14.023 -4.641,-9.179 -10.415,-20.602 -14.817,-25.69 -1.529,-1.77 -6.977,-3.66 -17.678,-3.66 -15.878,0 -35.928,4.267 -40.48,8.616 -4.153,3.97 -6.351,13.102 -8.477,21.934 -2.388,9.92 -4.643,19.29 -9.988,23.503 -1.362,1.074 -3.538,1.493 -7.759,1.493 -1.236,0 -2.399,-0.038 -3.334,-0.067 -0.536,-0.017 -0.974,-0.032 -1.264,-0.032 -4.218,0 -5.986,-4.948 -9.196,-13.93 -3.532,-9.879 -8.366,-23.405 -17.02,-29.608 -1.97,-1.165 -16.163,-4.779 -30.397,-4.779 -10.939,0 -19.221,2.113 -23.952,6.109 -5.736,4.847 -13.774,16.053 -19.486,41.914 -0.129,0.586 -0.225,1.017 -0.289,1.271 -0.698,2.794 -3.384,4.538 -5.753,6.078 -0.901,0.585 -2.401,1.559 -2.723,2.038 -0.531,1.379 -0.056,6.315 0.863,7.913 0.979,-0.057 2.524,-0.319 4.148,-0.594 2.868,-0.486 6.438,-1.091 9.797,-1.091 1.139,0 2.21,0.07 3.182,0.209 C -24.442,-3.99 -11.619,-3 0,-3"/>
                        </g>
                    </g>
                </g>
            </g>
            <g id="g668">
                <g id="g670"/>
                <g id="g676">
                    <g style="opacity:0.5" id="g678" clip-path="url(#clipPath672)">
                        <g id="g680" transform="translate(292.5,434.75)">
                            <path id="path682" style="fill:none;stroke:#333333;stroke-width:4;stroke-linecap:butt;stroke-linejoin:miter;stroke-miterlimit:10;stroke-dasharray:none;stroke-opacity:1" d="m 0,0 c -1.39,-1.787 -2.25,-28.5 9,-35.75 7.379,-4.755 38.75,-3.75 45,-0.25 9.864,5.523 19.454,30.895 16.75,34.5 -4.5,6 -37,14 -61.5,7.75 C 6.323,5.503 1.75,2.25 0,0 Z"/>
                        </g>
                    </g>
                </g>
            </g>
            <g transform="translate(292.5,434.75)" id="g684">
                <path id="path686" style="fill:#f9fbf4;fill-opacity:1;fill-rule:nonzero;stroke:none" d="m 0,0 c -1.39,-1.787 -2.25,-28.5 9,-35.75 7.379,-4.755 38.75,-3.75 45,-0.25 9.864,5.523 19.454,30.895 16.75,34.5 -4.5,6 -37,14 -61.5,7.75 C 6.323,5.503 1.75,2.25 0,0"/>
            </g>
            <g id="g688">
                <g id="g690"/>
                <g id="g696">
                    <g style="opacity:0.5" id="g698" clip-path="url(#clipPath692)">
                        <g id="g700" transform="translate(476.5938,423.063)">
                            <path id="path702" style="fill:none;stroke:#333333;stroke-width:4;stroke-linecap:butt;stroke-linejoin:miter;stroke-miterlimit:10;stroke-dasharray:none;stroke-opacity:1" d="m 0,0 c 1.146,-1.952 -1.459,-28.551 -13.554,-34.284 -7.932,-3.759 -38.909,1.299 -44.653,5.578 -9.066,6.755 -15.29,33.154 -12.143,36.379 5.24,5.367 38.502,9.092 61.987,-0.278 C -5.558,6.276 -1.444,2.458 0,0 Z"/>
                        </g>
                    </g>
                </g>
            </g>
            <g transform="translate(476.5938,423.063)" id="g704">
                <path id="path706" style="fill:#f9fbf4;fill-opacity:1;fill-rule:nonzero;stroke:none" d="m 0,0 c 1.146,-1.952 -1.459,-28.551 -13.554,-34.284 -7.932,-3.759 -38.909,1.299 -44.653,5.578 -9.066,6.755 -15.29,33.154 -12.143,36.379 5.24,5.367 38.502,9.092 61.987,-0.278 C -5.558,6.276 -1.444,2.458 0,0"/>
            </g>
            <g transform="translate(328.1855,418.5469)" id="g708">
                <path id="path710" style="fill:#000000;fill-opacity:1;fill-rule:nonzero;stroke:none" d="m 0,0 c -0.828,-5.81 -3.771,-10.195 -6.571,-9.796 -2.8,0.4 -4.399,5.433 -3.571,11.241 0.829,5.81 3.77,10.196 6.572,9.796 C -0.771,10.842 0.828,5.809 0,0"/>
            </g>
            <g transform="translate(448.209,411.8008)" id="g712">
                <path id="path714" style="fill:#000000;fill-opacity:1;fill-rule:nonzero;stroke:none" d="m 0,0 c 0.609,-5.837 -1.181,-10.806 -3.993,-11.099 -2.814,-0.294 -5.587,4.201 -6.195,10.036 -0.609,5.837 1.178,10.806 3.993,11.1 C -3.383,10.33 -0.608,5.836 0,0"/>
            </g>
            <g id="g716">
                <g id="g718"/>
                <g id="g724">
                    <g style="opacity:0.30000299" id="g726" clip-path="url(#clipPath720)">
                        <g id="g728" transform="translate(270.375,446.25)">
                            <path id="path730" style="fill:#333333;fill-opacity:1;fill-rule:nonzero;stroke:none" d="m 0,0 c 3.407,-2.271 6.625,-0.875 7.375,-5.375 0.75,-4.5 11.132,-43.74 24.125,-48.25 21.25,-7.375 48,-0.125 51.625,2.125 3.625,2.25 20.625,40.375 23.5,41.875 2.875,1.5 11.92,-0.168 13.875,-1 5.875,-2.5 16.646,-43.775 19.625,-45.875 13.125,-9.25 55.125,-8.5 57.125,-6 2,2.5 17.771,38.587 20.625,40.75 4.125,3.125 13.625,5.25 13.875,3.875 0.25,-1.375 -7.625,-2.625 -10,-5.625 -2.375,-3 -18.25,-37.5 -23.25,-40.5 -5.012,-3.007 -41.809,-7.95 -60.375,5.125 C 129.25,-52.625 125.75,-15 118.75,-13 c -4.55,1.3 -8,1.25 -11.25,0.375 C 103.125,-15.5 97,-47.375 83.875,-55.5 78.666,-58.725 37.792,-66.577 25.625,-53.875 2.875,-30.125 9.75,-8.875 2.375,-5.75 -2.69,-3.604 -3.75,-1 -3.625,0.875 -3.5,2.75 -1.875,1.25 0,0"/>
                        </g>
                    </g>
                </g>
            </g>
            <g id="g732">
                <g id="g734"/>
                <g id="g740">
                    <g style="opacity:0.30000299" id="g742" clip-path="url(#clipPath736)">
                        <g id="g744" transform="translate(270.75,454.25)">
                            <path id="path746" style="fill:#333333;fill-opacity:1;fill-rule:nonzero;stroke:none" d="m 0,0 c -2.379,0.865 10.25,-4.375 14.875,-4.125 4.625,0.25 12.5,3.625 15,4.375 2.274,0.683 -11.75,-1.875 -15.25,-1.625 C 11.125,-1.125 1.375,-0.5 0,0"/>
                        </g>
                    </g>
                </g>
            </g>
            <g id="g748">
                <g id="g750"/>
                <g id="g756">
                    <g style="opacity:0.30000299" id="g758" clip-path="url(#clipPath752)">
                        <g id="g760" transform="translate(368.5,447.25)">
                            <path id="path762" style="fill:#333333;fill-opacity:1;fill-rule:nonzero;stroke:none" d="m 0,0 c 4.375,-2 6.375,-6.875 10.625,-7.375 4.25,-0.5 9.375,-1.25 11.75,0.125 2.375,1.375 8.375,4.5 10.125,4.875 1.75,0.375 -13.125,-2 -18.625,-1.5 C 8.024,-3.343 1.625,-0.25 0,0"/>
                        </g>
                    </g>
                </g>
            </g>
            <g id="g764">
                <g id="g766"/>
                <g id="g772">
                    <g style="opacity:0.30000299" id="g774" clip-path="url(#clipPath768)">
                        <g id="g776" transform="translate(475.375,441.375)">
                            <path id="path778" style="fill:#333333;fill-opacity:1;fill-rule:nonzero;stroke:none" d="m 0,0 c -1.754,0.751 6.625,-6.125 9.125,-5.75 2.5,0.375 7.069,3.231 9,3.875 1.5,0.5 -6,-1.5 -8.25,-1.125 C 7.625,-2.625 1.75,-0.75 0,0"/>
                        </g>
                    </g>
                </g>
            </g>
            <g id="g780">
                <g id="g782"/>
                <g id="g788">
                    <g style="opacity:0.30000299" id="g790" clip-path="url(#clipPath784)">
                        <g id="g792" transform="translate(287.75,438.625)">
                            <path id="path794" style="fill:#333333;fill-opacity:1;fill-rule:nonzero;stroke:none" d="M 0,0 C 11.125,11 37.604,7.25 42.438,6.25 10.625,3.938 10.063,1.563 4.5,-4.063 3.688,-8.375 2.625,-22.813 7.584,-35.458 2.125,-32.313 -3.722,-3.68 0,0"/>
                        </g>
                    </g>
                </g>
            </g>
            <g id="g796">
                <g id="g798"/>
                <g id="g804">
                    <g style="opacity:0.30000299" id="g806" clip-path="url(#clipPath800)">
                        <g id="g808" transform="translate(482.6602,426.7979)">
                            <path id="path810" style="fill:#333333;fill-opacity:1;fill-rule:nonzero;stroke:none" d="M 0,0 C -9.586,12.365 -36.328,12.121 -41.251,11.764 -10.017,5.298 -9.771,2.869 -4.994,-3.437 -4.754,-7.819 -5.596,-22.271 -12.171,-34.156 -6.346,-31.755 3.206,-4.136 0,0"/>
                        </g>
                    </g>
                </g>
            </g>
            <g id="g876">
                <g id="g878"/>
                <g id="g884">
                    <g style="opacity:0.25" id="g886" clip-path="url(#clipPath880)">
                        <g id="g888" transform="translate(327.375,426)">
                            <path id="path890" style="fill:#ffffff;fill-opacity:1;fill-rule:nonzero;stroke:none" d="M 0,0 C 0,0.829 -0.672,1.5 -1.5,1.5 -2.328,1.5 -3,0.829 -3,0 c 0,-0.829 0.672,-1.5 1.5,-1.5 0.828,0 1.5,0.671 1.5,1.5"/>
                        </g>
                    </g>
                </g>
            </g>
            <g id="g892">
                <g id="g894"/>
                <g id="g900">
                    <g style="opacity:0.25" id="g902" clip-path="url(#clipPath896)">
                        <g id="g904" transform="translate(446.375,419)">
                            <path id="path906" style="fill:#ffffff;fill-opacity:1;fill-rule:nonzero;stroke:none" d="M 0,0 C 0,0.828 -0.672,1.5 -1.5,1.5 -2.328,1.5 -3,0.828 -3,0 c 0,-0.828 0.672,-1.5 1.5,-1.5 0.828,0 1.5,0.672 1.5,1.5"/>
                        </g>
                    </g>
                </g>
            </g>
            <g transform="translate(489.875,433.1875)" id="g940">
                <path id="path942" style="fill:#d0dddc;fill-opacity:1;fill-rule:nonzero;stroke:none" d="m 0,0 c 0,-0.449 -2.351,-0.813 -5.25,-0.813 -2.899,0 -5.25,0.364 -5.25,0.813 0,0.449 2.351,0.813 5.25,0.813 C -2.351,0.813 0,0.449 0,0"/>
            </g>
            <g transform="translate(286.8008,446.3066)" id="g944">
                <path id="path946" style="fill:#d0dddc;fill-opacity:1;fill-rule:nonzero;stroke:none" d="m 0,0 c -0.075,-0.443 -2.453,-0.407 -5.313,0.08 -2.858,0.487 -5.114,1.24 -5.039,1.682 0.076,0.443 2.454,0.407 5.313,-0.08 C -2.181,1.195 0.075,0.442 0,0"/>
            </g>
        </g>
    </g>
</g>
</svg>
