<?xml version="1.0" encoding="utf-8"?>
<!-- Generator: Adobe Illustrator 18.0.0, SVG Export Plug-In . SVG Version: 6.00 Build 0)  -->
<!DOCTYPE svg PUBLIC "-//W3C//DTD SVG 1.1//EN" "http://www.w3.org/Graphics/SVG/1.1/DTD/svg11.dtd">
<svg version="1.1" id="Layer_1" xmlns="http://www.w3.org/2000/svg" xmlns:xlink="http://www.w3.org/1999/xlink" x="0px" y="0px"
	 viewBox="0 0 508.9 786.5" enable-background="new 0 0 508.9 786.5" xml:space="preserve">
<g>
	<path fill="#555655" d="M449.8,462.6c-5.9,0-12.3-2.7-16.9-23.7c-4.6-21-11.4-42.4-11.4-42.4c7.3,0,11.4-3.2,11.4-3.2
		c-5-2.3-15.9-10-23.2-19.6c-7.3-9.6-26-25.1-26-25.1s0-10,0-31c0-21,13.4-37.4,13.4-37.4c-9.1,0-13.4,8.2-13.4,8.2s0-0.5,0-44.2
		s22.1-63.3,22.1-63.3c-6.8-0.5-11.4,2.7-11.4,2.7c3.2-32.3,13.1-41.9,13.1-41.9c-36.4-9.6-56.8,11.8-56.8,11.8
		c-4.1-19.6,11.9-31,11.9-31c-18.7-4.1-34.1,1.4-34.1,1.4c0-28.7,11.4-38.3,11.4-38.3c-56.9,0-89.3,42.8-89.3,42.8
		c-2.3-18.2,2.7-34.2,2.7-34.2c-55.1,23.2-69.7,74.7-69.7,74.7c-3.6-8.7-4.1-28.3-4.1-28.3s-22.8,38.2-26.9,64.6
		c-4.1,26.4,3.6,102.3,3.6,102.3s-3.6-4.6-11.4-5.5c0,0,8.2,9.1,8.2,29.6c0,0-3.2-2.7-8.7-1.4c0,0,8.7,7.7,9.6,21
		c0,0-10,6.8-15.5,13.7c0,0-8.7,0.5-13.2,1.8c0,0,7.3,4.1,8.7,7.7c0,0-21.4,21.9-32.3,39.6c0,0,9.6-5.9,16.4-4.1
		c0,0-15,18.2-20,48.3c0,0,7.3-3.6,10.5-1.8c0,0-9.1,19.1-9.6,39.2l-10,5.9l7.7,5.5c0,0-5.9,24.6-7.3,38.7c0,0,4.6-4.6,8.2-5.9
		c0,0,5,11.8,11.8,21c6.8,9.1,22.3,16.9,31.4,16.9l17.1-0.7c-2.1,9.2-6.3,16.9-15.1,17.3l-1,1.6c-0.2,0-0.4,0-0.5,0
		c-0.2,2.7-5.6,3.2-7.1,5c-4.5,5.6-8,13.4-10.3,20.3c-1.7,5.1-0.9,5.1-2.1,10.3c-0.4,1.7-2.1,3.5-2.7,5.2c4.9-1.7,18.6-2.8,25.7-3.3
		l0.1,6.4c0,0,1.2,1.1,3.1,1.9c0.1,0,0.1,0,0.2,0c0.7,0.1,1.3,0.2,1.9,0.3c10.8-1,18.3,0.9,30.8-0.2c2.4-0.3,4.7-0.6,6.8-1.8
		c0.6-1.8,0.7-1.9,1-4.3c0.1-0.4,0.1-0.8,0.2-1.4c0.2,0,0.4-0.1,0.6-0.1c0.1,0,0.2-0.1,0.4-0.1c0.1,0,0.1,0,0.2,0
		c0.2,0,0.4,0,0.6-0.1c0.1-0.1,0.3-0.1,0.4,0c2.3-0.2,5.9-0.4,8.1-0.5c7.3,0,17,0.8,17,0.8c0.6-8.2,1.2-21,14.5-58.3l3.3-2
		c0,0,40.9,14.4,78.9-0.6c3,7.4,12.7,32.3,14.3,47.9c1.3,1.8,1.2,4.2,1.2,6.6c0,2.1,0.2,4.2,0.3,6.3c1.4-0.2,6.3-0.8,12.5-0.8
		c2.3,0.1,5.9,0.3,8.1,0.5c0.1,0,0.2,0,0.4,0c0.2,0,0.4,0,0.6,0.1c0.1,0,0.1,0,0.2,0c0.3,0,0.4,0,0.4,0.1c0.2,0,0.4,0.1,0.6,0.1
		c0.1,0.5,0.1,0.9,0.2,1.4c0.3,2.3,0.4,2.4,1,4.3c0.2,0.1,0.4,0.2,0.6,0.3c6.8-0.9,13.7-1,20.5-0.7c5.4,0.3,10.7,1.3,16,2.2
		c0,0.1,0,0.1,0,0.2c0.5,0.1,1.1,0.1,1.6,0.1c2.8,0.5,5.7,1,8.6,1.3c0.1-3.6,0-6.7,0-9.5c5.7,0.3,14,1.4,17.4,1.9
		c1.4,0.3,2.5,0.5,3.7,0.8c0.2,0,0.3,0.1,0.5,0.1c0,0,0,0,0,0c1.2,0.3,2.4,0.6,4.1,1.2c-0.3-3.1-0.2-3-0.6-6.9
		c-0.3-3-2.5-12.1-6.5-15.8c0,0,4.4,1.9,5.7,2.6c-4.3-5.8-6.4-14.2-19.9-19.9c0,0,2.5-1.2,4.7-1.5c-2.4-1.5-4.2-2-6.6-1.9
		c0.8-2.3,4.4-8.1,7.4-8.9c0,0-1.8-1.3-4.8-0.3c-1.1,0.6-2.2,1.2-3.3,2c-0.4,0.3-1,0-1.1-0.4c-0.9-3.5-1.6-7.1-2.1-10.6
		c27.3-1,31.1-15,31.1-15c2.3,1.8,2.3,5.9,2.3,5.9c11.8-15.5,10.5-31,10.5-31c2.7,0.5,5,2.3,5,2.3c1.4-23.7-5.9-64.2-5.9-64.2
		c3.6,1.8,5.9-0.5,5.9-0.5c-4.1-1.8-4.6-6.4-4.6-6.4C448.9,468.1,449.8,462.6,449.8,462.6z"/>
</g>
<path fill="#555655" d="M189.2,634.5c0,0,1.1-11.5-2.7-19.8c0,0,7.1,0.5,8.3,19.3C194.8,634,189.8,634.5,189.2,634.5z"/>
<path fill="#CDEAF5" d="M153.5,595.7l0-0.4C153.5,595.5,153.5,595.6,153.5,595.7z"/>
<path fill="#CDEAF5" d="M160.1,633.6C160.1,633.6,160.1,633.6,160.1,633.6c-0.1,0,0-0.1,0-0.2L160.1,633.6z"/>
<path fill="#555655" d="M250.7,128.7c-2.3-18.2,2.7-34.2,2.7-34.2c-55.1,23.2-69.7,74.7-69.7,74.7c-3.6-8.7-4.1-28.3-4.1-28.3
	s-22.8,38.2-26.9,64.6c-4.1,26.4,3.6,102.3,3.6,102.3s-3.6-4.6-11.4-5.5c0,0,8.2,9.1,8.2,29.6c0,0-3.2-2.7-8.7-1.4
	c0,0,8.7,7.7,9.6,21c0,0-10,6.8-15.5,13.7c0,0-8.7,0.5-13.2,1.8c0,0,7.3,4.1,8.7,7.7c0,0-21.4,21.9-32.3,39.6c0,0,9.6-5.9,16.4-4.1
	c0,0-15,18.2-20,48.3c0,0,7.3-3.6,10.5-1.8c0,0-9.1,19.1-9.6,39.2l-10,5.9l7.7,5.5c0,0-5.9,24.6-7.3,38.7c0,0,4.6-4.6,8.2-5.9
	c0,0,5,11.8,11.8,21c6.8,9.1,22.3,16.9,31.4,16.9l1.2-0.2c-0.5,3.1-1.1,6.3-1.9,9.4c-0.1,0.4-0.7,0.7-1.1,0.4
	c-1.1-0.7-2.1-1.4-3.3-2c-3-1-4.8,0.3-4.8,0.3c3,0.7,6.6,6.6,7.4,8.9c-2.4-0.2-4.2,0.4-6.6,1.9c2.3,0.3,4.7,1.5,4.7,1.5
	c-13.5,5.8-15.6,14.1-19.9,19.9c1.3-0.8,5.7-2.6,5.7-2.6c-4,3.7-6.2,12.8-6.5,15.8c-0.4,3.9-0.4,3.8-0.6,6.9
	c3.6-1.2,5.3-1.4,8.2-2.1c4.5-0.7,17-2.4,21.6-1.9l-0.7,8.9c0,0,0.1,0,0.2,0c2.4-0.7,4.3-0.6,6.4-0.8c0-2.4,0.2-4.9,0.4-7.3
	c-0.1-4.2,0.4-7.9,1.2-12.2c0-0.1,0.1-0.3,0.1-0.4c1.7-5.8,4.6-9,6.5-11.1c0.6-0.7,1.2-1.5,1.6-2.3c1.1-1.5,2.3-3.5,3.2-5.9
	c1.9-5.1,1.1-16.3-2.7-27.3c4,5.7,7.6,10.7,9.3,12.4l-0.1-14c0,0,7.3,7.3,13.8,12.8c3.1,2.7,7,6.3,9.8,7.7c0.2,0.1,0.4-1.2,0.6,0.8
	h0c0,0,0.1-0.4,0.1-0.4c3.7,2.1,7.5,3.7,11.1,6c0.4,0.2,0.8,0.4,1.1,0.6c1.6,1.1,4.5,2.4,7.2,3.8l2.5,29.1
	c2.2-30.6,19.6-59.9,19.6-59.9l-0.6-0.2c-5.4-1.7-44.8-15.3-68.2-64.1c-1.5-3.2,8.7,3.6,8.7,3.6c-9.6-23.2-13.2-60.6-13.2-60.6
	c3.2,2.7,6.4,3.2,6.4,3.2c-6.8-19.1-9.6-42.8-9.6-64.2c-1.8-115.3,40.8-141.7,40.8-141.7c-7.3-2.7-15-2.5-15-2.5
	c8.4-20.3,36.4-48.5,36.4-48.5c-7.5,0.5-36.9,8.4-36.9,8.4c24.4-63.6,49-80.4,49-80.4c-1.8,15.3,4.1,31.4,4.1,31.4
	c52.8-65.4,95.3-62.3,95.3-62.3c3.1-6.6,6.7-11,6.7-11C283.1,85.9,250.7,128.7,250.7,128.7z"/>
<path fill="#CDEAF5" d="M400.1,634.2c0,0-0.5-16.5-4.3-24.8c0,0,9.8,6,9.7,25.1C405.6,634.4,400.7,634.2,400.1,634.2z"/>
<path fill="#555655" d="M132,547.8c2,10.1,4.1,19.9,6.4,29.9c1.7,0.3,3.6,0.1,3.6,0.1c1.6-6.1,1.8-15.6,3-27.2
	C140.6,550.2,136.2,549.4,132,547.8z"/>
<path fill="#555655" d="M346.1,602.3c-0.4,0.1-0.6-0.1-0.8-0.3c-0.7,0.1-1.3,0.3-1.6,0.4c0,0,0,0,0,0c9.4-6.8,10.3-14.1,10.3-14.1
	c-6.2,2.8-12.9,3.9-16.1,4.2c21.7-18.8,25.3-53.8,25.3-53.8c-8.9,10.9-21.5,20.2-31.3,26.3l0,0c0,0-6.5,3.7-12.6,6.5
	c-0.3,0-0.5,0-0.7,0.3c-3.1,1.4-6,2.6-7.7,2.9c0,0,5,9.3,7.1,14.3l-0.4,0.3c0,0,7.3,17.2,9.9,33.9c0.3,2.8,0.5,5.3,0.6,7.2
	c0.1,2.4,0.3,4.1,0.3,4.1c9.6-1.4,23.2,0,23.2,0c-0.1,1.6,0.8,5.3,1,6c4.6-0.6,9.2-0.9,13.8-0.9
	C366.5,623.5,365.8,596.6,346.1,602.3z"/>
<path fill="#555655" d="M144.8,554.1c-15.1-2.6-28.8-19.9-28.8-19.9c11,11.7,24.7,13.3,24.7,13.3c1.8-13.4-9.2-44-9.2-44
	c8.2,10.2,12.7,22,15.1,31.6L144.8,554.1z"/>
<path fill="#555655" d="M179,530.4c0,0,11.9,20.9,22.3,30c11.2,9.8,21.7,23.6,26.1,31.9c0,0,5.6-13.1,8.7-17.7
	C236.2,574.7,202.8,564.9,179,530.4z"/>
<path fill="#555655" d="M334,571.2c1.7-2.3,3.5-4.5,5.3-6.7c3-3.6,6.3-7.1,8.8-11.1c-4.3,3.2-9,6-13.9,8.9
	c-14.1,9.6-24,12.3-24,12.3c3.1,4.6,8.7,17.7,8.7,17.7c2.7-5.1,7.6-12.1,13.5-19.1C332.9,572.6,333.5,571.9,334,571.2z"/>
<path fill="#555655" d="M174.5,218.8c-1.3,0.1-5.4,0.2-5.4,0.2c-37.6,2.6-65.2-26.5-65.2-26.5s-2.5,22.7,13.8,42.6
	c16.3,19.9,49.4,23.3,49.4,23.3c1.1,4.7-1.3,15-1.3,15s9.7-10.7,12.1-31C179.7,228.3,175.3,218.7,174.5,218.8"/>
<path fill="#555655" d="M174.5,218.8c-1.2,0.1-5.4,0.2-5.4,0.2c-37.6,2.6-65.2-26.5-65.2-26.5s17.2,49.7,74.5,45.7
	C178.4,238.2,179.9,229,174.5,218.8"/>
<path fill="#555655" d="M362,218.8c1.3,0.1,5.4,0.2,5.4,0.2c37.6,2.6,65.2-26.5,65.2-26.5s2.5,22.7-13.8,42.6
	c-16.3,19.9-49.4,23.3-49.4,23.3c-1.1,4.7,1.3,15,1.3,15s-9.7-10.7-12.1-31C356.8,228.3,361.2,218.7,362,218.8"/>
<path fill="#555655" d="M362,218.8c1.2,0.1,5.4,0.2,5.4,0.2c37.6,2.6,65.2-26.5,65.2-26.5s-17.2,49.7-74.5,45.7
	C358.2,238.2,356.6,229,362,218.8"/>
<path fill="#555655" d="M154.9,387c0,0-27,97,0,159.2V387z"/>
<path fill="#555655" d="M423.7,540.5c-13.3,10.2-27.2,10.8-27.2,10.8c-0.6-13.3,13.9-42.3,13.9-42.3c-3.3,2-6,4.3-8.1,6.9l-0.1-9.7
	l10.5-8.7l-8.4-6.8l10.7-43.1l-10.3,6.8c0,0-3.2-61.3-0.9-87.7c0,0-13-13-19.4-18.2c0,0,1.2,18.9,2.6,49
	c5.8,24.2,14.9,74.2,3.6,118.2c0.1,8.9,0.2,18,0.3,27.1c0,0,5.6,19.5,7.4,33.1c0,0,1.8,0.5,4.6,0.1l-0.2-20.9
	C416.8,550.9,423.7,540.5,423.7,540.5z"/>
<path fill="#787878" d="M294.3,350c0,13.6,8.7,24.6,19.4,24.6c10.7,0,19.4-11,19.4-24.6c0-13.6-8.7-24.6-19.4-24.6
	C303,325.4,294.3,336.4,294.3,350z"/>
<ellipse fill="#F9FBF5" cx="314" cy="343.4" rx="19.1" ry="24.2"/>
<path fill="#333333" d="M308.9,330.9c-0.2,0.6-0.3,1.2-0.3,1.9c0,3.4,2.2,6.2,5,6.2c2.4,0,4.4-2.2,4.9-5.1c1.6,2,2.5,4.8,2.5,7.8
	c0,6.3-4.1,11.4-9.2,11.4c-5.1,0-9.2-5.1-9.2-11.4C302.7,336.7,305.3,332.5,308.9,330.9z"/>
<path fill="#787878" d="M201.2,350c0,13.6,8.7,24.6,19.4,24.6c10.7,0,19.4-11,19.4-24.6c0-13.6-8.7-24.6-19.4-24.6
	C209.9,325.4,201.2,336.4,201.2,350z"/>
<ellipse fill="#F9FBF5" cx="220.9" cy="343.4" rx="19.1" ry="24.2"/>
<path fill="#333333" d="M219.4,330.9c-0.2,0.6-0.3,1.2-0.3,1.9c0,3.4,2.2,6.2,5,6.2c2.4,0,4.4-2.2,4.9-5.1c1.6,2,2.5,4.8,2.5,7.8
	c0,6.3-4.1,11.4-9.2,11.4c-5.1,0-9.2-5.1-9.2-11.4C213.1,336.7,215.7,332.5,219.4,330.9z"/>
<path fill="#333333" d="M370.1,320.4c-7.9-1.1-21.6-2.5-38.1-1.6c-21.4,1.1-39.8,4.1-50.8,5.9c-3.3,0.5-5.9,1-7.8,1.2l-2.1,0.3
	c-2.4,0.3-4,0.5-5.3,0.6c-1.3-0.1-2.9-0.3-5.3-0.6l-2.1-0.3c-2-0.3-4.5-0.7-7.8-1.2c-11-1.8-29.3-4.8-50.8-5.9
	c-16.5-0.8-30.2,0.5-38.1,1.6c0,0-8.4,1.1-15.6,4.1l1.4,9.1c0,0,7.6-1.8,15-2.8c1.4,12.9,4.1,29.4,4.1,29.4l0,0.5
	c0.2,0.8,0.4,1.6,0.6,2.5c1.5,6.5,3,10.3,9.1,12.6c6,2.3,20.2,4.4,34.4,5.1c5.3,0.3,11.3-0.1,17.4-0.9c9-1.3,17.2-3.8,20.4-6.1
	c4.5-3.4,7-11.8,8.6-17.4l0.5-1.7c0.6-1.9,1.1-3.9,1.5-5.9c0.7-2.8,1.4-5.7,2-6.7c0.1-0.2,0.6-0.8,2.6-1.1c0.6-0.1,1.3-0.1,2.1-0.1
	c0.8,0,1.5,0.1,2.1,0.1c2,0.3,2.5,0.9,2.6,1.1c0.6,1,1.3,3.9,2,6.7c0.5,1.9,1,3.9,1.5,5.9l0.5,1.7c1.6,5.6,4,14.1,8.6,17.4
	c3.1,2.3,11.3,4.7,20.4,6.1c6.1,0.9,12.1,1.2,17.4,0.9c14.3-0.7,28.5-2.8,34.4-5.1c6.1-2.3,7.6-6.1,9.1-12.6
	c0.2-0.9,0.4-1.7,0.6-2.5l0-0.5c0,0,2.7-16.5,4.1-29.4c7.4,1,15,2.8,15,2.8l1.4-9.1C378.5,321.4,370.1,320.4,370.1,320.4z
	 M251.8,340.2l0,0.1c-0.4,3-2.3,18-5.5,23.1c-3.1,4.9-4.1,6.2-13.7,7.8c-0.4,0.1-0.8,0.1-1.3,0.2c-10.3,1.5-29,1.8-39.5-0.3
	l-0.7-0.1c-10.7-2.1-14.5-3-15.6-6.3c-1.5-4.5-4.4-25.3-4.6-29.8c-0.2-3.4,3-4.9,3.9-5.2c0.5-0.1,1.4-0.3,2.6-0.5
	c7.5-1.1,24-2.2,31.7-1.8c9.8,0.4,33.8,3.8,39.2,6.2C252.4,335.5,252.2,337,251.8,340.2z M356.4,364.7c-1.1,3.3-4.9,4.2-15.6,6.3
	l-0.7,0.1c-10.5,2-29.2,1.8-39.5,0.3c-0.4-0.1-0.9-0.1-1.3-0.2c-9.5-1.6-10.6-2.8-13.7-7.8c-3.2-5.1-5.1-20.1-5.5-23.1l0-0.1
	c-0.4-3.1-0.6-4.7,3.4-6.5c5.4-2.4,29.4-5.8,39.2-6.2c7.8-0.3,24.2,0.7,31.7,1.8c1.2,0.2,2.1,0.3,2.6,0.5c0.9,0.2,4,1.8,3.9,5.2
	C360.8,339.4,357.9,360.2,356.4,364.7z"/>
<path fill="#787878" d="M228,303c0,0-19.9-9.5-31.3,8.1c0,0-1.2-17.5,14.9-19.5C227.7,289.7,228,303,228,303z"/>
<path fill="#787878" d="M220.5,277.3c0,0-18.5-8.7-26.9,8c0,0-2.7-14.6,10.4-18.2C217.2,263.6,220.5,277.3,220.5,277.3z"/>
<path fill="#787878" d="M299.4,313.8c0,0,15.5-7.4,24.3,6.3c0,0,0.9-13.6-11.6-15.2C299.6,303.4,299.4,313.8,299.4,313.8z"/>
<path fill="#787878" d="M310.4,289.4c0,0,15.7-2.5,18.3,11.8c0,0,5.2-10.3-3.9-15.8C315.8,279.9,310.4,289.4,310.4,289.4z"/>
<path fill="#787878" d="M239.4,448.4c0,0,9.8-6.6,15.5-7.5c0,0,1.3,12.4,7,18.5c0,0,12.3-11.1,24.6-11.9c0,0,3.2,6.8,8.3,9.3l0,0.1
	c1.8,1.2,4.1,2.3,6.3,2.8c0,0,7-4.2,9-12c0,0,0.7,16.4-9.6,25.3c0,0-7.8-3.8-13.5-9.9c-1.7-1.6-3.5-3.6-4.3-5.1
	c0,0-18.1,12.8-18.8,20.1c0,0-13.1-12.7-17.5-22.6c0,0-8.7,2.8-11.1,4.5c0,0-7-11.5-8.4-21.8C226.8,438.1,235.2,446.2,239.4,448.4z"
	/>
<path fill="#333333" d="M218.9,405.1c-1.8-0.4,44.6,3.2,90.1,1.6c0,0,2.4-8.7,5.9-13.4c0,0-0.8,14.6,3.3,17.6c0,0-22.8,9-45.7,8.9
	c0,0,25-4.2,33.4-8.5C305.9,411.3,260.3,413.8,218.9,405.1z"/>
</svg>
