<?xml version="1.0" encoding="utf-8"?>
<!-- Generator: Adobe Illustrator 18.0.0, SVG Export Plug-In . SVG Version: 6.00 Build 0)  -->
<!DOCTYPE svg PUBLIC "-//W3C//DTD SVG 1.1//EN" "http://www.w3.org/Graphics/SVG/1.1/DTD/svg11.dtd">
<svg version="1.1" id="Layer_1" xmlns="http://www.w3.org/2000/svg" xmlns:xlink="http://www.w3.org/1999/xlink" x="0px" y="0px"
	 viewBox="139.3 86.2 363.4 561.6" enable-background="new 139.3 86.2 363.4 561.6" xml:space="preserve">
<g>
	<path fill="#555655" d="M502.7,465.8c-5.9,0-12.4-2.7-17-23.9c-4.6-21.1-11.5-42.7-11.5-42.7c7.4,0,11.5-3.2,11.5-3.2
		c-5-2.3-16-10.1-23.4-19.7c-7.4-9.7-26.2-25.3-26.2-25.3s0-10.1,0-31.2c0-21.1,13.5-37.7,13.5-37.7c-9.2,0-13.5,8.3-13.5,8.3
		s0-0.5,0-44.5s22.3-63.7,22.3-63.7c-6.8-0.5-11.5,2.7-11.5,2.7c3.2-32.5,13.2-42.2,13.2-42.2c-36.7-9.7-57.2,11.9-57.2,11.9
		c-4.1-19.7,12-31.2,12-31.2c-18.8-4.1-34.3,1.4-34.3,1.4c0-28.9,11.5-38.6,11.5-38.6c-57.3,0-89.9,43.1-89.9,43.1
		c-2.3-18.3,2.7-34.4,2.7-34.4c-55.5,23.4-70.2,75.2-70.2,75.2c-3.6-8.8-4.1-28.5-4.1-28.5s-23,38.5-27.1,65.1
		c-4.1,26.6,3.6,103,3.6,103s-3.6-4.6-11.5-5.5c0,0,8.3,9.2,8.3,29.8c0,0-3.2-2.7-8.8-1.4c0,0,8.8,7.8,9.7,21.1
		c0,0-10.1,6.8-15.6,13.8c0,0-8.8,0.5-13.3,1.8c0,0,7.4,4.1,8.8,7.8c0,0-21.5,22.1-32.5,39.9c0,0,9.7-5.9,16.5-4.1
		c0,0-15.1,18.3-20.1,48.6c0,0,7.4-3.6,10.6-1.8c0,0-9.2,19.2-9.7,39.5l-10.1,5.9l7.8,5.5c0,0-5.9,24.8-7.4,39c0,0,4.6-4.6,8.3-5.9
		c0,0,5,11.9,11.9,21.1c6.8,9.2,22.5,17,31.6,17l17.2-0.7c-2.1,9.3-6.3,17-15.2,17.4l-1,1.6c-0.2,0-0.4,0-0.5,0
		c-0.2,2.7-5.6,3.2-7.1,5c-4.5,5.6-8.1,13.5-10.4,20.4c-1.7,5.1-0.9,5.1-2.1,10.4c-0.4,1.7-2.1,3.5-2.7,5.2
		c4.9-1.7,18.7-2.8,25.9-3.3l0.1,6.4c0,0,1.2,1.1,3.1,1.9c0.1,0,0.1,0,0.2,0c0.7,0.1,1.3,0.2,1.9,0.3c10.9-1,18.4,0.9,31-0.2
		c2.4-0.3,4.7-0.6,6.8-1.8c0.6-1.8,0.7-1.9,1-4.3c0.1-0.4,0.1-0.8,0.2-1.4c0.2,0,0.4-0.1,0.6-0.1c0.1,0,0.2-0.1,0.4-0.1
		c0.1,0,0.1,0,0.2,0c0.2,0,0.4,0,0.6-0.1c0.1-0.1,0.3-0.1,0.4,0c2.3-0.2,5.9-0.4,8.2-0.5c7.4,0,17.1,0.8,17.1,0.8
		c0.6-8.3,1.2-21.1,14.6-58.7l3.3-2c0,0,41.2,14.5,79.5-0.6c3,7.5,12.8,32.5,14.4,48.2c1.3,1.8,1.2,4.2,1.2,6.6
		c0,2.1,0.2,4.2,0.3,6.3c1.4-0.2,6.3-0.8,12.6-0.8c2.3,0.1,5.9,0.3,8.2,0.5c0.1,0,0.2,0,0.4,0c0.2,0,0.4,0,0.6,0.1
		c0.1,0,0.1,0,0.2,0c0.3,0,0.4,0,0.4,0.1c0.2,0,0.4,0.1,0.6,0.1c0.1,0.5,0.1,0.9,0.2,1.4c0.3,2.3,0.4,2.4,1,4.3
		c0.2,0.1,0.4,0.2,0.6,0.3c6.8-0.9,13.8-1,20.6-0.7c5.4,0.3,10.8,1.3,16.1,2.2c0,0.1,0,0.1,0,0.2c0.5,0.1,1.1,0.1,1.6,0.1
		c2.8,0.5,5.7,1,8.7,1.3c0.1-3.6,0-6.7,0-9.6c5.7,0.3,14.1,1.4,17.5,1.9c1.4,0.3,2.5,0.5,3.7,0.8c0.2,0,0.3,0.1,0.5,0.1l0,0
		c1.2,0.3,2.4,0.6,4.1,1.2c-0.3-3.1-0.2-3-0.6-6.9c-0.3-3-2.5-12.2-6.5-15.9c0,0,4.4,1.9,5.7,2.6c-4.3-5.8-6.4-14.3-20-20
		c0,0,2.5-1.2,4.7-1.5c-2.4-1.5-4.2-2-6.6-1.9c0.8-2.3,4.4-8.2,7.5-9c0,0-1.8-1.3-4.8-0.3c-1.1,0.6-2.2,1.2-3.3,2
		c-0.4,0.3-1,0-1.1-0.4c-0.9-3.5-1.6-7.1-2.1-10.7c27.5-1,31.3-15.1,31.3-15.1c2.3,1.8,2.3,5.9,2.3,5.9
		c11.9-15.6,10.6-31.2,10.6-31.2c2.7,0.5,5,2.3,5,2.3c1.4-23.9-5.9-64.6-5.9-64.6c3.6,1.8,5.9-0.5,5.9-0.5c-4.1-1.8-4.6-6.4-4.6-6.4
		C501.8,471.4,502.7,465.8,502.7,465.8z"/>
</g>
<path fill="#555655" d="M240.3,638.9c0,0,1.1-11.6-2.7-19.9c0,0,7.1,0.5,8.4,19.4C245.9,638.4,240.9,638.9,240.3,638.9z"/>
<path fill="#CDEAF5" d="M204.3,599.9v-0.4C204.3,599.7,204.3,599.8,204.3,599.9z"/>
<path fill="#CDEAF5" d="M211,638L211,638c-0.1,0,0-0.1,0-0.2V638z"/>
<path fill="#555655" d="M302.2,129.6c-2.3-18.3,2.7-34.4,2.7-34.4c-55.5,23.4-70.2,75.2-70.2,75.2c-3.6-8.8-4.1-28.5-4.1-28.5
	s-23,38.5-27.1,65.1c-4.1,26.6,3.6,103,3.6,103s-3.6-4.6-11.5-5.5c0,0,8.3,9.2,8.3,29.8c0,0-3.2-2.7-8.8-1.4c0,0,8.8,7.8,9.7,21.1
	c0,0-10.1,6.8-15.6,13.8c0,0-8.8,0.5-13.3,1.8c0,0,7.4,4.1,8.8,7.8c0,0-21.5,22.1-32.5,39.9c0,0,9.7-5.9,16.5-4.1
	c0,0-15.1,18.3-20.1,48.6c0,0,7.4-3.6,10.6-1.8c0,0-9.2,19.2-9.7,39.5l-10.1,5.9l7.8,5.5c0,0-5.9,24.8-7.4,39c0,0,4.6-4.6,8.3-5.9
	c0,0,5,11.9,11.9,21.1c6.8,9.2,22.5,17,31.6,17l1.2-0.2c-0.5,3.1-1.1,6.3-1.9,9.5c-0.1,0.4-0.7,0.7-1.1,0.4c-1.1-0.7-2.1-1.4-3.3-2
	c-3-1-4.8,0.3-4.8,0.3c3,0.7,6.6,6.6,7.5,9c-2.4-0.2-4.2,0.4-6.6,1.9c2.3,0.3,4.7,1.5,4.7,1.5c-13.6,5.8-15.7,14.2-20,20
	c1.3-0.8,5.7-2.6,5.7-2.6c-4,3.7-6.2,12.9-6.5,15.9c-0.4,3.9-0.4,3.8-0.6,6.9c3.6-1.2,5.3-1.4,8.3-2.1c4.5-0.7,17.1-2.4,21.8-1.9
	l-0.7,9c0,0,0.1,0,0.2,0c2.4-0.7,4.3-0.6,6.4-0.8c0-2.4,0.2-4.9,0.4-7.4c-0.1-4.2,0.4-8,1.2-12.3c0-0.1,0.1-0.3,0.1-0.4
	c1.7-5.8,4.6-9.1,6.5-11.2c0.6-0.7,1.2-1.5,1.6-2.3c1.1-1.5,2.3-3.5,3.2-5.9c1.9-5.1,1.1-16.4-2.7-27.5c4,5.7,7.7,10.8,9.4,12.5
	l-0.1-14.1c0,0,7.4,7.4,13.9,12.9c3.1,2.7,7,6.3,9.9,7.8c0.2,0.1,0.4-1.2,0.6,0.8l0,0l0.1-0.4c3.7,2.1,7.6,3.7,11.2,6
	c0.4,0.2,0.8,0.4,1.1,0.6c1.6,1.1,4.5,2.4,7.3,3.8l2.5,29.3c2.2-30.8,19.7-60.3,19.7-60.3l-0.6-0.2c-5.4-1.7-45.1-15.4-68.7-64.5
	c-1.5-3.2,8.8,3.6,8.8,3.6c-9.7-23.4-13.3-61-13.3-61c3.2,2.7,6.4,3.2,6.4,3.2c-6.8-19.2-9.7-43.1-9.7-64.6
	c-1.8-116.1,41.1-142.7,41.1-142.7c-7.4-2.7-15.1-2.5-15.1-2.5c8.5-20.4,36.7-48.8,36.7-48.8c-7.6,0.5-37.2,8.5-37.2,8.5
	c24.6-64,49.3-81,49.3-81c-1.8,15.4,4.1,31.6,4.1,31.6c53.2-65.9,96-62.7,96-62.7c3.1-6.6,6.7-11.1,6.7-11.1
	C334.9,86.5,302.2,129.6,302.2,129.6z"/>
<path fill="#CDEAF5" d="M452.7,638.6c0,0-0.5-16.6-4.3-25c0,0,9.9,6,9.8,25.3C458.2,638.8,453.3,638.6,452.7,638.6z"/>
<path fill="#555655" d="M182.7,551.6c2,10.2,4.1,20,6.4,30.1c1.7,0.3,3.6,0.1,3.6,0.1c1.6-6.1,1.8-15.7,3-27.4
	C191.4,554,186.9,553.2,182.7,551.6z"/>
<path fill="#555655" d="M398.3,606.5c-0.4,0.1-0.6-0.1-0.8-0.3c-0.7,0.1-1.3,0.3-1.6,0.4l0,0c9.5-6.8,10.4-14.2,10.4-14.2
	c-6.2,2.8-13,3.9-16.2,4.2c21.9-18.9,25.5-54.2,25.5-54.2c-9,11-21.7,20.3-31.5,26.5l0,0c0,0-6.5,3.7-12.7,6.5c-0.3,0-0.5,0-0.7,0.3
	c-3.1,1.4-6,2.6-7.8,2.9c0,0,5,9.4,7.1,14.4l-0.4,0.3c0,0,7.4,17.3,10,34.1c0.3,2.8,0.5,5.3,0.6,7.3c0.1,2.4,0.3,4.1,0.3,4.1
	c9.7-1.4,23.4,0,23.4,0c-0.1,1.6,0.8,5.3,1,6c4.6-0.6,9.3-0.9,13.9-0.9C418.8,627.9,418.1,600.8,398.3,606.5z"/>
<path fill="#555655" d="M195.6,558c-15.2-2.6-29-20-29-20c11.1,11.8,24.9,13.4,24.9,13.4c1.8-13.5-9.3-44.3-9.3-44.3
	c8.3,10.3,12.8,22.2,15.2,31.8L195.6,558z"/>
<path fill="#555655" d="M230,534.1c0,0,12,21,22.5,30.2c11.3,9.9,21.9,23.8,26.3,32.1c0,0,5.6-13.2,8.8-17.8
	C287.6,578.7,254,568.9,230,534.1z"/>
<path fill="#555655" d="M386.1,575.2c1.7-2.3,3.5-4.5,5.3-6.7c3-3.6,6.3-7.1,8.9-11.2c-4.3,3.2-9.1,6-14,9
	c-14.2,9.7-24.2,12.4-24.2,12.4c3.1,4.6,8.8,17.8,8.8,17.8c2.7-5.1,7.7-12.2,13.6-19.2C385,576.6,385.6,575.9,386.1,575.2z"/>
<path fill="#555655" d="M225.5,220.3c-1.3,0.1-5.4,0.2-5.4,0.2c-37.9,2.6-65.7-26.7-65.7-26.7s-2.5,22.9,13.9,42.9
	s49.7,23.5,49.7,23.5c1.1,4.7-1.3,15.1-1.3,15.1s9.8-10.8,12.2-31.2C230.7,229.9,226.3,220.2,225.5,220.3"/>
<path fill="#555655" d="M225.5,220.3c-1.2,0.1-5.4,0.2-5.4,0.2c-37.9,2.6-65.7-26.7-65.7-26.7s17.3,50,75,46
	C229.4,239.9,230.9,230.6,225.5,220.3"/>
<path fill="#555655" d="M414.3,220.3c1.3,0.1,5.4,0.2,5.4,0.2c37.9,2.6,65.7-26.7,65.7-26.7s2.5,22.9-13.9,42.9
	c-16.4,20-49.7,23.5-49.7,23.5c-1.1,4.7,1.3,15.1,1.3,15.1s-9.8-10.8-12.2-31.2C409.1,229.9,413.5,220.2,414.3,220.3"/>
<path fill="#555655" d="M414.3,220.3c1.2,0.1,5.4,0.2,5.4,0.2c37.9,2.6,65.7-26.7,65.7-26.7s-17.3,50-75,46
	C410.5,239.9,408.9,230.6,414.3,220.3"/>
<path fill="#555655" d="M205.8,389.7c0,0-27.2,97.7,0,160.3V389.7z"/>
<path fill="#555655" d="M476.4,544.3C463,554.6,449,555.2,449,555.2c-0.6-13.4,14-42.6,14-42.6c-3.3,2-6,4.3-8.2,6.9l-0.1-9.8
	l10.6-8.8l-8.5-6.8l10.8-43.4l-10.4,6.8c0,0-3.2-61.7-0.9-88.3c0,0-13.1-13.1-19.5-18.3c0,0,1.2,19,2.6,49.3
	c5.8,24.4,15,74.7,3.6,119c0.1,9,0.2,18.1,0.3,27.3c0,0,5.6,19.6,7.5,33.3c0,0,1.8,0.5,4.6,0.1l-0.2-21
	C469.5,554.8,476.4,544.3,476.4,544.3z"/>
<path fill="#787878" d="M346.1,352.4c0,13.7,8.8,24.8,19.5,24.8c10.8,0,19.5-11.1,19.5-24.8c0-13.7-8.8-24.8-19.5-24.8
	S346.1,338.8,346.1,352.4z"/>
<ellipse fill="#F9FBF5" cx="366" cy="345.8" rx="19.2" ry="24.4"/>
<path fill="#333333" d="M360.8,333.2c-0.2,0.6-0.3,1.2-0.3,1.9c0,3.4,2.2,6.2,5,6.2c2.4,0,4.4-2.2,4.9-5.1c1.6,2,2.5,4.8,2.5,7.9
	c0,6.3-4.1,11.5-9.3,11.5c-5.1,0-9.3-5.1-9.3-11.5C354.6,339.1,357.2,334.8,360.8,333.2z"/>
<path fill="#787878" d="M252.4,352.4c0,13.7,8.8,24.8,19.5,24.8c10.8,0,19.5-11.1,19.5-24.8c0-13.7-8.8-24.8-19.5-24.8
	C261.1,327.7,252.4,338.8,252.4,352.4z"/>
<ellipse fill="#F9FBF5" cx="272.2" cy="345.8" rx="19.2" ry="24.4"/>
<path fill="#333333" d="M270.7,333.2c-0.2,0.6-0.3,1.2-0.3,1.9c0,3.4,2.2,6.2,5,6.2c2.4,0,4.4-2.2,4.9-5.1c1.6,2,2.5,4.8,2.5,7.9
	c0,6.3-4.1,11.5-9.3,11.5c-5.1,0-9.3-5.1-9.3-11.5C264.4,339.1,267,334.8,270.7,333.2z"/>
<path fill="#333333" d="M422.5,322.6c-8-1.1-21.8-2.5-38.4-1.6c-21.5,1.1-40.1,4.1-51.2,5.9c-3.3,0.5-5.9,1-7.9,1.2l-2.1,0.3
	c-2.4,0.3-4,0.5-5.3,0.6c-1.3-0.1-2.9-0.3-5.3-0.6l-2.1-0.3c-2-0.3-4.5-0.7-7.9-1.2c-11.1-1.8-29.5-4.8-51.2-5.9
	c-16.6-0.8-30.4,0.5-38.4,1.6c0,0-8.5,1.1-15.7,4.1l1.4,9.2c0,0,7.7-1.8,15.1-2.8c1.4,13,4.1,29.6,4.1,29.6v0.5
	c0.2,0.8,0.4,1.6,0.6,2.5c1.5,6.5,3,10.4,9.2,12.7c6,2.3,20.3,4.4,34.6,5.1c5.3,0.3,11.4-0.1,17.5-0.9c9.1-1.3,17.3-3.8,20.5-6.1
	c4.5-3.4,7-11.9,8.7-17.5l0.5-1.7c0.6-1.9,1.1-3.9,1.5-5.9c0.7-2.8,1.4-5.7,2-6.7c0.1-0.2,0.6-0.8,2.6-1.1c0.6-0.1,1.3-0.1,2.1-0.1
	c0.8,0,1.5,0.1,2.1,0.1c2,0.3,2.5,0.9,2.6,1.1c0.6,1,1.3,3.9,2,6.7c0.5,1.9,1,3.9,1.5,5.9l0.5,1.7c1.6,5.6,4,14.2,8.7,17.5
	c3.1,2.3,11.4,4.7,20.5,6.1c6.1,0.9,12.2,1.2,17.5,0.9c14.4-0.7,28.7-2.8,34.6-5.1c6.1-2.3,7.7-6.1,9.2-12.7
	c0.2-0.9,0.4-1.7,0.6-2.5v-0.5c0,0,2.7-16.6,4.1-29.6c7.5,1,15.1,2.8,15.1,2.8l1.4-9.2C430.9,323.6,422.5,322.6,422.5,322.6z
	 M303.3,342.6v0.1c-0.4,3-2.3,18.1-5.5,23.3c-3.1,4.9-4.1,6.2-13.8,7.9c-0.4,0.1-0.8,0.1-1.3,0.2c-10.4,1.5-29.2,1.8-39.8-0.3
	l-0.7-0.1c-10.8-2.1-14.6-3-15.7-6.3c-1.5-4.5-4.4-25.5-4.6-30c-0.2-3.4,3-4.9,3.9-5.2c0.5-0.1,1.4-0.3,2.6-0.5
	c7.6-1.1,24.2-2.2,31.9-1.8c9.9,0.4,34,3.8,39.5,6.2C303.9,337.8,303.7,339.4,303.3,342.6z M408.7,367.3c-1.1,3.3-4.9,4.2-15.7,6.3
	l-0.7,0.1c-10.6,2-29.4,1.8-39.8,0.3c-0.4-0.1-0.9-0.1-1.3-0.2c-9.6-1.6-10.7-2.8-13.8-7.9c-3.2-5.1-5.1-20.2-5.5-23.3v-0.1
	c-0.4-3.1-0.6-4.7,3.4-6.5c5.4-2.4,29.6-5.8,39.5-6.2c7.9-0.3,24.4,0.7,31.9,1.8c1.2,0.2,2.1,0.3,2.6,0.5c0.9,0.2,4,1.8,3.9,5.2
	C413.1,341.8,410.2,362.7,408.7,367.3z"/>
<path fill="#787878" d="M279.4,305.1c0,0-20-9.6-31.5,8.2c0,0-1.2-17.6,15-19.6C279.1,291.7,279.4,305.1,279.4,305.1z"/>
<path fill="#787878" d="M271.8,279.2c0,0-18.6-8.8-27.1,8.1c0,0-2.7-14.7,10.5-18.3C268.5,265.4,271.8,279.2,271.8,279.2z"/>
<path fill="#787878" d="M351.3,316c0,0,15.6-7.5,24.5,6.3c0,0,0.9-13.7-11.7-15.3C351.5,305.5,351.3,316,351.3,316z"/>
<path fill="#787878" d="M362.3,291.4c0,0,15.8-2.5,18.4,11.9c0,0,5.2-10.4-3.9-15.9C367.8,281.9,362.3,291.4,362.3,291.4z"/>
<path fill="#787878" d="M290.8,451.5c0,0,9.9-6.6,15.6-7.6c0,0,1.3,12.5,7,18.6c0,0,12.4-11.2,24.8-12c0,0,3.2,6.8,8.4,9.4v0.1
	c1.8,1.2,4.1,2.3,6.3,2.8c0,0,7-4.2,9.1-12.1c0,0,0.7,16.5-9.7,25.5c0,0-7.9-3.8-13.6-10c-1.7-1.6-3.5-3.6-4.3-5.1
	c0,0-18.2,12.9-18.9,20.2c0,0-13.2-12.8-17.6-22.8c0,0-8.8,2.8-11.2,4.5c0,0-7-11.6-8.5-22C278.2,441.2,286.6,449.3,290.8,451.5z"/>
<path fill="#333333" d="M270.2,407.9c-1.8-0.4,44.9,3.2,90.7,1.6c0,0,2.4-8.8,5.9-13.5c0,0-0.8,14.7,3.3,17.7c0,0-23,9.1-46,9
	c0,0,25.2-4.2,33.6-8.6C357.8,414.2,311.9,416.7,270.2,407.9z"/>
</svg>
