<?xml version="1.0" encoding="utf-8"?>
<!-- Generator: Adobe Illustrator 18.0.0, SVG Export Plug-In . SVG Version: 6.00 Build 0)  -->
<!DOCTYPE svg PUBLIC "-//W3C//DTD SVG 1.1//EN" "http://www.w3.org/Graphics/SVG/1.1/DTD/svg11.dtd">
<svg version="1.1" id="katman_1" xmlns="http://www.w3.org/2000/svg" xmlns:xlink="http://www.w3.org/1999/xlink" x="0px" y="0px"
	 viewBox="0 0 342 322" enable-background="new 0 0 342 322" xml:space="preserve">
<g>
	<path fill="#777777" d="M129.7,174.2h31.5c0,0-13.6-55.7-15.8-65.2L129.7,174.2z"/>
	<path fill="#777777" d="M0.8,0v306.1h324.3V0H0.8z M213,243.9c-0.4,1.1-1.9,1.5-2.3,1.5c-0.4,0-0.7,0-1.1,0c-0.4,0-0.8,0-1.2,0
		c0,0,0,0,0,0c-2.5,0-4.9,0-7.4,0c-2.7,0-5.5,0-8.2,0c-2.4,0-4.8,0-7.2,0c-0.9,0-1.8,0-2.7,0c-0.3,0-0.7,0-1,0
		c-0.7,0-1.6-0.6-1.7-1.4c-0.1-0.4-0.2-0.7-0.3-1c-0.5-1.7-1-3.4-1.5-5.1c-0.7-2.3-1.4-4.6-2.1-6.8c-0.8-2.6-1.5-5.1-2.3-7.7
		c-0.8-2.5-1.5-5.1-2.3-7.6c-0.7-2.2-1.3-4.4-2-6.6c-0.5-1.5-0.9-3.1-1.4-4.6c-0.2-0.6-0.4-1.2-0.5-1.8h-45.6
		c-0.2,0.6-0.3,1.2-0.5,1.9c-0.4,1.6-0.9,3.3-1.3,4.9c-0.6,2.3-1.3,4.6-1.9,6.9c-0.7,2.6-1.4,5.3-2.2,7.9c-0.7,2.6-1.4,5.2-2.1,7.9
		c-0.6,2.3-1.1,4.6-1.9,6.8c-0.7,2.3-1.1,5.6-4.1,6.2c-0.7,0.1-1.7,0.1-2.5,0.1c-1.2,0-2.4,0-3.6,0c-0.1,0-0.2,0-0.4,0
		c-2.8,0-5.5,0-8.3,0c-2.7,0-5.3,0-8,0c-1.1,0-2.1,0-3.2,0c-0.9,0-2.6,0-2.8-0.9c-0.1-0.3,0-0.6,0-0.9c0-0.5,0.2-0.9,0.3-1.4
		c0.3-0.9,0.6-1.9,0.8-2.8c0.4-1.2,0.7-2.4,1.1-3.6c0.4-1.4,0.9-2.9,1.3-4.3c0.5-1.7,1-3.3,1.5-5c0.5-1.8,1.1-3.7,1.6-5.5
		c0.6-2,1.2-4,1.8-6c0.6-2.2,1.3-4.3,1.9-6.5c0.7-2.3,1.4-4.6,2-6.8c0.7-2.4,1.4-4.8,2.1-7.1c0.7-2.5,1.5-4.9,2.2-7.4
		c0.7-2.5,1.5-5,2.2-7.5c0.8-2.5,1.5-5.1,2.3-7.6c0.8-2.5,1.5-5.1,2.3-7.6c0.8-2.5,1.5-5,2.3-7.6c0.7-2.5,1.5-5,2.2-7.4
		c0.7-2.4,1.4-4.8,2.2-7.3c0.7-2.3,1.4-4.7,2.1-7c0.7-2.2,1.3-4.4,2-6.7c0.6-2.1,1.2-4.2,1.9-6.3c0.6-1.9,1.1-3.9,1.7-5.8
		c0.5-1.7,1-3.5,1.6-5.2c0.5-1.5,0.9-3.1,1.4-4.6c0.4-1.3,0.8-2.6,1.2-3.9c0.3-1.1,0.6-2.1,0.9-3.2c0.2-0.8,0.5-1.6,0.7-2.4
		c0.1-0.5,0.3-1,0.4-1.5c0.1-0.2,0.1-0.3,0.2-0.5c0-0.9,0-1.8,0-2.7c0-2.1,0-4.2,0-6.3c0-1,0-2.1,0-3.1c0-0.4,0-0.9,0-1.3
		c0-0.5-0.1-1.2,0.2-1.6c0.1-0.2,0.2-0.3,0.4-0.4c0.5-0.2,1.2-0.1,1.7-0.1c0.5,0,1.1,0,1.6,0c1.5,0,3,0,4.5,0c1.8,0,3.7,0,5.5,0
		c2,0,4,0,6,0c2,0,4,0,6,0c1.9,0,3.7,0,5.6,0c1.5,0,3.1,0,4.6,0c1,0,2.1,0,3.1,0c0.3,0,0.5,0,0.8,0c0.1,0,0.2,0.1,0.3,0.1
		c0.3,0.2,0.3,0.6,0.4,0.9c0.1,0.2,0.1,0.4,0.2,0.5c0.1,0.2,0.1,0.4,0.2,0.6c0.1,0.3,0.2,0.5,0.2,0.8c0.1,0.3,0.2,0.6,0.3,0.9
		c0.1,0.3,0.2,0.6,0.3,1c0.1,0.4,0.2,0.7,0.3,1.1c0.1,0.4,0.2,0.8,0.3,1.2c0.1,0.4,0.3,0.8,0.4,1.3c0.1,0.4,0.3,0.9,0.4,1.3
		c0.1,0.5,0.3,1,0.4,1.4c0.2,0.5,0.3,1,0.5,1.5c0.2,0.5,0.3,1.1,0.5,1.6c0.2,0.6,0.3,1.1,0.5,1.7c0.2,0.6,0.4,1.2,0.5,1.8
		c0.2,0.6,0.4,1.2,0.6,1.8c0.2,0.6,0.4,1.3,0.6,1.9c0.2,0.7,0.4,1.3,0.6,2c0.2,0.7,0.4,1.4,0.6,2c0.2,0.7,0.4,1.4,0.6,2.1
		c0.2,0.7,0.4,1.4,0.7,2.2c0.2,0.7,0.4,1.5,0.7,2.2c0.2,0.8,0.5,1.5,0.7,2.3c0.2,0.8,0.5,1.6,0.7,2.3c0.2,0.8,0.5,1.6,0.7,2.4
		c0.2,0.8,0.5,1.6,0.7,2.4c0.2,0.8,0.5,1.6,0.7,2.5c0.3,0.8,0.5,1.7,0.8,2.5c0.3,0.8,0.5,1.7,0.8,2.6c0.3,0.9,0.5,1.7,0.8,2.6
		c0.3,0.9,0.5,1.7,0.8,2.6c0.3,0.9,0.5,1.8,0.8,2.6c0.3,0.9,0.5,1.8,0.8,2.7c0.3,0.9,0.5,1.8,0.8,2.7c0.3,0.9,0.5,1.8,0.8,2.7
		c0.3,0.9,0.6,1.8,0.8,2.7c0.3,0.9,0.6,1.8,0.8,2.8c0.3,0.9,0.6,1.8,0.8,2.8c0.3,0.9,0.6,1.8,0.8,2.8c0.3,0.9,0.6,1.9,0.8,2.8
		c0.3,0.9,0.6,1.9,0.8,2.8c0.3,0.9,0.6,1.9,0.8,2.8c0.3,0.9,0.6,1.9,0.8,2.8c0.3,0.9,0.6,1.9,0.8,2.8c0.3,0.9,0.6,1.9,0.8,2.8
		c0.3,0.9,0.6,1.8,0.8,2.8c0.3,0.9,0.6,1.8,0.8,2.8c0.3,0.9,0.6,1.8,0.8,2.7c0.3,0.9,0.5,1.8,0.8,2.7c0.3,0.9,0.5,1.8,0.8,2.7
		c0.3,0.9,0.5,1.8,0.8,2.7c0.3,0.9,0.5,1.8,0.8,2.6c0.3,0.9,0.5,1.7,0.8,2.6c0.3,0.9,0.5,1.7,0.8,2.6c0.3,0.9,0.5,1.7,0.8,2.6
		c0.3,0.8,0.5,1.7,0.8,2.5c0.2,0.8,0.5,1.7,0.7,2.5c0.2,0.8,0.5,1.6,0.7,2.4c0.2,0.8,0.5,1.6,0.7,2.4c0.2,0.8,0.5,1.6,0.7,2.3
		c0.2,0.8,0.5,1.5,0.7,2.3c0.2,0.7,0.4,1.5,0.7,2.2c0.2,0.7,0.4,1.4,0.7,2.2c0.2,0.7,0.4,1.4,0.6,2.1c0.2,0.7,0.4,1.4,0.6,2
		c0.2,0.7,0.4,1.3,0.6,2c0.2,0.6,0.4,1.3,0.6,1.9c0.2,0.6,0.4,1.2,0.6,1.8c0.2,0.6,0.4,1.2,0.5,1.8c0.2,0.6,0.3,1.1,0.5,1.7
		c0.2,0.5,0.3,1.1,0.5,1.6c0.2,0.5,0.3,1,0.5,1.5c0.1,0.5,0.3,1,0.4,1.4c0.1,0.5,0.3,0.9,0.4,1.4c0.1,0.4,0.3,0.8,0.4,1.3
		c0.1,0.4,0.2,0.8,0.4,1.2c0.1,0.4,0.2,0.7,0.3,1.1c0.1,0.3,0.2,0.6,0.3,1c0.1,0.3,0.2,0.6,0.3,0.9c0.1,0.2,0.1,0.4,0.1,0.7
		C213.2,243.4,213.1,243.7,213,243.9z M261.8,245.4h-33.2V123.5h33.2V245.4z M245,110c-10.3,0-17-7.5-17-16.5
		c0-9.5,7-16.8,17.3-16.8c10.5,0,17,7.3,17.3,16.8C262.6,102.4,255.8,110,245,110z"/>
</g>
<polygon fill="#333333" points="0.8,306.1 16.9,322 16.9,15.9 0.8,0 "/>
<g>
	<path fill="#555555" d="M128.7,174.5h31.5c0,0-13.6-55.7-15.8-65.2L128.7,174.5z"/>
	<path fill="#555555" d="M16.9,15.9V322h324.3V15.9H16.9z M212.1,244.3c-0.4,1.1-1.9,1.5-2.3,1.5c-0.4,0-0.7,0-1.1,0
		c-0.4,0-0.8,0-1.2,0c0,0,0,0,0,0c-2.5,0-4.9,0-7.4,0c-2.7,0-5.5,0-8.2,0c-2.4,0-4.8,0-7.2,0c-0.9,0-1.8,0-2.7,0c-0.3,0-0.7,0-1,0
		c-0.7,0-1.6-0.6-1.7-1.4c-0.1-0.4-0.2-0.7-0.3-1c-0.5-1.7-1-3.4-1.5-5.1c-0.7-2.3-1.4-4.6-2.1-6.8c-0.8-2.6-1.5-5.1-2.3-7.7
		c-0.8-2.5-1.5-5.1-2.3-7.6c-0.7-2.2-1.3-4.4-2-6.6c-0.5-1.5-0.9-3.1-1.4-4.6c-0.2-0.6-0.4-1.2-0.5-1.8h-45.6
		c-0.2,0.6-0.3,1.2-0.5,1.9c-0.4,1.6-0.9,3.3-1.3,4.9c-0.6,2.3-1.3,4.6-1.9,6.9c-0.7,2.6-1.4,5.3-2.2,7.9c-0.7,2.6-1.4,5.2-2.1,7.9
		c-0.6,2.3-1.1,4.6-1.9,6.8c-0.7,2.3-1.1,5.6-4.1,6.2c-0.7,0.1-1.7,0.1-2.5,0.1c-1.2,0-2.4,0-3.6,0c-0.1,0-0.2,0-0.4,0
		c-2.8,0-5.5,0-8.3,0c-2.7,0-5.3,0-8,0c-1.1,0-2.1,0-3.2,0c-0.9,0-2.6,0-2.8-0.9c-0.1-0.3,0-0.6,0-0.9c0-0.5,0.2-0.9,0.3-1.4
		c0.3-0.9,0.6-1.9,0.8-2.8c0.4-1.2,0.7-2.4,1.1-3.6c0.4-1.4,0.9-2.9,1.3-4.3c0.5-1.7,1-3.3,1.5-5c0.5-1.8,1.1-3.7,1.6-5.5
		c0.6-2,1.2-4,1.8-6c0.6-2.2,1.3-4.3,1.9-6.5c0.7-2.3,1.4-4.6,2-6.8c0.7-2.4,1.4-4.8,2.1-7.1c0.7-2.5,1.5-4.9,2.2-7.4
		c0.7-2.5,1.5-5,2.2-7.5c0.8-2.5,1.5-5.1,2.3-7.6c0.8-2.5,1.5-5.1,2.3-7.6c0.8-2.5,1.5-5,2.3-7.6c0.7-2.5,1.5-5,2.2-7.4
		c0.7-2.4,1.4-4.8,2.2-7.3c0.7-2.3,1.4-4.7,2.1-7c0.7-2.2,1.3-4.4,2-6.7c0.6-2.1,1.2-4.2,1.9-6.3c0.6-1.9,1.1-3.9,1.7-5.8
		c0.5-1.7,1-3.5,1.6-5.2c0.5-1.5,0.9-3.1,1.4-4.6c0.4-1.3,0.8-2.6,1.2-3.9c0.3-1.1,0.6-2.1,0.9-3.2c0.2-0.8,0.5-1.6,0.7-2.4
		c0.1-0.5,0.3-1,0.4-1.5c0.1-0.2,0.1-0.3,0.2-0.5c0-0.9,0-1.8,0-2.7c0-2.1,0-4.2,0-6.3c0-1,0-2.1,0-3.1c0-0.4,0-0.9,0-1.3
		c0-0.5-0.1-1.2,0.2-1.6c0.1-0.2,0.2-0.3,0.4-0.4c0.5-0.2,1.2-0.1,1.7-0.1c0.5,0,1.1,0,1.6,0c1.5,0,3,0,4.5,0c1.8,0,3.7,0,5.5,0
		c2,0,4,0,6,0c2,0,4,0,6,0c1.9,0,3.7,0,5.6,0c1.5,0,3.1,0,4.6,0c1,0,2.1,0,3.1,0c0.3,0,0.5,0,0.8,0c0.1,0,0.2,0.1,0.3,0.1
		c0.3,0.2,0.3,0.6,0.4,0.9c0.1,0.2,0.1,0.4,0.2,0.5c0.1,0.2,0.1,0.4,0.2,0.6c0.1,0.3,0.2,0.5,0.2,0.8c0.1,0.3,0.2,0.6,0.3,0.9
		c0.1,0.3,0.2,0.6,0.3,1c0.1,0.4,0.2,0.7,0.3,1.1c0.1,0.4,0.2,0.8,0.3,1.2c0.1,0.4,0.3,0.8,0.4,1.3c0.1,0.4,0.3,0.9,0.4,1.3
		c0.1,0.5,0.3,1,0.4,1.4c0.2,0.5,0.3,1,0.5,1.5c0.2,0.5,0.3,1.1,0.5,1.6c0.2,0.6,0.3,1.1,0.5,1.7c0.2,0.6,0.4,1.2,0.5,1.8
		c0.2,0.6,0.4,1.2,0.6,1.8c0.2,0.6,0.4,1.3,0.6,1.9c0.2,0.7,0.4,1.3,0.6,2c0.2,0.7,0.4,1.4,0.6,2c0.2,0.7,0.4,1.4,0.6,2.1
		c0.2,0.7,0.4,1.4,0.7,2.2c0.2,0.7,0.4,1.5,0.7,2.2c0.2,0.8,0.5,1.5,0.7,2.3c0.2,0.8,0.5,1.6,0.7,2.3c0.2,0.8,0.5,1.6,0.7,2.4
		c0.2,0.8,0.5,1.6,0.7,2.4c0.2,0.8,0.5,1.6,0.7,2.5c0.3,0.8,0.5,1.7,0.8,2.5c0.3,0.8,0.5,1.7,0.8,2.6c0.3,0.9,0.5,1.7,0.8,2.6
		c0.3,0.9,0.5,1.7,0.8,2.6c0.3,0.9,0.5,1.8,0.8,2.6c0.3,0.9,0.5,1.8,0.8,2.7c0.3,0.9,0.5,1.8,0.8,2.7c0.3,0.9,0.5,1.8,0.8,2.7
		c0.3,0.9,0.6,1.8,0.8,2.7c0.3,0.9,0.6,1.8,0.8,2.8c0.3,0.9,0.6,1.8,0.8,2.8c0.3,0.9,0.6,1.8,0.8,2.8c0.3,0.9,0.6,1.9,0.8,2.8
		c0.3,0.9,0.6,1.9,0.8,2.8c0.3,0.9,0.6,1.9,0.8,2.8c0.3,0.9,0.6,1.9,0.8,2.8c0.3,0.9,0.6,1.9,0.8,2.8c0.3,0.9,0.6,1.9,0.8,2.8
		c0.3,0.9,0.6,1.8,0.8,2.8c0.3,0.9,0.6,1.8,0.8,2.8c0.3,0.9,0.6,1.8,0.8,2.7c0.3,0.9,0.5,1.8,0.8,2.7c0.3,0.9,0.5,1.8,0.8,2.7
		c0.3,0.9,0.5,1.8,0.8,2.7c0.3,0.9,0.5,1.8,0.8,2.6c0.3,0.9,0.5,1.7,0.8,2.6c0.3,0.9,0.5,1.7,0.8,2.6c0.3,0.9,0.5,1.7,0.8,2.6
		c0.3,0.8,0.5,1.7,0.8,2.5c0.2,0.8,0.5,1.7,0.7,2.5c0.2,0.8,0.5,1.6,0.7,2.4c0.2,0.8,0.5,1.6,0.7,2.4c0.2,0.8,0.5,1.6,0.7,2.3
		c0.2,0.8,0.5,1.5,0.7,2.3c0.2,0.7,0.4,1.5,0.7,2.2c0.2,0.7,0.4,1.4,0.7,2.2c0.2,0.7,0.4,1.4,0.6,2.1c0.2,0.7,0.4,1.4,0.6,2
		c0.2,0.7,0.4,1.3,0.6,2c0.2,0.6,0.4,1.3,0.6,1.9c0.2,0.6,0.4,1.2,0.6,1.8c0.2,0.6,0.4,1.2,0.5,1.8c0.2,0.6,0.3,1.1,0.5,1.7
		c0.2,0.5,0.3,1.1,0.5,1.6c0.2,0.5,0.3,1,0.5,1.5c0.1,0.5,0.3,1,0.4,1.4c0.1,0.5,0.3,0.9,0.4,1.4c0.1,0.4,0.3,0.8,0.4,1.3
		c0.1,0.4,0.2,0.8,0.4,1.2c0.1,0.4,0.2,0.7,0.3,1.1c0.1,0.3,0.2,0.6,0.3,1c0.1,0.3,0.2,0.6,0.3,0.9c0.1,0.2,0.1,0.4,0.1,0.7
		C212.3,243.7,212.2,244,212.1,244.3z M260.8,245.7h-33.2V123.8h33.2V245.7z M244.1,110.3c-10.3,0-17-7.5-17-16.5
		c0-9.5,7-16.8,17.3-16.8c10.5,0,17,7.3,17.3,16.8C261.6,102.8,254.9,110.3,244.1,110.3z"/>
</g>
</svg>
