<?xml version="1.0" encoding="utf-8"?>
<!-- Generator: Adobe Illustrator 18.0.0, SVG Export Plug-In . SVG Version: 6.00 Build 0)  -->
<!DOCTYPE svg PUBLIC "-//W3C//DTD SVG 1.1//EN" "http://www.w3.org/Graphics/SVG/1.1/DTD/svg11.dtd">
<svg version="1.1" id="Layer_1" xmlns="http://www.w3.org/2000/svg" xmlns:xlink="http://www.w3.org/1999/xlink" x="0px" y="0px"
	 viewBox="0 0 612 792" enable-background="new 0 0 612 792" xml:space="preserve">
<path fill="#555555" d="M0,90v612h612V90H0z M333.3,567.3c0,59.5-34.9,86.7-85.9,86.7c-46,0-72.7-23.8-86.3-52.5l46.8-28.3
	c9,16,17.3,29.6,37,29.6c18.9,0,30.8-7.4,30.8-36.1V371h57.5V567.3z M469.2,654.1c-53.4,0-87.9-25.5-104.8-58.8l46.7-27.2
	c12.3,20.1,28.4,34.9,56.7,34.9c23.8,0,39.1-11.9,39.1-28.4c0-19.7-15.6-26.7-41.9-38.2l-14.4-6.2c-41.5-17.7-69.1-39.8-69.1-86.7
	c0-43.1,32.9-76,84.2-76c36.6,0,62.9,12.7,81.8,46l-44.8,28.8c-9.9-17.7-20.5-24.6-37-24.6c-16.8,0-27.5,10.7-27.5,24.6
	c0,17.3,10.7,24.2,35.4,34.9l14.4,6.2c48.9,21,76.5,42.3,76.5,90.3C564.5,625.7,523.8,654.1,469.2,654.1z"/>
</svg>
