<?xml version="1.0" encoding="utf-8"?>
<!-- Generator: Adobe Illustrator 18.0.0, SVG Export Plug-In . SVG Version: 6.00 Build 0)  -->
<!DOCTYPE svg PUBLIC "-//W3C//DTD SVG 1.1//EN" "http://www.w3.org/Graphics/SVG/1.1/DTD/svg11.dtd">
<svg version="1.1"
	 id="svg2" xmlns:svg="http://www.w3.org/2000/svg" xmlns:rdf="http://www.w3.org/1999/02/22-rdf-syntax-ns#" xmlns:dc="http://purl.org/dc/elements/1.1/" xmlns:cc="http://creativecommons.org/ns#"
	 xmlns="http://www.w3.org/2000/svg" xmlns:xlink="http://www.w3.org/1999/xlink" x="0px" y="0px" viewBox="10 14.8 50.7 68"
	 enable-background="new 10 14.8 50.7 68" xml:space="preserve">
<g id="layer1" transform="translate(0,-952.36218)">
	<g id="g4088" transform="translate(-2.627806,4.004985)">
		<path id="path3962" fill="#555555" d="M19,984.4c0,0-0.4,7.7,11,18.9c11.4,11.2,12.7,15.7,12.1,18.9h8.3c0,0,0.8-13-12.1-22.1
			c0,0-8.8-7.9-10.3-14.1c0,0-4.4,0-7.4-2.4C20.6,983.5,19,982.6,19,984.4"/>
		<path id="path3966" fill="#555555" d="M36.6,1002.2c2.3,1.6,4.1,3.4,5.6,5.1c1.1-1.2,2.3-2.4,3.7-3.8c11.4-11.2,11-19.1,11-19.1
			c0-1.9-1.6-0.8-1.6-0.8c-3,2.4-7.4,2.5-7.4,2.5c-1.4,6.2-10.3,14.2-10.3,14.2c-0.6,0.4-1.2,0.9-1.7,1.3
			C36.4,1002,36.6,1002.2,36.6,1002.2"/>
		<path id="path3970" fill="#555555" d="M36.5,1014.3c-1.5-1.9-3.4-4.1-6-6.8c-5.3,7.6-4.9,15.1-4.9,15.1h8.3
			C33.5,1020.7,33.8,1018.3,36.5,1014.3"/>
		<path id="path3974" fill="#555555" d="M33.8,986.7H42c0,0,1.1-0.2,0.8,1.3c-0.4,2-4.8,6.1-4.8,6.1s-3.2-3-4.7-5.8
			C33.3,988.2,32.8,986.7,33.8,986.7"/>
		<path id="path3978" fill="#555555" d="M52.4,978.2c0,2-1.6,3.6-3.6,3.6c-2,0-3.6-1.6-3.6-3.6c0-2,1.6-3.6,3.6-3.6
			S52.4,976.2,52.4,978.2"/>
		<path id="path3982" fill="#555555" d="M31.3,978.2c0,2-1.6,3.6-3.6,3.6s-3.6-1.6-3.6-3.6c0-2,1.6-3.6,3.6-3.6
			C29.7,974.6,31.3,976.2,31.3,978.2"/>
		<path id="path3986" fill="#555555" d="M42,975.3c0,2-1.6,3.6-3.6,3.6s-3.6-1.6-3.6-3.6c0-2,1.6-3.6,3.6-3.6S42,973.3,42,975.3"/>
	</g>
</g>
</svg>
