<?xml version="1.0" encoding="utf-8"?>
<!-- Generator: Adobe Illustrator 18.0.0, SVG Export Plug-In . SVG Version: 6.00 Build 0)  -->
<!DOCTYPE svg PUBLIC "-//W3C//DTD SVG 1.1//EN" "http://www.w3.org/Graphics/SVG/1.1/DTD/svg11.dtd">
<svg version="1.1"
	 id="svg2" xmlns:cc="http://creativecommons.org/ns#" xmlns:dc="http://purl.org/dc/elements/1.1/" xmlns:rdf="http://www.w3.org/1999/02/22-rdf-syntax-ns#" xmlns:svg="http://www.w3.org/2000/svg"
	 xmlns="http://www.w3.org/2000/svg" xmlns:xlink="http://www.w3.org/1999/xlink" x="0px" y="0px" viewBox="94.9 114.3 441.5 592.8"
	 enable-background="new 94.9 114.3 441.5 592.8" xml:space="preserve">
<g id="layer1" transform="translate(0,-952.36218)">
	<g id="g4088" transform="translate(-2.627806,4.004985)">
		<path id="path3962" fill="#555555" d="M97.6,1210.6c0,0-4.7,89.7,128.1,220.1s147.9,182.9,140.9,220.1h96.7
			c0,0,9.3-151.4-140.9-257.4c0,0-102.5-92-120-164.2c0,0-51.2,0-86.2-28C116.2,1200.1,97.6,1189.6,97.6,1210.6"/>
		<path id="path3966" fill="#555555" d="M302.6,1417.9c26.8,18.6,47.8,39.6,65.2,59.4c12.8-14,26.8-28,43.1-44.3
			C543.7,1302.6,539,1210.6,539,1210.6c0-22.1-18.6-9.3-18.6-9.3c-34.9,28-86.2,29.1-86.2,29.1c-16.3,72.2-120,165.4-120,165.4
			c-7,4.7-14,10.5-19.8,15.1C300.3,1415.6,302.6,1417.9,302.6,1417.9"/>
		<path id="path3970" fill="#555555" d="M301.4,1558.8c-17.5-22.1-39.6-47.8-69.9-79.2c-61.7,88.5-57.1,175.9-57.1,175.9h96.7
			C266.5,1633.4,270,1605.4,301.4,1558.8"/>
		<path id="path3974" fill="#555555" d="M270,1237.4h95.5c0,0,12.8-2.3,9.3,15.1c-4.7,23.3-55.9,71-55.9,71s-37.3-34.9-54.7-67.6
			C264.1,1254.8,258.3,1237.4,270,1237.4"/>
		<path id="path3978" fill="#555555" d="M486.6,1138.4c0,23.3-18.6,41.9-41.9,41.9c-23.3,0-41.9-18.6-41.9-41.9
			c0-23.3,18.6-41.9,41.9-41.9C468,1096.4,486.6,1115.1,486.6,1138.4"/>
		<path id="path3982" fill="#555555" d="M240.9,1138.4c0,23.3-18.6,41.9-41.9,41.9s-41.9-18.6-41.9-41.9c0-23.3,18.6-41.9,41.9-41.9
			C222.2,1096.4,240.9,1115.1,240.9,1138.4"/>
		<path id="path3986" fill="#555555" d="M365.5,1104.6c0,23.3-18.6,41.9-41.9,41.9c-23.3,0-41.9-18.6-41.9-41.9s18.6-41.9,41.9-41.9
			C346.8,1062.7,365.5,1081.3,365.5,1104.6"/>
	</g>
</g>
</svg>
