<?xml version="1.0" encoding="utf-8"?>
<!-- Generator: Adobe Illustrator 18.0.0, SVG Export Plug-In . SVG Version: 6.00 Build 0)  -->
<!DOCTYPE svg PUBLIC "-//W3C//DTD SVG 1.1//EN" "http://www.w3.org/Graphics/SVG/1.1/DTD/svg11.dtd">
<svg version="1.1" id="Layer_1" xmlns="http://www.w3.org/2000/svg" xmlns:xlink="http://www.w3.org/1999/xlink" x="0px" y="0px"
	 viewBox="0 47 480.1 462.5" enable-background="new 0 47 480.1 462.5" xml:space="preserve">
<path fill="#555555" d="M30.5,155.6C-12,216.7-6.7,296.2,25.7,361.1c0.8,1.6,1.6,3.1,2.4,4.6c0.5,1,1,2,1.5,2.9
	c0.3,0.6,0.6,1.1,0.9,1.7c0.6,1,1.1,2,1.7,3c1,1.8,2,3.5,3.1,5.3c0.6,1,1.2,1.9,1.8,2.9c1.2,1.9,2.4,3.8,3.6,5.6
	c0.5,0.8,1,1.6,1.5,2.4c1.7,2.5,3.4,5,5.2,7.5c0,0.1,0.1,0.1,0.1,0.2c0.3,0.4,0.6,0.8,0.9,1.2c1.5,2.1,3.1,4.2,4.8,6.3
	c0.6,0.8,1.2,1.5,1.8,2.3c1.4,1.8,2.9,3.6,4.4,5.4c0.6,0.7,1.1,1.3,1.7,2c2,2.4,4,4.7,6.1,7c0,0,0.1,0.1,0.1,0.1
	c0.1,0.1,0.2,0.2,0.2,0.3c2,2.2,4.1,4.4,6.2,6.5c0.7,0.7,1.3,1.3,2,2c1.6,1.6,3.3,3.3,5,4.9c0.7,0.6,1.4,1.3,2,1.9
	c2.2,2.1,4.5,4.2,6.8,6.2c0,0,0.1,0.1,0.1,0.1c0.4,0.3,0.8,0.7,1.2,1c2,1.8,4.1,3.5,6.2,5.2c0.8,0.7,1.7,1.4,2.6,2
	c1.7,1.4,3.4,2.7,5.1,4c0.9,0.7,1.8,1.4,2.8,2.1c1.9,1.4,3.8,2.8,5.8,4.1c0.7,0.5,1.4,1,2.1,1.5c0.2,0.1,0.4,0.3,0.6,0.4
	c1.8,1.3,3.7,2.5,5.6,3.7c0.8,0.5,1.6,1.1,2.4,1.6c2.9,1.8,5.8,3.6,8.8,5.4c0.8,0.5,1.6,0.9,2.4,1.4c2.2,1.3,4.4,2.5,6.6,3.7
	c1.2,0.6,2.4,1.3,3.6,1.9c1.6,0.8,3.1,1.7,4.7,2.5c0.4,0.2,0.7,0.3,1.1,0.5c0.6,0.3,1.3,0.6,1.9,0.9c2.5,1.2,5,2.3,7.5,3.5
	c0.5,0.2,1.1,0.5,1.6,0.7c2.9,1.3,5.8,2.5,8.7,3.6c0.7,0.3,1.4,0.6,2.1,0.8c2.7,1,5.5,2.1,8.2,3.1c0.3,0.1,0.7,0.2,1,0.4
	c3,1.1,6.1,2,9.2,3c0.7,0.2,1.5,0.4,2.2,0.7c3.1,0.9,6.2,2.1,9.5,2.7c205.6,37.5,265.3-123.5,265.3-123.5
	c-50.2,65.3-139.2,82.6-223.5,63.4c-3.2-0.7-6.3-1.7-9.4-2.6c-0.8-0.2-1.6-0.5-2.3-0.7c-3-0.9-6.1-1.9-9.1-3
	c-0.4-0.1-0.8-0.3-1.2-0.4c-2.7-0.9-5.3-1.9-8-3c-0.7-0.3-1.5-0.6-2.2-0.9c-2.9-1.1-5.8-2.3-8.6-3.6c-0.6-0.2-1.1-0.5-1.7-0.8
	c-2.4-1.1-4.9-2.2-7.3-3.4c-0.7-0.3-1.4-0.7-2.1-1c-1.9-0.9-3.8-1.9-5.6-2.9c-1.2-0.7-2.5-1.3-3.8-2c-2.3-1.2-4.5-2.5-6.7-3.8
	c-0.8-0.4-1.5-0.8-2.3-1.3c-3-1.7-5.9-3.5-8.8-5.4c-0.8-0.5-1.6-1.1-2.4-1.6c-2.1-1.4-4.2-2.7-6.3-4.2c-0.7-0.5-1.3-1-2-1.4
	c-2-1.4-4-2.8-5.9-4.3c-0.9-0.7-1.8-1.3-2.6-2c-1.8-1.4-3.6-2.8-5.3-4.2c-0.8-0.6-1.6-1.3-2.4-1.9c-2.2-1.8-4.5-3.7-6.6-5.6
	c-0.2-0.2-0.5-0.4-0.7-0.6c-2.4-2.1-4.7-4.2-7-6.4c-0.7-0.6-1.3-1.3-2-1.9c-1.7-1.6-3.4-3.2-5-4.9c-0.7-0.7-1.3-1.3-2-2
	c-2.1-2.1-4.1-4.3-6.2-6.5c-0.1-0.1-0.2-0.2-0.3-0.3c-2.1-2.3-4.2-4.7-6.2-7.1c-0.6-0.7-1.1-1.3-1.6-1.9c-1.5-1.8-3-3.7-4.5-5.6
	c-0.6-0.7-1.1-1.4-1.6-2.1c-1.8-2.3-3.5-4.6-5.2-6.9c-46.8-63.9-63.7-152-26.2-224.3"/>
<path fill="#555555" d="M162.4,104.1c-30.7,44.2-29.1,103.5-5.1,150.2c4,7.8,8.5,15.5,13.6,22.7c4.6,6.6,9.7,14.5,15.8,19.8
	c2.2,2.4,4.5,4.8,6.9,7.2c0.6,0.6,1.2,1.2,1.8,1.8c2.3,2.2,4.6,4.4,7,6.5c0.1,0.1,0.2,0.2,0.3,0.2c0,0,0.1,0,0.1,0.1
	c2.7,2.3,5.4,4.6,8.2,6.8c0.6,0.5,1.2,1,1.9,1.5c2.8,2.2,5.7,4.3,8.6,6.3c0.1,0.1,0.2,0.1,0.2,0.2c1.3,0.9,2.6,1.7,3.9,2.6
	c0.6,0.4,1.2,0.8,1.9,1.2c2.1,1.3,4.2,2.7,6.4,3.9c0.3,0.2,0.6,0.3,0.9,0.5c1.9,1.1,3.7,2.1,5.6,3.2c0.7,0.4,1.3,0.7,2,1
	c1.3,0.7,2.6,1.4,3.9,2c0.2,0.1,0.4,0.2,0.6,0.3c2.7,1.3,5.4,2.6,8.2,3.8c0.6,0.3,1.2,0.5,1.8,0.7c2.2,0.9,4.5,1.9,6.7,2.7
	c1,0.4,1.9,0.7,2.9,1.1c2.1,0.8,4.1,1.5,6.2,2.2c0.9,0.3,1.9,0.6,2.8,0.9c3,0.9,5.9,2.1,9,2.6c158.7,26.3,195.4-95.9,195.4-95.9
	c-33,47.6-97,70.3-165.3,52.6c-3-0.8-6-1.7-9-2.6c-0.9-0.3-1.8-0.6-2.7-0.9c-2.1-0.7-4.2-1.4-6.3-2.2c-1-0.3-1.9-0.7-2.8-1.1
	c-2.3-0.9-4.5-1.8-6.8-2.7c-0.6-0.3-1.2-0.5-1.8-0.8c-2.8-1.2-5.6-2.5-8.3-3.8c-1.4-0.7-2.8-1.4-4.2-2.1c-0.8-0.4-1.6-0.8-2.4-1.2
	c-1.8-1-3.5-2-5.3-3c-0.4-0.2-0.8-0.5-1.3-0.7c-2.1-1.3-4.3-2.6-6.4-3.9c-0.6-0.4-1.3-0.9-1.9-1.3c-1.4-0.9-2.8-1.8-4.1-2.7
	c-2.9-2-5.8-4.1-8.6-6.3c-0.6-0.5-1.3-1-1.9-1.5c-29.9-23.6-53.6-55.8-64.8-92.4c-11.8-37.9-9.3-80.5,11.2-115"/>
<path fill="#555555" d="M273.4,65.7c-18.1,26.7-19.9,59.8-7.3,89.3c13.3,31.3,40.4,55.8,72.1,67.4c1.3,0.5,2.6,0.9,3.9,1.4
	c0.6,0.2,1.2,0.4,1.7,0.5c1.9,0.6,3.7,1.3,5.7,1.6c87.6,16.9,111.4-45,117.7-54.1c-20.8,30-55.8,37.2-98.8,26.8
	c-3.4-0.8-7.1-2.1-10.4-3.2c-4.2-1.5-8.3-3.2-12.3-5.1c-7.6-3.7-14.9-8.1-21.6-13.2C285.8,147.9,261.9,92.3,287,47"/>
</svg>
