<?xml version="1.0" encoding="utf-8"?>
<!-- Generator: Adobe Illustrator 18.0.0, SVG Export Plug-In . SVG Version: 6.00 Build 0)  -->
<!DOCTYPE svg PUBLIC "-//W3C//DTD SVG 1.1//EN" "http://www.w3.org/Graphics/SVG/1.1/DTD/svg11.dtd">
<svg version="1.1" id="Layer_1" xmlns="http://www.w3.org/2000/svg" xmlns:xlink="http://www.w3.org/1999/xlink" x="0px" y="0px"
	 viewBox="402.6 246.5 273.9 610.9" enable-background="new 402.6 246.5 273.9 610.9" xml:space="preserve">
<path fill="#555555" d="M553.6,857.4l-16.4-5.5c0,0,2.1-82.9-27.8-88.7c-19.7-22.9,3-976.1,74.6-3.3c0,0-24.6,12.3-29.2,33.3
	C550.2,814.1,553.6,857.4,553.6,857.4z"/>
<path fill="#444444" d="M562.4,777.3c0,0,142.4-93.8,109.1-288.5c-32.2-141.5-107.9-188-116.2-205.7c-9-12.5-18-34.8-18-34.8
	l6,394.2C543.4,642.3,530.7,762.7,562.4,777.3z"/>
<path fill="#555555" d="M528.8,782.6c0,0-133.6-91-125.8-251.9C410.7,370,505,291,523.3,276.6c12-12.7,12.3-17.6,13.2-30.1
	c8.4,18,6.9,267.2,7.7,296.2C547.8,656.2,538.1,761.1,528.8,782.6z"/>
</svg>
