<?xml version="1.0" encoding="utf-8"?>
<!-- Generator: Adobe Illustrator 18.0.0, SVG Export Plug-In . SVG Version: 6.00 Build 0)  -->
<!DOCTYPE svg PUBLIC "-//W3C//DTD SVG 1.1//EN" "http://www.w3.org/Graphics/SVG/1.1/DTD/svg11.dtd">
<svg version="1.1" id="Layer_1" xmlns="http://www.w3.org/2000/svg" xmlns:xlink="http://www.w3.org/1999/xlink" x="0px" y="0px"
	 viewBox="233.6 156 155.5 450" enable-background="new 233.6 156 155.5 450" xml:space="preserve">
<path fill="#555555" d="M319.3,554.5l-9.3-3.1c0,0,1.2-47.1-15.8-50.4c-11.2-13,1.7-554.6,42.4-1.9c0,0-14,7-16.6,18.9
	C317.4,529.9,319.3,554.5,319.3,554.5z"/>
<path fill="#444444" d="M324.3,509c0,0,80.9-53.3,62-163.9c-18.3-80.4-61.3-106.8-66-116.9c-5.1-7.1-10.2-19.8-10.2-19.8l3.4,224
	C313.5,432.3,306.3,500.7,324.3,509z"/>
<path fill="#555555" d="M305.2,512c0,0-75.9-51.7-71.5-143.1c4.4-91.3,58-136.2,68.4-144.4c6.8-7.2,7-10,7.5-17.1
	c4.8,10.2,3.9,151.8,4.4,168.3C316,440.2,310.5,499.8,305.2,512z"/>
</svg>
