<?xml version="1.0" encoding="utf-8"?>
<!-- Generator: Adobe Illustrator 18.0.0, SVG Export Plug-In . SVG Version: 6.00 Build 0)  -->
<!DOCTYPE svg PUBLIC "-//W3C//DTD SVG 1.1//EN" "http://www.w3.org/Graphics/SVG/1.1/DTD/svg11.dtd">
<svg version="1.1"
	 id="svg2" sodipodi:docname="nginx_logo_release.svg" inkscape:version="0.48.3.1 r9886" xmlns:svg="http://www.w3.org/2000/svg" xmlns:rdf="http://www.w3.org/1999/02/22-rdf-syntax-ns#" xmlns:dc="http://purl.org/dc/elements/1.1/" xmlns:cc="http://creativecommons.org/ns#" xmlns:sodipodi="http://sodipodi.sourceforge.net/DTD/sodipodi-0.dtd" xmlns:inkscape="http://www.inkscape.org/namespaces/inkscape"
	 xmlns="http://www.w3.org/2000/svg" xmlns:xlink="http://www.w3.org/1999/xlink" x="0px" y="0px" viewBox="7.7 0.7 587.7 267.1"
	 enable-background="new 7.7 0.7 587.7 267.1" xml:space="preserve">
<sodipodi:namedview  inkscape:window-y="24" fit-margin-right="0" inkscape:pageopacity="0.0" inkscape:document-units="px" inkscape:pageshadow="2" inkscape:current-layer="layer1" inkscape:window-maximized="1" inkscape:window-x="0" fit-margin-bottom="0" id="base" fit-margin-left="0" showgrid="false" bordercolor="#666666" inkscape:cx="23.971822" inkscape:cy="48.217226" inkscape:zoom="2.8284271" fit-margin-top="0" borderopacity="1.0" pagecolor="#ffffff">
	</sodipodi:namedview>
<g id="layer1" transform="translate(-11.56225,-11.12422)" inkscape:groupmode="layer" inkscape:label="Layer 1">
	
		<path id="path2996" inkscape:connector-curvature="0" sodipodi:nodetypes="cccc" fill="none" stroke="#555555" stroke-width="60" stroke-linecap="round" stroke-linejoin="round" d="
		M39.2,251.5V39.4l212.1,212.1V39.4"/>
	<path id="path2996-0" inkscape:connector-curvature="0" sodipodi:nodetypes="cccccccccccccccscccccccccccccc" fill="#555555" d="
		M380.2,11.8l-7.7,14.3l-59.1,107.4l-7.6,13.6l7.6,13.6l59.1,104l8,14.3h16.3h121h17.4l7.6-15.6l44.2-89l19.8-40.3H562l-113,0.3
		c-14.7-0.2-28.2,13.1-28.2,27.8s13.5,28,28.2,27.8l68.2-0.3l-16.7,33.7h-87.6l-43.5-76.5l43.8-79.3h93.2l21.7,44.6h56l-35.3-84.6
		l-7.7-15.6h-17.4H396.8H380.2z"/>
	<g id="g3920" transform="translate(0.10586251,0.33010228)">
	</g>
</g>
</svg>
