<?xml version="1.0" encoding="utf-8"?>
<!-- Generator: Adobe Illustrator 18.0.0, SVG Export Plug-In . SVG Version: 6.00 Build 0)  -->
<!DOCTYPE svg PUBLIC "-//W3C//DTD SVG 1.1//EN" "http://www.w3.org/Graphics/SVG/1.1/DTD/svg11.dtd">
<svg version="1.1" id="Layer_1" xmlns="http://www.w3.org/2000/svg" xmlns:xlink="http://www.w3.org/1999/xlink" x="0px" y="0px"
	 viewBox="0 0 132.7 149.6" enable-background="new 0 0 132.7 149.6" xml:space="preserve">
<g id="g16">
	<path id="path30" fill="#565656" d="M66.3,149.6c-2,0-4-0.5-5.7-1.5l-18.3-10.8c-2.7-1.5-1.4-2.1-0.5-2.4c3.6-1.3,4.4-1.6,8.3-3.8
		c0.4-0.2,0.9-0.1,1.4,0.1l14.1,8.3c0.5,0.3,1.2,0.3,1.7,0l54.8-31.6c0.5-0.3,0.8-0.9,0.8-1.5V43.1c0-0.6-0.3-1.2-0.8-1.5L67.2,10
		c-0.5-0.3-1.2-0.3-1.7,0L10.7,41.6c-0.5,0.3-0.9,0.9-0.9,1.5v63.3c0,0.6,0.3,1.2,0.9,1.5l15,8.7c8.1,4.1,13.1-0.7,13.1-5.5V48.5
		c0-0.9,0.7-1.6,1.6-1.6h7c0.9,0,1.6,0.7,1.6,1.6V111c0,10.9-5.9,17.1-16.2,17.1c-3.2,0-5.7,0-12.6-3.4l-14.4-8.3
		c-3.6-2.1-5.7-5.9-5.7-10V43.1c0-4.1,2.2-7.9,5.7-10L60.6,1.5c3.5-2,8.1-2,11.5,0l54.8,31.7c3.6,2.1,5.8,5.9,5.8,10v63.3
		c0,4.1-2.2,7.9-5.8,10l-54.8,31.7C70.3,149.1,68.3,149.6,66.3,149.6"/>
	<path id="path32" fill="#565656" d="M83.2,106c-24,0-29-11-29-20.2c0-0.9,0.7-1.6,1.6-1.6h7.1c0.8,0,1.4,0.6,1.6,1.3
		c1.1,7.2,4.3,10.9,18.8,10.9c11.5,0,16.5-2.6,16.5-8.7c0-3.5-1.4-6.2-19.3-7.9c-15-1.5-24.3-4.8-24.3-16.8c0-11.1,9.3-17.7,25-17.7
		c17.6,0,26.3,6.1,27.4,19.2c0,0.5-0.1,0.9-0.4,1.2c-0.3,0.3-0.7,0.5-1.2,0.5h-7.1c-0.7,0-1.4-0.5-1.5-1.2c-1.7-7.6-5.9-10-17.1-10
		c-12.6,0-14.1,4.4-14.1,7.7c0,4,1.7,5.1,18.8,7.4c16.8,2.2,24.8,5.4,24.8,17.2C110.6,99.2,100.6,106,83.2,106"/>
</g>
</svg>
