<?xml version="1.0" encoding="utf-8"?>
<!-- Generator: Adobe Illustrator 18.0.0, SVG Export Plug-In . SVG Version: 6.00 Build 0)  -->
<!DOCTYPE svg PUBLIC "-//W3C//DTD SVG 1.1//EN" "http://www.w3.org/Graphics/SVG/1.1/DTD/svg11.dtd">
<svg version="1.1" id="Layer_1" xmlns="http://www.w3.org/2000/svg" xmlns:xlink="http://www.w3.org/1999/xlink" x="0px" y="0px"
	 viewBox="106 196 400 400" enable-background="new 106 196 400 400" xml:space="preserve">
<path fill="#555555" d="M249.1,261.1c3.1-8-4.3-15.3-12.9-20.2c-12.9-3.7-26.3-8-39.2-11.6c12.9-5.5,25.7-10.4,38.6-15.9
	c28.8-18.4,62.4-27.5,93-2.4c14.1,11.6,17.1,35.5,15.3,66.7c45.3,74.1,49.6,165.2,16.5,271.7c17.1,14.1,34.3,26.3,54.5,30.6
	c-8,12.9-30.6,16.5-63.6,13.5c-4.3,0.6-8.6,1.8-12.9,2.4c-20.2-31.2,31.2-101.6,0-176.3c-12.9,22-31.8,35.5-47.1,53.2
	c-5.5,6.7-11,19.6-20.8,8c-3.1-3.1-3.7-8.6-1.8-15.9c9.2-33.7,46.5-63,47.7-101.6c1.8-42.2-23.3-55.7-34.3-95.5
	c-4.3-15.9-12.2-20.8-23.3-15.9c-46.5,105.9-40.4,219.7,11,316.4c-23.3,3.7-39.2,8-47.7,19.6c-8.6-1.8-11.6-1.2-20.2-2.4
	c9.2-12.9,33.7-17.7,56.3-23.3c-17.7-42.8-33.7-88.1-36.7-137.7C219.1,370,227.7,315.5,249.1,261.1L249.1,261.1z M299.3,596.5
	c-23.3-0.6-52-0.6-75.9-7.3c9.2-8,24.5-15.9,49-17.1C288.3,571.4,298.7,578.7,299.3,596.5L299.3,596.5z"/>
</svg>
