<?xml version="1.0" encoding="utf-8"?>
<!-- Generator: Adobe Illustrator 18.0.0, SVG Export Plug-In . SVG Version: 6.00 Build 0)  -->
<!DOCTYPE svg PUBLIC "-//W3C//DTD SVG 1.1//EN" "http://www.w3.org/Graphics/SVG/1.1/DTD/svg11.dtd">
<svg version="1.1" id="Layer_1" xmlns="http://www.w3.org/2000/svg" xmlns:xlink="http://www.w3.org/1999/xlink" x="0px" y="0px"
	 viewBox="0 0 100 100" enable-background="new 0 0 100 100" xml:space="preserve">
<path fill="#555555" d="M42,12.4c0.5-1.3-0.7-2.5-2.1-3.3c-2.1-0.6-4.3-1.3-6.4-1.9c2.1-0.9,4.2-1.7,6.3-2.6C44.5,1.6,50,0.1,55,4.2
	c2.3,1.9,2.8,5.8,2.5,10.9c7.4,12.1,8.1,27,2.7,44.4c2.8,2.3,5.6,4.3,8.9,5c-1.3,2.1-5,2.7-10.4,2.2c-0.7,0.1-1.4,0.3-2.1,0.4
	c-3.3-5.1,5.1-16.6,0-28.8c-2.1,3.6-5.2,5.8-7.7,8.7c-0.9,1.1-1.8,3.2-3.4,1.3c-0.5-0.5-0.6-1.4-0.3-2.6c1.5-5.5,7.6-10.3,7.8-16.6
	c0.3-6.9-3.8-9.1-5.6-15.6c-0.7-2.6-2-3.4-3.8-2.6c-7.6,17.3-6.6,35.9,1.8,51.7c-3.8,0.6-6.4,1.3-7.8,3.2c-1.4-0.3-1.9-0.2-3.3-0.4
	c1.5-2.1,5.5-2.9,9.2-3.8c-2.9-7-5.5-14.4-6-22.5C37.1,30.2,38.5,21.3,42,12.4L42,12.4z M50.2,67.2c-3.8-0.1-8.5-0.1-12.4-1.2
	c1.5-1.3,4-2.6,8-2.8C48.4,63.1,50.1,64.3,50.2,67.2L50.2,67.2z"/>
</svg>
