<?xml version="1.0" encoding="utf-8"?>
<!-- Generator: Adobe Illustrator 18.0.0, SVG Export Plug-In . SVG Version: 6.00 Build 0)  -->
<!DOCTYPE svg PUBLIC "-//W3C//DTD SVG 1.1//EN" "http://www.w3.org/Graphics/SVG/1.1/DTD/svg11.dtd">
<svg version="1.1"
	 id="svg2" xmlns:sodipodi="http://inkscape.sourceforge.net/DTD/sodipodi-0.dtd" xmlns:inkscape="http://www.inkscape.org/namespaces/inkscape" sodipodi:docname="logo-python-generic.svg" sodipodi:docbase="/home/sdeibel" inkscape:version="0.43" sodipodi:version="0.32" xmlns:cc="http://web.resource.org/cc/" xmlns:dc="http://purl.org/dc/elements/1.1/" xmlns:rdf="http://www.w3.org/1999/02/22-rdf-syntax-ns#" xmlns:svg="http://www.w3.org/2000/svg"
	 xmlns="http://www.w3.org/2000/svg" xmlns:xlink="http://www.w3.org/1999/xlink" x="0px" y="0px" viewBox="0 0 612 792"
	 enable-background="new 0 0 612 792" xml:space="preserve">
<sodipodi:namedview  pagecolor="#ffffff" borderopacity="1.0" id="base" bordercolor="#666666" inkscape:cx="243.02499" inkscape:cy="71.887497" inkscape:zoom="1.4340089" inkscape:pageshadow="2" inkscape:window-x="0" inkscape:current-layer="svg2" inkscape:window-y="0" inkscape:window-height="543" inkscape:pageopacity="0.0" inkscape:window-width="791">
	</sodipodi:namedview>
<path id="path1948" fill="#555555" d="M302.3,63.1c-25.3,0-49.5,2.2-70.4,6.1c-62.2,11-73.7,34.1-73.7,76.5v56.1h147.5v18.7H158.1
	h-55.6c-42.9,0-80.4,25.9-92.5,74.8C-3.1,352-3.7,386.7,10.6,445.6c10.5,43.5,35.8,74.8,78.7,74.8H140v-67.7
	c0-48.4,42.4-91.9,91.9-91.9h147.5c41.3,0,73.7-33.6,73.7-74.8V145.7c0-40.2-33.6-69.9-73.7-76.5C354.1,64.7,327.6,63.1,302.3,63.1z
	 M222.5,108.2c15.4,0,27.5,12.7,27.5,28.1s-12.7,28.1-27.5,28.1c-15.4,0-27.5-12.7-27.5-28.1S207.1,108.2,222.5,108.2z"/>
<path id="path1950" fill="#777777" d="M471.3,221.1v65.5c0,50.6-42.9,93.6-92.5,93.6H231.9c-40.2,0-73.7,34.7-73.7,74.8v140.3
	c0,40.2,34.7,63.3,73.7,74.8c46.8,13.8,91.4,16,147.5,0c37.4-11,73.7-32.5,73.7-74.8v-56.1H305.6v-18.7h147.5h73.7
	c42.9,0,58.9-29.7,73.7-74.8c15.4-46.2,14.9-90.8,0-149.7c-10.5-42.9-30.8-74.8-73.7-74.8H471.3z M388.7,576.6
	c15.4,0,27.5,12.7,27.5,28.1c0,15.4-12.7,28.1-27.5,28.1c-15.4,0-27.5-12.7-27.5-28.1C360.7,589.2,373.3,576.6,388.7,576.6z"/>
</svg>
