<?xml version="1.0" encoding="utf-8"?>
<!-- Generator: Adobe Illustrator 18.0.0, SVG Export Plug-In . SVG Version: 6.00 Build 0)  -->
<!DOCTYPE svg PUBLIC "-//W3C//DTD SVG 1.1//EN" "http://www.w3.org/Graphics/SVG/1.1/DTD/svg11.dtd">
<svg version="1.1"
	 id="svg2" sodipodi:version="0.32" sodipodi:docbase="/home/sdeibel" sodipodi:docname="logo-python-generic.svg" inkscape:version="0.43" xmlns:svg="http://www.w3.org/2000/svg" xmlns:rdf="http://www.w3.org/1999/02/22-rdf-syntax-ns#" xmlns:dc="http://purl.org/dc/elements/1.1/" xmlns:cc="http://web.resource.org/cc/" xmlns:sodipodi="http://inkscape.sourceforge.net/DTD/sodipodi-0.dtd" xmlns:inkscape="http://www.inkscape.org/namespaces/inkscape"
	 xmlns="http://www.w3.org/2000/svg" xmlns:xlink="http://www.w3.org/1999/xlink" x="0px" y="0px" viewBox="5.6 6.4 111.2 112.4"
	 enable-background="new 5.6 6.4 111.2 112.4" xml:space="preserve">
<sodipodi:namedview  inkscape:window-y="0" inkscape:pageopacity="0.0" inkscape:pageshadow="2" inkscape:current-layer="svg2" inkscape:window-x="0" id="base" inkscape:window-height="543" inkscape:window-width="791" bordercolor="#666666" inkscape:cx="243.02499" inkscape:cy="71.887497" inkscape:zoom="1.4340089" borderopacity="1.0" pagecolor="#ffffff">
	</sodipodi:namedview>
<path id="path1948" fill="#555555" d="M60.5,6.4c-4.6,0-9,0.4-12.8,1.1c-11.3,2-13.4,6.2-13.4,13.9v10.2h26.8v3.4H34.3H24.2
	c-7.8,0-14.6,4.7-16.8,13.6C5,58.9,4.9,65.2,7.5,75.9c1.9,7.9,6.5,13.6,14.3,13.6h9.2V77.2c0-8.8,7.7-16.7,16.7-16.7h26.8
	c7.5,0,13.4-6.1,13.4-13.6V21.4c0-7.3-6.1-12.7-13.4-13.9C69.9,6.7,65.1,6.4,60.5,6.4z M46,14.6c2.8,0,5,2.3,5,5.1
	c0,2.8-2.3,5.1-5,5.1c-2.8,0-5-2.3-5-5.1C41,16.9,43.2,14.6,46,14.6z"/>
<path id="path1950" fill="#777777" d="M91.2,35.1V47c0,9.2-7.8,17-16.8,17H47.7c-7.3,0-13.4,6.3-13.4,13.6v25.5
	c0,7.3,6.3,11.5,13.4,13.6c8.5,2.5,16.6,2.9,26.8,0c6.8-2,13.4-5.9,13.4-13.6V92.9H61.1v-3.4h26.8h13.4c7.8,0,10.7-5.4,13.4-13.6
	c2.8-8.4,2.7-16.5,0-27.2c-1.9-7.8-5.6-13.6-13.4-13.6H91.2z M76.2,99.7c2.8,0,5,2.3,5,5.1c0,2.8-2.3,5.1-5,5.1c-2.8,0-5-2.3-5-5.1
	C71.1,102,73.4,99.7,76.2,99.7z"/>
</svg>
