<?xml version="1.0" encoding="utf-8"?>
<!-- Generator: Adobe Illustrator 18.0.0, SVG Export Plug-In . SVG Version: 6.00 Build 0)  -->
<!DOCTYPE svg PUBLIC "-//W3C//DTD SVG 1.1//EN" "http://www.w3.org/Graphics/SVG/1.1/DTD/svg11.dtd">
<svg version="1.1"
	 id="svg3120" sodipodi:docname="Ruby on Rails.svg" inkscape:version="0.48.0 r9654" xmlns:svg="http://www.w3.org/2000/svg" xmlns:rdf="http://www.w3.org/1999/02/22-rdf-syntax-ns#" xmlns:dc="http://purl.org/dc/elements/1.1/" xmlns:cc="http://creativecommons.org/ns#" xmlns:sodipodi="http://sodipodi.sourceforge.net/DTD/sodipodi-0.dtd" xmlns:inkscape="http://www.inkscape.org/namespaces/inkscape"
	 xmlns="http://www.w3.org/2000/svg" xmlns:xlink="http://www.w3.org/1999/xlink" x="0px" y="0px" viewBox="7.3 8.1 106.8 104.9"
	 enable-background="new 7.3 8.1 106.8 104.9" xml:space="preserve">
<sodipodi:namedview  inkscape:window-y="0" fit-margin-right="0" inkscape:pageopacity="0.0" inkscape:document-units="px" inkscape:pageshadow="2" inkscape:current-layer="g3911" inkscape:window-maximized="1" inkscape:window-x="0" fit-margin-bottom="0" id="base" inkscape:window-height="672" inkscape:window-width="1152" fit-margin-left="0" showgrid="false" bordercolor="#666666" inkscape:cx="61.012576" inkscape:cy="78.29907" inkscape:zoom="2.5505618" fit-margin-top="0" borderopacity="1.0" pagecolor="#ffffff">
	</sodipodi:namedview>
<g id="layer6" transform="translate(-273.27313,-435.95455)" inkscape:groupmode="layer" inkscape:label="Logo (white part)">
	<path id="path3966" inkscape:connector-curvature="0" sodipodi:nodetypes="ccssccsszc" fill="#555555" d="M292.1,548.9h52.1
		c0,0-11.6-26.3-8.6-50.4s22-35.1,32.7-36.3c10.8-1.2,16.7,5.5,16.7,5.5l2.4-3.5c0,0-15.5-15.7-35.1-13.9s-33.1,14.7-41.6,30.4
		s-13.3,26.7-16.7,43.1C290.7,540.3,292.1,548.9,292.1,548.9z"/>
	<path id="path3968" inkscape:connector-curvature="0" fill="#555555" d="M281.7,522.7l10.2,0.8l-1.8,10.2l-9.6-1.2L281.7,522.7z"/>
	<path id="path3970" inkscape:connector-curvature="0" fill="#555555" d="M297.8,501.1l2.7-7.6l-9-3.5l-2.9,8.2L297.8,501.1z"/>
	<path id="path3972" inkscape:connector-curvature="0" fill="#555555" d="M310.5,474.8l5.3-6.3l-6.9-4.5l-5.5,6.1L310.5,474.8z"/>
	<path id="path3974" inkscape:connector-curvature="0" fill="#555555" d="M324.4,450.5l4.7,5.7l6.5-3.7l-4.7-5.3L324.4,450.5z"/>
	<path id="path3976" inkscape:connector-curvature="0" fill="#555555" d="M347.4,444.1l1.2,5.7l8-0.2l-0.8-5.1L347.4,444.1z"/>
	<path id="path3978" inkscape:connector-curvature="0" fill="#555555" d="M374.6,450.1l-0.2,3.5l5.5,2.9l1.2-1.8L374.6,450.1z"/>
	<path id="path3980" inkscape:connector-curvature="0" fill="#555555" d="M373.4,465.2v2.9l5.3,0.6v-2.4L373.4,465.2z"/>
	<path id="path3982" inkscape:connector-curvature="0" fill="#555555" d="M356.6,467.8l2.5,4.7l3.7-2.9l-0.8-3.1L356.6,467.8z"/>
	<path id="path3984" inkscape:connector-curvature="0" fill="#555555" d="M348.6,473.9l3.9,5.9l-2.4,4.1l-5.7-6.3L348.6,473.9z"/>
	<path id="path3986" inkscape:connector-curvature="0" fill="#555555" d="M340.7,490.1l-2.5,5.1l6.7,5.7l1.6-6.5L340.7,490.1z"/>
	<path id="path3988" inkscape:connector-curvature="0" fill="#555555" d="M338,508l-0.4,6.9l8.2,3.5l-0.4-6.5L338,508z"/>
	<path id="path3990" inkscape:connector-curvature="0" fill="#555555" d="M340.3,532.3l2,7.1l10.4,0.6l-3.7-7.6H340.3z"/>
</g>
</svg>
