<?xml version="1.0" encoding="utf-8"?>
<!-- Generator: Adobe Illustrator 18.0.0, SVG Export Plug-In . SVG Version: 6.00 Build 0)  -->
<!DOCTYPE svg PUBLIC "-//W3C//DTD SVG 1.1//EN" "http://www.w3.org/Graphics/SVG/1.1/DTD/svg11.dtd">
<svg version="1.1" id="Layer_1" xmlns="http://www.w3.org/2000/svg" xmlns:xlink="http://www.w3.org/1999/xlink" x="0px" y="0px"
	 viewBox="0 0 199.4 199.4" enable-background="new 0 0 199.4 199.4" xml:space="preserve">
<polygon fill-rule="evenodd" clip-rule="evenodd" fill="none" stroke="#555655" stroke-width="5" stroke-miterlimit="10" points="
	41,198.1 187.5,188.2 198.7,40.5 154.1,131 "/>
<polygon fill-rule="evenodd" clip-rule="evenodd" fill="none" stroke="#555655" stroke-width="5" stroke-miterlimit="10" points="
	140.8,146.5 187.7,188.1 175.1,101.2 "/>
<polygon fill-rule="evenodd" clip-rule="evenodd" fill="none" stroke="#555655" stroke-width="5" stroke-miterlimit="10" points="
	41.5,198 187.9,188.1 95.6,180.9 "/>
<polygon fill-rule="evenodd" clip-rule="evenodd" fill="none" stroke="#555655" stroke-width="5" stroke-miterlimit="10" points="
	13.9,133.3 41.6,198 64.6,122.5 "/>
<polygon fill-rule="evenodd" clip-rule="evenodd" fill="none" stroke="#555655" stroke-width="5" stroke-miterlimit="10" points="
	58.9,120.6 140.8,146.7 119.6,63.7 "/>
<polygon fill-rule="evenodd" clip-rule="evenodd" fill="none" stroke="#555655" stroke-width="5" stroke-miterlimit="10" points="
	120.6,69.7 193.9,64.9 136.6,18 "/>
<polygon fill-rule="evenodd" clip-rule="evenodd" fill="none" stroke="#555655" stroke-width="5" stroke-miterlimit="10" points="
	112.1,1.1 167.1,1.3 133.4,20 "/>
<polygon fill-rule="evenodd" clip-rule="evenodd" fill="none" stroke="#555655" stroke-width="5" stroke-miterlimit="10" points="
	3.3,102.2 0.6,158.7 14.7,132.9 "/>
<path fill-rule="evenodd" clip-rule="evenodd" fill="none" stroke="#555655" stroke-width="5" stroke-miterlimit="10" d="M2.5,101.2
	L14,133.8l50-11.2l57.1-53l16.1-51.1L111.8,0.6L68.7,16.7C55.1,29.3,28.8,54.3,27.8,54.8C26.9,55.3,10.4,86.4,2.5,101.2z"/>
<path fill-rule="evenodd" clip-rule="evenodd" fill="none" stroke="#555655" stroke-width="5" stroke-miterlimit="10" d="M42.9,42.6
	c29.4-29.2,67.4-46.4,81.9-31.7c14.5,14.7-0.9,50.4-30.3,79.6s-66.9,47.4-81.4,32.7C-1.5,108.4,13.5,71.8,42.9,42.6z"/>
<path fill-rule="evenodd" clip-rule="evenodd" fill="none" stroke="#555655" stroke-width="5" stroke-miterlimit="10" d="
	M41.6,197.9l22.9-75.7l75.9,24.4C112.9,172.4,82.4,194.1,41.6,197.9z"/>
<path fill-rule="evenodd" clip-rule="evenodd" fill="none" stroke="#555655" stroke-width="5" stroke-miterlimit="10" d="
	M121.2,69.5l19.5,77.2c22.9-24.1,43.5-50,53.6-82.1L121.2,69.5z"/>
<path fill-rule="evenodd" clip-rule="evenodd" fill="none" stroke="#555655" stroke-width="5" stroke-miterlimit="10" d="M194,65
	c7.8-23.5,9.6-57.3-27.2-63.6L136.7,18L194,65z"/>
<path fill-rule="evenodd" clip-rule="evenodd" fill="none" stroke="#555655" stroke-width="5" stroke-miterlimit="10" d="M0.6,158.3
	c1.1,38.9,29.1,39.4,41,39.8l-27.6-64.4L0.6,158.3z"/>
<path fill-rule="evenodd" clip-rule="evenodd" fill="none" stroke="#555655" stroke-width="5" stroke-miterlimit="10" d="
	M121.3,69.6c17.6,10.8,53.1,32.6,53.8,33c1.1,0.6,15.3-23.9,18.5-37.8L121.3,69.6z"/>
<path fill-rule="evenodd" clip-rule="evenodd" fill="none" stroke="#555655" stroke-width="5" stroke-miterlimit="10" d="
	M64.4,122.2l30.6,59c18.1-9.8,32.2-21.7,45.2-34.5L64.4,122.2z"/>
<path fill-rule="evenodd" clip-rule="evenodd" fill="none" stroke="#555655" stroke-width="5" stroke-miterlimit="10" d="M14,133.8
	l-4.3,51.6c8.2,11.2,19.4,12.1,31.2,11.3C32.3,175.3,15.3,132.9,14,133.8z"/>
<path fill-rule="evenodd" clip-rule="evenodd" fill="none" stroke="#555655" stroke-width="5" stroke-miterlimit="10" d="
	M136.5,18.2l60.7,8.5C194,13,184,4.1,167.1,1.3L136.5,18.2z"/>
</svg>
