<?xml version="1.0" encoding="utf-8"?>
<!-- Generator: Adobe Illustrator 18.0.0, SVG Export Plug-In . SVG Version: 6.00 Build 0)  -->
<!DOCTYPE svg PUBLIC "-//W3C//DTD SVG 1.1//EN" "http://www.w3.org/Graphics/SVG/1.1/DTD/svg11.dtd">
<svg version="1.1" id="Layer_1" xmlns="http://www.w3.org/2000/svg" xmlns:xlink="http://www.w3.org/1999/xlink" x="0px" y="0px"
	 viewBox="0 0 141.8 144.8" enable-background="new 0 0 141.8 144.8" xml:space="preserve">
<g id="g16">
	<path id="path40" fill="#565656" d="M109,74.5V41.7l28.4-16.4v32.8L109,74.5z M72.5,19.7l-0.8,0.6l0,0.9V31l-14.4,8.3L87,56.5
		L61.7,71.1l-55-31.8l55-31.8l16,9.2L72.5,19.7L72.5,19.7z M106.8,37.8L78.4,21.5l28.4-16.4l28.4,16.4L106.8,37.8L106.8,37.8z
		 M76.1,45.1V25.3l28.4,16.4v32.8l-10.8-6.2l-0.1-12.2l0-0.9l-0.8-0.5L76.1,45.1L76.1,45.1z M89.5,92.8l0.1,3.2l2.7-1.7L119,77.6v29
		l-55,31.8V74.9l25.3-14.6L89.5,92.8z M106,80.5L93.9,88l-0.1-14.6l11.8,6.8L106,80.5z M71.7,36.1v6.4l-5.5-3.2L71.7,36.1z
		 M4.5,43.1l55,31.8v63.5l-55-31.8L4.5,43.1L4.5,43.1z M107.6,0.4L106.8,0l-0.9,0.4L82.1,14.2L62.5,2.8l-0.8-0.4l-0.9,0.4L0,38
		l0,0.6l0,69.8l0,0.8l0.8,0.6l60.4,34.9l0.4,0.2l0.5-0.3l60.4-34.9l0.8-0.4l0-1V72.6l-1.1-0.7L141,61.1l0.8-0.6V20.2l-0.5-0.3
		L107.6,0.4"/>
</g>
</svg>
