<?xml version="1.0" encoding="utf-8"?>
<!-- Generator: Adobe Illustrator 18.0.0, SVG Export Plug-In . SVG Version: 6.00 Build 0)  -->
<!DOCTYPE svg PUBLIC "-//W3C//DTD SVG 1.1//EN" "http://www.w3.org/Graphics/SVG/1.1/DTD/svg11.dtd">
<svg version="1.1" id="Layer_1" xmlns="http://www.w3.org/2000/svg" xmlns:xlink="http://www.w3.org/1999/xlink" x="0px" y="0px"
	 viewBox="0 0 612 792" enable-background="new 0 0 612 792" xml:space="preserve">
<g>
	<path fill="#555555" d="M188.4,538c-20.7,21.9-26.4,49.2-14.9,55.9c10.7,6.1,35.6-1.2,53.3-20.6c5.8-6.3,10.6-13.3,14.1-20.6
		c0.6-1.5,1.3-3,1.9-4.5c0.6-1.5,1.2-3.1,1.6-4.6c4.6-13.9,5.1-29.2,0.6-45.7c-0.9,0.4-1.9,1-2.7,1.3v0.1
		C242.5,499.4,210.6,514.6,188.4,538z"/>
	<path fill="#555555" d="M305.9,90C137,90,0,227,0,395.9C0,565,137,702,305.9,701.9c168.9,0,305.9-136.9,305.9-305.9
		C611.9,227,475,90,305.9,90z M405.4,361.7c-53.2,20.6-97,17.3-115,11.3c-20.6-6.7-32.5-20.3-35.4-27.9c-1.2-3-3.1-7.9,0-9.7
		c1.9-1,2.7-0.7,7.9,4.9c4.9,5.4,24.6,19.8,62,15.6C423,345,482,268.7,463.4,227.8c-13.1-28.7-88.6-41.7-183,5.4
		c-115.1,57.3-121.4,104.7-122.4,122.7c-2.8,49.4,60.9,75.5,95.5,112.3c0.9,0.9,1.6,1.8,2.4,2.7c10.4-3.9,24.9-6,47.8-6.4
		c55.7-1,87.3,35.7,85.9,68.7c-1,25.8-24.7,36.5-29.2,37.2c-3.1,0.4-4.9,0.6-5.4-1.9c-0.3-1.8,0.9-2.5,4.6-4.9
		c3.7-2.4,14.9-10.1,17-24.1c1.9-14-8.6-47.5-62.3-53.8c-18.9-2.2-34-0.7-46.8,2.7c9.4,20.6,11.2,61.8-10.3,93.7
		c-22.2,33.1-63.4,53.2-103.7,42c-13-3.7-32.6-30.5-15.6-67.9c16.1-35.4,84.6-70.2,94-74.8v-0.1c-31.7-27.4-109-64.2-119.9-120.6
		c-3.1-15.9,4.5-54.2,51.4-98.2c39.5-36.9,94.4-65.2,145.2-83.3c85.3-30.4,175.5-12.5,189.3,41.9
		C511.5,274.4,465.1,338.3,405.4,361.7z"/>
</g>
</svg>
