<?xml version="1.0" encoding="utf-8"?>
<!-- Generator: Adobe Illustrator 18.0.0, SVG Export Plug-In . SVG Version: 6.00 Build 0)  -->
<!DOCTYPE svg PUBLIC "-//W3C//DTD SVG 1.1//EN" "http://www.w3.org/Graphics/SVG/1.1/DTD/svg11.dtd">
<svg version="1.1" id="Your_Icon" xmlns="http://www.w3.org/2000/svg" xmlns:xlink="http://www.w3.org/1999/xlink" x="0px" y="0px"
	 viewBox="15.7 -2.6 71.1 74.1" enable-background="new 15.7 -2.6 71.1 74.1" xml:space="preserve">
<rect x="31.3" y="57" fill="#555555" width="37.7" height="2"/>
<rect x="31.3" y="42.2" fill="#555555" width="37.7" height="2"/>
<rect x="21.3" y="11.6" fill="#555555" width="4.4" height="4.4"/>
<rect x="21.3" y="26.3" fill="#555555" width="4.4" height="4.4"/>
<rect x="21.3" y="41" fill="#555555" width="4.4" height="4.4"/>
<rect x="21.3" y="55.8" fill="#555555" width="4.4" height="4.4"/>
<path fill="#555555" d="M74,38.4c-0.4,0-0.8,0-1.3-0.1V67H18V-0.4h54.8v13.2c0.4-0.1,0.8-0.1,1.3-0.1c0.3,0,0.7,0,1,0.1V-2.6H15.7
	v74.1H75V38.3C74.7,38.4,74.3,38.4,74,38.4z"/>
<path fill="#555555" d="M66.6,12.8H31.3v2h33.1C65.1,14.1,65.8,13.4,66.6,12.8z"/>
<path fill="#555555" d="M74,12.7c-7.1,0-12.8,5.8-12.8,12.8c0,7.1,5.8,12.8,12.8,12.8c7,0,12.8-5.7,12.8-12.8S81.1,12.7,74,12.7z
	 M72.3,31.4L72.3,31.4L72.3,31.4l-6.2-6.2l2.6-2.6l4.2,4.2l7.1-7.1l2,2L72.3,31.4z"/>
<path fill="#555555" d="M60.3,27.6h-29v2h29.4C60.6,28.9,60.4,28.2,60.3,27.6z"/>
</svg>
