<?xml version="1.0" encoding="utf-8"?>
<!-- Generator: Adobe Illustrator 18.0.0, SVG Export Plug-In . SVG Version: 6.00 Build 0)  -->
<!DOCTYPE svg PUBLIC "-//W3C//DTD SVG 1.1//EN" "http://www.w3.org/Graphics/SVG/1.1/DTD/svg11.dtd">
<svg version="1.1" id="Your_Icon" xmlns="http://www.w3.org/2000/svg" xmlns:xlink="http://www.w3.org/1999/xlink" x="0px" y="0px"
	 viewBox="25.4 -16.3 65.4 84.1" enable-background="new 25.4 -16.3 65.4 84.1" xml:space="preserve">
<path fill="#555555" d="M44.1-3h28.4c0.1,0.1,0.1,0.3,0.1,0.3s2.3,5,2.4,5.3c0.1,0.3,0,0.6-0.3,0.6c-0.1,0-32.8,0-32.9,0
	c-0.3,0-0.4-0.3-0.3-0.6C41.7,2.3,44-2.7,44-2.7S44-2.8,44.1-3z M81.6-3h-7.5c0.3,0.7,1,2.2,1.5,3.4h4.5v54.9H35.9V0.4h5
	c0.5-1.2,1.2-2.7,1.5-3.4h-8c-1.3,0-2.4,1.1-2.4,2.4v57.3c0,1.3,1.1,2.4,2.4,2.4h47.1c1.3,0,2.4-1.1,2.4-2.4V-0.6
	C84-1.9,82.9-3,81.6-3z M75.1,12.1h-18v1.5h18L75.1,12.1L75.1,12.1z M75.1,15.4h-18v1.5h18L75.1,15.4L75.1,15.4z M75.1,45h-18v1.5
	h18L75.1,45L75.1,45z M75.1,49.8h-18v-1.5h18L75.1,49.8L75.1,49.8z M49.9,43.4v6.9H43v-6.9H49.9 M51.3,41.9h-9.8v9.8h9.8V41.9
	L51.3,41.9z M75.1,28.5h-18V30h18L75.1,28.5L75.1,28.5z M75.1,33.3h-18v-1.5h18L75.1,33.3L75.1,33.3z M47.6,32.7l-3.4-3.4
	c-0.3-0.3-0.3-0.8,0-1s0.8-0.3,1,0l2.4,2.4l6.2-6.2c0.3-0.3,0.8-0.3,1,0c0.3,0.3,0.3,0.8,0,1L47.6,32.7z M49.9,31.5v2.3H43V27h6.9
	v0.4l1.5-1.5v-0.4h-9.8v9.8h9.8v-5.2L49.9,31.5z M74.7,3.2c-0.1,0-32.8,0-32.9,0c-0.3,0-0.4-0.3-0.3-0.6S44-2.7,44-2.7
	s0.7-1.5,1.5-1.5h6.5c0.9,0,1.7-0.8,1.7-1.7v-0.2c0-0.8,0.7-1.5,1.5-1.5h6.6c0.8,0,1.5,0.7,1.5,1.5v0.2c0,0.9,0.8,1.7,1.7,1.7h6.3
	c0.8,0,1.5,1.5,1.5,1.5s2.3,5,2.4,5.3C75.2,2.9,75,3.2,74.7,3.2z M57.3-5.6c0,0.6,0.5,1.1,1.1,1.1c0.6,0,1.1-0.5,1.1-1.1
	S59-6.7,58.4-6.7C57.8-6.7,57.3-6.2,57.3-5.6z M54.8,9.1c0.3-0.3,0.3-0.8,0-1c-0.3-0.3-0.8-0.3-1,0l-6.2,6.2l-2.4-2.4
	c-0.3-0.3-0.8-0.3-1,0c-0.3,0.3-0.3,0.8,0,1l3.4,3.4L54.8,9.1z M51.3,13.6v5.2h-9.8V9h9.8v0.4l-1.5,1.5v-0.4H43v6.9h6.9v-2.3
	L51.3,13.6z"/>
</svg>
