<?xml version="1.0" encoding="utf-8"?>
<!-- Generator: Adobe Illustrator 18.0.0, SVG Export Plug-In . SVG Version: 6.00 Build 0)  -->
<!DOCTYPE svg PUBLIC "-//W3C//DTD SVG 1.1//EN" "http://www.w3.org/Graphics/SVG/1.1/DTD/svg11.dtd">
<svg version="1.1" id="Layer_1" xmlns="http://www.w3.org/2000/svg" xmlns:xlink="http://www.w3.org/1999/xlink" x="0px" y="0px"
	 viewBox="0 0 203 205" enable-background="new 0 0 203 205" xml:space="preserve">
<g>
	<path fill="#555555" d="M93,202c-0.4-1.6-1.4-2.2-3-2c0-0.6,0-1.2,0-1.4c-1.6-1-2.8-1.8-4-2.6c-5.6-3-11.1-6-16.7-9
		c-5.9-3.2-6.1-3.6-8.3-10c-1-2.7-2.2-5.4-3.5-8c-2-4-3.7-8.2-5.1-12.3c-1.4-4.1-3.7-7.8-4.6-12.1c-0.7-3.5-3.4-6.5-4.7-10
		c-2.5-6.9-5.6-13.7-8.3-20.5c-1.6-3.9-3.3-7.9-5.1-11.9c-0.9-2-1.9-3.9-2.7-5.9c-0.7-1.9-1.4-3.8-1.8-5.7c-0.3-1.1-0.2-2.3-0.2-3.4
		c0-4.6,0-9.3,0-14c-3.4-2.1-6.7-4.2-10-6.2c-0.1-1.8-2.2-7.5-3.2-8.6c-0.2-0.2-0.6-0.2-0.8-0.4c-0.3-1.8-0.4-3.8-1.1-5.5
		c-1.4-3.4-3.6-6.5-4.7-10c-1.2-3.8-3.7-7.1-4.3-11.2c0-0.2-0.5-0.2-0.8-0.4c0-5,0-10,0-15c0.5,0,1-0.1,1.5,0
		c4.3,1.6,8.2,3.8,11.5,7c0,4.3,0,8.7,0,13c0.3,2.1,3.3,1.8,3.5,4c3.1-0.2,5.2,2.6,8.5,3.2c0-1.9,0-3.5,0-5.1
		c0.3-0.1,0.6-0.2,0.8-0.3c-0.3-0.2-0.6-0.4-0.8-0.7c0-1.7,0-3.3,0-5c1.3,0,2.7,0,4,0c2.6,0.3,4.8,1.2,5.4,4c1.2,0,2.2,0,3.3,0
		c0.6,0.9,1.3,1.9,1.9,2.8c2.4-0.6,7.1,2.2,8.9,5.1c0.8,0,1.6,0,2.5,0c-0.3,0.5-0.6,1-0.9,1.6c0.2,0.2,0.6,0.4,0.6,0.7
		c0.1,3.9,0.2,7.8,0.3,11.8c0.2,0.8-0.5,1.9,1,2c-0.2,1.9-0.1,4,1.1,5.5c3.4,4.6,3.5,10.6,6.9,15.1c0.3,3.8,2.9,6.8,3.9,10.3
		c2.3,7.9,5.5,15.4,8.7,22.8c2.8,6.5,5,13.2,8.1,19.6c1.2,2.4,2.5,5,3.2,7.6c1,3.4,3.6,9.9,5,11.9c0,0.5,0,1,0,1.5
		c2.5,1.5,5.2,2.6,7.6,4.3c1.7,1.2,3.8,2.9,6.4,2.2c3.1,3.4,7.1,5.4,11,7.5c0,9.2,0,18.5,0,27.8c0,0.1-0.1,0.3-0.2,0.4
		c-0.1,0.1-0.2,0.2-0.6,0.5c-3.6-2.2-7.3-4.4-11.2-6.7c0-1.1,0.1-2.4,0-3.7c0-0.3-0.6-0.5-1-0.8c0.1-3,1.7-5.9,1-9
		c-0.3-0.3-0.7-0.7-1-1c-2.4,1.3-4.9,2.7-7.3,4c-2,1.1-4.1,2.1-4.5,4.7c3.1,0.7,6,1.8,8.2,4.2c0.7,0.8,1.5,1.2,2.6,1
		c0.3,1,0.9,2,1,3.1c0.1,3,0,5.9,0.1,8.9c0,1,0.6,2,1,3.1c-0.3,0-0.7,0-1,0C98.5,203.4,96.3,201.4,93,202z M51,103
		c-0.8-1.7-3-0.9-4.2-2.5c-0.8-1.1-2.6-1.4-4-2.2c-1.4-0.8-2.8-1.8-4.7-3c0,4.9,0,9.1,0,13.3c0,0.1,0.5,0.2,0.8,0.3
		c0,0.9,0,1.9,0,2.2c4.2,2.2,7.8,4.1,11.5,6.1c4.6-2.1,8.7-4.5,13.2-7.5C59.1,107.3,55.1,105.1,51,103z M63.2,168.4
		c1.7-0.6,3.5-0.7,4.5-1.6c2.3-2.3,6-2.9,7.8-6.4c-1.1-0.1-1.9-0.2-3-0.4c-1.8-2.5-4.8-3.8-7.8-5c-0.7,0.7-1.1,1.1-1.4,1.4
		C63.2,160.3,63.2,164,63.2,168.4z"/>
	<path fill="#777777" d="M101,186c0.3,0.3,0.9,0.5,1,0.8c0.1,1.3,0,2.6,0,3.7c3.9,2.3,7.6,4.5,11.2,6.7c0.4-0.3,0.5-0.4,0.6-0.5
		c0.1-0.1,0.2-0.3,0.2-0.4c0-9.3,0-18.5,0-27.8c-3.9-2.2-7.9-4.1-11-7.5c0.4-0.5,0.6-1.2,1.1-1.5c3-1.7,6-3.2,8.9-4.8
		c0-0.7,0-1.2,0-1.7c0.5,0,1,0,1.5,0c0.5-1.3,1-2.6,1.5-3.9c1.4-4.1,4-7.7,4.1-12.3c0-0.6,1.2-1.2,1.9-1.9c1.2-0.7,2.4-1.5,3.6-2.1
		c3-1.6,5.7-3.7,8.8-5c1.8-0.8,3-2.6,4.6-3.9c0-9.6,0.1-19.3,0-28.9c0-4.5,2-8.3,3.6-12.3c3.2,1.6,6.1,3,9.3,4.5c0-4.7,0-8.9,0-12.8
		c-0.7-0.6-1.3-1.1-1.8-1.5c2.7,0.3,4.9-0.4,6.9-2.3c0.6-0.6,1.5-1.1,2.4-1.3c0.4-0.1,0.9,0.4,1,0.4c1.2-1.2,2.4-2.4,3.7-3.7
		c0,0,0-0.5,0-1c1.7-0.2,1-1.5,1-2.3c0.1-8.6,0-17.2,0-25.7c1-0.7,2.1-1.4,3.1-2c3.3-2,6.6-4,9.9-6c1.6,1.6,3.9,2.2,5.8,3.4
		c1.9,1.3,3.2,3.5,6.2,3.7c0-4.5,0-8.8,0-13c0.3-0.5,0.6-1.2,1-1.5c1.9-1.2,3.8-2.7,5.9-3.4c2.2-0.8,3.5-3.1,6.1-3.1
		c0,5.3,0,10.7,0,16c-0.7,0.6-1.8,1.2-1.9,1.9c-0.6,4.4-3.3,8-4.7,12.1c-1.5,4.5-3.7,8.8-5.4,13.2c-1.7,4.4-3.7,8.8-5.2,13.3
		c-1.1,3.5-3.4,6.6-4.8,10c-1.8,4.4-3.4,8.9-5,13.4c-1,2.6-2.1,5.2-3.3,7.6c-3.9,8-6.8,16.5-10.2,24.7c-2.3,5.7-5.6,11.1-6.5,17.3
		c-2.9,3-2.5,7.8-5.6,10.6c-0.2,3.2-2.2,5.8-3.2,8.7c-1.6,4.7-3.8,9.1-5.3,13.8c-0.1,0.3-0.7,0.5-0.7,0.7c-0.1,5.1-4.3,6.7-7.7,8.6
		c-7.2,4-14.5,7.8-21.3,12.4c-3.2,2.1-6.7,3.8-10.1,5.7c-0.3-1-0.9-2-1-3.1c-0.1-3,0-5.9-0.1-8.9c0-1-0.6-2-1-3.1
		c0.3-0.4,0.9-0.7,1-1.2C101.1,187.9,101,186.9,101,186z M128,162c-0.3,0.3-1,0.5-1,0.8c-0.1,4.4,0,8.8,0,13.2
		c3.3-1.8,6.2-3.3,9.1-5c1.1-0.7,2-2,2.9-3c0.2-2.4-0.7-4.9,0.6-6.6c-0.3-2.7-0.6-5-1-7.7c-3.6,2.4-7.1,4.7-10.7,7.1
		C128,161,128,161.5,128,162z M151.3,102.8c5.1,1.9,8.5,5.5,13.5,6.1c0-4.3,0-8.5,0-12.8c-0.5-0.1-1.1-0.3-1.4-0.1
		C159.6,98.2,155.9,100.4,151.3,102.8z"/>
	<path fill="#999999" d="M28,0c-0.1,2.4,1.2,3.2,3.7,3c0.8,0.9,1.7,2.1,2.7,3.2C40.7,8.5,45.9,12.4,52,16c0.7,0,2.1,0,3.4,0
		c2,3.6,6.5,4.3,9.4,7.8c2.1-0.6,4.1,1.9,7.3,2.8c0.6,0.8,1.8,2.1,2.9,3.5c-1.5,0.7-3.4,1.1-4.5,2.2c-3.7,3.5-8.5,5.1-12.8,7.6
		c-2,1.2-3.9,2.2-5.2,4.2c-0.1,0.2-0.9,0-1.4,0c-0.8,0-1.6,0-2.5,0c-1.8-3-6.5-5.7-8.9-5.1C39,37.9,38.3,37,37.7,36
		c-1.1,0-2.1,0-3.3,0c-0.6-2.8-2.8-3.8-5.4-4c-0.5-0.6-0.8-1.6-1.4-1.8c-2.7-1.1-5.1-2.8-7.6-4.1c-2.2-1.2-4.2-3.1-7-3.1
		c-3.3-3.2-7.3-5.4-11.5-7c-0.4-0.2-1,0-1.5,0c0-1,0-2,0-3c0.5,0,1.1,0.2,1.5,0c2.6-1.2,5.7-1.5,7.9-3.8c0.4-0.5,0.9-1,1.5-1.1
		c3.9-0.9,6.6-3.9,10.1-5.5C22,2.1,22.2,1.1,22,0C24,0,26,0,28,0z"/>
	<path fill="#999999" d="M178,29c-3.3,2-6.6,4-9.9,6c-1.1,0.6-2.1,1.3-3.1,2c-3.2-1.9-6.4-3.8-10.1-6c-0.6,0-1.8,0-2.9,0
		c-0.2-0.4-0.4-0.7-0.6-1.1c-1.7,0.8-3.2,1.4-4.7,2.1c-0.7,0.4-1.1,1.3-1.8,1.5c-2.3,0.8-4.1,2.9-6.9,2.4c-0.3-0.1-0.6-0.2-0.8-0.4
		C134,33.3,131,30.8,127,30c0.6-0.7,1.2-1.5,1.9-2c3-2,6.7-2.8,9.2-5.6c2.1,0,3.8-1.2,4.9-2.5c1.5-1.9,4.2-1.8,5.5-3.8
		c1.1-0.1,2.2-0.1,3.1-0.1c2.9-4.1,7.6-5.1,11.3-7.9c1.6-0.1,3.6-0.4,5.2,1c0,0.5,0,1,0,1.8c0.7,0.1,1.5,0.2,2.6,0.3
		c0.8,0.9,1.7,2,2.5,2.9c1.6,0,2.8,0,4,0c0.8,0,1.9,0.3,2.5-0.1c3.1-1.9,6-4,9.1-5.9c0.4-0.2,1,0,1.5,0c0.2,0.3,0.3,0.6,0.5,1
		c0.4-0.4,0.6-0.6,0.9-0.9c2.4,1.6,4.8,3.2,7.6,5c1.1,0,2.5,0,4,0c0,0.7,0,1.3,0,2c-2.5,0-3.9,2.3-6.1,3.1c-2.1,0.8-4,2.2-5.9,3.4
		c-0.5,0.3-0.7,1-1,1.5c-0.6,0.1-1.3,0.1-1.8,0.4C184.8,25.2,181.4,27.1,178,29z"/>
	<path fill="#F4F8F9" d="M203,13c-1.5,0-2.9,0-4,0c-2.7-1.8-5.1-3.4-7.6-5c-0.3,0.3-0.5,0.5-0.9,0.9c-0.2-0.4-0.3-0.7-0.5-1
		c-0.1-0.3-0.1-0.7-0.4-0.8c-2.4-1.4-4.8-2.8-7.2-4.2c-1.3-0.7-2.7-1.4-4.1-2c-0.3-0.1-0.9,0.2-1.3,0.3c0,0.5-0.2,0.9,0,1.1
		c0.2,0.4,0.6,0.7,0.9,1.1c-1,1.9-1,1.9-1,5.5c-0.3-0.4-0.9-0.8-1-1.2c-0.1-2.6,0-5.2,0-7.8c9,0,18,0,27,0C203,4.3,203,8.7,203,13z"
		/>
	<path fill="#FCFDFD" d="M22,0c0.2,1.1,0,2.1-1.1,2.5C17.5,4.1,14.7,7.1,10.8,8c-0.6,0.1-1.1,0.7-1.5,1.1c-2.1,2.3-5.2,2.6-7.9,3.8
		c-0.4,0.2-1,0-1.5,0C0,8.7,0,4.3,0,0C7.3,0,14.7,0,22,0z"/>
	<path fill="#777777" d="M51,44c0.5,0,1.3,0.2,1.4,0c1.3-2,3.2-3,5.2-4.2c4.3-2.5,9.1-4.1,12.8-7.6c1.2-1.1,3-1.5,4.5-2.2
		c0.2,0,0.5,0,0.5,0c0.2,2.9,0.4,5.8,0.5,8.8c0,0.7-0.6,1.4-1,2.2c1.6,4.4,3.2,8.8,5,13.2c1.7,4.1,2.8,8.4,4.9,12.4
		c2.2,4.2,3.6,8.8,5.1,13.3c1.8,5.2,4,10.3,5.9,15.5c1.4,3.7,2.9,7.5,4,11.3c0.4,1.2,0.9,2,2.1,2.3c-1.2,1.3-1,3-1,4.6
		c0,11.1,0,22.3,0,33.4c-0.3,0-0.8-0.1-1,0c-2.8,2.6-6.9,3.1-9.6,5.9c-0.2,0.2-1,0-1.5,0c-1.5-2-4.1-8.5-5-11.9
		c-0.8-2.7-2.1-5.2-3.2-7.6c-3.1-6.4-5.3-13.1-8.1-19.6c-3.2-7.5-6.4-15-8.7-22.8c-1-3.5-3.6-6.5-3.9-10.3
		c-3.4-4.5-3.5-10.6-6.9-15.1C51.9,64,51.8,61.9,52,60c0.7,0.2,1.6,0.3,2.2,0.7c2.6,1.9,5.5,3.1,8.8,4.6c0-2.1,0-3.7,0-5.3
		c0.3,0.3,0.9,0.5,1,0.8c0.1,2,0,3.9,0,5.5c3.1,1.9,5.9,3.7,8.9,5.6c0.7,0,1.8,0,3,0c0-4.6,0-9,0-13.2c-4-2.2-7.8-4.3-11.9-6.6
		c0,1.5,0.1,2.8,0,4.1c0,0.3-0.6,0.5-1,0.8c-0.3-1.7,0.5-3.5-0.6-5.3c-3.9,2.2-7.7,4.2-11.4,6.3c-0.1-3.9-0.2-7.8-0.3-11.8
		c0-0.2-0.4-0.5-0.6-0.7C50.4,45,50.7,44.5,51,44z"/>
	<path fill="#999999" d="M51,103c4.1,2.1,8.1,4.3,12.7,6.7c-4.5,3-8.7,5.5-13.2,7.5c-3.7-1.9-7.3-3.9-11.5-6.1c0-0.3,0-1.2,0-2.2
		c2.1-1.3,4.4-2.2,6.5-3.7C47,104.2,48.8,102.8,51,103z"/>
	<path fill="#999999" d="M89,153c0.5,0,1.2,0.2,1.5,0c2.6-2.9,6.7-3.4,9.6-5.9c0.2-0.2,0.6,0,1,0c0.6,0.1,1.3,0.1,1.8,0.4
		c3.4,1.8,6.8,3.7,10.2,5.6c0,0.5,0,1,0,1.7c-2.9,1.6-6,3.1-8.9,4.8c-0.5,0.3-0.7,1-1.1,1.5c-2.6,0.7-4.7-1-6.4-2.2
		c-2.4-1.7-5.1-2.8-7.6-4.3C89,154,89,153.5,89,153z"/>
	<path fill="#999999" d="M101,186c0,0.9,0.1,1.9,0,2.8c-0.1,0.4-0.6,0.8-1,1.2c-1.1,0.2-1.8-0.2-2.6-1c-2.2-2.4-5.1-3.5-8.2-4.2
		c0.4-2.6,2.4-3.6,4.5-4.7c2.4-1.3,4.9-2.7,7.3-4c0.3,0.3,0.7,0.7,1,1C102.7,180.1,101.1,183,101,186z"/>
	<path fill="#777777" d="M63.2,168.4c0-4.3,0-8.1,0-12c0.3-0.3,0.8-0.8,1.4-1.4c3,1.2,5.9,2.5,7.8,5c1.1,0.1,1.9,0.2,3,0.4
		c-1.8,3.6-5.5,4.1-7.8,6.4C66.7,167.7,64.9,167.8,63.2,168.4z"/>
	<path fill="#777777" d="M13,23c2.8,0,4.8,1.9,7,3.1c2.5,1.3,4.9,3,7.6,4.1c0.6,0.2,0.9,1.2,1.4,1.8c-1.3,0-2.7,0-4,0
		c-0.1-0.7-0.2-1.4-0.4-2.4c-4.1,2.3-7.9,4.3-11.6,6.4C13,31.7,13,27.3,13,23z"/>
	<path fill="#999999" d="M63,60c0,1.6,0,3.2,0,5.3c-3.3-1.5-6.3-2.7-8.8-4.6c-0.6-0.4-1.4-0.5-2.2-0.7c-1.5-0.1-0.8-1.2-1-2
		c3.7-2.1,7.5-4.1,11.4-6.3c1.1,1.8,0.3,3.6,0.6,5.3C63,58,63,59,63,60z"/>
	<path fill="#999999" d="M13,36c3.7-2.1,7.4-4.1,11.6-6.4c0.2,1,0.3,1.7,0.4,2.4c0,1.7,0,3.3,0,5c0,0.3,0,0.7,0,1c0,1.6,0,3.3,0,5.1
		c-3.3-0.6-5.4-3.4-8.5-3.2C16.3,37.8,13.3,38.1,13,36z"/>
	<path fill="#777777" d="M51,103c-2.2-0.2-4,1.2-5.5,2.3c-2.1,1.5-4.3,2.5-6.5,3.7c-0.3-0.1-0.8-0.2-0.8-0.3c0-4.2,0-8.4,0-13.3
		c1.9,1.2,3.3,2.1,4.7,3c1.3,0.8,3.2,1.1,4,2.2C48,102.1,50.2,101.3,51,103z"/>
	<path fill="#62B0E0" d="M25,38c0-0.3,0-0.7,0-1c0.3,0.2,0.6,0.4,0.8,0.7C25.6,37.8,25.3,37.9,25,38z"/>
	<path fill="#62B0E0" d="M102,177c-0.3-0.3-0.7-0.7-1-1C101.3,176.3,101.7,176.7,102,177z"/>
	<path fill="#555555" d="M113,153c-3.4-1.9-6.8-3.8-10.2-5.6c-0.5-0.3-1.2-0.3-1.8-0.4c0-11.1,0-22.3,0-33.4c0-1.6-0.1-3.2,1-4.6
		c1-2.9,2-5.8,2.8-8.3c3.2-1.8,6-3.4,9-5.2c0-6.1,0-12.6,0-17.8c1.6-4.1,3.1-7,4-10.1c1.4-4.9,3.6-9.5,5.4-14.2
		c1.3-3.3,2-6.8,3.6-10c0.7-1.3,0.1-3.3,0.1-4.9c0-2.8,0-5.6,0-8.5c4,0.8,7,3.3,10.2,5.6c0.2,0.2,0.6,0.2,0.8,0.4c0.3,1,0.9,2,1,3.1
		c0.1,2.5,0,5,0.1,7.4c0,0.7,0.5,1.4,0.7,1.9c-0.3,0.8-0.5,1.6-0.8,2.5c1.1,0,1.8,0,1.9,0c4-2.6,7.6-5,11.1-7.3c0-4.4,0-8.5,0-12.6
		c1.2,0,2.3,0,2.9,0c3.6,2.2,6.9,4.1,10.1,6c0,8.6,0,17.2,0,25.7c0,0.8,0.7,2.1-1,2.3c-4.2-0.9-7.2-4-11.6-6.3
		c-4.3,1.3-8,4.9-13.3,7.2c2.5,1.5,4.7,2.1,5.8,4c2.5-0.3,3.6,1.6,5.1,3c0.5,0.4,1.1,0.9,1.8,1.5c0,3.9,0,8.1,0,12.8
		c-3.2-1.6-6.1-3-9.3-4.5c-1.6,4-3.6,7.8-3.6,12.3c0.1,9.6,0,19.3,0,28.9c-0.5,0-1.3,0.2-1.4,0c-1.7-2.8-5.3-2.8-7.4-4.9
		c-0.3-0.2-1,0-1.5,0c-0.9,0.9-1.9,1.7-2.8,2.6c0.5,2.2-0.6,3.8-1.4,5.5c-1.2,2.5-3.1,4.8-2.5,7.9c-0.7,0.6-1.9,1.2-1.9,1.9
		c-0.1,4.6-2.7,8.2-4.1,12.3c-0.5,1.3-1,2.6-1.5,3.9C114,153,113.5,153,113,153z"/>
	<path fill="#555555" d="M177,9c0-3.6,0-3.6,1-5.5c-0.3-0.4-0.7-0.7-0.9-1.1c-0.1-0.2,0-0.6,0-1.1c0.4-0.1,0.9-0.4,1.3-0.3
		c1.4,0.6,2.8,1.2,4.1,2c2.4,1.3,4.8,2.8,7.2,4.2c0.2,0.1,0.2,0.5,0.4,0.8c-0.5,0-1.1-0.2-1.5,0c-3,1.9-6,4-9.1,5.9
		c-0.6,0.4-1.6,0.1-2.5,0.1c0.3-0.5,0.6-1,0.7-1.3c-0.3-1-0.5-1.9-0.7-2.7C177,9.7,177,9.3,177,9z"/>
	<path fill="#F4F8F9" d="M177,10c0.2,0.9,0.5,1.7,0.7,2.7c-0.1,0.2-0.4,0.8-0.7,1.3c-1.2,0-2.3,0-4,0c-0.7-0.9-1.7-2-2.5-2.9
		c-1.1-0.1-1.8-0.2-2.6-0.3c0-0.8,0-1.3,0-1.8c1.1,0,2.3,0,3.4,0c1.1,1.1,2.3,2.1,3.6,3.3C175.8,11.4,176.4,10.7,177,10z"/>
	<path fill="#999999" d="M150,73c-1.5-1.4-2.6-3.3-5.1-3c-1.1-2-3.3-2.6-5.8-4c5.3-2.3,9-5.9,13.3-7.2c4.4,2.2,7.4,5.4,11.6,6.3
		c0,0.5,0,1,0,1c-1.4,1.4-2.5,2.5-3.7,3.7c-0.1,0-0.7-0.5-1-0.4c-0.8,0.3-1.7,0.7-2.4,1.3C154.9,72.6,152.7,73.3,150,73z"/>
	<path fill="#999999" d="M122,135c-0.6-3.1,1.3-5.4,2.5-7.9c0.8-1.7,2-3.3,1.4-5.5c0.9-0.8,1.8-1.7,2.8-2.6c0.5,0,1.2-0.2,1.5,0
		c2.2,2.1,5.7,2.1,7.4,4.9c0.1,0.2,0.9,0,1.4,0c-1.5,1.3-2.8,3.1-4.6,3.9c-3.2,1.4-5.8,3.5-8.8,5C124.4,133.5,123.2,134.3,122,135z"
		/>
	<path fill="#555555" d="M151.3,102.8c4.6-2.4,8.3-4.6,12.1-6.8c0.3-0.2,0.9,0.1,1.4,0.1c0,4.3,0,8.5,0,12.8
		C159.8,108.3,156.4,104.7,151.3,102.8z"/>
	<path fill="#999999" d="M139,168c-1,1-1.8,2.2-2.9,3c-2.8,1.7-5.8,3.2-9.1,5c0-4.4,0-8.8,0-13.2c0-0.3,0.6-0.5,1-0.8
		c3.4,1.6,6.7,3.4,9.5,6C137.8,168.2,138.5,168,139,168z"/>
	<path fill="#555555" d="M139,168c-0.5,0-1.2,0.2-1.5,0c-2.8-2.6-6.1-4.3-9.5-6c0-0.5,0-1,0-1.2c3.6-2.4,7.1-4.7,10.7-7.1
		c0.3,2.6,0.6,4.9,1,7.7C138.3,163.1,139.2,165.6,139,168z"/>
	<path fill="#555555" d="M178,29c3.4-1.9,6.8-3.8,10.2-5.6c0.5-0.3,1.2-0.3,1.8-0.4c0,4.3,0,8.6,0,13c-3-0.1-4.3-2.4-6.2-3.7
		C181.9,31.2,179.6,30.6,178,29z"/>
	<path fill="#777777" d="M152,31c0,4.1,0,8.3,0,12.6c-3.5,2.3-7.2,4.7-11.1,7.3c-0.2,0-0.8,0-1.9,0c0.3-1,0.6-1.7,0.8-2.5
		c-0.2-0.5-0.7-1.2-0.7-1.9c-0.1-2.5,0.1-5-0.1-7.4c-0.1-1-0.6-2-1-3.1c2.7,0.4,4.6-1.6,6.9-2.4c0.7-0.3,1.1-1.2,1.8-1.5
		c1.5-0.8,3-1.4,4.7-2.1C151.6,30.3,151.8,30.6,152,31z"/>
	<path fill="#555555" d="M63,60c0-1,0-2,0-3c0.3-0.3,0.9-0.5,1-0.8c0.1-1.3,0-2.6,0-4.1c4.1,2.3,7.9,4.4,11.9,6.6
		c0,4.2,0,8.6,0,13.2c-1.2,0-2.3,0-3,0c-3-1.9-5.8-3.6-8.9-5.6c0-1.5,0-3.5,0-5.5C63.9,60.5,63.3,60.3,63,60z"/>
</g>
</svg>
